%TF.GenerationSoftware,KiCad,Pcbnew,9.0.2+dfsg-1*%
%TF.CreationDate,2025-11-16T22:45:13+01:00*%
%TF.ProjectId,LuMo_bottom,4c754d6f-5f62-46f7-9474-6f6d2e6b6963,rev?*%
%TF.SameCoordinates,Original*%
%TF.FileFunction,AssemblyDrawing,Top*%
%FSLAX46Y46*%
G04 Gerber Fmt 4.6, Leading zero omitted, Abs format (unit mm)*
G04 Created by KiCad (PCBNEW 9.0.2+dfsg-1) date 2025-11-16 22:45:13*
%MOMM*%
%LPD*%
G01*
G04 APERTURE LIST*
%ADD10C,0.150000*%
G04 APERTURE END LIST*
D10*
X169238095Y-130834819D02*
X169238095Y-129834819D01*
X169238095Y-130311009D02*
X169809523Y-130311009D01*
X169809523Y-130834819D02*
X169809523Y-129834819D01*
X170190476Y-129834819D02*
X170809523Y-129834819D01*
X170809523Y-129834819D02*
X170476190Y-130215771D01*
X170476190Y-130215771D02*
X170619047Y-130215771D01*
X170619047Y-130215771D02*
X170714285Y-130263390D01*
X170714285Y-130263390D02*
X170761904Y-130311009D01*
X170761904Y-130311009D02*
X170809523Y-130406247D01*
X170809523Y-130406247D02*
X170809523Y-130644342D01*
X170809523Y-130644342D02*
X170761904Y-130739580D01*
X170761904Y-130739580D02*
X170714285Y-130787200D01*
X170714285Y-130787200D02*
X170619047Y-130834819D01*
X170619047Y-130834819D02*
X170333333Y-130834819D01*
X170333333Y-130834819D02*
X170238095Y-130787200D01*
X170238095Y-130787200D02*
X170190476Y-130739580D01*
X83538095Y-40054819D02*
X83538095Y-39054819D01*
X83538095Y-39531009D02*
X84109523Y-39531009D01*
X84109523Y-40054819D02*
X84109523Y-39054819D01*
X85014285Y-39054819D02*
X84823809Y-39054819D01*
X84823809Y-39054819D02*
X84728571Y-39102438D01*
X84728571Y-39102438D02*
X84680952Y-39150057D01*
X84680952Y-39150057D02*
X84585714Y-39292914D01*
X84585714Y-39292914D02*
X84538095Y-39483390D01*
X84538095Y-39483390D02*
X84538095Y-39864342D01*
X84538095Y-39864342D02*
X84585714Y-39959580D01*
X84585714Y-39959580D02*
X84633333Y-40007200D01*
X84633333Y-40007200D02*
X84728571Y-40054819D01*
X84728571Y-40054819D02*
X84919047Y-40054819D01*
X84919047Y-40054819D02*
X85014285Y-40007200D01*
X85014285Y-40007200D02*
X85061904Y-39959580D01*
X85061904Y-39959580D02*
X85109523Y-39864342D01*
X85109523Y-39864342D02*
X85109523Y-39626247D01*
X85109523Y-39626247D02*
X85061904Y-39531009D01*
X85061904Y-39531009D02*
X85014285Y-39483390D01*
X85014285Y-39483390D02*
X84919047Y-39435771D01*
X84919047Y-39435771D02*
X84728571Y-39435771D01*
X84728571Y-39435771D02*
X84633333Y-39483390D01*
X84633333Y-39483390D02*
X84585714Y-39531009D01*
X84585714Y-39531009D02*
X84538095Y-39626247D01*
X70738095Y-138534819D02*
X70738095Y-137534819D01*
X70738095Y-138011009D02*
X71309523Y-138011009D01*
X71309523Y-138534819D02*
X71309523Y-137534819D01*
X72214285Y-137868152D02*
X72214285Y-138534819D01*
X71976190Y-137487200D02*
X71738095Y-138201485D01*
X71738095Y-138201485D02*
X72357142Y-138201485D01*
M02*
