M48
; DRILL file {KiCad 9.0.1} date 2025-08-18T00:19:28+0200
; FORMAT={-:-/ absolute / metric / decimal}
; #@! TF.CreationDate,2025-08-18T00:19:28+02:00
; #@! TF.GenerationSoftware,Kicad,Pcbnew,9.0.1
; #@! TF.FileFunction,Plated,1,2,PTH
FMAT,2
METRIC
; #@! TA.AperFunction,Plated,PTH,ViaDrill
T1C0.300
; #@! TA.AperFunction,Plated,PTH,ComponentDrill
T2C0.300
; #@! TA.AperFunction,Plated,PTH,ComponentDrill
T3C0.800
; #@! TA.AperFunction,Plated,PTH,ComponentDrill
T4C1.000
; #@! TA.AperFunction,Plated,PTH,ComponentDrill
T5C1.092
; #@! TA.AperFunction,Plated,PTH,ComponentDrill
T6C1.100
; #@! TA.AperFunction,Plated,PTH,ComponentDrill
T7C4.100
%
G90
G05
T1
X39.2Y-44.8
X39.44Y-43.64
X39.645Y-60.0
X39.645Y-78.942
X39.645Y-97.942
X39.645Y-117.442
X45.4Y-60.0
X46.61Y-45.9
X51.3Y-30.6
X55.5Y-49.7
X56.4Y-46.9
X57.126Y-69.526
X58.695Y-74.0
X58.695Y-93.0
X58.695Y-112.5
X58.7Y-55.0
X59.3Y-44.3
X61.85Y-44.3
X64.39Y-44.3
X66.93Y-44.3
X67.6Y-34.3
X68.8Y-34.315
X69.8Y-34.3
X73.4Y-40.5
X74.9Y-40.4
X76.6Y-41.4
X77.745Y-47.4
X77.745Y-66.5
X77.745Y-85.5
X77.745Y-104.5
X77.745Y-126.5
X96.795Y-48.5
X96.795Y-63.5
X96.795Y-82.5
X96.795Y-101.5
X96.795Y-123.5
X98.6Y-36.6
X101.7Y-35.4
X102.8Y-39.7
X115.845Y-46.0
X115.845Y-51.5
X115.845Y-66.5
X115.845Y-85.5
X115.845Y-104.5
X115.845Y-123.5
X134.895Y-50.0
X134.895Y-69.5
X134.895Y-88.0
X134.895Y-107.5
X136.669Y-126.5
X152.25Y-48.75
X153.945Y-69.0
X153.945Y-88.0
X153.945Y-107.0
X156.9Y-128.1
T2
X49.95Y-72.282
X49.95Y-91.332
X49.95Y-110.382
X50.2Y-129.433
X53.5Y-72.282
X53.5Y-91.332
X53.5Y-110.382
X53.75Y-129.433
X69.0Y-67.52
X69.0Y-86.57
X69.0Y-105.62
X69.0Y-124.67
X72.55Y-67.52
X72.55Y-86.57
X72.55Y-105.62
X72.55Y-124.67
X88.05Y-59.9
X88.05Y-78.95
X88.05Y-98.0
X88.05Y-117.05
X88.1Y-138.957
X91.6Y-59.9
X91.6Y-78.95
X91.6Y-98.0
X91.6Y-117.05
X91.65Y-138.957
X107.1Y-57.042
X107.1Y-76.093
X107.1Y-95.142
X107.1Y-114.192
X107.15Y-136.1
X110.65Y-57.042
X110.65Y-76.093
X110.65Y-95.142
X110.65Y-114.192
X110.7Y-136.1
X126.15Y-59.9
X126.15Y-78.95
X126.15Y-98.0
X126.15Y-117.05
X126.2Y-136.1
X129.7Y-59.9
X129.7Y-78.95
X129.7Y-98.0
X129.7Y-117.05
X129.75Y-136.1
X145.2Y-62.758
X145.2Y-81.807
X145.2Y-100.858
X145.2Y-119.907
X145.285Y-141.041
X148.715Y-141.959
X148.75Y-62.758
X148.75Y-81.807
X148.75Y-100.858
X148.75Y-119.907
X160.0Y-147.0
X163.074Y-148.775
X164.25Y-81.807
X164.25Y-100.858
X164.25Y-119.907
X167.8Y-81.807
X167.8Y-100.858
X167.8Y-119.907
T3
X98.6Y-25.56
X98.6Y-28.1
X98.6Y-30.64
X160.811Y-53.492
X161.663Y-56.368
T4
X73.3Y-26.46
X73.3Y-29.0
X73.3Y-31.54
X73.3Y-34.08
X73.3Y-36.62
X76.875Y-26.39
X76.875Y-28.93
X76.875Y-31.47
X76.875Y-34.01
X76.875Y-36.55
T5
X38.99Y-25.88
X38.99Y-41.12
X41.53Y-25.88
X41.53Y-41.12
X44.07Y-25.88
X44.07Y-41.12
X46.61Y-25.88
X46.61Y-41.12
X49.15Y-25.88
X49.15Y-41.12
X51.69Y-25.88
X51.69Y-41.12
X54.23Y-25.88
X54.23Y-41.12
X56.77Y-25.88
X56.77Y-41.12
X59.31Y-25.88
X59.31Y-41.12
X61.85Y-25.88
X61.85Y-41.12
X64.39Y-25.88
X64.39Y-33.5
X64.39Y-36.04
X64.39Y-38.58
X64.39Y-41.12
X66.93Y-25.88
X66.93Y-41.12
X69.47Y-25.88
X69.47Y-41.12
T6
X87.0Y-25.5
X87.0Y-30.0
X93.5Y-25.5
X93.5Y-30.0
T7
X41.5Y-50.0
X71.5Y-133.0
X82.1Y-28.3
X85.2Y-36.4
X157.3Y-59.1
X170.0Y-125.3
M30
