%TF.GenerationSoftware,KiCad,Pcbnew,9.0.2+dfsg-1*%
%TF.CreationDate,2025-11-17T22:50:06+01:00*%
%TF.ProjectId,LuMo,4c754d6f-2e6b-4696-9361-645f70636258,rev?*%
%TF.SameCoordinates,Original*%
%TF.FileFunction,Soldermask,Bot*%
%TF.FilePolarity,Negative*%
%FSLAX46Y46*%
G04 Gerber Fmt 4.6, Leading zero omitted, Abs format (unit mm)*
G04 Created by KiCad (PCBNEW 9.0.2+dfsg-1) date 2025-11-17 22:50:06*
%MOMM*%
%LPD*%
G01*
G04 APERTURE LIST*
G04 Aperture macros list*
%AMRoundRect*
0 Rectangle with rounded corners*
0 $1 Rounding radius*
0 $2 $3 $4 $5 $6 $7 $8 $9 X,Y pos of 4 corners*
0 Add a 4 corners polygon primitive as box body*
4,1,4,$2,$3,$4,$5,$6,$7,$8,$9,$2,$3,0*
0 Add four circle primitives for the rounded corners*
1,1,$1+$1,$2,$3*
1,1,$1+$1,$4,$5*
1,1,$1+$1,$6,$7*
1,1,$1+$1,$8,$9*
0 Add four rect primitives between the rounded corners*
20,1,$1+$1,$2,$3,$4,$5,0*
20,1,$1+$1,$4,$5,$6,$7,0*
20,1,$1+$1,$6,$7,$8,$9,0*
20,1,$1+$1,$8,$9,$2,$3,0*%
%AMRotRect*
0 Rectangle, with rotation*
0 The origin of the aperture is its center*
0 $1 length*
0 $2 width*
0 $3 Rotation angle, in degrees counterclockwise*
0 Add horizontal line*
21,1,$1,$2,0,0,$3*%
%AMOutline5P*
0 Free polygon, 5 corners , with rotation*
0 The origin of the aperture is its center*
0 number of corners: always 5*
0 $1 to $10 corner X, Y*
0 $11 Rotation angle, in degrees counterclockwise*
0 create outline with 5 corners*
4,1,5,$1,$2,$3,$4,$5,$6,$7,$8,$9,$10,$1,$2,$11*%
%AMOutline6P*
0 Free polygon, 6 corners , with rotation*
0 The origin of the aperture is its center*
0 number of corners: always 6*
0 $1 to $12 corner X, Y*
0 $13 Rotation angle, in degrees counterclockwise*
0 create outline with 6 corners*
4,1,6,$1,$2,$3,$4,$5,$6,$7,$8,$9,$10,$11,$12,$1,$2,$13*%
%AMOutline7P*
0 Free polygon, 7 corners , with rotation*
0 The origin of the aperture is its center*
0 number of corners: always 7*
0 $1 to $14 corner X, Y*
0 $15 Rotation angle, in degrees counterclockwise*
0 create outline with 7 corners*
4,1,7,$1,$2,$3,$4,$5,$6,$7,$8,$9,$10,$11,$12,$13,$14,$1,$2,$15*%
%AMOutline8P*
0 Free polygon, 8 corners , with rotation*
0 The origin of the aperture is its center*
0 number of corners: always 8*
0 $1 to $16 corner X, Y*
0 $17 Rotation angle, in degrees counterclockwise*
0 create outline with 8 corners*
4,1,8,$1,$2,$3,$4,$5,$6,$7,$8,$9,$10,$11,$12,$13,$14,$15,$16,$1,$2,$17*%
G04 Aperture macros list end*
%ADD10C,1.752600*%
%ADD11C,6.000000*%
%ADD12C,1.701800*%
%ADD13C,0.990600*%
%ADD14C,3.000000*%
%ADD15C,3.429000*%
%ADD16Outline5P,-1.300000X1.300000X0.130000X1.300000X1.300000X0.130000X1.300000X-1.300000X-1.300000X-1.300000X345.000000*%
%ADD17RotRect,2.600000X2.600000X345.000000*%
%ADD18Outline5P,-1.300000X1.300000X0.130000X1.300000X1.300000X0.130000X1.300000X-1.300000X-1.300000X-1.300000X0.000000*%
%ADD19R,2.600000X2.600000*%
%ADD20R,1.000000X1.000000*%
%ADD21C,1.000000*%
%ADD22R,1.700000X1.700000*%
%ADD23C,1.700000*%
%ADD24Outline5P,-1.300000X1.300000X0.130000X1.300000X1.300000X0.130000X1.300000X-1.300000X-1.300000X-1.300000X330.000000*%
%ADD25RotRect,2.600000X2.600000X330.000000*%
%ADD26RoundRect,0.250000X-0.745701X0.404883X-0.404883X-0.745701X0.745701X-0.404883X0.404883X0.745701X0*%
%ADD27C,2.000000*%
%ADD28R,1.500000X1.500000*%
%ADD29C,1.600000*%
%ADD30R,2.000000X2.000000*%
%ADD31R,1.875000X0.950000*%
%ADD32R,1.875000X0.975000*%
%ADD33RotRect,2.000000X2.000000X150.000000*%
%ADD34RotRect,1.875000X0.950000X150.000000*%
%ADD35RotRect,1.875000X0.975000X150.000000*%
%ADD36RotRect,2.000000X2.000000X165.000000*%
%ADD37RotRect,1.875000X0.950000X165.000000*%
%ADD38RotRect,1.875000X0.975000X165.000000*%
G04 APERTURE END LIST*
D10*
%TO.C,U1*%
X38990000Y-41120000D03*
X41530000Y-41120000D03*
X44070000Y-41120000D03*
X46610000Y-41120000D03*
X49150000Y-41120000D03*
X51690000Y-41120000D03*
X54230000Y-41120000D03*
X56770000Y-41120000D03*
X59310000Y-41120000D03*
X61850000Y-41120000D03*
X64390000Y-41120000D03*
X66930000Y-41120000D03*
X69470000Y-41120000D03*
X69470000Y-25880000D03*
X66930000Y-25880000D03*
X64390000Y-25880000D03*
X61850000Y-25880000D03*
X59310000Y-25880000D03*
X56770000Y-25880000D03*
X54230000Y-25880000D03*
X51690000Y-25880000D03*
X49150000Y-25880000D03*
X46610000Y-25880000D03*
X44070000Y-25880000D03*
X41530000Y-25880000D03*
X38990000Y-25880000D03*
%TD*%
D11*
%TO.C,H3*%
X170000000Y-125300000D03*
%TD*%
D12*
%TO.C,SW31*%
X140320306Y-129562614D03*
D13*
X141677805Y-125578195D03*
D14*
X139832697Y-133314246D03*
D15*
X145632898Y-130986119D03*
D14*
X144092925Y-136733378D03*
X149491956Y-135902436D03*
D13*
X151762071Y-128280266D03*
D12*
X150945490Y-132409624D03*
D16*
X147256332Y-137581010D03*
D17*
X136669290Y-132466613D03*
%TD*%
D12*
%TO.C,SW4*%
X137670000Y-52757500D03*
D13*
X137950000Y-48557500D03*
D14*
X138170000Y-56507500D03*
D15*
X143170000Y-52757500D03*
D14*
X143170000Y-58707500D03*
X148170000Y-56507500D03*
D13*
X148390000Y-48557500D03*
D12*
X148670000Y-52757500D03*
D18*
X146445000Y-58707500D03*
D19*
X134895000Y-56507500D03*
%TD*%
D12*
%TO.C,SW29*%
X118620000Y-126100000D03*
D13*
X118900000Y-121900000D03*
D14*
X119120000Y-129850000D03*
D15*
X124120000Y-126100000D03*
D14*
X124120000Y-132050000D03*
X129120000Y-129850000D03*
D13*
X129340000Y-121900000D03*
D12*
X129620000Y-126100000D03*
D18*
X127395000Y-132050000D03*
D19*
X115845000Y-129850000D03*
%TD*%
D12*
%TO.C,SW13*%
X42420000Y-81332500D03*
D13*
X42700000Y-77132500D03*
D14*
X42920000Y-85082500D03*
D15*
X47920000Y-81332500D03*
D14*
X47920000Y-87282500D03*
X52920000Y-85082500D03*
D13*
X53140000Y-77132500D03*
D12*
X53420000Y-81332500D03*
D18*
X51195000Y-87282500D03*
D19*
X39645000Y-85082500D03*
%TD*%
D20*
%TO.C,J1*%
X95200000Y-35365000D03*
D21*
X95200000Y-36635000D03*
%TD*%
D12*
%TO.C,SW25*%
X156720000Y-109907500D03*
D13*
X157000000Y-105707500D03*
D14*
X157220000Y-113657500D03*
D15*
X162220000Y-109907500D03*
D14*
X162220000Y-115857500D03*
X167220000Y-113657500D03*
D13*
X167440000Y-105707500D03*
D12*
X167720000Y-109907500D03*
D18*
X165495000Y-115857500D03*
D19*
X153945000Y-113657500D03*
%TD*%
D22*
%TO.C,J2*%
X76975000Y-35950000D03*
D23*
X76975000Y-33410000D03*
X76975000Y-30870000D03*
X76975000Y-28330000D03*
X76975000Y-25790000D03*
%TD*%
D12*
%TO.C,SW21*%
X99570000Y-104192500D03*
D13*
X99850000Y-99992500D03*
D14*
X100070000Y-107942500D03*
D15*
X105070000Y-104192500D03*
D14*
X105070000Y-110142500D03*
X110070000Y-107942500D03*
D13*
X110290000Y-99992500D03*
D12*
X110570000Y-104192500D03*
D18*
X108345000Y-110142500D03*
D19*
X96795000Y-107942500D03*
%TD*%
D12*
%TO.C,SW26*%
X61470000Y-114670000D03*
D13*
X61750000Y-110470000D03*
D14*
X61970000Y-118420000D03*
D15*
X66970000Y-114670000D03*
D14*
X66970000Y-120620000D03*
X71970000Y-118420000D03*
D13*
X72190000Y-110470000D03*
D12*
X72470000Y-114670000D03*
D18*
X70245000Y-120620000D03*
D19*
X58695000Y-118420000D03*
%TD*%
D12*
%TO.C,SW28*%
X99570000Y-126100000D03*
D13*
X99850000Y-121900000D03*
D14*
X100070000Y-129850000D03*
D15*
X105070000Y-126100000D03*
D14*
X105070000Y-132050000D03*
X110070000Y-129850000D03*
D13*
X110290000Y-121900000D03*
D12*
X110570000Y-126100000D03*
D18*
X108345000Y-132050000D03*
D19*
X96795000Y-129850000D03*
%TD*%
D12*
%TO.C,SW30*%
X80520000Y-128957500D03*
D13*
X80800000Y-124757500D03*
D14*
X81020000Y-132707500D03*
D15*
X86020000Y-128957500D03*
D14*
X86020000Y-134907500D03*
X91020000Y-132707500D03*
D13*
X91240000Y-124757500D03*
D12*
X91520000Y-128957500D03*
D18*
X89295000Y-134907500D03*
D19*
X77745000Y-132707500D03*
%TD*%
D12*
%TO.C,SW32*%
X161148411Y-135664114D03*
D13*
X163490898Y-132166807D03*
D14*
X159706424Y-139161709D03*
D15*
X165911551Y-138414114D03*
D14*
X162936551Y-143566965D03*
X168366678Y-144161709D03*
D13*
X172532204Y-137386807D03*
D12*
X170674691Y-141164114D03*
D24*
X165772784Y-145204465D03*
D25*
X156870191Y-137524209D03*
%TD*%
D12*
%TO.C,SW16*%
X118620000Y-88000000D03*
D13*
X118900000Y-83800000D03*
D14*
X119120000Y-91750000D03*
D15*
X124120000Y-88000000D03*
D14*
X124120000Y-93950000D03*
X129120000Y-91750000D03*
D13*
X129340000Y-83800000D03*
D12*
X129620000Y-88000000D03*
D18*
X127395000Y-93950000D03*
D19*
X115845000Y-91750000D03*
%TD*%
D12*
%TO.C,SW14*%
X99570000Y-85142500D03*
D13*
X99850000Y-80942500D03*
D14*
X100070000Y-88892500D03*
D15*
X105070000Y-85142500D03*
D14*
X105070000Y-91092500D03*
X110070000Y-88892500D03*
D13*
X110290000Y-80942500D03*
D12*
X110570000Y-85142500D03*
D18*
X108345000Y-91092500D03*
D19*
X96795000Y-88892500D03*
%TD*%
D12*
%TO.C,SW9*%
X118620000Y-68950000D03*
D13*
X118900000Y-64750000D03*
D14*
X119120000Y-72700000D03*
D15*
X124120000Y-68950000D03*
D14*
X124120000Y-74900000D03*
X129120000Y-72700000D03*
D13*
X129340000Y-64750000D03*
D12*
X129620000Y-68950000D03*
D18*
X127395000Y-74900000D03*
D19*
X115845000Y-72700000D03*
%TD*%
D12*
%TO.C,SW2*%
X80520000Y-49900000D03*
D13*
X80800000Y-45700000D03*
D14*
X81020000Y-53650000D03*
D15*
X86020000Y-49900000D03*
D14*
X86020000Y-55850000D03*
X91020000Y-53650000D03*
D13*
X91240000Y-45700000D03*
D12*
X91520000Y-49900000D03*
D18*
X89295000Y-55850000D03*
D19*
X77745000Y-53650000D03*
%TD*%
D11*
%TO.C,H6*%
X84200000Y-35200000D03*
%TD*%
D12*
%TO.C,SW19*%
X61470000Y-95620000D03*
D13*
X61750000Y-91420000D03*
D14*
X61970000Y-99370000D03*
D15*
X66970000Y-95620000D03*
D14*
X66970000Y-101570000D03*
X71970000Y-99370000D03*
D13*
X72190000Y-91420000D03*
D12*
X72470000Y-95620000D03*
D18*
X70245000Y-101570000D03*
D19*
X58695000Y-99370000D03*
%TD*%
D12*
%TO.C,SW20*%
X42420000Y-100382500D03*
D13*
X42700000Y-96182500D03*
D14*
X42920000Y-104132500D03*
D15*
X47920000Y-100382500D03*
D14*
X47920000Y-106332500D03*
X52920000Y-104132500D03*
D13*
X53140000Y-96182500D03*
D12*
X53420000Y-100382500D03*
D18*
X51195000Y-106332500D03*
D19*
X39645000Y-104132500D03*
%TD*%
D12*
%TO.C,SW18*%
X156720000Y-90857500D03*
D13*
X157000000Y-86657500D03*
D14*
X157220000Y-94607500D03*
D15*
X162220000Y-90857500D03*
D14*
X162220000Y-96807500D03*
X167220000Y-94607500D03*
D13*
X167440000Y-86657500D03*
D12*
X167720000Y-90857500D03*
D18*
X165495000Y-96807500D03*
D19*
X153945000Y-94607500D03*
%TD*%
D12*
%TO.C,SW17*%
X137670000Y-90857500D03*
D13*
X137950000Y-86657500D03*
D14*
X138170000Y-94607500D03*
D15*
X143170000Y-90857500D03*
D14*
X143170000Y-96807500D03*
X148170000Y-94607500D03*
D13*
X148390000Y-86657500D03*
D12*
X148670000Y-90857500D03*
D18*
X146445000Y-96807500D03*
D19*
X134895000Y-94607500D03*
%TD*%
D12*
%TO.C,SW3*%
X118620000Y-49900000D03*
D13*
X118900000Y-45700000D03*
D14*
X119120000Y-53650000D03*
D15*
X124120000Y-49900000D03*
D14*
X124120000Y-55850000D03*
X129120000Y-53650000D03*
D13*
X129340000Y-45700000D03*
D12*
X129620000Y-49900000D03*
D18*
X127395000Y-55850000D03*
D19*
X115845000Y-53650000D03*
%TD*%
D23*
%TO.C,J4*%
X162049564Y-56368241D03*
D26*
X161197518Y-53491781D03*
%TD*%
D12*
%TO.C,SW6*%
X42420000Y-62282500D03*
D13*
X42700000Y-58082500D03*
D14*
X42920000Y-66032500D03*
D15*
X47920000Y-62282500D03*
D14*
X47920000Y-68232500D03*
X52920000Y-66032500D03*
D13*
X53140000Y-58082500D03*
D12*
X53420000Y-62282500D03*
D18*
X51195000Y-68232500D03*
D19*
X39645000Y-66032500D03*
%TD*%
D11*
%TO.C,H1*%
X41500000Y-50000000D03*
%TD*%
D12*
%TO.C,SW8*%
X80520000Y-68950000D03*
D13*
X80800000Y-64750000D03*
D14*
X81020000Y-72700000D03*
D15*
X86020000Y-68950000D03*
D14*
X86020000Y-74900000D03*
X91020000Y-72700000D03*
D13*
X91240000Y-64750000D03*
D12*
X91520000Y-68950000D03*
D18*
X89295000Y-74900000D03*
D19*
X77745000Y-72700000D03*
%TD*%
D12*
%TO.C,SW11*%
X156720000Y-71807500D03*
D13*
X157000000Y-67607500D03*
D14*
X157220000Y-75557500D03*
D15*
X162220000Y-71807500D03*
D14*
X162220000Y-77757500D03*
X167220000Y-75557500D03*
D13*
X167440000Y-67607500D03*
D12*
X167720000Y-71807500D03*
D18*
X165495000Y-77757500D03*
D19*
X153945000Y-75557500D03*
%TD*%
D12*
%TO.C,SW15*%
X80520000Y-88000000D03*
D13*
X80800000Y-83800000D03*
D14*
X81020000Y-91750000D03*
D15*
X86020000Y-88000000D03*
D14*
X86020000Y-93950000D03*
X91020000Y-91750000D03*
D13*
X91240000Y-83800000D03*
D12*
X91520000Y-88000000D03*
D18*
X89295000Y-93950000D03*
D19*
X77745000Y-91750000D03*
%TD*%
D12*
%TO.C,SW10*%
X137670000Y-71807500D03*
D13*
X137950000Y-67607500D03*
D14*
X138170000Y-75557500D03*
D15*
X143170000Y-71807500D03*
D14*
X143170000Y-77757500D03*
X148170000Y-75557500D03*
D13*
X148390000Y-67607500D03*
D12*
X148670000Y-71807500D03*
D18*
X146445000Y-77757500D03*
D19*
X134895000Y-75557500D03*
%TD*%
D12*
%TO.C,SW12*%
X61470000Y-76570000D03*
D13*
X61750000Y-72370000D03*
D14*
X61970000Y-80320000D03*
D15*
X66970000Y-76570000D03*
D14*
X66970000Y-82520000D03*
X71970000Y-80320000D03*
D13*
X72190000Y-72370000D03*
D12*
X72470000Y-76570000D03*
D18*
X70245000Y-82520000D03*
D19*
X58695000Y-80320000D03*
%TD*%
D12*
%TO.C,SW5*%
X61470000Y-57520000D03*
D13*
X61750000Y-53320000D03*
D14*
X61970000Y-61270000D03*
D15*
X66970000Y-57520000D03*
D14*
X66970000Y-63470000D03*
X71970000Y-61270000D03*
D13*
X72190000Y-53320000D03*
D12*
X72470000Y-57520000D03*
D18*
X70245000Y-63470000D03*
D19*
X58695000Y-61270000D03*
%TD*%
D22*
%TO.C,J3*%
X74200000Y-25800000D03*
D23*
X74200000Y-28340000D03*
X74200000Y-30880000D03*
X74200000Y-33420000D03*
X74200000Y-35960000D03*
%TD*%
D12*
%TO.C,SW7*%
X99570000Y-66092500D03*
D13*
X99850000Y-61892500D03*
D14*
X100070000Y-69842500D03*
D15*
X105070000Y-66092500D03*
D14*
X105070000Y-72042500D03*
X110070000Y-69842500D03*
D13*
X110290000Y-61892500D03*
D12*
X110570000Y-66092500D03*
D18*
X108345000Y-72042500D03*
D19*
X96795000Y-69842500D03*
%TD*%
D27*
%TO.C,SW33*%
X82100000Y-25400000D03*
X88600000Y-25400000D03*
X82100000Y-29900000D03*
X88600000Y-29900000D03*
%TD*%
D12*
%TO.C,SW27*%
X42420000Y-119432500D03*
D13*
X42700000Y-115232500D03*
D14*
X42920000Y-123182500D03*
D15*
X47920000Y-119432500D03*
D14*
X47920000Y-125382500D03*
X52920000Y-123182500D03*
D13*
X53140000Y-115232500D03*
D12*
X53420000Y-119432500D03*
D18*
X51195000Y-125382500D03*
D19*
X39645000Y-123182500D03*
%TD*%
D12*
%TO.C,SW22*%
X80520000Y-107050000D03*
D13*
X80800000Y-102850000D03*
D14*
X81020000Y-110800000D03*
D15*
X86020000Y-107050000D03*
D14*
X86020000Y-113000000D03*
X91020000Y-110800000D03*
D13*
X91240000Y-102850000D03*
D12*
X91520000Y-107050000D03*
D18*
X89295000Y-113000000D03*
D19*
X77745000Y-110800000D03*
%TD*%
D12*
%TO.C,SW23*%
X118620000Y-107050000D03*
D13*
X118900000Y-102850000D03*
D14*
X119120000Y-110800000D03*
D15*
X124120000Y-107050000D03*
D14*
X124120000Y-113000000D03*
X129120000Y-110800000D03*
D13*
X129340000Y-102850000D03*
D12*
X129620000Y-107050000D03*
D18*
X127395000Y-113000000D03*
D19*
X115845000Y-110800000D03*
%TD*%
D28*
%TO.C,SWI1*%
X94600000Y-27940000D03*
D29*
X94600000Y-30480000D03*
X94600000Y-25400000D03*
%TD*%
D12*
%TO.C,SW1*%
X99570000Y-47042500D03*
D13*
X99850000Y-42842500D03*
D14*
X100070000Y-50792500D03*
D15*
X105070000Y-47042500D03*
D14*
X105070000Y-52992500D03*
X110070000Y-50792500D03*
D13*
X110290000Y-42842500D03*
D12*
X110570000Y-47042500D03*
D18*
X108345000Y-52992500D03*
D19*
X96795000Y-50792500D03*
%TD*%
D11*
%TO.C,H4*%
X71500000Y-133000000D03*
%TD*%
%TO.C,H2*%
X157300000Y-59100000D03*
%TD*%
D12*
%TO.C,SW24*%
X137670000Y-109907500D03*
D13*
X137950000Y-105707500D03*
D14*
X138170000Y-113657500D03*
D15*
X143170000Y-109907500D03*
D14*
X143170000Y-115857500D03*
X148170000Y-113657500D03*
D13*
X148390000Y-105707500D03*
D12*
X148670000Y-109907500D03*
D18*
X146445000Y-115857500D03*
D19*
X134895000Y-113657500D03*
%TD*%
D30*
%TO.C,D19*%
X71100000Y-105300000D03*
D31*
X69362500Y-105300000D03*
D32*
X65237500Y-105312500D03*
D27*
X63500000Y-105300000D03*
%TD*%
D30*
%TO.C,D8*%
X90150000Y-78630000D03*
D31*
X88412500Y-78630000D03*
D32*
X84287500Y-78642500D03*
D27*
X82550000Y-78630000D03*
%TD*%
D30*
%TO.C,D15*%
X90150000Y-97680000D03*
D31*
X88412500Y-97680000D03*
D32*
X84287500Y-97692500D03*
D27*
X82550000Y-97680000D03*
%TD*%
D30*
%TO.C,D2*%
X90150000Y-59580000D03*
D31*
X88412500Y-59580000D03*
D32*
X84287500Y-59592500D03*
D27*
X82550000Y-59580000D03*
%TD*%
D30*
%TO.C,D24*%
X147300000Y-119587500D03*
D31*
X145562500Y-119587500D03*
D32*
X141437500Y-119600000D03*
D27*
X139700000Y-119587500D03*
%TD*%
D30*
%TO.C,D9*%
X128250000Y-78630000D03*
D31*
X126512500Y-78630000D03*
D32*
X122387500Y-78642500D03*
D27*
X120650000Y-78630000D03*
%TD*%
D30*
%TO.C,D25*%
X166350000Y-119587500D03*
D31*
X164612500Y-119587500D03*
D32*
X160487500Y-119600000D03*
D27*
X158750000Y-119587500D03*
%TD*%
D30*
%TO.C,D12*%
X71100000Y-86250000D03*
D31*
X69362500Y-86250000D03*
D32*
X65237500Y-86262500D03*
D27*
X63500000Y-86250000D03*
%TD*%
D30*
%TO.C,D18*%
X166350000Y-100537500D03*
D31*
X164612500Y-100537500D03*
D32*
X160487500Y-100550000D03*
D27*
X158750000Y-100537500D03*
%TD*%
D30*
%TO.C,D27*%
X52300000Y-129112500D03*
D31*
X50562500Y-129112500D03*
D32*
X46437500Y-129125000D03*
D27*
X44700000Y-129112500D03*
%TD*%
D30*
%TO.C,D4*%
X147300000Y-62437500D03*
D31*
X145562500Y-62437500D03*
D32*
X141437500Y-62450000D03*
D27*
X139700000Y-62437500D03*
%TD*%
D30*
%TO.C,D20*%
X52050000Y-110062500D03*
D31*
X50312500Y-110062500D03*
D32*
X46187500Y-110075000D03*
D27*
X44450000Y-110062500D03*
%TD*%
D30*
%TO.C,D21*%
X109200000Y-113872500D03*
D31*
X107462500Y-113872500D03*
D32*
X103337500Y-113885000D03*
D27*
X101600000Y-113872500D03*
%TD*%
D30*
%TO.C,D10*%
X147300000Y-81487500D03*
D31*
X145562500Y-81487500D03*
D32*
X141437500Y-81500000D03*
D27*
X139700000Y-81487500D03*
%TD*%
D30*
%TO.C,D5*%
X71100000Y-67200000D03*
D31*
X69362500Y-67200000D03*
D32*
X65237500Y-67212500D03*
D27*
X63500000Y-67200000D03*
%TD*%
D30*
%TO.C,D14*%
X109200000Y-94822500D03*
D31*
X107462500Y-94822500D03*
D32*
X103337500Y-94835000D03*
D27*
X101600000Y-94822500D03*
%TD*%
D30*
%TO.C,D23*%
X128250000Y-116730000D03*
D31*
X126512500Y-116730000D03*
D32*
X122387500Y-116742500D03*
D27*
X120650000Y-116730000D03*
%TD*%
D30*
%TO.C,D22*%
X90150000Y-116730000D03*
D31*
X88412500Y-116730000D03*
D32*
X84287500Y-116742500D03*
D27*
X82550000Y-116730000D03*
%TD*%
D30*
%TO.C,D1*%
X109200000Y-56722500D03*
D31*
X107462500Y-56722500D03*
D32*
X103337500Y-56735000D03*
D27*
X101600000Y-56722500D03*
%TD*%
D30*
%TO.C,D6*%
X52050000Y-71962500D03*
D31*
X50312500Y-71962500D03*
D32*
X46187500Y-71975000D03*
D27*
X44450000Y-71962500D03*
%TD*%
D30*
%TO.C,D17*%
X147300000Y-100537500D03*
D31*
X145562500Y-100537500D03*
D32*
X141437500Y-100550000D03*
D27*
X139700000Y-100537500D03*
%TD*%
D30*
%TO.C,D28*%
X109250000Y-135780000D03*
D31*
X107512500Y-135780000D03*
D32*
X103387500Y-135792500D03*
D27*
X101650000Y-135780000D03*
%TD*%
D30*
%TO.C,D26*%
X71100000Y-124350000D03*
D31*
X69362500Y-124350000D03*
D32*
X65237500Y-124362500D03*
D27*
X63500000Y-124350000D03*
%TD*%
D30*
%TO.C,D11*%
X166350000Y-81487500D03*
D31*
X164612500Y-81487500D03*
D32*
X160487500Y-81500000D03*
D27*
X158750000Y-81487500D03*
%TD*%
D33*
%TO.C,D32*%
X161290897Y-147100000D03*
D34*
X159786177Y-146231250D03*
D35*
X156207573Y-144179575D03*
D27*
X154709103Y-143300000D03*
%TD*%
D30*
%TO.C,D16*%
X128250000Y-97680000D03*
D31*
X126512500Y-97680000D03*
D32*
X122387500Y-97692500D03*
D27*
X120650000Y-97680000D03*
%TD*%
D30*
%TO.C,D29*%
X128300000Y-135780000D03*
D31*
X126562500Y-135780000D03*
D32*
X122437500Y-135792500D03*
D27*
X120700000Y-135780000D03*
%TD*%
D30*
%TO.C,D30*%
X90200000Y-138637500D03*
D31*
X88462500Y-138637500D03*
D32*
X84337500Y-138650000D03*
D27*
X82600000Y-138637500D03*
%TD*%
D30*
%TO.C,D13*%
X52050000Y-91012500D03*
D31*
X50312500Y-91012500D03*
D32*
X46187500Y-91025000D03*
D27*
X44450000Y-91012500D03*
%TD*%
D36*
%TO.C,D31*%
X147185036Y-141442916D03*
D37*
X145506740Y-140993218D03*
D38*
X141519061Y-139937664D03*
D27*
X139844000Y-139475892D03*
%TD*%
D30*
%TO.C,D7*%
X109200000Y-75772500D03*
D31*
X107462500Y-75772500D03*
D32*
X103337500Y-75785000D03*
D27*
X101600000Y-75772500D03*
%TD*%
D30*
%TO.C,D3*%
X128250000Y-59580000D03*
D31*
X126512500Y-59580000D03*
D32*
X122387500Y-59592500D03*
D27*
X120650000Y-59580000D03*
%TD*%
M02*
