M48
; DRILL file {KiCad 9.0.2+dfsg-1} date 2025-11-17T22:48:30+0100
; FORMAT={-:-/ absolute / metric / decimal}
; #@! TF.CreationDate,2025-11-17T22:48:30+01:00
; #@! TF.GenerationSoftware,Kicad,Pcbnew,9.0.2+dfsg-1
; #@! TF.FileFunction,MixedPlating,1,2
FMAT,2
METRIC
; #@! TA.AperFunction,Plated,PTH,ViaDrill
T1C0.300
; #@! TA.AperFunction,Plated,PTH,ComponentDrill
T2C0.300
; #@! TA.AperFunction,Plated,PTH,ComponentDrill
T3C0.650
; #@! TA.AperFunction,Plated,PTH,ComponentDrill
T4C0.800
; #@! TA.AperFunction,Plated,PTH,ComponentDrill
T5C1.000
; #@! TA.AperFunction,Plated,PTH,ComponentDrill
T6C1.092
; #@! TA.AperFunction,Plated,PTH,ComponentDrill
T7C1.100
; #@! TA.AperFunction,Plated,PTH,ComponentDrill
T8C4.500
; #@! TA.AperFunction,NonPlated,NPTH,ComponentDrill
T9C0.991
; #@! TA.AperFunction,NonPlated,NPTH,ComponentDrill
T10C1.702
; #@! TA.AperFunction,NonPlated,NPTH,ComponentDrill
T11C3.000
; #@! TA.AperFunction,NonPlated,NPTH,ComponentDrill
T12C3.429
%
G90
G05
T1
X39.2Y-44.8
X39.645Y-60.0
X39.645Y-78.942
X39.645Y-97.942
X39.645Y-117.442
X45.4Y-60.0
X55.5Y-49.7
X58.695Y-74.0
X58.695Y-93.0
X58.695Y-112.5
X58.7Y-55.0
X59.3Y-44.3
X61.85Y-44.3
X64.39Y-44.3
X66.93Y-44.3
X67.6Y-34.3
X68.8Y-34.315
X69.8Y-34.3
X75.9Y-42.3
X75.96Y-39.16
X77.745Y-47.4
X77.745Y-66.5
X77.745Y-85.5
X77.745Y-104.5
X77.745Y-126.5
X96.795Y-48.5
X96.795Y-63.5
X96.795Y-82.5
X96.795Y-101.5
X96.795Y-123.5
X115.845Y-46.0
X115.845Y-51.5
X115.845Y-66.5
X115.845Y-85.5
X115.845Y-104.5
X115.845Y-123.5
X134.895Y-50.0
X134.895Y-69.5
X134.895Y-88.0
X134.895Y-107.5
X136.669Y-126.5
X152.25Y-48.75
X153.945Y-69.0
X153.945Y-88.0
X153.945Y-107.0
X156.9Y-128.1
X165.7Y-141.3
T2
X46.475Y-71.962
X46.475Y-91.013
X46.475Y-110.062
X46.725Y-129.112
X50.025Y-71.962
X50.025Y-91.013
X50.025Y-110.062
X50.275Y-129.112
X65.525Y-67.2
X65.525Y-86.25
X65.525Y-105.3
X65.525Y-124.35
X69.075Y-67.2
X69.075Y-86.25
X69.075Y-105.3
X69.075Y-124.35
X84.575Y-59.58
X84.575Y-78.63
X84.575Y-97.68
X84.575Y-116.73
X84.625Y-138.637
X88.125Y-59.58
X88.125Y-78.63
X88.125Y-97.68
X88.125Y-116.73
X88.175Y-138.637
X103.625Y-56.722
X103.625Y-75.772
X103.625Y-94.822
X103.625Y-113.872
X103.675Y-135.78
X107.175Y-56.722
X107.175Y-75.772
X107.175Y-94.822
X107.175Y-113.872
X107.225Y-135.78
X122.675Y-59.58
X122.675Y-78.63
X122.675Y-97.68
X122.675Y-116.73
X122.725Y-135.78
X126.225Y-59.58
X126.225Y-78.63
X126.225Y-97.68
X126.225Y-116.73
X126.275Y-135.78
X141.725Y-62.438
X141.725Y-81.487
X141.725Y-100.537
X141.725Y-119.587
X141.8Y-140.0
X145.229Y-140.919
X145.275Y-62.438
X145.275Y-81.487
X145.275Y-100.537
X145.275Y-119.587
X156.463Y-144.312
X159.537Y-146.088
X160.775Y-81.487
X160.775Y-100.537
X160.775Y-119.587
X164.325Y-81.487
X164.325Y-100.537
X164.325Y-119.587
T3
X95.2Y-35.365
X95.2Y-36.635
T4
X44.45Y-71.962
X44.45Y-91.013
X44.45Y-110.062
X44.7Y-129.112
X52.05Y-71.962
X52.05Y-91.013
X52.05Y-110.062
X52.3Y-129.112
X63.5Y-67.2
X63.5Y-86.25
X63.5Y-105.3
X63.5Y-124.35
X71.1Y-67.2
X71.1Y-86.25
X71.1Y-105.3
X71.1Y-124.35
X82.55Y-59.58
X82.55Y-78.63
X82.55Y-97.68
X82.55Y-116.73
X82.6Y-138.637
X90.15Y-59.58
X90.15Y-78.63
X90.15Y-97.68
X90.15Y-116.73
X90.2Y-138.637
X94.6Y-25.4
X94.6Y-27.94
X94.6Y-30.48
X101.6Y-56.722
X101.6Y-75.772
X101.6Y-94.822
X101.6Y-113.872
X101.65Y-135.78
X109.2Y-56.722
X109.2Y-75.772
X109.2Y-94.822
X109.2Y-113.872
X109.25Y-135.78
X120.65Y-59.58
X120.65Y-78.63
X120.65Y-97.68
X120.65Y-116.73
X120.7Y-135.78
X128.25Y-59.58
X128.25Y-78.63
X128.25Y-97.68
X128.25Y-116.73
X128.3Y-135.78
X139.7Y-62.438
X139.7Y-81.487
X139.7Y-100.537
X139.7Y-119.587
X139.844Y-139.476
X147.185Y-141.443
X147.3Y-62.438
X147.3Y-81.487
X147.3Y-100.537
X147.3Y-119.587
X154.709Y-143.3
X158.75Y-81.487
X158.75Y-100.537
X158.75Y-119.587
X161.198Y-53.492
X161.291Y-147.1
X162.05Y-56.368
X166.35Y-81.487
X166.35Y-100.537
X166.35Y-119.587
T5
X74.2Y-25.8
X74.2Y-28.34
X74.2Y-30.88
X74.2Y-33.42
X74.2Y-35.96
X76.975Y-25.79
X76.975Y-28.33
X76.975Y-30.87
X76.975Y-33.41
X76.975Y-35.95
T6
X38.99Y-25.88
X38.99Y-41.12
X41.53Y-25.88
X41.53Y-41.12
X44.07Y-25.88
X44.07Y-41.12
X46.61Y-25.88
X46.61Y-41.12
X49.15Y-25.88
X49.15Y-41.12
X51.69Y-25.88
X51.69Y-41.12
X54.23Y-25.88
X54.23Y-41.12
X56.77Y-25.88
X56.77Y-41.12
X59.31Y-25.88
X59.31Y-41.12
X61.85Y-25.88
X61.85Y-41.12
X64.39Y-25.88
X64.39Y-41.12
X66.93Y-25.88
X66.93Y-41.12
X69.47Y-25.88
X69.47Y-41.12
T7
X82.1Y-25.4
X82.1Y-29.9
X88.6Y-25.4
X88.6Y-29.9
T8
X41.5Y-50.0
X71.5Y-133.0
X84.2Y-35.2
X157.3Y-59.1
X170.0Y-125.3
T9
X42.7Y-58.082
X42.7Y-77.132
X42.7Y-96.182
X42.7Y-115.233
X53.14Y-58.082
X53.14Y-77.132
X53.14Y-96.182
X53.14Y-115.233
X61.75Y-53.32
X61.75Y-72.37
X61.75Y-91.42
X61.75Y-110.47
X72.19Y-53.32
X72.19Y-72.37
X72.19Y-91.42
X72.19Y-110.47
X80.8Y-45.7
X80.8Y-64.75
X80.8Y-83.8
X80.8Y-102.85
X80.8Y-124.757
X91.24Y-45.7
X91.24Y-64.75
X91.24Y-83.8
X91.24Y-102.85
X91.24Y-124.757
X99.85Y-42.843
X99.85Y-61.892
X99.85Y-80.942
X99.85Y-99.992
X99.85Y-121.9
X110.29Y-42.843
X110.29Y-61.892
X110.29Y-80.942
X110.29Y-99.992
X110.29Y-121.9
X118.9Y-45.7
X118.9Y-64.75
X118.9Y-83.8
X118.9Y-102.85
X118.9Y-121.9
X129.34Y-45.7
X129.34Y-64.75
X129.34Y-83.8
X129.34Y-102.85
X129.34Y-121.9
X137.95Y-48.557
X137.95Y-67.608
X137.95Y-86.657
X137.95Y-105.707
X141.678Y-125.578
X148.39Y-48.557
X148.39Y-67.608
X148.39Y-86.657
X148.39Y-105.707
X151.762Y-128.28
X157.0Y-67.608
X157.0Y-86.657
X157.0Y-105.707
X163.491Y-132.167
X167.44Y-67.608
X167.44Y-86.657
X167.44Y-105.707
X172.532Y-137.387
T10
X42.42Y-62.282
X42.42Y-81.332
X42.42Y-100.382
X42.42Y-119.432
X53.42Y-62.282
X53.42Y-81.332
X53.42Y-100.382
X53.42Y-119.432
X61.47Y-57.52
X61.47Y-76.57
X61.47Y-95.62
X61.47Y-114.67
X72.47Y-57.52
X72.47Y-76.57
X72.47Y-95.62
X72.47Y-114.67
X80.52Y-49.9
X80.52Y-68.95
X80.52Y-88.0
X80.52Y-107.05
X80.52Y-128.957
X91.52Y-49.9
X91.52Y-68.95
X91.52Y-88.0
X91.52Y-107.05
X91.52Y-128.957
X99.57Y-47.042
X99.57Y-66.093
X99.57Y-85.142
X99.57Y-104.192
X99.57Y-126.1
X110.57Y-47.042
X110.57Y-66.093
X110.57Y-85.142
X110.57Y-104.192
X110.57Y-126.1
X118.62Y-49.9
X118.62Y-68.95
X118.62Y-88.0
X118.62Y-107.05
X118.62Y-126.1
X129.62Y-49.9
X129.62Y-68.95
X129.62Y-88.0
X129.62Y-107.05
X129.62Y-126.1
X137.67Y-52.758
X137.67Y-71.807
X137.67Y-90.858
X137.67Y-109.907
X140.32Y-129.563
X148.67Y-52.758
X148.67Y-71.807
X148.67Y-90.858
X148.67Y-109.907
X150.945Y-132.41
X156.72Y-71.807
X156.72Y-90.858
X156.72Y-109.907
X161.148Y-135.664
X167.72Y-71.807
X167.72Y-90.858
X167.72Y-109.907
X170.675Y-141.164
T11
X42.92Y-66.032
X42.92Y-85.082
X42.92Y-104.132
X42.92Y-123.182
X47.92Y-68.233
X47.92Y-87.282
X47.92Y-106.332
X47.92Y-125.382
X52.92Y-66.032
X52.92Y-85.082
X52.92Y-104.132
X52.92Y-123.182
X61.97Y-61.27
X61.97Y-80.32
X61.97Y-99.37
X61.97Y-118.42
X66.97Y-63.47
X66.97Y-82.52
X66.97Y-101.57
X66.97Y-120.62
X71.97Y-61.27
X71.97Y-80.32
X71.97Y-99.37
X71.97Y-118.42
X81.02Y-53.65
X81.02Y-72.7
X81.02Y-91.75
X81.02Y-110.8
X81.02Y-132.707
X86.02Y-55.85
X86.02Y-74.9
X86.02Y-93.95
X86.02Y-113.0
X86.02Y-134.907
X91.02Y-53.65
X91.02Y-72.7
X91.02Y-91.75
X91.02Y-110.8
X91.02Y-132.707
X100.07Y-50.792
X100.07Y-69.843
X100.07Y-88.892
X100.07Y-107.942
X100.07Y-129.85
X105.07Y-52.992
X105.07Y-72.042
X105.07Y-91.093
X105.07Y-110.142
X105.07Y-132.05
X110.07Y-50.792
X110.07Y-69.843
X110.07Y-88.892
X110.07Y-107.942
X110.07Y-129.85
X119.12Y-53.65
X119.12Y-72.7
X119.12Y-91.75
X119.12Y-110.8
X119.12Y-129.85
X124.12Y-55.85
X124.12Y-74.9
X124.12Y-93.95
X124.12Y-113.0
X124.12Y-132.05
X129.12Y-53.65
X129.12Y-72.7
X129.12Y-91.75
X129.12Y-110.8
X129.12Y-129.85
X138.17Y-56.508
X138.17Y-75.557
X138.17Y-94.608
X138.17Y-113.657
X139.833Y-133.314
X143.17Y-58.707
X143.17Y-77.757
X143.17Y-96.807
X143.17Y-115.858
X144.093Y-136.733
X148.17Y-56.508
X148.17Y-75.557
X148.17Y-94.608
X148.17Y-113.657
X149.492Y-135.902
X157.22Y-75.557
X157.22Y-94.608
X157.22Y-113.657
X159.706Y-139.162
X162.22Y-77.757
X162.22Y-96.807
X162.22Y-115.858
X162.937Y-143.567
X167.22Y-75.557
X167.22Y-94.608
X167.22Y-113.657
X168.367Y-144.162
T12
X47.92Y-62.282
X47.92Y-81.332
X47.92Y-100.382
X47.92Y-119.432
X66.97Y-57.52
X66.97Y-76.57
X66.97Y-95.62
X66.97Y-114.67
X86.02Y-49.9
X86.02Y-68.95
X86.02Y-88.0
X86.02Y-107.05
X86.02Y-128.957
X105.07Y-47.042
X105.07Y-66.093
X105.07Y-85.142
X105.07Y-104.192
X105.07Y-126.1
X124.12Y-49.9
X124.12Y-68.95
X124.12Y-88.0
X124.12Y-107.05
X124.12Y-126.1
X143.17Y-52.758
X143.17Y-71.807
X143.17Y-90.858
X143.17Y-109.907
X145.633Y-130.986
X162.22Y-71.807
X162.22Y-90.858
X162.22Y-109.907
X165.912Y-138.414
M30
