M48
; DRILL file {KiCad 9.0.1} date 2025-08-18T00:19:28+0200
; FORMAT={-:-/ absolute / metric / decimal}
; #@! TF.CreationDate,2025-08-18T00:19:28+02:00
; #@! TF.GenerationSoftware,Kicad,Pcbnew,9.0.1
; #@! TF.FileFunction,NonPlated,1,2,NPTH
FMAT,2
METRIC
; #@! TA.AperFunction,NonPlated,NPTH,ComponentDrill
T1C0.991
; #@! TA.AperFunction,NonPlated,NPTH,ComponentDrill
T2C1.702
; #@! TA.AperFunction,NonPlated,NPTH,ComponentDrill
T3C3.000
; #@! TA.AperFunction,NonPlated,NPTH,ComponentDrill
T4C3.429
%
G90
G05
T1
X42.7Y-58.082
X42.7Y-77.132
X42.7Y-96.182
X42.7Y-115.233
X53.14Y-58.082
X53.14Y-77.132
X53.14Y-96.182
X53.14Y-115.233
X61.75Y-53.32
X61.75Y-72.37
X61.75Y-91.42
X61.75Y-110.47
X72.19Y-53.32
X72.19Y-72.37
X72.19Y-91.42
X72.19Y-110.47
X80.8Y-45.7
X80.8Y-64.75
X80.8Y-83.8
X80.8Y-102.85
X80.8Y-124.757
X91.24Y-45.7
X91.24Y-64.75
X91.24Y-83.8
X91.24Y-102.85
X91.24Y-124.757
X99.85Y-42.843
X99.85Y-61.892
X99.85Y-80.942
X99.85Y-99.992
X99.85Y-121.9
X110.29Y-42.843
X110.29Y-61.892
X110.29Y-80.942
X110.29Y-99.992
X110.29Y-121.9
X118.9Y-45.7
X118.9Y-64.75
X118.9Y-83.8
X118.9Y-102.85
X118.9Y-121.9
X129.34Y-45.7
X129.34Y-64.75
X129.34Y-83.8
X129.34Y-102.85
X129.34Y-121.9
X137.95Y-48.557
X137.95Y-67.608
X137.95Y-86.657
X137.95Y-105.707
X141.678Y-125.578
X148.39Y-48.557
X148.39Y-67.608
X148.39Y-86.657
X148.39Y-105.707
X151.762Y-128.28
X157.0Y-67.608
X157.0Y-86.657
X157.0Y-105.707
X163.491Y-132.167
X167.44Y-67.608
X167.44Y-86.657
X167.44Y-105.707
X172.532Y-137.387
T2
X42.42Y-62.282
X42.42Y-81.332
X42.42Y-100.382
X42.42Y-119.432
X53.42Y-62.282
X53.42Y-81.332
X53.42Y-100.382
X53.42Y-119.432
X61.47Y-57.52
X61.47Y-76.57
X61.47Y-95.62
X61.47Y-114.67
X72.47Y-57.52
X72.47Y-76.57
X72.47Y-95.62
X72.47Y-114.67
X80.52Y-49.9
X80.52Y-68.95
X80.52Y-88.0
X80.52Y-107.05
X80.52Y-128.957
X91.52Y-49.9
X91.52Y-68.95
X91.52Y-88.0
X91.52Y-107.05
X91.52Y-128.957
X99.57Y-47.042
X99.57Y-66.093
X99.57Y-85.142
X99.57Y-104.192
X99.57Y-126.1
X110.57Y-47.042
X110.57Y-66.093
X110.57Y-85.142
X110.57Y-104.192
X110.57Y-126.1
X118.62Y-49.9
X118.62Y-68.95
X118.62Y-88.0
X118.62Y-107.05
X118.62Y-126.1
X129.62Y-49.9
X129.62Y-68.95
X129.62Y-88.0
X129.62Y-107.05
X129.62Y-126.1
X137.67Y-52.758
X137.67Y-71.807
X137.67Y-90.858
X137.67Y-109.907
X140.32Y-129.563
X148.67Y-52.758
X148.67Y-71.807
X148.67Y-90.858
X148.67Y-109.907
X150.945Y-132.41
X156.72Y-71.807
X156.72Y-90.858
X156.72Y-109.907
X161.148Y-135.664
X167.72Y-71.807
X167.72Y-90.858
X167.72Y-109.907
X170.675Y-141.164
T3
X42.92Y-66.032
X42.92Y-85.082
X42.92Y-104.132
X42.92Y-123.182
X47.92Y-68.233
X47.92Y-87.282
X47.92Y-106.332
X47.92Y-125.382
X52.92Y-66.032
X52.92Y-85.082
X52.92Y-104.132
X52.92Y-123.182
X61.97Y-61.27
X61.97Y-80.32
X61.97Y-99.37
X61.97Y-118.42
X66.97Y-63.47
X66.97Y-82.52
X66.97Y-101.57
X66.97Y-120.62
X71.97Y-61.27
X71.97Y-80.32
X71.97Y-99.37
X71.97Y-118.42
X81.02Y-53.65
X81.02Y-72.7
X81.02Y-91.75
X81.02Y-110.8
X81.02Y-132.707
X86.02Y-55.85
X86.02Y-74.9
X86.02Y-93.95
X86.02Y-113.0
X86.02Y-134.907
X91.02Y-53.65
X91.02Y-72.7
X91.02Y-91.75
X91.02Y-110.8
X91.02Y-132.707
X100.07Y-50.792
X100.07Y-69.843
X100.07Y-88.892
X100.07Y-107.942
X100.07Y-129.85
X105.07Y-52.992
X105.07Y-72.042
X105.07Y-91.093
X105.07Y-110.142
X105.07Y-132.05
X110.07Y-50.792
X110.07Y-69.843
X110.07Y-88.892
X110.07Y-107.942
X110.07Y-129.85
X119.12Y-53.65
X119.12Y-72.7
X119.12Y-91.75
X119.12Y-110.8
X119.12Y-129.85
X124.12Y-55.85
X124.12Y-74.9
X124.12Y-93.95
X124.12Y-113.0
X124.12Y-132.05
X129.12Y-53.65
X129.12Y-72.7
X129.12Y-91.75
X129.12Y-110.8
X129.12Y-129.85
X138.17Y-56.508
X138.17Y-75.557
X138.17Y-94.608
X138.17Y-113.657
X139.833Y-133.314
X143.17Y-58.707
X143.17Y-77.757
X143.17Y-96.807
X143.17Y-115.858
X144.093Y-136.733
X148.17Y-56.508
X148.17Y-75.557
X148.17Y-94.608
X148.17Y-113.657
X149.492Y-135.902
X157.22Y-75.557
X157.22Y-94.608
X157.22Y-113.657
X159.706Y-139.162
X162.22Y-77.757
X162.22Y-96.807
X162.22Y-115.858
X162.937Y-143.567
X167.22Y-75.557
X167.22Y-94.608
X167.22Y-113.657
X168.367Y-144.162
T4
X47.92Y-62.282
X47.92Y-81.332
X47.92Y-100.382
X47.92Y-119.432
X66.97Y-57.52
X66.97Y-76.57
X66.97Y-95.62
X66.97Y-114.67
X86.02Y-49.9
X86.02Y-68.95
X86.02Y-88.0
X86.02Y-107.05
X86.02Y-128.957
X105.07Y-47.042
X105.07Y-66.093
X105.07Y-85.142
X105.07Y-104.192
X105.07Y-126.1
X124.12Y-49.9
X124.12Y-68.95
X124.12Y-88.0
X124.12Y-107.05
X124.12Y-126.1
X143.17Y-52.758
X143.17Y-71.807
X143.17Y-90.858
X143.17Y-109.907
X145.633Y-130.986
X162.22Y-71.807
X162.22Y-90.858
X162.22Y-109.907
X165.912Y-138.414
M30
