%TF.GenerationSoftware,KiCad,Pcbnew,9.0.1*%
%TF.CreationDate,2025-08-18T00:19:21+02:00*%
%TF.ProjectId,LuMo,4c754d6f-2e6b-4696-9361-645f70636258,rev?*%
%TF.SameCoordinates,Original*%
%TF.FileFunction,Legend,Bot*%
%TF.FilePolarity,Positive*%
%FSLAX46Y46*%
G04 Gerber Fmt 4.6, Leading zero omitted, Abs format (unit mm)*
G04 Created by KiCad (PCBNEW 9.0.1) date 2025-08-18 00:19:21*
%MOMM*%
%LPD*%
G01*
G04 APERTURE LIST*
%ADD10C,0.150000*%
%ADD11C,0.300000*%
%ADD12C,0.100000*%
%ADD13C,0.381000*%
%ADD14C,0.120000*%
%ADD15C,1.752600*%
G04 APERTURE END LIST*
D10*
X131763220Y-140569819D02*
X131763220Y-139569819D01*
X131334649Y-140569819D02*
X131334649Y-140046009D01*
X131334649Y-140046009D02*
X131382268Y-139950771D01*
X131382268Y-139950771D02*
X131477506Y-139903152D01*
X131477506Y-139903152D02*
X131620363Y-139903152D01*
X131620363Y-139903152D02*
X131715601Y-139950771D01*
X131715601Y-139950771D02*
X131763220Y-139998390D01*
X131001315Y-139903152D02*
X130620363Y-139903152D01*
X130858458Y-139569819D02*
X130858458Y-140426961D01*
X130858458Y-140426961D02*
X130810839Y-140522200D01*
X130810839Y-140522200D02*
X130715601Y-140569819D01*
X130715601Y-140569819D02*
X130620363Y-140569819D01*
X130429886Y-139903152D02*
X130048934Y-139903152D01*
X130287029Y-139569819D02*
X130287029Y-140426961D01*
X130287029Y-140426961D02*
X130239410Y-140522200D01*
X130239410Y-140522200D02*
X130144172Y-140569819D01*
X130144172Y-140569819D02*
X130048934Y-140569819D01*
X129715600Y-139903152D02*
X129715600Y-140903152D01*
X129715600Y-139950771D02*
X129620362Y-139903152D01*
X129620362Y-139903152D02*
X129429886Y-139903152D01*
X129429886Y-139903152D02*
X129334648Y-139950771D01*
X129334648Y-139950771D02*
X129287029Y-139998390D01*
X129287029Y-139998390D02*
X129239410Y-140093628D01*
X129239410Y-140093628D02*
X129239410Y-140379342D01*
X129239410Y-140379342D02*
X129287029Y-140474580D01*
X129287029Y-140474580D02*
X129334648Y-140522200D01*
X129334648Y-140522200D02*
X129429886Y-140569819D01*
X129429886Y-140569819D02*
X129620362Y-140569819D01*
X129620362Y-140569819D02*
X129715600Y-140522200D01*
X128858457Y-140522200D02*
X128763219Y-140569819D01*
X128763219Y-140569819D02*
X128572743Y-140569819D01*
X128572743Y-140569819D02*
X128477505Y-140522200D01*
X128477505Y-140522200D02*
X128429886Y-140426961D01*
X128429886Y-140426961D02*
X128429886Y-140379342D01*
X128429886Y-140379342D02*
X128477505Y-140284104D01*
X128477505Y-140284104D02*
X128572743Y-140236485D01*
X128572743Y-140236485D02*
X128715600Y-140236485D01*
X128715600Y-140236485D02*
X128810838Y-140188866D01*
X128810838Y-140188866D02*
X128858457Y-140093628D01*
X128858457Y-140093628D02*
X128858457Y-140046009D01*
X128858457Y-140046009D02*
X128810838Y-139950771D01*
X128810838Y-139950771D02*
X128715600Y-139903152D01*
X128715600Y-139903152D02*
X128572743Y-139903152D01*
X128572743Y-139903152D02*
X128477505Y-139950771D01*
X128001314Y-140474580D02*
X127953695Y-140522200D01*
X127953695Y-140522200D02*
X128001314Y-140569819D01*
X128001314Y-140569819D02*
X128048933Y-140522200D01*
X128048933Y-140522200D02*
X128001314Y-140474580D01*
X128001314Y-140474580D02*
X128001314Y-140569819D01*
X128001314Y-139950771D02*
X127953695Y-139998390D01*
X127953695Y-139998390D02*
X128001314Y-140046009D01*
X128001314Y-140046009D02*
X128048933Y-139998390D01*
X128048933Y-139998390D02*
X128001314Y-139950771D01*
X128001314Y-139950771D02*
X128001314Y-140046009D01*
X126810839Y-139522200D02*
X127667981Y-140807914D01*
X125763220Y-139522200D02*
X126620362Y-140807914D01*
X125001315Y-139903152D02*
X125001315Y-140712676D01*
X125001315Y-140712676D02*
X125048934Y-140807914D01*
X125048934Y-140807914D02*
X125096553Y-140855533D01*
X125096553Y-140855533D02*
X125191791Y-140903152D01*
X125191791Y-140903152D02*
X125334648Y-140903152D01*
X125334648Y-140903152D02*
X125429886Y-140855533D01*
X125001315Y-140522200D02*
X125096553Y-140569819D01*
X125096553Y-140569819D02*
X125287029Y-140569819D01*
X125287029Y-140569819D02*
X125382267Y-140522200D01*
X125382267Y-140522200D02*
X125429886Y-140474580D01*
X125429886Y-140474580D02*
X125477505Y-140379342D01*
X125477505Y-140379342D02*
X125477505Y-140093628D01*
X125477505Y-140093628D02*
X125429886Y-139998390D01*
X125429886Y-139998390D02*
X125382267Y-139950771D01*
X125382267Y-139950771D02*
X125287029Y-139903152D01*
X125287029Y-139903152D02*
X125096553Y-139903152D01*
X125096553Y-139903152D02*
X125001315Y-139950771D01*
X124525124Y-140569819D02*
X124525124Y-139903152D01*
X124525124Y-139569819D02*
X124572743Y-139617438D01*
X124572743Y-139617438D02*
X124525124Y-139665057D01*
X124525124Y-139665057D02*
X124477505Y-139617438D01*
X124477505Y-139617438D02*
X124525124Y-139569819D01*
X124525124Y-139569819D02*
X124525124Y-139665057D01*
X124191791Y-139903152D02*
X123810839Y-139903152D01*
X124048934Y-139569819D02*
X124048934Y-140426961D01*
X124048934Y-140426961D02*
X124001315Y-140522200D01*
X124001315Y-140522200D02*
X123906077Y-140569819D01*
X123906077Y-140569819D02*
X123810839Y-140569819D01*
X123477505Y-140569819D02*
X123477505Y-139569819D01*
X123048934Y-140569819D02*
X123048934Y-140046009D01*
X123048934Y-140046009D02*
X123096553Y-139950771D01*
X123096553Y-139950771D02*
X123191791Y-139903152D01*
X123191791Y-139903152D02*
X123334648Y-139903152D01*
X123334648Y-139903152D02*
X123429886Y-139950771D01*
X123429886Y-139950771D02*
X123477505Y-139998390D01*
X122144172Y-139903152D02*
X122144172Y-140569819D01*
X122572743Y-139903152D02*
X122572743Y-140426961D01*
X122572743Y-140426961D02*
X122525124Y-140522200D01*
X122525124Y-140522200D02*
X122429886Y-140569819D01*
X122429886Y-140569819D02*
X122287029Y-140569819D01*
X122287029Y-140569819D02*
X122191791Y-140522200D01*
X122191791Y-140522200D02*
X122144172Y-140474580D01*
X121667981Y-140569819D02*
X121667981Y-139569819D01*
X121667981Y-139950771D02*
X121572743Y-139903152D01*
X121572743Y-139903152D02*
X121382267Y-139903152D01*
X121382267Y-139903152D02*
X121287029Y-139950771D01*
X121287029Y-139950771D02*
X121239410Y-139998390D01*
X121239410Y-139998390D02*
X121191791Y-140093628D01*
X121191791Y-140093628D02*
X121191791Y-140379342D01*
X121191791Y-140379342D02*
X121239410Y-140474580D01*
X121239410Y-140474580D02*
X121287029Y-140522200D01*
X121287029Y-140522200D02*
X121382267Y-140569819D01*
X121382267Y-140569819D02*
X121572743Y-140569819D01*
X121572743Y-140569819D02*
X121667981Y-140522200D01*
X120763219Y-140474580D02*
X120715600Y-140522200D01*
X120715600Y-140522200D02*
X120763219Y-140569819D01*
X120763219Y-140569819D02*
X120810838Y-140522200D01*
X120810838Y-140522200D02*
X120763219Y-140474580D01*
X120763219Y-140474580D02*
X120763219Y-140569819D01*
X119858458Y-140522200D02*
X119953696Y-140569819D01*
X119953696Y-140569819D02*
X120144172Y-140569819D01*
X120144172Y-140569819D02*
X120239410Y-140522200D01*
X120239410Y-140522200D02*
X120287029Y-140474580D01*
X120287029Y-140474580D02*
X120334648Y-140379342D01*
X120334648Y-140379342D02*
X120334648Y-140093628D01*
X120334648Y-140093628D02*
X120287029Y-139998390D01*
X120287029Y-139998390D02*
X120239410Y-139950771D01*
X120239410Y-139950771D02*
X120144172Y-139903152D01*
X120144172Y-139903152D02*
X119953696Y-139903152D01*
X119953696Y-139903152D02*
X119858458Y-139950771D01*
X119287029Y-140569819D02*
X119382267Y-140522200D01*
X119382267Y-140522200D02*
X119429886Y-140474580D01*
X119429886Y-140474580D02*
X119477505Y-140379342D01*
X119477505Y-140379342D02*
X119477505Y-140093628D01*
X119477505Y-140093628D02*
X119429886Y-139998390D01*
X119429886Y-139998390D02*
X119382267Y-139950771D01*
X119382267Y-139950771D02*
X119287029Y-139903152D01*
X119287029Y-139903152D02*
X119144172Y-139903152D01*
X119144172Y-139903152D02*
X119048934Y-139950771D01*
X119048934Y-139950771D02*
X119001315Y-139998390D01*
X119001315Y-139998390D02*
X118953696Y-140093628D01*
X118953696Y-140093628D02*
X118953696Y-140379342D01*
X118953696Y-140379342D02*
X119001315Y-140474580D01*
X119001315Y-140474580D02*
X119048934Y-140522200D01*
X119048934Y-140522200D02*
X119144172Y-140569819D01*
X119144172Y-140569819D02*
X119287029Y-140569819D01*
X118525124Y-140569819D02*
X118525124Y-139903152D01*
X118525124Y-139998390D02*
X118477505Y-139950771D01*
X118477505Y-139950771D02*
X118382267Y-139903152D01*
X118382267Y-139903152D02*
X118239410Y-139903152D01*
X118239410Y-139903152D02*
X118144172Y-139950771D01*
X118144172Y-139950771D02*
X118096553Y-140046009D01*
X118096553Y-140046009D02*
X118096553Y-140569819D01*
X118096553Y-140046009D02*
X118048934Y-139950771D01*
X118048934Y-139950771D02*
X117953696Y-139903152D01*
X117953696Y-139903152D02*
X117810839Y-139903152D01*
X117810839Y-139903152D02*
X117715600Y-139950771D01*
X117715600Y-139950771D02*
X117667981Y-140046009D01*
X117667981Y-140046009D02*
X117667981Y-140569819D01*
X116477506Y-139522200D02*
X117334648Y-140807914D01*
X115667982Y-140569819D02*
X116144172Y-140569819D01*
X116144172Y-140569819D02*
X116144172Y-139569819D01*
X114906077Y-139903152D02*
X114906077Y-140569819D01*
X115334648Y-139903152D02*
X115334648Y-140426961D01*
X115334648Y-140426961D02*
X115287029Y-140522200D01*
X115287029Y-140522200D02*
X115191791Y-140569819D01*
X115191791Y-140569819D02*
X115048934Y-140569819D01*
X115048934Y-140569819D02*
X114953696Y-140522200D01*
X114953696Y-140522200D02*
X114906077Y-140474580D01*
X114429886Y-140569819D02*
X114429886Y-139569819D01*
X114334648Y-140188866D02*
X114048934Y-140569819D01*
X114048934Y-139903152D02*
X114429886Y-140284104D01*
X113191791Y-140569819D02*
X113191791Y-140046009D01*
X113191791Y-140046009D02*
X113239410Y-139950771D01*
X113239410Y-139950771D02*
X113334648Y-139903152D01*
X113334648Y-139903152D02*
X113525124Y-139903152D01*
X113525124Y-139903152D02*
X113620362Y-139950771D01*
X113191791Y-140522200D02*
X113287029Y-140569819D01*
X113287029Y-140569819D02*
X113525124Y-140569819D01*
X113525124Y-140569819D02*
X113620362Y-140522200D01*
X113620362Y-140522200D02*
X113667981Y-140426961D01*
X113667981Y-140426961D02*
X113667981Y-140331723D01*
X113667981Y-140331723D02*
X113620362Y-140236485D01*
X113620362Y-140236485D02*
X113525124Y-140188866D01*
X113525124Y-140188866D02*
X113287029Y-140188866D01*
X113287029Y-140188866D02*
X113191791Y-140141247D01*
X112763219Y-140522200D02*
X112667981Y-140569819D01*
X112667981Y-140569819D02*
X112477505Y-140569819D01*
X112477505Y-140569819D02*
X112382267Y-140522200D01*
X112382267Y-140522200D02*
X112334648Y-140426961D01*
X112334648Y-140426961D02*
X112334648Y-140379342D01*
X112334648Y-140379342D02*
X112382267Y-140284104D01*
X112382267Y-140284104D02*
X112477505Y-140236485D01*
X112477505Y-140236485D02*
X112620362Y-140236485D01*
X112620362Y-140236485D02*
X112715600Y-140188866D01*
X112715600Y-140188866D02*
X112763219Y-140093628D01*
X112763219Y-140093628D02*
X112763219Y-140046009D01*
X112763219Y-140046009D02*
X112715600Y-139950771D01*
X112715600Y-139950771D02*
X112620362Y-139903152D01*
X112620362Y-139903152D02*
X112477505Y-139903152D01*
X112477505Y-139903152D02*
X112382267Y-139950771D01*
X112001314Y-139903152D02*
X111477505Y-139903152D01*
X111477505Y-139903152D02*
X112001314Y-140569819D01*
X112001314Y-140569819D02*
X111477505Y-140569819D01*
X111096552Y-140569819D02*
X111096552Y-139569819D01*
X111096552Y-139569819D02*
X110763219Y-140284104D01*
X110763219Y-140284104D02*
X110429886Y-139569819D01*
X110429886Y-139569819D02*
X110429886Y-140569819D01*
X109810838Y-140569819D02*
X109906076Y-140522200D01*
X109906076Y-140522200D02*
X109953695Y-140474580D01*
X109953695Y-140474580D02*
X110001314Y-140379342D01*
X110001314Y-140379342D02*
X110001314Y-140093628D01*
X110001314Y-140093628D02*
X109953695Y-139998390D01*
X109953695Y-139998390D02*
X109906076Y-139950771D01*
X109906076Y-139950771D02*
X109810838Y-139903152D01*
X109810838Y-139903152D02*
X109667981Y-139903152D01*
X109667981Y-139903152D02*
X109572743Y-139950771D01*
X109572743Y-139950771D02*
X109525124Y-139998390D01*
X109525124Y-139998390D02*
X109477505Y-140093628D01*
X109477505Y-140093628D02*
X109477505Y-140379342D01*
X109477505Y-140379342D02*
X109525124Y-140474580D01*
X109525124Y-140474580D02*
X109572743Y-140522200D01*
X109572743Y-140522200D02*
X109667981Y-140569819D01*
X109667981Y-140569819D02*
X109810838Y-140569819D01*
X108620362Y-140569819D02*
X108620362Y-139569819D01*
X108620362Y-140522200D02*
X108715600Y-140569819D01*
X108715600Y-140569819D02*
X108906076Y-140569819D01*
X108906076Y-140569819D02*
X109001314Y-140522200D01*
X109001314Y-140522200D02*
X109048933Y-140474580D01*
X109048933Y-140474580D02*
X109096552Y-140379342D01*
X109096552Y-140379342D02*
X109096552Y-140093628D01*
X109096552Y-140093628D02*
X109048933Y-139998390D01*
X109048933Y-139998390D02*
X109001314Y-139950771D01*
X109001314Y-139950771D02*
X108906076Y-139903152D01*
X108906076Y-139903152D02*
X108715600Y-139903152D01*
X108715600Y-139903152D02*
X108620362Y-139950771D01*
X107429886Y-139522200D02*
X108287028Y-140807914D01*
X106620362Y-140569819D02*
X107096552Y-140569819D01*
X107096552Y-140569819D02*
X107096552Y-139569819D01*
X105858457Y-139903152D02*
X105858457Y-140569819D01*
X106287028Y-139903152D02*
X106287028Y-140426961D01*
X106287028Y-140426961D02*
X106239409Y-140522200D01*
X106239409Y-140522200D02*
X106144171Y-140569819D01*
X106144171Y-140569819D02*
X106001314Y-140569819D01*
X106001314Y-140569819D02*
X105906076Y-140522200D01*
X105906076Y-140522200D02*
X105858457Y-140474580D01*
X105382266Y-140569819D02*
X105382266Y-139569819D01*
X105382266Y-139569819D02*
X105048933Y-140284104D01*
X105048933Y-140284104D02*
X104715600Y-139569819D01*
X104715600Y-139569819D02*
X104715600Y-140569819D01*
X104096552Y-140569819D02*
X104191790Y-140522200D01*
X104191790Y-140522200D02*
X104239409Y-140474580D01*
X104239409Y-140474580D02*
X104287028Y-140379342D01*
X104287028Y-140379342D02*
X104287028Y-140093628D01*
X104287028Y-140093628D02*
X104239409Y-139998390D01*
X104239409Y-139998390D02*
X104191790Y-139950771D01*
X104191790Y-139950771D02*
X104096552Y-139903152D01*
X104096552Y-139903152D02*
X103953695Y-139903152D01*
X103953695Y-139903152D02*
X103858457Y-139950771D01*
X103858457Y-139950771D02*
X103810838Y-139998390D01*
X103810838Y-139998390D02*
X103763219Y-140093628D01*
X103763219Y-140093628D02*
X103763219Y-140379342D01*
X103763219Y-140379342D02*
X103810838Y-140474580D01*
X103810838Y-140474580D02*
X103858457Y-140522200D01*
X103858457Y-140522200D02*
X103953695Y-140569819D01*
X103953695Y-140569819D02*
X104096552Y-140569819D01*
X103334647Y-140569819D02*
X103334647Y-139569819D01*
X102763219Y-140569819D02*
X103191790Y-139998390D01*
X102763219Y-139569819D02*
X103334647Y-140141247D01*
X101953695Y-140522200D02*
X102048933Y-140569819D01*
X102048933Y-140569819D02*
X102239409Y-140569819D01*
X102239409Y-140569819D02*
X102334647Y-140522200D01*
X102334647Y-140522200D02*
X102382266Y-140426961D01*
X102382266Y-140426961D02*
X102382266Y-140046009D01*
X102382266Y-140046009D02*
X102334647Y-139950771D01*
X102334647Y-139950771D02*
X102239409Y-139903152D01*
X102239409Y-139903152D02*
X102048933Y-139903152D01*
X102048933Y-139903152D02*
X101953695Y-139950771D01*
X101953695Y-139950771D02*
X101906076Y-140046009D01*
X101906076Y-140046009D02*
X101906076Y-140141247D01*
X101906076Y-140141247D02*
X102382266Y-140236485D01*
X101572742Y-139903152D02*
X101334647Y-140569819D01*
X101096552Y-139903152D02*
X101334647Y-140569819D01*
X101334647Y-140569819D02*
X101429885Y-140807914D01*
X101429885Y-140807914D02*
X101477504Y-140855533D01*
X101477504Y-140855533D02*
X101572742Y-140903152D01*
X100715599Y-140569819D02*
X100715599Y-139569819D01*
X100715599Y-139950771D02*
X100620361Y-139903152D01*
X100620361Y-139903152D02*
X100429885Y-139903152D01*
X100429885Y-139903152D02*
X100334647Y-139950771D01*
X100334647Y-139950771D02*
X100287028Y-139998390D01*
X100287028Y-139998390D02*
X100239409Y-140093628D01*
X100239409Y-140093628D02*
X100239409Y-140379342D01*
X100239409Y-140379342D02*
X100287028Y-140474580D01*
X100287028Y-140474580D02*
X100334647Y-140522200D01*
X100334647Y-140522200D02*
X100429885Y-140569819D01*
X100429885Y-140569819D02*
X100620361Y-140569819D01*
X100620361Y-140569819D02*
X100715599Y-140522200D01*
X99667980Y-140569819D02*
X99763218Y-140522200D01*
X99763218Y-140522200D02*
X99810837Y-140474580D01*
X99810837Y-140474580D02*
X99858456Y-140379342D01*
X99858456Y-140379342D02*
X99858456Y-140093628D01*
X99858456Y-140093628D02*
X99810837Y-139998390D01*
X99810837Y-139998390D02*
X99763218Y-139950771D01*
X99763218Y-139950771D02*
X99667980Y-139903152D01*
X99667980Y-139903152D02*
X99525123Y-139903152D01*
X99525123Y-139903152D02*
X99429885Y-139950771D01*
X99429885Y-139950771D02*
X99382266Y-139998390D01*
X99382266Y-139998390D02*
X99334647Y-140093628D01*
X99334647Y-140093628D02*
X99334647Y-140379342D01*
X99334647Y-140379342D02*
X99382266Y-140474580D01*
X99382266Y-140474580D02*
X99429885Y-140522200D01*
X99429885Y-140522200D02*
X99525123Y-140569819D01*
X99525123Y-140569819D02*
X99667980Y-140569819D01*
X98477504Y-140569819D02*
X98477504Y-140046009D01*
X98477504Y-140046009D02*
X98525123Y-139950771D01*
X98525123Y-139950771D02*
X98620361Y-139903152D01*
X98620361Y-139903152D02*
X98810837Y-139903152D01*
X98810837Y-139903152D02*
X98906075Y-139950771D01*
X98477504Y-140522200D02*
X98572742Y-140569819D01*
X98572742Y-140569819D02*
X98810837Y-140569819D01*
X98810837Y-140569819D02*
X98906075Y-140522200D01*
X98906075Y-140522200D02*
X98953694Y-140426961D01*
X98953694Y-140426961D02*
X98953694Y-140331723D01*
X98953694Y-140331723D02*
X98906075Y-140236485D01*
X98906075Y-140236485D02*
X98810837Y-140188866D01*
X98810837Y-140188866D02*
X98572742Y-140188866D01*
X98572742Y-140188866D02*
X98477504Y-140141247D01*
X98001313Y-140569819D02*
X98001313Y-139903152D01*
X98001313Y-140093628D02*
X97953694Y-139998390D01*
X97953694Y-139998390D02*
X97906075Y-139950771D01*
X97906075Y-139950771D02*
X97810837Y-139903152D01*
X97810837Y-139903152D02*
X97715599Y-139903152D01*
X96953694Y-140569819D02*
X96953694Y-139569819D01*
X96953694Y-140522200D02*
X97048932Y-140569819D01*
X97048932Y-140569819D02*
X97239408Y-140569819D01*
X97239408Y-140569819D02*
X97334646Y-140522200D01*
X97334646Y-140522200D02*
X97382265Y-140474580D01*
X97382265Y-140474580D02*
X97429884Y-140379342D01*
X97429884Y-140379342D02*
X97429884Y-140093628D01*
X97429884Y-140093628D02*
X97382265Y-139998390D01*
X97382265Y-139998390D02*
X97334646Y-139950771D01*
X97334646Y-139950771D02*
X97239408Y-139903152D01*
X97239408Y-139903152D02*
X97048932Y-139903152D01*
X97048932Y-139903152D02*
X96953694Y-139950771D01*
D11*
X103159774Y-29800828D02*
X102874060Y-29800828D01*
X102874060Y-29800828D02*
X102731203Y-29872257D01*
X102731203Y-29872257D02*
X102588346Y-30015114D01*
X102588346Y-30015114D02*
X102516917Y-30300828D01*
X102516917Y-30300828D02*
X102516917Y-30800828D01*
X102516917Y-30800828D02*
X102588346Y-31086542D01*
X102588346Y-31086542D02*
X102731203Y-31229400D01*
X102731203Y-31229400D02*
X102874060Y-31300828D01*
X102874060Y-31300828D02*
X103159774Y-31300828D01*
X103159774Y-31300828D02*
X103302632Y-31229400D01*
X103302632Y-31229400D02*
X103445489Y-31086542D01*
X103445489Y-31086542D02*
X103516917Y-30800828D01*
X103516917Y-30800828D02*
X103516917Y-30300828D01*
X103516917Y-30300828D02*
X103445489Y-30015114D01*
X103445489Y-30015114D02*
X103302632Y-29872257D01*
X103302632Y-29872257D02*
X103159774Y-29800828D01*
X101874060Y-31300828D02*
X101874060Y-29800828D01*
X101874060Y-29800828D02*
X101016917Y-31300828D01*
X101016917Y-31300828D02*
X101016917Y-29800828D01*
D10*
X92238095Y-32654819D02*
X92571428Y-32178628D01*
X92809523Y-32654819D02*
X92809523Y-31654819D01*
X92809523Y-31654819D02*
X92428571Y-31654819D01*
X92428571Y-31654819D02*
X92333333Y-31702438D01*
X92333333Y-31702438D02*
X92285714Y-31750057D01*
X92285714Y-31750057D02*
X92238095Y-31845295D01*
X92238095Y-31845295D02*
X92238095Y-31988152D01*
X92238095Y-31988152D02*
X92285714Y-32083390D01*
X92285714Y-32083390D02*
X92333333Y-32131009D01*
X92333333Y-32131009D02*
X92428571Y-32178628D01*
X92428571Y-32178628D02*
X92809523Y-32178628D01*
X91428571Y-32607200D02*
X91523809Y-32654819D01*
X91523809Y-32654819D02*
X91714285Y-32654819D01*
X91714285Y-32654819D02*
X91809523Y-32607200D01*
X91809523Y-32607200D02*
X91857142Y-32511961D01*
X91857142Y-32511961D02*
X91857142Y-32131009D01*
X91857142Y-32131009D02*
X91809523Y-32035771D01*
X91809523Y-32035771D02*
X91714285Y-31988152D01*
X91714285Y-31988152D02*
X91523809Y-31988152D01*
X91523809Y-31988152D02*
X91428571Y-32035771D01*
X91428571Y-32035771D02*
X91380952Y-32131009D01*
X91380952Y-32131009D02*
X91380952Y-32226247D01*
X91380952Y-32226247D02*
X91857142Y-32321485D01*
X90999999Y-32607200D02*
X90904761Y-32654819D01*
X90904761Y-32654819D02*
X90714285Y-32654819D01*
X90714285Y-32654819D02*
X90619047Y-32607200D01*
X90619047Y-32607200D02*
X90571428Y-32511961D01*
X90571428Y-32511961D02*
X90571428Y-32464342D01*
X90571428Y-32464342D02*
X90619047Y-32369104D01*
X90619047Y-32369104D02*
X90714285Y-32321485D01*
X90714285Y-32321485D02*
X90857142Y-32321485D01*
X90857142Y-32321485D02*
X90952380Y-32273866D01*
X90952380Y-32273866D02*
X90999999Y-32178628D01*
X90999999Y-32178628D02*
X90999999Y-32131009D01*
X90999999Y-32131009D02*
X90952380Y-32035771D01*
X90952380Y-32035771D02*
X90857142Y-31988152D01*
X90857142Y-31988152D02*
X90714285Y-31988152D01*
X90714285Y-31988152D02*
X90619047Y-32035771D01*
X89761904Y-32607200D02*
X89857142Y-32654819D01*
X89857142Y-32654819D02*
X90047618Y-32654819D01*
X90047618Y-32654819D02*
X90142856Y-32607200D01*
X90142856Y-32607200D02*
X90190475Y-32511961D01*
X90190475Y-32511961D02*
X90190475Y-32131009D01*
X90190475Y-32131009D02*
X90142856Y-32035771D01*
X90142856Y-32035771D02*
X90047618Y-31988152D01*
X90047618Y-31988152D02*
X89857142Y-31988152D01*
X89857142Y-31988152D02*
X89761904Y-32035771D01*
X89761904Y-32035771D02*
X89714285Y-32131009D01*
X89714285Y-32131009D02*
X89714285Y-32226247D01*
X89714285Y-32226247D02*
X90190475Y-32321485D01*
X89428570Y-31988152D02*
X89047618Y-31988152D01*
X89285713Y-31654819D02*
X89285713Y-32511961D01*
X89285713Y-32511961D02*
X89238094Y-32607200D01*
X89238094Y-32607200D02*
X89142856Y-32654819D01*
X89142856Y-32654819D02*
X89047618Y-32654819D01*
D12*
X75246740Y-30209800D02*
X75175312Y-30233609D01*
X75175312Y-30233609D02*
X75056264Y-30233609D01*
X75056264Y-30233609D02*
X75008645Y-30209800D01*
X75008645Y-30209800D02*
X74984836Y-30185990D01*
X74984836Y-30185990D02*
X74961026Y-30138371D01*
X74961026Y-30138371D02*
X74961026Y-30090752D01*
X74961026Y-30090752D02*
X74984836Y-30043133D01*
X74984836Y-30043133D02*
X75008645Y-30019323D01*
X75008645Y-30019323D02*
X75056264Y-29995514D01*
X75056264Y-29995514D02*
X75151502Y-29971704D01*
X75151502Y-29971704D02*
X75199121Y-29947895D01*
X75199121Y-29947895D02*
X75222931Y-29924085D01*
X75222931Y-29924085D02*
X75246740Y-29876466D01*
X75246740Y-29876466D02*
X75246740Y-29828847D01*
X75246740Y-29828847D02*
X75222931Y-29781228D01*
X75222931Y-29781228D02*
X75199121Y-29757419D01*
X75199121Y-29757419D02*
X75151502Y-29733609D01*
X75151502Y-29733609D02*
X75032455Y-29733609D01*
X75032455Y-29733609D02*
X74961026Y-29757419D01*
X74461027Y-30185990D02*
X74484836Y-30209800D01*
X74484836Y-30209800D02*
X74556265Y-30233609D01*
X74556265Y-30233609D02*
X74603884Y-30233609D01*
X74603884Y-30233609D02*
X74675312Y-30209800D01*
X74675312Y-30209800D02*
X74722931Y-30162180D01*
X74722931Y-30162180D02*
X74746741Y-30114561D01*
X74746741Y-30114561D02*
X74770550Y-30019323D01*
X74770550Y-30019323D02*
X74770550Y-29947895D01*
X74770550Y-29947895D02*
X74746741Y-29852657D01*
X74746741Y-29852657D02*
X74722931Y-29805038D01*
X74722931Y-29805038D02*
X74675312Y-29757419D01*
X74675312Y-29757419D02*
X74603884Y-29733609D01*
X74603884Y-29733609D02*
X74556265Y-29733609D01*
X74556265Y-29733609D02*
X74484836Y-29757419D01*
X74484836Y-29757419D02*
X74461027Y-29781228D01*
X74246741Y-30233609D02*
X74246741Y-29733609D01*
X73961027Y-30233609D02*
X74175312Y-29947895D01*
X73961027Y-29733609D02*
X74246741Y-30019323D01*
X75246740Y-32233609D02*
X75080074Y-32733609D01*
X75080074Y-32733609D02*
X74913407Y-32233609D01*
X74461027Y-32685990D02*
X74484836Y-32709800D01*
X74484836Y-32709800D02*
X74556265Y-32733609D01*
X74556265Y-32733609D02*
X74603884Y-32733609D01*
X74603884Y-32733609D02*
X74675312Y-32709800D01*
X74675312Y-32709800D02*
X74722931Y-32662180D01*
X74722931Y-32662180D02*
X74746741Y-32614561D01*
X74746741Y-32614561D02*
X74770550Y-32519323D01*
X74770550Y-32519323D02*
X74770550Y-32447895D01*
X74770550Y-32447895D02*
X74746741Y-32352657D01*
X74746741Y-32352657D02*
X74722931Y-32305038D01*
X74722931Y-32305038D02*
X74675312Y-32257419D01*
X74675312Y-32257419D02*
X74603884Y-32233609D01*
X74603884Y-32233609D02*
X74556265Y-32233609D01*
X74556265Y-32233609D02*
X74484836Y-32257419D01*
X74484836Y-32257419D02*
X74461027Y-32281228D01*
X73961027Y-32685990D02*
X73984836Y-32709800D01*
X73984836Y-32709800D02*
X74056265Y-32733609D01*
X74056265Y-32733609D02*
X74103884Y-32733609D01*
X74103884Y-32733609D02*
X74175312Y-32709800D01*
X74175312Y-32709800D02*
X74222931Y-32662180D01*
X74222931Y-32662180D02*
X74246741Y-32614561D01*
X74246741Y-32614561D02*
X74270550Y-32519323D01*
X74270550Y-32519323D02*
X74270550Y-32447895D01*
X74270550Y-32447895D02*
X74246741Y-32352657D01*
X74246741Y-32352657D02*
X74222931Y-32305038D01*
X74222931Y-32305038D02*
X74175312Y-32257419D01*
X74175312Y-32257419D02*
X74103884Y-32233609D01*
X74103884Y-32233609D02*
X74056265Y-32233609D01*
X74056265Y-32233609D02*
X73984836Y-32257419D01*
X73984836Y-32257419D02*
X73961027Y-32281228D01*
X74908646Y-34957419D02*
X74956265Y-34933609D01*
X74956265Y-34933609D02*
X75027694Y-34933609D01*
X75027694Y-34933609D02*
X75099122Y-34957419D01*
X75099122Y-34957419D02*
X75146741Y-35005038D01*
X75146741Y-35005038D02*
X75170551Y-35052657D01*
X75170551Y-35052657D02*
X75194360Y-35147895D01*
X75194360Y-35147895D02*
X75194360Y-35219323D01*
X75194360Y-35219323D02*
X75170551Y-35314561D01*
X75170551Y-35314561D02*
X75146741Y-35362180D01*
X75146741Y-35362180D02*
X75099122Y-35409800D01*
X75099122Y-35409800D02*
X75027694Y-35433609D01*
X75027694Y-35433609D02*
X74980075Y-35433609D01*
X74980075Y-35433609D02*
X74908646Y-35409800D01*
X74908646Y-35409800D02*
X74884837Y-35385990D01*
X74884837Y-35385990D02*
X74884837Y-35219323D01*
X74884837Y-35219323D02*
X74980075Y-35219323D01*
X74670551Y-35433609D02*
X74670551Y-34933609D01*
X74670551Y-34933609D02*
X74384837Y-35433609D01*
X74384837Y-35433609D02*
X74384837Y-34933609D01*
X74146741Y-35433609D02*
X74146741Y-34933609D01*
X74146741Y-34933609D02*
X74027693Y-34933609D01*
X74027693Y-34933609D02*
X73956265Y-34957419D01*
X73956265Y-34957419D02*
X73908646Y-35005038D01*
X73908646Y-35005038D02*
X73884836Y-35052657D01*
X73884836Y-35052657D02*
X73861027Y-35147895D01*
X73861027Y-35147895D02*
X73861027Y-35219323D01*
X73861027Y-35219323D02*
X73884836Y-35314561D01*
X73884836Y-35314561D02*
X73908646Y-35362180D01*
X73908646Y-35362180D02*
X73956265Y-35409800D01*
X73956265Y-35409800D02*
X74027693Y-35433609D01*
X74027693Y-35433609D02*
X74146741Y-35433609D01*
X74437217Y-37885990D02*
X74461026Y-37909800D01*
X74461026Y-37909800D02*
X74532455Y-37933609D01*
X74532455Y-37933609D02*
X74580074Y-37933609D01*
X74580074Y-37933609D02*
X74651502Y-37909800D01*
X74651502Y-37909800D02*
X74699121Y-37862180D01*
X74699121Y-37862180D02*
X74722931Y-37814561D01*
X74722931Y-37814561D02*
X74746740Y-37719323D01*
X74746740Y-37719323D02*
X74746740Y-37647895D01*
X74746740Y-37647895D02*
X74722931Y-37552657D01*
X74722931Y-37552657D02*
X74699121Y-37505038D01*
X74699121Y-37505038D02*
X74651502Y-37457419D01*
X74651502Y-37457419D02*
X74580074Y-37433609D01*
X74580074Y-37433609D02*
X74532455Y-37433609D01*
X74532455Y-37433609D02*
X74461026Y-37457419D01*
X74461026Y-37457419D02*
X74437217Y-37481228D01*
X74246740Y-37909800D02*
X74175312Y-37933609D01*
X74175312Y-37933609D02*
X74056264Y-37933609D01*
X74056264Y-37933609D02*
X74008645Y-37909800D01*
X74008645Y-37909800D02*
X73984836Y-37885990D01*
X73984836Y-37885990D02*
X73961026Y-37838371D01*
X73961026Y-37838371D02*
X73961026Y-37790752D01*
X73961026Y-37790752D02*
X73984836Y-37743133D01*
X73984836Y-37743133D02*
X74008645Y-37719323D01*
X74008645Y-37719323D02*
X74056264Y-37695514D01*
X74056264Y-37695514D02*
X74151502Y-37671704D01*
X74151502Y-37671704D02*
X74199121Y-37647895D01*
X74199121Y-37647895D02*
X74222931Y-37624085D01*
X74222931Y-37624085D02*
X74246740Y-37576466D01*
X74246740Y-37576466D02*
X74246740Y-37528847D01*
X74246740Y-37528847D02*
X74222931Y-37481228D01*
X74222931Y-37481228D02*
X74199121Y-37457419D01*
X74199121Y-37457419D02*
X74151502Y-37433609D01*
X74151502Y-37433609D02*
X74032455Y-37433609D01*
X74032455Y-37433609D02*
X73961026Y-37457419D01*
X75556265Y-27733609D02*
X75556265Y-27233609D01*
X75556265Y-27233609D02*
X75389598Y-27590752D01*
X75389598Y-27590752D02*
X75222932Y-27233609D01*
X75222932Y-27233609D02*
X75222932Y-27733609D01*
X74889598Y-27233609D02*
X74794360Y-27233609D01*
X74794360Y-27233609D02*
X74746741Y-27257419D01*
X74746741Y-27257419D02*
X74699122Y-27305038D01*
X74699122Y-27305038D02*
X74675312Y-27400276D01*
X74675312Y-27400276D02*
X74675312Y-27566942D01*
X74675312Y-27566942D02*
X74699122Y-27662180D01*
X74699122Y-27662180D02*
X74746741Y-27709800D01*
X74746741Y-27709800D02*
X74794360Y-27733609D01*
X74794360Y-27733609D02*
X74889598Y-27733609D01*
X74889598Y-27733609D02*
X74937217Y-27709800D01*
X74937217Y-27709800D02*
X74984836Y-27662180D01*
X74984836Y-27662180D02*
X75008645Y-27566942D01*
X75008645Y-27566942D02*
X75008645Y-27400276D01*
X75008645Y-27400276D02*
X74984836Y-27305038D01*
X74984836Y-27305038D02*
X74937217Y-27257419D01*
X74937217Y-27257419D02*
X74889598Y-27233609D01*
X74484835Y-27709800D02*
X74413407Y-27733609D01*
X74413407Y-27733609D02*
X74294359Y-27733609D01*
X74294359Y-27733609D02*
X74246740Y-27709800D01*
X74246740Y-27709800D02*
X74222931Y-27685990D01*
X74222931Y-27685990D02*
X74199121Y-27638371D01*
X74199121Y-27638371D02*
X74199121Y-27590752D01*
X74199121Y-27590752D02*
X74222931Y-27543133D01*
X74222931Y-27543133D02*
X74246740Y-27519323D01*
X74246740Y-27519323D02*
X74294359Y-27495514D01*
X74294359Y-27495514D02*
X74389597Y-27471704D01*
X74389597Y-27471704D02*
X74437216Y-27447895D01*
X74437216Y-27447895D02*
X74461026Y-27424085D01*
X74461026Y-27424085D02*
X74484835Y-27376466D01*
X74484835Y-27376466D02*
X74484835Y-27328847D01*
X74484835Y-27328847D02*
X74461026Y-27281228D01*
X74461026Y-27281228D02*
X74437216Y-27257419D01*
X74437216Y-27257419D02*
X74389597Y-27233609D01*
X74389597Y-27233609D02*
X74270550Y-27233609D01*
X74270550Y-27233609D02*
X74199121Y-27257419D01*
X73984836Y-27733609D02*
X73984836Y-27233609D01*
D11*
X65159774Y-134617257D02*
X66588346Y-134617257D01*
X66588346Y-134617257D02*
X66588346Y-131617257D01*
X62874061Y-132617257D02*
X62874061Y-134617257D01*
X64159775Y-132617257D02*
X64159775Y-134188685D01*
X64159775Y-134188685D02*
X64016918Y-134474400D01*
X64016918Y-134474400D02*
X63731203Y-134617257D01*
X63731203Y-134617257D02*
X63302632Y-134617257D01*
X63302632Y-134617257D02*
X63016918Y-134474400D01*
X63016918Y-134474400D02*
X62874061Y-134331542D01*
X61445489Y-134617257D02*
X61445489Y-131617257D01*
X61445489Y-131617257D02*
X60445489Y-133760114D01*
X60445489Y-133760114D02*
X59445489Y-131617257D01*
X59445489Y-131617257D02*
X59445489Y-134617257D01*
X57588346Y-134617257D02*
X57874061Y-134474400D01*
X57874061Y-134474400D02*
X58016918Y-134331542D01*
X58016918Y-134331542D02*
X58159775Y-134045828D01*
X58159775Y-134045828D02*
X58159775Y-133188685D01*
X58159775Y-133188685D02*
X58016918Y-132902971D01*
X58016918Y-132902971D02*
X57874061Y-132760114D01*
X57874061Y-132760114D02*
X57588346Y-132617257D01*
X57588346Y-132617257D02*
X57159775Y-132617257D01*
X57159775Y-132617257D02*
X56874061Y-132760114D01*
X56874061Y-132760114D02*
X56731204Y-132902971D01*
X56731204Y-132902971D02*
X56588346Y-133188685D01*
X56588346Y-133188685D02*
X56588346Y-134045828D01*
X56588346Y-134045828D02*
X56731204Y-134331542D01*
X56731204Y-134331542D02*
X56874061Y-134474400D01*
X56874061Y-134474400D02*
X57159775Y-134617257D01*
X57159775Y-134617257D02*
X57588346Y-134617257D01*
D10*
X53792295Y-27162809D02*
X53792295Y-27238999D01*
X53792295Y-27238999D02*
X53830390Y-27315190D01*
X53830390Y-27315190D02*
X53868485Y-27353285D01*
X53868485Y-27353285D02*
X53944676Y-27391380D01*
X53944676Y-27391380D02*
X54097057Y-27429475D01*
X54097057Y-27429475D02*
X54287533Y-27429475D01*
X54287533Y-27429475D02*
X54439914Y-27391380D01*
X54439914Y-27391380D02*
X54516104Y-27353285D01*
X54516104Y-27353285D02*
X54554200Y-27315190D01*
X54554200Y-27315190D02*
X54592295Y-27238999D01*
X54592295Y-27238999D02*
X54592295Y-27162809D01*
X54592295Y-27162809D02*
X54554200Y-27086618D01*
X54554200Y-27086618D02*
X54516104Y-27048523D01*
X54516104Y-27048523D02*
X54439914Y-27010428D01*
X54439914Y-27010428D02*
X54287533Y-26972332D01*
X54287533Y-26972332D02*
X54097057Y-26972332D01*
X54097057Y-26972332D02*
X53944676Y-27010428D01*
X53944676Y-27010428D02*
X53868485Y-27048523D01*
X53868485Y-27048523D02*
X53830390Y-27086618D01*
X53830390Y-27086618D02*
X53792295Y-27162809D01*
X53868485Y-27734237D02*
X53830390Y-27772333D01*
X53830390Y-27772333D02*
X53792295Y-27848523D01*
X53792295Y-27848523D02*
X53792295Y-28038999D01*
X53792295Y-28038999D02*
X53830390Y-28115190D01*
X53830390Y-28115190D02*
X53868485Y-28153285D01*
X53868485Y-28153285D02*
X53944676Y-28191380D01*
X53944676Y-28191380D02*
X54020866Y-28191380D01*
X54020866Y-28191380D02*
X54135152Y-28153285D01*
X54135152Y-28153285D02*
X54592295Y-27696142D01*
X54592295Y-27696142D02*
X54592295Y-28191380D01*
X54592295Y-28572333D02*
X54592295Y-28724714D01*
X54592295Y-28724714D02*
X54554200Y-28800904D01*
X54554200Y-28800904D02*
X54516104Y-28839000D01*
X54516104Y-28839000D02*
X54401819Y-28915190D01*
X54401819Y-28915190D02*
X54249438Y-28953285D01*
X54249438Y-28953285D02*
X53944676Y-28953285D01*
X53944676Y-28953285D02*
X53868485Y-28915190D01*
X53868485Y-28915190D02*
X53830390Y-28877095D01*
X53830390Y-28877095D02*
X53792295Y-28800904D01*
X53792295Y-28800904D02*
X53792295Y-28648523D01*
X53792295Y-28648523D02*
X53830390Y-28572333D01*
X53830390Y-28572333D02*
X53868485Y-28534238D01*
X53868485Y-28534238D02*
X53944676Y-28496142D01*
X53944676Y-28496142D02*
X54135152Y-28496142D01*
X54135152Y-28496142D02*
X54211342Y-28534238D01*
X54211342Y-28534238D02*
X54249438Y-28572333D01*
X54249438Y-28572333D02*
X54287533Y-28648523D01*
X54287533Y-28648523D02*
X54287533Y-28800904D01*
X54287533Y-28800904D02*
X54249438Y-28877095D01*
X54249438Y-28877095D02*
X54211342Y-28915190D01*
X54211342Y-28915190D02*
X54135152Y-28953285D01*
X46972295Y-27473905D02*
X46591342Y-27207238D01*
X46972295Y-27016762D02*
X46172295Y-27016762D01*
X46172295Y-27016762D02*
X46172295Y-27321524D01*
X46172295Y-27321524D02*
X46210390Y-27397714D01*
X46210390Y-27397714D02*
X46248485Y-27435809D01*
X46248485Y-27435809D02*
X46324676Y-27473905D01*
X46324676Y-27473905D02*
X46438961Y-27473905D01*
X46438961Y-27473905D02*
X46515152Y-27435809D01*
X46515152Y-27435809D02*
X46553247Y-27397714D01*
X46553247Y-27397714D02*
X46591342Y-27321524D01*
X46591342Y-27321524D02*
X46591342Y-27016762D01*
X46934200Y-27778666D02*
X46972295Y-27892952D01*
X46972295Y-27892952D02*
X46972295Y-28083428D01*
X46972295Y-28083428D02*
X46934200Y-28159619D01*
X46934200Y-28159619D02*
X46896104Y-28197714D01*
X46896104Y-28197714D02*
X46819914Y-28235809D01*
X46819914Y-28235809D02*
X46743723Y-28235809D01*
X46743723Y-28235809D02*
X46667533Y-28197714D01*
X46667533Y-28197714D02*
X46629438Y-28159619D01*
X46629438Y-28159619D02*
X46591342Y-28083428D01*
X46591342Y-28083428D02*
X46553247Y-27931047D01*
X46553247Y-27931047D02*
X46515152Y-27854857D01*
X46515152Y-27854857D02*
X46477057Y-27816762D01*
X46477057Y-27816762D02*
X46400866Y-27778666D01*
X46400866Y-27778666D02*
X46324676Y-27778666D01*
X46324676Y-27778666D02*
X46248485Y-27816762D01*
X46248485Y-27816762D02*
X46210390Y-27854857D01*
X46210390Y-27854857D02*
X46172295Y-27931047D01*
X46172295Y-27931047D02*
X46172295Y-28121524D01*
X46172295Y-28121524D02*
X46210390Y-28235809D01*
X46172295Y-28464381D02*
X46172295Y-28921524D01*
X46972295Y-28692952D02*
X46172295Y-28692952D01*
X62212295Y-27429475D02*
X62212295Y-26972332D01*
X62212295Y-27200904D02*
X61412295Y-27200904D01*
X61412295Y-27200904D02*
X61526580Y-27124713D01*
X61526580Y-27124713D02*
X61602771Y-27048523D01*
X61602771Y-27048523D02*
X61640866Y-26972332D01*
X62212295Y-28191380D02*
X62212295Y-27734237D01*
X62212295Y-27962809D02*
X61412295Y-27962809D01*
X61412295Y-27962809D02*
X61526580Y-27886618D01*
X61526580Y-27886618D02*
X61602771Y-27810428D01*
X61602771Y-27810428D02*
X61640866Y-27734237D01*
X61412295Y-28458047D02*
X61412295Y-28953285D01*
X61412295Y-28953285D02*
X61717057Y-28686619D01*
X61717057Y-28686619D02*
X61717057Y-28800904D01*
X61717057Y-28800904D02*
X61755152Y-28877095D01*
X61755152Y-28877095D02*
X61793247Y-28915190D01*
X61793247Y-28915190D02*
X61869438Y-28953285D01*
X61869438Y-28953285D02*
X62059914Y-28953285D01*
X62059914Y-28953285D02*
X62136104Y-28915190D01*
X62136104Y-28915190D02*
X62174200Y-28877095D01*
X62174200Y-28877095D02*
X62212295Y-28800904D01*
X62212295Y-28800904D02*
X62212295Y-28572333D01*
X62212295Y-28572333D02*
X62174200Y-28496142D01*
X62174200Y-28496142D02*
X62136104Y-28458047D01*
X53862295Y-38237190D02*
X53862295Y-38313380D01*
X53862295Y-38313380D02*
X53900390Y-38389571D01*
X53900390Y-38389571D02*
X53938485Y-38427666D01*
X53938485Y-38427666D02*
X54014676Y-38465761D01*
X54014676Y-38465761D02*
X54167057Y-38503856D01*
X54167057Y-38503856D02*
X54357533Y-38503856D01*
X54357533Y-38503856D02*
X54509914Y-38465761D01*
X54509914Y-38465761D02*
X54586104Y-38427666D01*
X54586104Y-38427666D02*
X54624200Y-38389571D01*
X54624200Y-38389571D02*
X54662295Y-38313380D01*
X54662295Y-38313380D02*
X54662295Y-38237190D01*
X54662295Y-38237190D02*
X54624200Y-38160999D01*
X54624200Y-38160999D02*
X54586104Y-38122904D01*
X54586104Y-38122904D02*
X54509914Y-38084809D01*
X54509914Y-38084809D02*
X54357533Y-38046713D01*
X54357533Y-38046713D02*
X54167057Y-38046713D01*
X54167057Y-38046713D02*
X54014676Y-38084809D01*
X54014676Y-38084809D02*
X53938485Y-38122904D01*
X53938485Y-38122904D02*
X53900390Y-38160999D01*
X53900390Y-38160999D02*
X53862295Y-38237190D01*
X53938485Y-38808618D02*
X53900390Y-38846714D01*
X53900390Y-38846714D02*
X53862295Y-38922904D01*
X53862295Y-38922904D02*
X53862295Y-39113380D01*
X53862295Y-39113380D02*
X53900390Y-39189571D01*
X53900390Y-39189571D02*
X53938485Y-39227666D01*
X53938485Y-39227666D02*
X54014676Y-39265761D01*
X54014676Y-39265761D02*
X54090866Y-39265761D01*
X54090866Y-39265761D02*
X54205152Y-39227666D01*
X54205152Y-39227666D02*
X54662295Y-38770523D01*
X54662295Y-38770523D02*
X54662295Y-39265761D01*
X53862295Y-39761000D02*
X53862295Y-39837190D01*
X53862295Y-39837190D02*
X53900390Y-39913381D01*
X53900390Y-39913381D02*
X53938485Y-39951476D01*
X53938485Y-39951476D02*
X54014676Y-39989571D01*
X54014676Y-39989571D02*
X54167057Y-40027666D01*
X54167057Y-40027666D02*
X54357533Y-40027666D01*
X54357533Y-40027666D02*
X54509914Y-39989571D01*
X54509914Y-39989571D02*
X54586104Y-39951476D01*
X54586104Y-39951476D02*
X54624200Y-39913381D01*
X54624200Y-39913381D02*
X54662295Y-39837190D01*
X54662295Y-39837190D02*
X54662295Y-39761000D01*
X54662295Y-39761000D02*
X54624200Y-39684809D01*
X54624200Y-39684809D02*
X54586104Y-39646714D01*
X54586104Y-39646714D02*
X54509914Y-39608619D01*
X54509914Y-39608619D02*
X54357533Y-39570523D01*
X54357533Y-39570523D02*
X54167057Y-39570523D01*
X54167057Y-39570523D02*
X54014676Y-39608619D01*
X54014676Y-39608619D02*
X53938485Y-39646714D01*
X53938485Y-39646714D02*
X53900390Y-39684809D01*
X53900390Y-39684809D02*
X53862295Y-39761000D01*
X38933247Y-38891904D02*
X38971342Y-39006190D01*
X38971342Y-39006190D02*
X39009438Y-39044285D01*
X39009438Y-39044285D02*
X39085628Y-39082381D01*
X39085628Y-39082381D02*
X39199914Y-39082381D01*
X39199914Y-39082381D02*
X39276104Y-39044285D01*
X39276104Y-39044285D02*
X39314200Y-39006190D01*
X39314200Y-39006190D02*
X39352295Y-38930000D01*
X39352295Y-38930000D02*
X39352295Y-38625238D01*
X39352295Y-38625238D02*
X38552295Y-38625238D01*
X38552295Y-38625238D02*
X38552295Y-38891904D01*
X38552295Y-38891904D02*
X38590390Y-38968095D01*
X38590390Y-38968095D02*
X38628485Y-39006190D01*
X38628485Y-39006190D02*
X38704676Y-39044285D01*
X38704676Y-39044285D02*
X38780866Y-39044285D01*
X38780866Y-39044285D02*
X38857057Y-39006190D01*
X38857057Y-39006190D02*
X38895152Y-38968095D01*
X38895152Y-38968095D02*
X38933247Y-38891904D01*
X38933247Y-38891904D02*
X38933247Y-38625238D01*
X39047533Y-39425238D02*
X39047533Y-40034762D01*
X67292295Y-38503856D02*
X67292295Y-38046713D01*
X67292295Y-38275285D02*
X66492295Y-38275285D01*
X66492295Y-38275285D02*
X66606580Y-38199094D01*
X66606580Y-38199094D02*
X66682771Y-38122904D01*
X66682771Y-38122904D02*
X66720866Y-38046713D01*
X66492295Y-38999095D02*
X66492295Y-39075285D01*
X66492295Y-39075285D02*
X66530390Y-39151476D01*
X66530390Y-39151476D02*
X66568485Y-39189571D01*
X66568485Y-39189571D02*
X66644676Y-39227666D01*
X66644676Y-39227666D02*
X66797057Y-39265761D01*
X66797057Y-39265761D02*
X66987533Y-39265761D01*
X66987533Y-39265761D02*
X67139914Y-39227666D01*
X67139914Y-39227666D02*
X67216104Y-39189571D01*
X67216104Y-39189571D02*
X67254200Y-39151476D01*
X67254200Y-39151476D02*
X67292295Y-39075285D01*
X67292295Y-39075285D02*
X67292295Y-38999095D01*
X67292295Y-38999095D02*
X67254200Y-38922904D01*
X67254200Y-38922904D02*
X67216104Y-38884809D01*
X67216104Y-38884809D02*
X67139914Y-38846714D01*
X67139914Y-38846714D02*
X66987533Y-38808618D01*
X66987533Y-38808618D02*
X66797057Y-38808618D01*
X66797057Y-38808618D02*
X66644676Y-38846714D01*
X66644676Y-38846714D02*
X66568485Y-38884809D01*
X66568485Y-38884809D02*
X66530390Y-38922904D01*
X66530390Y-38922904D02*
X66492295Y-38999095D01*
X66758961Y-39951476D02*
X67292295Y-39951476D01*
X66454200Y-39761000D02*
X67025628Y-39570523D01*
X67025628Y-39570523D02*
X67025628Y-40065762D01*
X64752295Y-27429475D02*
X64752295Y-26972332D01*
X64752295Y-27200904D02*
X63952295Y-27200904D01*
X63952295Y-27200904D02*
X64066580Y-27124713D01*
X64066580Y-27124713D02*
X64142771Y-27048523D01*
X64142771Y-27048523D02*
X64180866Y-26972332D01*
X64752295Y-28191380D02*
X64752295Y-27734237D01*
X64752295Y-27962809D02*
X63952295Y-27962809D01*
X63952295Y-27962809D02*
X64066580Y-27886618D01*
X64066580Y-27886618D02*
X64142771Y-27810428D01*
X64142771Y-27810428D02*
X64180866Y-27734237D01*
X64752295Y-28953285D02*
X64752295Y-28496142D01*
X64752295Y-28724714D02*
X63952295Y-28724714D01*
X63952295Y-28724714D02*
X64066580Y-28648523D01*
X64066580Y-28648523D02*
X64142771Y-28572333D01*
X64142771Y-28572333D02*
X64180866Y-28496142D01*
X51252295Y-38237190D02*
X51252295Y-38313380D01*
X51252295Y-38313380D02*
X51290390Y-38389571D01*
X51290390Y-38389571D02*
X51328485Y-38427666D01*
X51328485Y-38427666D02*
X51404676Y-38465761D01*
X51404676Y-38465761D02*
X51557057Y-38503856D01*
X51557057Y-38503856D02*
X51747533Y-38503856D01*
X51747533Y-38503856D02*
X51899914Y-38465761D01*
X51899914Y-38465761D02*
X51976104Y-38427666D01*
X51976104Y-38427666D02*
X52014200Y-38389571D01*
X52014200Y-38389571D02*
X52052295Y-38313380D01*
X52052295Y-38313380D02*
X52052295Y-38237190D01*
X52052295Y-38237190D02*
X52014200Y-38160999D01*
X52014200Y-38160999D02*
X51976104Y-38122904D01*
X51976104Y-38122904D02*
X51899914Y-38084809D01*
X51899914Y-38084809D02*
X51747533Y-38046713D01*
X51747533Y-38046713D02*
X51557057Y-38046713D01*
X51557057Y-38046713D02*
X51404676Y-38084809D01*
X51404676Y-38084809D02*
X51328485Y-38122904D01*
X51328485Y-38122904D02*
X51290390Y-38160999D01*
X51290390Y-38160999D02*
X51252295Y-38237190D01*
X52052295Y-39265761D02*
X52052295Y-38808618D01*
X52052295Y-39037190D02*
X51252295Y-39037190D01*
X51252295Y-39037190D02*
X51366580Y-38960999D01*
X51366580Y-38960999D02*
X51442771Y-38884809D01*
X51442771Y-38884809D02*
X51480866Y-38808618D01*
X51252295Y-39532428D02*
X51252295Y-40065762D01*
X51252295Y-40065762D02*
X52052295Y-39722904D01*
X59672295Y-27429475D02*
X59672295Y-26972332D01*
X59672295Y-27200904D02*
X58872295Y-27200904D01*
X58872295Y-27200904D02*
X58986580Y-27124713D01*
X58986580Y-27124713D02*
X59062771Y-27048523D01*
X59062771Y-27048523D02*
X59100866Y-26972332D01*
X59672295Y-28191380D02*
X59672295Y-27734237D01*
X59672295Y-27962809D02*
X58872295Y-27962809D01*
X58872295Y-27962809D02*
X58986580Y-27886618D01*
X58986580Y-27886618D02*
X59062771Y-27810428D01*
X59062771Y-27810428D02*
X59100866Y-27734237D01*
X58872295Y-28915190D02*
X58872295Y-28534238D01*
X58872295Y-28534238D02*
X59253247Y-28496142D01*
X59253247Y-28496142D02*
X59215152Y-28534238D01*
X59215152Y-28534238D02*
X59177057Y-28610428D01*
X59177057Y-28610428D02*
X59177057Y-28800904D01*
X59177057Y-28800904D02*
X59215152Y-28877095D01*
X59215152Y-28877095D02*
X59253247Y-28915190D01*
X59253247Y-28915190D02*
X59329438Y-28953285D01*
X59329438Y-28953285D02*
X59519914Y-28953285D01*
X59519914Y-28953285D02*
X59596104Y-28915190D01*
X59596104Y-28915190D02*
X59634200Y-28877095D01*
X59634200Y-28877095D02*
X59672295Y-28800904D01*
X59672295Y-28800904D02*
X59672295Y-28610428D01*
X59672295Y-28610428D02*
X59634200Y-28534238D01*
X59634200Y-28534238D02*
X59596104Y-28496142D01*
X41892295Y-27473904D02*
X41511342Y-27207237D01*
X41892295Y-27016761D02*
X41092295Y-27016761D01*
X41092295Y-27016761D02*
X41092295Y-27321523D01*
X41092295Y-27321523D02*
X41130390Y-27397713D01*
X41130390Y-27397713D02*
X41168485Y-27435808D01*
X41168485Y-27435808D02*
X41244676Y-27473904D01*
X41244676Y-27473904D02*
X41358961Y-27473904D01*
X41358961Y-27473904D02*
X41435152Y-27435808D01*
X41435152Y-27435808D02*
X41473247Y-27397713D01*
X41473247Y-27397713D02*
X41511342Y-27321523D01*
X41511342Y-27321523D02*
X41511342Y-27016761D01*
X41663723Y-27778665D02*
X41663723Y-28159618D01*
X41892295Y-27702475D02*
X41092295Y-27969142D01*
X41092295Y-27969142D02*
X41892295Y-28235808D01*
X41092295Y-28426284D02*
X41892295Y-28616760D01*
X41892295Y-28616760D02*
X41320866Y-28769141D01*
X41320866Y-28769141D02*
X41892295Y-28921522D01*
X41892295Y-28921522D02*
X41092295Y-29111999D01*
X58862295Y-38237190D02*
X58862295Y-38313380D01*
X58862295Y-38313380D02*
X58900390Y-38389571D01*
X58900390Y-38389571D02*
X58938485Y-38427666D01*
X58938485Y-38427666D02*
X59014676Y-38465761D01*
X59014676Y-38465761D02*
X59167057Y-38503856D01*
X59167057Y-38503856D02*
X59357533Y-38503856D01*
X59357533Y-38503856D02*
X59509914Y-38465761D01*
X59509914Y-38465761D02*
X59586104Y-38427666D01*
X59586104Y-38427666D02*
X59624200Y-38389571D01*
X59624200Y-38389571D02*
X59662295Y-38313380D01*
X59662295Y-38313380D02*
X59662295Y-38237190D01*
X59662295Y-38237190D02*
X59624200Y-38160999D01*
X59624200Y-38160999D02*
X59586104Y-38122904D01*
X59586104Y-38122904D02*
X59509914Y-38084809D01*
X59509914Y-38084809D02*
X59357533Y-38046713D01*
X59357533Y-38046713D02*
X59167057Y-38046713D01*
X59167057Y-38046713D02*
X59014676Y-38084809D01*
X59014676Y-38084809D02*
X58938485Y-38122904D01*
X58938485Y-38122904D02*
X58900390Y-38160999D01*
X58900390Y-38160999D02*
X58862295Y-38237190D01*
X58938485Y-38808618D02*
X58900390Y-38846714D01*
X58900390Y-38846714D02*
X58862295Y-38922904D01*
X58862295Y-38922904D02*
X58862295Y-39113380D01*
X58862295Y-39113380D02*
X58900390Y-39189571D01*
X58900390Y-39189571D02*
X58938485Y-39227666D01*
X58938485Y-39227666D02*
X59014676Y-39265761D01*
X59014676Y-39265761D02*
X59090866Y-39265761D01*
X59090866Y-39265761D02*
X59205152Y-39227666D01*
X59205152Y-39227666D02*
X59662295Y-38770523D01*
X59662295Y-38770523D02*
X59662295Y-39265761D01*
X59128961Y-39951476D02*
X59662295Y-39951476D01*
X58824200Y-39761000D02*
X59395628Y-39570523D01*
X59395628Y-39570523D02*
X59395628Y-40065762D01*
X38933247Y-27201904D02*
X38971342Y-27316190D01*
X38971342Y-27316190D02*
X39009438Y-27354285D01*
X39009438Y-27354285D02*
X39085628Y-27392381D01*
X39085628Y-27392381D02*
X39199914Y-27392381D01*
X39199914Y-27392381D02*
X39276104Y-27354285D01*
X39276104Y-27354285D02*
X39314200Y-27316190D01*
X39314200Y-27316190D02*
X39352295Y-27240000D01*
X39352295Y-27240000D02*
X39352295Y-26935238D01*
X39352295Y-26935238D02*
X38552295Y-26935238D01*
X38552295Y-26935238D02*
X38552295Y-27201904D01*
X38552295Y-27201904D02*
X38590390Y-27278095D01*
X38590390Y-27278095D02*
X38628485Y-27316190D01*
X38628485Y-27316190D02*
X38704676Y-27354285D01*
X38704676Y-27354285D02*
X38780866Y-27354285D01*
X38780866Y-27354285D02*
X38857057Y-27316190D01*
X38857057Y-27316190D02*
X38895152Y-27278095D01*
X38895152Y-27278095D02*
X38933247Y-27201904D01*
X38933247Y-27201904D02*
X38933247Y-26935238D01*
X39047533Y-27735238D02*
X39047533Y-28344762D01*
X39352295Y-28040000D02*
X38742771Y-28040000D01*
X56362295Y-38237190D02*
X56362295Y-38313380D01*
X56362295Y-38313380D02*
X56400390Y-38389571D01*
X56400390Y-38389571D02*
X56438485Y-38427666D01*
X56438485Y-38427666D02*
X56514676Y-38465761D01*
X56514676Y-38465761D02*
X56667057Y-38503856D01*
X56667057Y-38503856D02*
X56857533Y-38503856D01*
X56857533Y-38503856D02*
X57009914Y-38465761D01*
X57009914Y-38465761D02*
X57086104Y-38427666D01*
X57086104Y-38427666D02*
X57124200Y-38389571D01*
X57124200Y-38389571D02*
X57162295Y-38313380D01*
X57162295Y-38313380D02*
X57162295Y-38237190D01*
X57162295Y-38237190D02*
X57124200Y-38160999D01*
X57124200Y-38160999D02*
X57086104Y-38122904D01*
X57086104Y-38122904D02*
X57009914Y-38084809D01*
X57009914Y-38084809D02*
X56857533Y-38046713D01*
X56857533Y-38046713D02*
X56667057Y-38046713D01*
X56667057Y-38046713D02*
X56514676Y-38084809D01*
X56514676Y-38084809D02*
X56438485Y-38122904D01*
X56438485Y-38122904D02*
X56400390Y-38160999D01*
X56400390Y-38160999D02*
X56362295Y-38237190D01*
X56438485Y-38808618D02*
X56400390Y-38846714D01*
X56400390Y-38846714D02*
X56362295Y-38922904D01*
X56362295Y-38922904D02*
X56362295Y-39113380D01*
X56362295Y-39113380D02*
X56400390Y-39189571D01*
X56400390Y-39189571D02*
X56438485Y-39227666D01*
X56438485Y-39227666D02*
X56514676Y-39265761D01*
X56514676Y-39265761D02*
X56590866Y-39265761D01*
X56590866Y-39265761D02*
X56705152Y-39227666D01*
X56705152Y-39227666D02*
X57162295Y-38770523D01*
X57162295Y-38770523D02*
X57162295Y-39265761D01*
X56438485Y-39570523D02*
X56400390Y-39608619D01*
X56400390Y-39608619D02*
X56362295Y-39684809D01*
X56362295Y-39684809D02*
X56362295Y-39875285D01*
X56362295Y-39875285D02*
X56400390Y-39951476D01*
X56400390Y-39951476D02*
X56438485Y-39989571D01*
X56438485Y-39989571D02*
X56514676Y-40027666D01*
X56514676Y-40027666D02*
X56590866Y-40027666D01*
X56590866Y-40027666D02*
X56705152Y-39989571D01*
X56705152Y-39989571D02*
X57162295Y-39532428D01*
X57162295Y-39532428D02*
X57162295Y-40027666D01*
X46210390Y-38351476D02*
X46172295Y-38275286D01*
X46172295Y-38275286D02*
X46172295Y-38161000D01*
X46172295Y-38161000D02*
X46210390Y-38046714D01*
X46210390Y-38046714D02*
X46286580Y-37970524D01*
X46286580Y-37970524D02*
X46362771Y-37932429D01*
X46362771Y-37932429D02*
X46515152Y-37894333D01*
X46515152Y-37894333D02*
X46629438Y-37894333D01*
X46629438Y-37894333D02*
X46781819Y-37932429D01*
X46781819Y-37932429D02*
X46858009Y-37970524D01*
X46858009Y-37970524D02*
X46934200Y-38046714D01*
X46934200Y-38046714D02*
X46972295Y-38161000D01*
X46972295Y-38161000D02*
X46972295Y-38237191D01*
X46972295Y-38237191D02*
X46934200Y-38351476D01*
X46934200Y-38351476D02*
X46896104Y-38389572D01*
X46896104Y-38389572D02*
X46629438Y-38389572D01*
X46629438Y-38389572D02*
X46629438Y-38237191D01*
X46972295Y-38732429D02*
X46172295Y-38732429D01*
X46172295Y-38732429D02*
X46972295Y-39189572D01*
X46972295Y-39189572D02*
X46172295Y-39189572D01*
X46972295Y-39570524D02*
X46172295Y-39570524D01*
X46172295Y-39570524D02*
X46172295Y-39761000D01*
X46172295Y-39761000D02*
X46210390Y-39875286D01*
X46210390Y-39875286D02*
X46286580Y-39951476D01*
X46286580Y-39951476D02*
X46362771Y-39989571D01*
X46362771Y-39989571D02*
X46515152Y-40027667D01*
X46515152Y-40027667D02*
X46629438Y-40027667D01*
X46629438Y-40027667D02*
X46781819Y-39989571D01*
X46781819Y-39989571D02*
X46858009Y-39951476D01*
X46858009Y-39951476D02*
X46934200Y-39875286D01*
X46934200Y-39875286D02*
X46972295Y-39761000D01*
X46972295Y-39761000D02*
X46972295Y-39570524D01*
X48750390Y-38351476D02*
X48712295Y-38275286D01*
X48712295Y-38275286D02*
X48712295Y-38161000D01*
X48712295Y-38161000D02*
X48750390Y-38046714D01*
X48750390Y-38046714D02*
X48826580Y-37970524D01*
X48826580Y-37970524D02*
X48902771Y-37932429D01*
X48902771Y-37932429D02*
X49055152Y-37894333D01*
X49055152Y-37894333D02*
X49169438Y-37894333D01*
X49169438Y-37894333D02*
X49321819Y-37932429D01*
X49321819Y-37932429D02*
X49398009Y-37970524D01*
X49398009Y-37970524D02*
X49474200Y-38046714D01*
X49474200Y-38046714D02*
X49512295Y-38161000D01*
X49512295Y-38161000D02*
X49512295Y-38237191D01*
X49512295Y-38237191D02*
X49474200Y-38351476D01*
X49474200Y-38351476D02*
X49436104Y-38389572D01*
X49436104Y-38389572D02*
X49169438Y-38389572D01*
X49169438Y-38389572D02*
X49169438Y-38237191D01*
X49512295Y-38732429D02*
X48712295Y-38732429D01*
X48712295Y-38732429D02*
X49512295Y-39189572D01*
X49512295Y-39189572D02*
X48712295Y-39189572D01*
X49512295Y-39570524D02*
X48712295Y-39570524D01*
X48712295Y-39570524D02*
X48712295Y-39761000D01*
X48712295Y-39761000D02*
X48750390Y-39875286D01*
X48750390Y-39875286D02*
X48826580Y-39951476D01*
X48826580Y-39951476D02*
X48902771Y-39989571D01*
X48902771Y-39989571D02*
X49055152Y-40027667D01*
X49055152Y-40027667D02*
X49169438Y-40027667D01*
X49169438Y-40027667D02*
X49321819Y-39989571D01*
X49321819Y-39989571D02*
X49398009Y-39951476D01*
X49398009Y-39951476D02*
X49474200Y-39875286D01*
X49474200Y-39875286D02*
X49512295Y-39761000D01*
X49512295Y-39761000D02*
X49512295Y-39570524D01*
X66492295Y-27162809D02*
X66492295Y-27238999D01*
X66492295Y-27238999D02*
X66530390Y-27315190D01*
X66530390Y-27315190D02*
X66568485Y-27353285D01*
X66568485Y-27353285D02*
X66644676Y-27391380D01*
X66644676Y-27391380D02*
X66797057Y-27429475D01*
X66797057Y-27429475D02*
X66987533Y-27429475D01*
X66987533Y-27429475D02*
X67139914Y-27391380D01*
X67139914Y-27391380D02*
X67216104Y-27353285D01*
X67216104Y-27353285D02*
X67254200Y-27315190D01*
X67254200Y-27315190D02*
X67292295Y-27238999D01*
X67292295Y-27238999D02*
X67292295Y-27162809D01*
X67292295Y-27162809D02*
X67254200Y-27086618D01*
X67254200Y-27086618D02*
X67216104Y-27048523D01*
X67216104Y-27048523D02*
X67139914Y-27010428D01*
X67139914Y-27010428D02*
X66987533Y-26972332D01*
X66987533Y-26972332D02*
X66797057Y-26972332D01*
X66797057Y-26972332D02*
X66644676Y-27010428D01*
X66644676Y-27010428D02*
X66568485Y-27048523D01*
X66568485Y-27048523D02*
X66530390Y-27086618D01*
X66530390Y-27086618D02*
X66492295Y-27162809D01*
X67292295Y-28191380D02*
X67292295Y-27734237D01*
X67292295Y-27962809D02*
X66492295Y-27962809D01*
X66492295Y-27962809D02*
X66606580Y-27886618D01*
X66606580Y-27886618D02*
X66682771Y-27810428D01*
X66682771Y-27810428D02*
X66720866Y-27734237D01*
X66492295Y-28686619D02*
X66492295Y-28762809D01*
X66492295Y-28762809D02*
X66530390Y-28839000D01*
X66530390Y-28839000D02*
X66568485Y-28877095D01*
X66568485Y-28877095D02*
X66644676Y-28915190D01*
X66644676Y-28915190D02*
X66797057Y-28953285D01*
X66797057Y-28953285D02*
X66987533Y-28953285D01*
X66987533Y-28953285D02*
X67139914Y-28915190D01*
X67139914Y-28915190D02*
X67216104Y-28877095D01*
X67216104Y-28877095D02*
X67254200Y-28839000D01*
X67254200Y-28839000D02*
X67292295Y-28762809D01*
X67292295Y-28762809D02*
X67292295Y-28686619D01*
X67292295Y-28686619D02*
X67254200Y-28610428D01*
X67254200Y-28610428D02*
X67216104Y-28572333D01*
X67216104Y-28572333D02*
X67139914Y-28534238D01*
X67139914Y-28534238D02*
X66987533Y-28496142D01*
X66987533Y-28496142D02*
X66797057Y-28496142D01*
X66797057Y-28496142D02*
X66644676Y-28534238D01*
X66644676Y-28534238D02*
X66568485Y-28572333D01*
X66568485Y-28572333D02*
X66530390Y-28610428D01*
X66530390Y-28610428D02*
X66492295Y-28686619D01*
X62212295Y-38503856D02*
X62212295Y-38046713D01*
X62212295Y-38275285D02*
X61412295Y-38275285D01*
X61412295Y-38275285D02*
X61526580Y-38199094D01*
X61526580Y-38199094D02*
X61602771Y-38122904D01*
X61602771Y-38122904D02*
X61640866Y-38046713D01*
X61412295Y-38999095D02*
X61412295Y-39075285D01*
X61412295Y-39075285D02*
X61450390Y-39151476D01*
X61450390Y-39151476D02*
X61488485Y-39189571D01*
X61488485Y-39189571D02*
X61564676Y-39227666D01*
X61564676Y-39227666D02*
X61717057Y-39265761D01*
X61717057Y-39265761D02*
X61907533Y-39265761D01*
X61907533Y-39265761D02*
X62059914Y-39227666D01*
X62059914Y-39227666D02*
X62136104Y-39189571D01*
X62136104Y-39189571D02*
X62174200Y-39151476D01*
X62174200Y-39151476D02*
X62212295Y-39075285D01*
X62212295Y-39075285D02*
X62212295Y-38999095D01*
X62212295Y-38999095D02*
X62174200Y-38922904D01*
X62174200Y-38922904D02*
X62136104Y-38884809D01*
X62136104Y-38884809D02*
X62059914Y-38846714D01*
X62059914Y-38846714D02*
X61907533Y-38808618D01*
X61907533Y-38808618D02*
X61717057Y-38808618D01*
X61717057Y-38808618D02*
X61564676Y-38846714D01*
X61564676Y-38846714D02*
X61488485Y-38884809D01*
X61488485Y-38884809D02*
X61450390Y-38922904D01*
X61450390Y-38922904D02*
X61412295Y-38999095D01*
X61412295Y-39761000D02*
X61412295Y-39837190D01*
X61412295Y-39837190D02*
X61450390Y-39913381D01*
X61450390Y-39913381D02*
X61488485Y-39951476D01*
X61488485Y-39951476D02*
X61564676Y-39989571D01*
X61564676Y-39989571D02*
X61717057Y-40027666D01*
X61717057Y-40027666D02*
X61907533Y-40027666D01*
X61907533Y-40027666D02*
X62059914Y-39989571D01*
X62059914Y-39989571D02*
X62136104Y-39951476D01*
X62136104Y-39951476D02*
X62174200Y-39913381D01*
X62174200Y-39913381D02*
X62212295Y-39837190D01*
X62212295Y-39837190D02*
X62212295Y-39761000D01*
X62212295Y-39761000D02*
X62174200Y-39684809D01*
X62174200Y-39684809D02*
X62136104Y-39646714D01*
X62136104Y-39646714D02*
X62059914Y-39608619D01*
X62059914Y-39608619D02*
X61907533Y-39570523D01*
X61907533Y-39570523D02*
X61717057Y-39570523D01*
X61717057Y-39570523D02*
X61564676Y-39608619D01*
X61564676Y-39608619D02*
X61488485Y-39646714D01*
X61488485Y-39646714D02*
X61450390Y-39684809D01*
X61450390Y-39684809D02*
X61412295Y-39761000D01*
X43670390Y-27435809D02*
X43632295Y-27359619D01*
X43632295Y-27359619D02*
X43632295Y-27245333D01*
X43632295Y-27245333D02*
X43670390Y-27131047D01*
X43670390Y-27131047D02*
X43746580Y-27054857D01*
X43746580Y-27054857D02*
X43822771Y-27016762D01*
X43822771Y-27016762D02*
X43975152Y-26978666D01*
X43975152Y-26978666D02*
X44089438Y-26978666D01*
X44089438Y-26978666D02*
X44241819Y-27016762D01*
X44241819Y-27016762D02*
X44318009Y-27054857D01*
X44318009Y-27054857D02*
X44394200Y-27131047D01*
X44394200Y-27131047D02*
X44432295Y-27245333D01*
X44432295Y-27245333D02*
X44432295Y-27321524D01*
X44432295Y-27321524D02*
X44394200Y-27435809D01*
X44394200Y-27435809D02*
X44356104Y-27473905D01*
X44356104Y-27473905D02*
X44089438Y-27473905D01*
X44089438Y-27473905D02*
X44089438Y-27321524D01*
X44432295Y-27816762D02*
X43632295Y-27816762D01*
X43632295Y-27816762D02*
X44432295Y-28273905D01*
X44432295Y-28273905D02*
X43632295Y-28273905D01*
X44432295Y-28654857D02*
X43632295Y-28654857D01*
X43632295Y-28654857D02*
X43632295Y-28845333D01*
X43632295Y-28845333D02*
X43670390Y-28959619D01*
X43670390Y-28959619D02*
X43746580Y-29035809D01*
X43746580Y-29035809D02*
X43822771Y-29073904D01*
X43822771Y-29073904D02*
X43975152Y-29112000D01*
X43975152Y-29112000D02*
X44089438Y-29112000D01*
X44089438Y-29112000D02*
X44241819Y-29073904D01*
X44241819Y-29073904D02*
X44318009Y-29035809D01*
X44318009Y-29035809D02*
X44394200Y-28959619D01*
X44394200Y-28959619D02*
X44432295Y-28845333D01*
X44432295Y-28845333D02*
X44432295Y-28654857D01*
X41092295Y-38237190D02*
X41092295Y-38313380D01*
X41092295Y-38313380D02*
X41130390Y-38389571D01*
X41130390Y-38389571D02*
X41168485Y-38427666D01*
X41168485Y-38427666D02*
X41244676Y-38465761D01*
X41244676Y-38465761D02*
X41397057Y-38503856D01*
X41397057Y-38503856D02*
X41587533Y-38503856D01*
X41587533Y-38503856D02*
X41739914Y-38465761D01*
X41739914Y-38465761D02*
X41816104Y-38427666D01*
X41816104Y-38427666D02*
X41854200Y-38389571D01*
X41854200Y-38389571D02*
X41892295Y-38313380D01*
X41892295Y-38313380D02*
X41892295Y-38237190D01*
X41892295Y-38237190D02*
X41854200Y-38160999D01*
X41854200Y-38160999D02*
X41816104Y-38122904D01*
X41816104Y-38122904D02*
X41739914Y-38084809D01*
X41739914Y-38084809D02*
X41587533Y-38046713D01*
X41587533Y-38046713D02*
X41397057Y-38046713D01*
X41397057Y-38046713D02*
X41244676Y-38084809D01*
X41244676Y-38084809D02*
X41168485Y-38122904D01*
X41168485Y-38122904D02*
X41130390Y-38160999D01*
X41130390Y-38160999D02*
X41092295Y-38237190D01*
X41092295Y-38999095D02*
X41092295Y-39075285D01*
X41092295Y-39075285D02*
X41130390Y-39151476D01*
X41130390Y-39151476D02*
X41168485Y-39189571D01*
X41168485Y-39189571D02*
X41244676Y-39227666D01*
X41244676Y-39227666D02*
X41397057Y-39265761D01*
X41397057Y-39265761D02*
X41587533Y-39265761D01*
X41587533Y-39265761D02*
X41739914Y-39227666D01*
X41739914Y-39227666D02*
X41816104Y-39189571D01*
X41816104Y-39189571D02*
X41854200Y-39151476D01*
X41854200Y-39151476D02*
X41892295Y-39075285D01*
X41892295Y-39075285D02*
X41892295Y-38999095D01*
X41892295Y-38999095D02*
X41854200Y-38922904D01*
X41854200Y-38922904D02*
X41816104Y-38884809D01*
X41816104Y-38884809D02*
X41739914Y-38846714D01*
X41739914Y-38846714D02*
X41587533Y-38808618D01*
X41587533Y-38808618D02*
X41397057Y-38808618D01*
X41397057Y-38808618D02*
X41244676Y-38846714D01*
X41244676Y-38846714D02*
X41168485Y-38884809D01*
X41168485Y-38884809D02*
X41130390Y-38922904D01*
X41130390Y-38922904D02*
X41092295Y-38999095D01*
X41092295Y-39951476D02*
X41092295Y-39799095D01*
X41092295Y-39799095D02*
X41130390Y-39722904D01*
X41130390Y-39722904D02*
X41168485Y-39684809D01*
X41168485Y-39684809D02*
X41282771Y-39608619D01*
X41282771Y-39608619D02*
X41435152Y-39570523D01*
X41435152Y-39570523D02*
X41739914Y-39570523D01*
X41739914Y-39570523D02*
X41816104Y-39608619D01*
X41816104Y-39608619D02*
X41854200Y-39646714D01*
X41854200Y-39646714D02*
X41892295Y-39722904D01*
X41892295Y-39722904D02*
X41892295Y-39875285D01*
X41892295Y-39875285D02*
X41854200Y-39951476D01*
X41854200Y-39951476D02*
X41816104Y-39989571D01*
X41816104Y-39989571D02*
X41739914Y-40027666D01*
X41739914Y-40027666D02*
X41549438Y-40027666D01*
X41549438Y-40027666D02*
X41473247Y-39989571D01*
X41473247Y-39989571D02*
X41435152Y-39951476D01*
X41435152Y-39951476D02*
X41397057Y-39875285D01*
X41397057Y-39875285D02*
X41397057Y-39722904D01*
X41397057Y-39722904D02*
X41435152Y-39646714D01*
X41435152Y-39646714D02*
X41473247Y-39608619D01*
X41473247Y-39608619D02*
X41549438Y-39570523D01*
X51252295Y-27162809D02*
X51252295Y-27238999D01*
X51252295Y-27238999D02*
X51290390Y-27315190D01*
X51290390Y-27315190D02*
X51328485Y-27353285D01*
X51328485Y-27353285D02*
X51404676Y-27391380D01*
X51404676Y-27391380D02*
X51557057Y-27429475D01*
X51557057Y-27429475D02*
X51747533Y-27429475D01*
X51747533Y-27429475D02*
X51899914Y-27391380D01*
X51899914Y-27391380D02*
X51976104Y-27353285D01*
X51976104Y-27353285D02*
X52014200Y-27315190D01*
X52014200Y-27315190D02*
X52052295Y-27238999D01*
X52052295Y-27238999D02*
X52052295Y-27162809D01*
X52052295Y-27162809D02*
X52014200Y-27086618D01*
X52014200Y-27086618D02*
X51976104Y-27048523D01*
X51976104Y-27048523D02*
X51899914Y-27010428D01*
X51899914Y-27010428D02*
X51747533Y-26972332D01*
X51747533Y-26972332D02*
X51557057Y-26972332D01*
X51557057Y-26972332D02*
X51404676Y-27010428D01*
X51404676Y-27010428D02*
X51328485Y-27048523D01*
X51328485Y-27048523D02*
X51290390Y-27086618D01*
X51290390Y-27086618D02*
X51252295Y-27162809D01*
X51252295Y-27696142D02*
X51252295Y-28191380D01*
X51252295Y-28191380D02*
X51557057Y-27924714D01*
X51557057Y-27924714D02*
X51557057Y-28038999D01*
X51557057Y-28038999D02*
X51595152Y-28115190D01*
X51595152Y-28115190D02*
X51633247Y-28153285D01*
X51633247Y-28153285D02*
X51709438Y-28191380D01*
X51709438Y-28191380D02*
X51899914Y-28191380D01*
X51899914Y-28191380D02*
X51976104Y-28153285D01*
X51976104Y-28153285D02*
X52014200Y-28115190D01*
X52014200Y-28115190D02*
X52052295Y-28038999D01*
X52052295Y-28038999D02*
X52052295Y-27810428D01*
X52052295Y-27810428D02*
X52014200Y-27734237D01*
X52014200Y-27734237D02*
X51976104Y-27696142D01*
X52052295Y-28953285D02*
X52052295Y-28496142D01*
X52052295Y-28724714D02*
X51252295Y-28724714D01*
X51252295Y-28724714D02*
X51366580Y-28648523D01*
X51366580Y-28648523D02*
X51442771Y-28572333D01*
X51442771Y-28572333D02*
X51480866Y-28496142D01*
X56332295Y-27162809D02*
X56332295Y-27238999D01*
X56332295Y-27238999D02*
X56370390Y-27315190D01*
X56370390Y-27315190D02*
X56408485Y-27353285D01*
X56408485Y-27353285D02*
X56484676Y-27391380D01*
X56484676Y-27391380D02*
X56637057Y-27429475D01*
X56637057Y-27429475D02*
X56827533Y-27429475D01*
X56827533Y-27429475D02*
X56979914Y-27391380D01*
X56979914Y-27391380D02*
X57056104Y-27353285D01*
X57056104Y-27353285D02*
X57094200Y-27315190D01*
X57094200Y-27315190D02*
X57132295Y-27238999D01*
X57132295Y-27238999D02*
X57132295Y-27162809D01*
X57132295Y-27162809D02*
X57094200Y-27086618D01*
X57094200Y-27086618D02*
X57056104Y-27048523D01*
X57056104Y-27048523D02*
X56979914Y-27010428D01*
X56979914Y-27010428D02*
X56827533Y-26972332D01*
X56827533Y-26972332D02*
X56637057Y-26972332D01*
X56637057Y-26972332D02*
X56484676Y-27010428D01*
X56484676Y-27010428D02*
X56408485Y-27048523D01*
X56408485Y-27048523D02*
X56370390Y-27086618D01*
X56370390Y-27086618D02*
X56332295Y-27162809D01*
X56332295Y-27924714D02*
X56332295Y-28000904D01*
X56332295Y-28000904D02*
X56370390Y-28077095D01*
X56370390Y-28077095D02*
X56408485Y-28115190D01*
X56408485Y-28115190D02*
X56484676Y-28153285D01*
X56484676Y-28153285D02*
X56637057Y-28191380D01*
X56637057Y-28191380D02*
X56827533Y-28191380D01*
X56827533Y-28191380D02*
X56979914Y-28153285D01*
X56979914Y-28153285D02*
X57056104Y-28115190D01*
X57056104Y-28115190D02*
X57094200Y-28077095D01*
X57094200Y-28077095D02*
X57132295Y-28000904D01*
X57132295Y-28000904D02*
X57132295Y-27924714D01*
X57132295Y-27924714D02*
X57094200Y-27848523D01*
X57094200Y-27848523D02*
X57056104Y-27810428D01*
X57056104Y-27810428D02*
X56979914Y-27772333D01*
X56979914Y-27772333D02*
X56827533Y-27734237D01*
X56827533Y-27734237D02*
X56637057Y-27734237D01*
X56637057Y-27734237D02*
X56484676Y-27772333D01*
X56484676Y-27772333D02*
X56408485Y-27810428D01*
X56408485Y-27810428D02*
X56370390Y-27848523D01*
X56370390Y-27848523D02*
X56332295Y-27924714D01*
X56408485Y-28496142D02*
X56370390Y-28534238D01*
X56370390Y-28534238D02*
X56332295Y-28610428D01*
X56332295Y-28610428D02*
X56332295Y-28800904D01*
X56332295Y-28800904D02*
X56370390Y-28877095D01*
X56370390Y-28877095D02*
X56408485Y-28915190D01*
X56408485Y-28915190D02*
X56484676Y-28953285D01*
X56484676Y-28953285D02*
X56560866Y-28953285D01*
X56560866Y-28953285D02*
X56675152Y-28915190D01*
X56675152Y-28915190D02*
X57132295Y-28458047D01*
X57132295Y-28458047D02*
X57132295Y-28953285D01*
X43562295Y-38237190D02*
X43562295Y-38313380D01*
X43562295Y-38313380D02*
X43600390Y-38389571D01*
X43600390Y-38389571D02*
X43638485Y-38427666D01*
X43638485Y-38427666D02*
X43714676Y-38465761D01*
X43714676Y-38465761D02*
X43867057Y-38503856D01*
X43867057Y-38503856D02*
X44057533Y-38503856D01*
X44057533Y-38503856D02*
X44209914Y-38465761D01*
X44209914Y-38465761D02*
X44286104Y-38427666D01*
X44286104Y-38427666D02*
X44324200Y-38389571D01*
X44324200Y-38389571D02*
X44362295Y-38313380D01*
X44362295Y-38313380D02*
X44362295Y-38237190D01*
X44362295Y-38237190D02*
X44324200Y-38160999D01*
X44324200Y-38160999D02*
X44286104Y-38122904D01*
X44286104Y-38122904D02*
X44209914Y-38084809D01*
X44209914Y-38084809D02*
X44057533Y-38046713D01*
X44057533Y-38046713D02*
X43867057Y-38046713D01*
X43867057Y-38046713D02*
X43714676Y-38084809D01*
X43714676Y-38084809D02*
X43638485Y-38122904D01*
X43638485Y-38122904D02*
X43600390Y-38160999D01*
X43600390Y-38160999D02*
X43562295Y-38237190D01*
X43562295Y-38999095D02*
X43562295Y-39075285D01*
X43562295Y-39075285D02*
X43600390Y-39151476D01*
X43600390Y-39151476D02*
X43638485Y-39189571D01*
X43638485Y-39189571D02*
X43714676Y-39227666D01*
X43714676Y-39227666D02*
X43867057Y-39265761D01*
X43867057Y-39265761D02*
X44057533Y-39265761D01*
X44057533Y-39265761D02*
X44209914Y-39227666D01*
X44209914Y-39227666D02*
X44286104Y-39189571D01*
X44286104Y-39189571D02*
X44324200Y-39151476D01*
X44324200Y-39151476D02*
X44362295Y-39075285D01*
X44362295Y-39075285D02*
X44362295Y-38999095D01*
X44362295Y-38999095D02*
X44324200Y-38922904D01*
X44324200Y-38922904D02*
X44286104Y-38884809D01*
X44286104Y-38884809D02*
X44209914Y-38846714D01*
X44209914Y-38846714D02*
X44057533Y-38808618D01*
X44057533Y-38808618D02*
X43867057Y-38808618D01*
X43867057Y-38808618D02*
X43714676Y-38846714D01*
X43714676Y-38846714D02*
X43638485Y-38884809D01*
X43638485Y-38884809D02*
X43600390Y-38922904D01*
X43600390Y-38922904D02*
X43562295Y-38999095D01*
X43905152Y-39722904D02*
X43867057Y-39646714D01*
X43867057Y-39646714D02*
X43828961Y-39608619D01*
X43828961Y-39608619D02*
X43752771Y-39570523D01*
X43752771Y-39570523D02*
X43714676Y-39570523D01*
X43714676Y-39570523D02*
X43638485Y-39608619D01*
X43638485Y-39608619D02*
X43600390Y-39646714D01*
X43600390Y-39646714D02*
X43562295Y-39722904D01*
X43562295Y-39722904D02*
X43562295Y-39875285D01*
X43562295Y-39875285D02*
X43600390Y-39951476D01*
X43600390Y-39951476D02*
X43638485Y-39989571D01*
X43638485Y-39989571D02*
X43714676Y-40027666D01*
X43714676Y-40027666D02*
X43752771Y-40027666D01*
X43752771Y-40027666D02*
X43828961Y-39989571D01*
X43828961Y-39989571D02*
X43867057Y-39951476D01*
X43867057Y-39951476D02*
X43905152Y-39875285D01*
X43905152Y-39875285D02*
X43905152Y-39722904D01*
X43905152Y-39722904D02*
X43943247Y-39646714D01*
X43943247Y-39646714D02*
X43981342Y-39608619D01*
X43981342Y-39608619D02*
X44057533Y-39570523D01*
X44057533Y-39570523D02*
X44209914Y-39570523D01*
X44209914Y-39570523D02*
X44286104Y-39608619D01*
X44286104Y-39608619D02*
X44324200Y-39646714D01*
X44324200Y-39646714D02*
X44362295Y-39722904D01*
X44362295Y-39722904D02*
X44362295Y-39875285D01*
X44362295Y-39875285D02*
X44324200Y-39951476D01*
X44324200Y-39951476D02*
X44286104Y-39989571D01*
X44286104Y-39989571D02*
X44209914Y-40027666D01*
X44209914Y-40027666D02*
X44057533Y-40027666D01*
X44057533Y-40027666D02*
X43981342Y-39989571D01*
X43981342Y-39989571D02*
X43943247Y-39951476D01*
X43943247Y-39951476D02*
X43905152Y-39875285D01*
X48712295Y-26896142D02*
X49512295Y-27162809D01*
X49512295Y-27162809D02*
X48712295Y-27429475D01*
X49436104Y-28153285D02*
X49474200Y-28115189D01*
X49474200Y-28115189D02*
X49512295Y-28000904D01*
X49512295Y-28000904D02*
X49512295Y-27924713D01*
X49512295Y-27924713D02*
X49474200Y-27810427D01*
X49474200Y-27810427D02*
X49398009Y-27734237D01*
X49398009Y-27734237D02*
X49321819Y-27696142D01*
X49321819Y-27696142D02*
X49169438Y-27658046D01*
X49169438Y-27658046D02*
X49055152Y-27658046D01*
X49055152Y-27658046D02*
X48902771Y-27696142D01*
X48902771Y-27696142D02*
X48826580Y-27734237D01*
X48826580Y-27734237D02*
X48750390Y-27810427D01*
X48750390Y-27810427D02*
X48712295Y-27924713D01*
X48712295Y-27924713D02*
X48712295Y-28000904D01*
X48712295Y-28000904D02*
X48750390Y-28115189D01*
X48750390Y-28115189D02*
X48788485Y-28153285D01*
X49436104Y-28953285D02*
X49474200Y-28915189D01*
X49474200Y-28915189D02*
X49512295Y-28800904D01*
X49512295Y-28800904D02*
X49512295Y-28724713D01*
X49512295Y-28724713D02*
X49474200Y-28610427D01*
X49474200Y-28610427D02*
X49398009Y-28534237D01*
X49398009Y-28534237D02*
X49321819Y-28496142D01*
X49321819Y-28496142D02*
X49169438Y-28458046D01*
X49169438Y-28458046D02*
X49055152Y-28458046D01*
X49055152Y-28458046D02*
X48902771Y-28496142D01*
X48902771Y-28496142D02*
X48826580Y-28534237D01*
X48826580Y-28534237D02*
X48750390Y-28610427D01*
X48750390Y-28610427D02*
X48712295Y-28724713D01*
X48712295Y-28724713D02*
X48712295Y-28800904D01*
X48712295Y-28800904D02*
X48750390Y-28915189D01*
X48750390Y-28915189D02*
X48788485Y-28953285D01*
D12*
X163644644Y-57103354D02*
X162907200Y-57078440D01*
X162907200Y-57078440D02*
X163512103Y-56655905D01*
X163059956Y-56303127D02*
X162999594Y-56216713D01*
X162999594Y-56216713D02*
X162958166Y-56194219D01*
X162958166Y-56194219D02*
X162884778Y-56181193D01*
X162884778Y-56181193D02*
X162788896Y-56209594D01*
X162788896Y-56209594D02*
X162734441Y-56260489D01*
X162734441Y-56260489D02*
X162711948Y-56301917D01*
X162711948Y-56301917D02*
X162698922Y-56375306D01*
X162698922Y-56375306D02*
X162774659Y-56630991D01*
X162774659Y-56630991D02*
X163445833Y-56432180D01*
X163445833Y-56432180D02*
X163379563Y-56208456D01*
X163379563Y-56208456D02*
X163328668Y-56154002D01*
X163328668Y-56154002D02*
X163287240Y-56131508D01*
X163287240Y-56131508D02*
X163213851Y-56118482D01*
X163213851Y-56118482D02*
X163149930Y-56137416D01*
X163149930Y-56137416D02*
X163095476Y-56188311D01*
X163095476Y-56188311D02*
X163072982Y-56229739D01*
X163072982Y-56229739D02*
X163059956Y-56303127D01*
X163059956Y-56303127D02*
X163126226Y-56526852D01*
X162777079Y-55934975D02*
X162682408Y-55615368D01*
X162604250Y-56055699D02*
X163209153Y-55633164D01*
X163209153Y-55633164D02*
X162471709Y-55608250D01*
X163105014Y-55281597D02*
X162991408Y-54898069D01*
X162377038Y-55288643D02*
X163048211Y-55089833D01*
X162652974Y-53520807D02*
X162703869Y-53575261D01*
X162703869Y-53575261D02*
X162732271Y-53671143D01*
X162732271Y-53671143D02*
X162728712Y-53776492D01*
X162728712Y-53776492D02*
X162683725Y-53859348D01*
X162683725Y-53859348D02*
X162629271Y-53910243D01*
X162629271Y-53910243D02*
X162510895Y-53980072D01*
X162510895Y-53980072D02*
X162415013Y-54008474D01*
X162415013Y-54008474D02*
X162277704Y-54014382D01*
X162277704Y-54014382D02*
X162204315Y-54001356D01*
X162204315Y-54001356D02*
X162121459Y-53956369D01*
X162121459Y-53956369D02*
X162061097Y-53869954D01*
X162061097Y-53869954D02*
X162042163Y-53806033D01*
X162042163Y-53806033D02*
X162045722Y-53700683D01*
X162045722Y-53700683D02*
X162068215Y-53659256D01*
X162068215Y-53659256D02*
X162291940Y-53592985D01*
X162291940Y-53592985D02*
X162329809Y-53720828D01*
X161919090Y-53390544D02*
X162590263Y-53191733D01*
X162590263Y-53191733D02*
X161805483Y-53007016D01*
X161805483Y-53007016D02*
X162476657Y-52808205D01*
X161710812Y-52687410D02*
X162381986Y-52488599D01*
X162381986Y-52488599D02*
X162334650Y-52328796D01*
X162334650Y-52328796D02*
X162274287Y-52242381D01*
X162274287Y-52242381D02*
X162191432Y-52197394D01*
X162191432Y-52197394D02*
X162118043Y-52184368D01*
X162118043Y-52184368D02*
X161980733Y-52190276D01*
X161980733Y-52190276D02*
X161884851Y-52218677D01*
X161884851Y-52218677D02*
X161766476Y-52288507D01*
X161766476Y-52288507D02*
X161712022Y-52339402D01*
X161712022Y-52339402D02*
X161667035Y-52422257D01*
X161667035Y-52422257D02*
X161663476Y-52527607D01*
X161663476Y-52527607D02*
X161710812Y-52687410D01*
D10*
X128236904Y-134754819D02*
X128236904Y-133754819D01*
X127665476Y-134754819D02*
X128094047Y-134183390D01*
X127665476Y-133754819D02*
X128236904Y-134326247D01*
X52236904Y-128087319D02*
X52236904Y-127087319D01*
X51665476Y-128087319D02*
X52094047Y-127515890D01*
X51665476Y-127087319D02*
X52236904Y-127658747D01*
X90086904Y-115704819D02*
X90086904Y-114704819D01*
X89515476Y-115704819D02*
X89944047Y-115133390D01*
X89515476Y-114704819D02*
X90086904Y-115276247D01*
X102434523Y-102694700D02*
X102291666Y-102742319D01*
X102291666Y-102742319D02*
X102053571Y-102742319D01*
X102053571Y-102742319D02*
X101958333Y-102694700D01*
X101958333Y-102694700D02*
X101910714Y-102647080D01*
X101910714Y-102647080D02*
X101863095Y-102551842D01*
X101863095Y-102551842D02*
X101863095Y-102456604D01*
X101863095Y-102456604D02*
X101910714Y-102361366D01*
X101910714Y-102361366D02*
X101958333Y-102313747D01*
X101958333Y-102313747D02*
X102053571Y-102266128D01*
X102053571Y-102266128D02*
X102244047Y-102218509D01*
X102244047Y-102218509D02*
X102339285Y-102170890D01*
X102339285Y-102170890D02*
X102386904Y-102123271D01*
X102386904Y-102123271D02*
X102434523Y-102028033D01*
X102434523Y-102028033D02*
X102434523Y-101932795D01*
X102434523Y-101932795D02*
X102386904Y-101837557D01*
X102386904Y-101837557D02*
X102339285Y-101789938D01*
X102339285Y-101789938D02*
X102244047Y-101742319D01*
X102244047Y-101742319D02*
X102005952Y-101742319D01*
X102005952Y-101742319D02*
X101863095Y-101789938D01*
X101529761Y-101742319D02*
X101291666Y-102742319D01*
X101291666Y-102742319D02*
X101101190Y-102028033D01*
X101101190Y-102028033D02*
X100910714Y-102742319D01*
X100910714Y-102742319D02*
X100672619Y-101742319D01*
X100339285Y-101837557D02*
X100291666Y-101789938D01*
X100291666Y-101789938D02*
X100196428Y-101742319D01*
X100196428Y-101742319D02*
X99958333Y-101742319D01*
X99958333Y-101742319D02*
X99863095Y-101789938D01*
X99863095Y-101789938D02*
X99815476Y-101837557D01*
X99815476Y-101837557D02*
X99767857Y-101932795D01*
X99767857Y-101932795D02*
X99767857Y-102028033D01*
X99767857Y-102028033D02*
X99815476Y-102170890D01*
X99815476Y-102170890D02*
X100386904Y-102742319D01*
X100386904Y-102742319D02*
X99767857Y-102742319D01*
X98815476Y-102742319D02*
X99386904Y-102742319D01*
X99101190Y-102742319D02*
X99101190Y-101742319D01*
X99101190Y-101742319D02*
X99196428Y-101885176D01*
X99196428Y-101885176D02*
X99291666Y-101980414D01*
X99291666Y-101980414D02*
X99386904Y-102028033D01*
X90086904Y-96654819D02*
X90086904Y-95654819D01*
X89515476Y-96654819D02*
X89944047Y-96083390D01*
X89515476Y-95654819D02*
X90086904Y-96226247D01*
X121008332Y-48402200D02*
X120865475Y-48449819D01*
X120865475Y-48449819D02*
X120627380Y-48449819D01*
X120627380Y-48449819D02*
X120532142Y-48402200D01*
X120532142Y-48402200D02*
X120484523Y-48354580D01*
X120484523Y-48354580D02*
X120436904Y-48259342D01*
X120436904Y-48259342D02*
X120436904Y-48164104D01*
X120436904Y-48164104D02*
X120484523Y-48068866D01*
X120484523Y-48068866D02*
X120532142Y-48021247D01*
X120532142Y-48021247D02*
X120627380Y-47973628D01*
X120627380Y-47973628D02*
X120817856Y-47926009D01*
X120817856Y-47926009D02*
X120913094Y-47878390D01*
X120913094Y-47878390D02*
X120960713Y-47830771D01*
X120960713Y-47830771D02*
X121008332Y-47735533D01*
X121008332Y-47735533D02*
X121008332Y-47640295D01*
X121008332Y-47640295D02*
X120960713Y-47545057D01*
X120960713Y-47545057D02*
X120913094Y-47497438D01*
X120913094Y-47497438D02*
X120817856Y-47449819D01*
X120817856Y-47449819D02*
X120579761Y-47449819D01*
X120579761Y-47449819D02*
X120436904Y-47497438D01*
X120103570Y-47449819D02*
X119865475Y-48449819D01*
X119865475Y-48449819D02*
X119674999Y-47735533D01*
X119674999Y-47735533D02*
X119484523Y-48449819D01*
X119484523Y-48449819D02*
X119246428Y-47449819D01*
X118960713Y-47449819D02*
X118341666Y-47449819D01*
X118341666Y-47449819D02*
X118674999Y-47830771D01*
X118674999Y-47830771D02*
X118532142Y-47830771D01*
X118532142Y-47830771D02*
X118436904Y-47878390D01*
X118436904Y-47878390D02*
X118389285Y-47926009D01*
X118389285Y-47926009D02*
X118341666Y-48021247D01*
X118341666Y-48021247D02*
X118341666Y-48259342D01*
X118341666Y-48259342D02*
X118389285Y-48354580D01*
X118389285Y-48354580D02*
X118436904Y-48402200D01*
X118436904Y-48402200D02*
X118532142Y-48449819D01*
X118532142Y-48449819D02*
X118817856Y-48449819D01*
X118817856Y-48449819D02*
X118913094Y-48402200D01*
X118913094Y-48402200D02*
X118960713Y-48354580D01*
X71036904Y-66174819D02*
X71036904Y-65174819D01*
X70465476Y-66174819D02*
X70894047Y-65603390D01*
X70465476Y-65174819D02*
X71036904Y-65746247D01*
X71036904Y-104274819D02*
X71036904Y-103274819D01*
X70465476Y-104274819D02*
X70894047Y-103703390D01*
X70465476Y-103274819D02*
X71036904Y-103846247D01*
X90086904Y-77604819D02*
X90086904Y-76604819D01*
X89515476Y-77604819D02*
X89944047Y-77033390D01*
X89515476Y-76604819D02*
X90086904Y-77176247D01*
X90086904Y-58554819D02*
X90086904Y-57554819D01*
X89515476Y-58554819D02*
X89944047Y-57983390D01*
X89515476Y-57554819D02*
X90086904Y-58126247D01*
X147236904Y-118562319D02*
X147236904Y-117562319D01*
X146665476Y-118562319D02*
X147094047Y-117990890D01*
X146665476Y-117562319D02*
X147236904Y-118133747D01*
X128186904Y-77604819D02*
X128186904Y-76604819D01*
X127615476Y-77604819D02*
X128044047Y-77033390D01*
X127615476Y-76604819D02*
X128186904Y-77176247D01*
X166286904Y-118562319D02*
X166286904Y-117562319D01*
X165715476Y-118562319D02*
X166144047Y-117990890D01*
X165715476Y-117562319D02*
X166286904Y-118133747D01*
X71036904Y-85224819D02*
X71036904Y-84224819D01*
X70465476Y-85224819D02*
X70894047Y-84653390D01*
X70465476Y-84224819D02*
X71036904Y-84796247D01*
X166286904Y-99512319D02*
X166286904Y-98512319D01*
X165715476Y-99512319D02*
X166144047Y-98940890D01*
X165715476Y-98512319D02*
X166286904Y-99083747D01*
X147236904Y-61412319D02*
X147236904Y-60412319D01*
X146665476Y-61412319D02*
X147094047Y-60840890D01*
X146665476Y-60412319D02*
X147236904Y-60983747D01*
X51986904Y-109037319D02*
X51986904Y-108037319D01*
X51415476Y-109037319D02*
X51844047Y-108465890D01*
X51415476Y-108037319D02*
X51986904Y-108608747D01*
X109136904Y-112847319D02*
X109136904Y-111847319D01*
X108565476Y-112847319D02*
X108994047Y-112275890D01*
X108565476Y-111847319D02*
X109136904Y-112418747D01*
X147236904Y-80462319D02*
X147236904Y-79462319D01*
X146665476Y-80462319D02*
X147094047Y-79890890D01*
X146665476Y-79462319D02*
X147236904Y-80033747D01*
X109136904Y-93797319D02*
X109136904Y-92797319D01*
X108565476Y-93797319D02*
X108994047Y-93225890D01*
X108565476Y-92797319D02*
X109136904Y-93368747D01*
X128186904Y-115704819D02*
X128186904Y-114704819D01*
X127615476Y-115704819D02*
X128044047Y-115133390D01*
X127615476Y-114704819D02*
X128186904Y-115276247D01*
X109136904Y-55697319D02*
X109136904Y-54697319D01*
X108565476Y-55697319D02*
X108994047Y-55125890D01*
X108565476Y-54697319D02*
X109136904Y-55268747D01*
X51986904Y-70937319D02*
X51986904Y-69937319D01*
X51415476Y-70937319D02*
X51844047Y-70365890D01*
X51415476Y-69937319D02*
X51986904Y-70508747D01*
X147236904Y-99512319D02*
X147236904Y-98512319D01*
X146665476Y-99512319D02*
X147094047Y-98940890D01*
X146665476Y-98512319D02*
X147236904Y-99083747D01*
X109186904Y-134754819D02*
X109186904Y-133754819D01*
X108615476Y-134754819D02*
X109044047Y-134183390D01*
X108615476Y-133754819D02*
X109186904Y-134326247D01*
X71036904Y-123324819D02*
X71036904Y-122324819D01*
X70465476Y-123324819D02*
X70894047Y-122753390D01*
X70465476Y-122324819D02*
X71036904Y-122896247D01*
X166286904Y-80462319D02*
X166286904Y-79462319D01*
X165715476Y-80462319D02*
X166144047Y-79890890D01*
X165715476Y-79462319D02*
X166286904Y-80033747D01*
X162199406Y-147124837D02*
X162699406Y-146258811D01*
X161704534Y-146839122D02*
X162361403Y-146558536D01*
X162204534Y-145973097D02*
X162413692Y-146753683D01*
X128186904Y-96654819D02*
X128186904Y-95654819D01*
X127615476Y-96654819D02*
X128044047Y-96083390D01*
X127615476Y-95654819D02*
X128186904Y-96226247D01*
X90136904Y-137612319D02*
X90136904Y-136612319D01*
X89565476Y-137612319D02*
X89994047Y-137040890D01*
X89565476Y-136612319D02*
X90136904Y-137183747D01*
X51986904Y-89987319D02*
X51986904Y-88987319D01*
X51415476Y-89987319D02*
X51844047Y-89415890D01*
X51415476Y-88987319D02*
X51986904Y-89558747D01*
X147601138Y-140268441D02*
X147859957Y-139302515D01*
X147049181Y-140120544D02*
X147611045Y-139679509D01*
X147308000Y-139154618D02*
X147712061Y-139854473D01*
X109136904Y-74747319D02*
X109136904Y-73747319D01*
X108565476Y-74747319D02*
X108994047Y-74175890D01*
X108565476Y-73747319D02*
X109136904Y-74318747D01*
X128186904Y-58554819D02*
X128186904Y-57554819D01*
X127615476Y-58554819D02*
X128044047Y-57983390D01*
X127615476Y-57554819D02*
X128186904Y-58126247D01*
X143474882Y-128857244D02*
X143324568Y-128866266D01*
X143324568Y-128866266D02*
X143094586Y-128804642D01*
X143094586Y-128804642D02*
X143014917Y-128733997D01*
X143014917Y-128733997D02*
X142981246Y-128675675D01*
X142981246Y-128675675D02*
X142959899Y-128571358D01*
X142959899Y-128571358D02*
X142984548Y-128479365D01*
X142984548Y-128479365D02*
X143055194Y-128399697D01*
X143055194Y-128399697D02*
X143113515Y-128366025D01*
X143113515Y-128366025D02*
X143217833Y-128344678D01*
X143217833Y-128344678D02*
X143414143Y-128347980D01*
X143414143Y-128347980D02*
X143518461Y-128326633D01*
X143518461Y-128326633D02*
X143576782Y-128292961D01*
X143576782Y-128292961D02*
X143647428Y-128213293D01*
X143647428Y-128213293D02*
X143672078Y-128121300D01*
X143672078Y-128121300D02*
X143650731Y-128016983D01*
X143650731Y-128016983D02*
X143617059Y-127958661D01*
X143617059Y-127958661D02*
X143537391Y-127888015D01*
X143537391Y-127888015D02*
X143307408Y-127826392D01*
X143307408Y-127826392D02*
X143157094Y-127835414D01*
X142847444Y-127703145D02*
X142358642Y-128607447D01*
X142358642Y-128607447D02*
X142359527Y-127868201D01*
X142359527Y-127868201D02*
X141990670Y-128508849D01*
X141990670Y-128508849D02*
X142019507Y-127481300D01*
X141743528Y-127407352D02*
X141145574Y-127247130D01*
X141145574Y-127247130D02*
X141368952Y-127701375D01*
X141368952Y-127701375D02*
X141230963Y-127664401D01*
X141230963Y-127664401D02*
X141126645Y-127685748D01*
X141126645Y-127685748D02*
X141068324Y-127719420D01*
X141068324Y-127719420D02*
X140997678Y-127799088D01*
X140997678Y-127799088D02*
X140936054Y-128029070D01*
X140936054Y-128029070D02*
X140957401Y-128133388D01*
X140957401Y-128133388D02*
X140991073Y-128191709D01*
X140991073Y-128191709D02*
X141070741Y-128262355D01*
X141070741Y-128262355D02*
X141346720Y-128336303D01*
X141346720Y-128336303D02*
X141451038Y-128314956D01*
X141451038Y-128314956D02*
X141509359Y-128281284D01*
X139966826Y-127966562D02*
X140518784Y-128114458D01*
X140242805Y-128040510D02*
X140501624Y-127074584D01*
X140501624Y-127074584D02*
X140556643Y-127237223D01*
X140556643Y-127237223D02*
X140623986Y-127353865D01*
X140623986Y-127353865D02*
X140703654Y-127424511D01*
X140058332Y-51259700D02*
X139915475Y-51307319D01*
X139915475Y-51307319D02*
X139677380Y-51307319D01*
X139677380Y-51307319D02*
X139582142Y-51259700D01*
X139582142Y-51259700D02*
X139534523Y-51212080D01*
X139534523Y-51212080D02*
X139486904Y-51116842D01*
X139486904Y-51116842D02*
X139486904Y-51021604D01*
X139486904Y-51021604D02*
X139534523Y-50926366D01*
X139534523Y-50926366D02*
X139582142Y-50878747D01*
X139582142Y-50878747D02*
X139677380Y-50831128D01*
X139677380Y-50831128D02*
X139867856Y-50783509D01*
X139867856Y-50783509D02*
X139963094Y-50735890D01*
X139963094Y-50735890D02*
X140010713Y-50688271D01*
X140010713Y-50688271D02*
X140058332Y-50593033D01*
X140058332Y-50593033D02*
X140058332Y-50497795D01*
X140058332Y-50497795D02*
X140010713Y-50402557D01*
X140010713Y-50402557D02*
X139963094Y-50354938D01*
X139963094Y-50354938D02*
X139867856Y-50307319D01*
X139867856Y-50307319D02*
X139629761Y-50307319D01*
X139629761Y-50307319D02*
X139486904Y-50354938D01*
X139153570Y-50307319D02*
X138915475Y-51307319D01*
X138915475Y-51307319D02*
X138724999Y-50593033D01*
X138724999Y-50593033D02*
X138534523Y-51307319D01*
X138534523Y-51307319D02*
X138296428Y-50307319D01*
X137486904Y-50640652D02*
X137486904Y-51307319D01*
X137724999Y-50259700D02*
X137963094Y-50973985D01*
X137963094Y-50973985D02*
X137344047Y-50973985D01*
X121484523Y-124602200D02*
X121341666Y-124649819D01*
X121341666Y-124649819D02*
X121103571Y-124649819D01*
X121103571Y-124649819D02*
X121008333Y-124602200D01*
X121008333Y-124602200D02*
X120960714Y-124554580D01*
X120960714Y-124554580D02*
X120913095Y-124459342D01*
X120913095Y-124459342D02*
X120913095Y-124364104D01*
X120913095Y-124364104D02*
X120960714Y-124268866D01*
X120960714Y-124268866D02*
X121008333Y-124221247D01*
X121008333Y-124221247D02*
X121103571Y-124173628D01*
X121103571Y-124173628D02*
X121294047Y-124126009D01*
X121294047Y-124126009D02*
X121389285Y-124078390D01*
X121389285Y-124078390D02*
X121436904Y-124030771D01*
X121436904Y-124030771D02*
X121484523Y-123935533D01*
X121484523Y-123935533D02*
X121484523Y-123840295D01*
X121484523Y-123840295D02*
X121436904Y-123745057D01*
X121436904Y-123745057D02*
X121389285Y-123697438D01*
X121389285Y-123697438D02*
X121294047Y-123649819D01*
X121294047Y-123649819D02*
X121055952Y-123649819D01*
X121055952Y-123649819D02*
X120913095Y-123697438D01*
X120579761Y-123649819D02*
X120341666Y-124649819D01*
X120341666Y-124649819D02*
X120151190Y-123935533D01*
X120151190Y-123935533D02*
X119960714Y-124649819D01*
X119960714Y-124649819D02*
X119722619Y-123649819D01*
X119389285Y-123745057D02*
X119341666Y-123697438D01*
X119341666Y-123697438D02*
X119246428Y-123649819D01*
X119246428Y-123649819D02*
X119008333Y-123649819D01*
X119008333Y-123649819D02*
X118913095Y-123697438D01*
X118913095Y-123697438D02*
X118865476Y-123745057D01*
X118865476Y-123745057D02*
X118817857Y-123840295D01*
X118817857Y-123840295D02*
X118817857Y-123935533D01*
X118817857Y-123935533D02*
X118865476Y-124078390D01*
X118865476Y-124078390D02*
X119436904Y-124649819D01*
X119436904Y-124649819D02*
X118817857Y-124649819D01*
X118341666Y-124649819D02*
X118151190Y-124649819D01*
X118151190Y-124649819D02*
X118055952Y-124602200D01*
X118055952Y-124602200D02*
X118008333Y-124554580D01*
X118008333Y-124554580D02*
X117913095Y-124411723D01*
X117913095Y-124411723D02*
X117865476Y-124221247D01*
X117865476Y-124221247D02*
X117865476Y-123840295D01*
X117865476Y-123840295D02*
X117913095Y-123745057D01*
X117913095Y-123745057D02*
X117960714Y-123697438D01*
X117960714Y-123697438D02*
X118055952Y-123649819D01*
X118055952Y-123649819D02*
X118246428Y-123649819D01*
X118246428Y-123649819D02*
X118341666Y-123697438D01*
X118341666Y-123697438D02*
X118389285Y-123745057D01*
X118389285Y-123745057D02*
X118436904Y-123840295D01*
X118436904Y-123840295D02*
X118436904Y-124078390D01*
X118436904Y-124078390D02*
X118389285Y-124173628D01*
X118389285Y-124173628D02*
X118341666Y-124221247D01*
X118341666Y-124221247D02*
X118246428Y-124268866D01*
X118246428Y-124268866D02*
X118055952Y-124268866D01*
X118055952Y-124268866D02*
X117960714Y-124221247D01*
X117960714Y-124221247D02*
X117913095Y-124173628D01*
X117913095Y-124173628D02*
X117865476Y-124078390D01*
X45284523Y-79834700D02*
X45141666Y-79882319D01*
X45141666Y-79882319D02*
X44903571Y-79882319D01*
X44903571Y-79882319D02*
X44808333Y-79834700D01*
X44808333Y-79834700D02*
X44760714Y-79787080D01*
X44760714Y-79787080D02*
X44713095Y-79691842D01*
X44713095Y-79691842D02*
X44713095Y-79596604D01*
X44713095Y-79596604D02*
X44760714Y-79501366D01*
X44760714Y-79501366D02*
X44808333Y-79453747D01*
X44808333Y-79453747D02*
X44903571Y-79406128D01*
X44903571Y-79406128D02*
X45094047Y-79358509D01*
X45094047Y-79358509D02*
X45189285Y-79310890D01*
X45189285Y-79310890D02*
X45236904Y-79263271D01*
X45236904Y-79263271D02*
X45284523Y-79168033D01*
X45284523Y-79168033D02*
X45284523Y-79072795D01*
X45284523Y-79072795D02*
X45236904Y-78977557D01*
X45236904Y-78977557D02*
X45189285Y-78929938D01*
X45189285Y-78929938D02*
X45094047Y-78882319D01*
X45094047Y-78882319D02*
X44855952Y-78882319D01*
X44855952Y-78882319D02*
X44713095Y-78929938D01*
X44379761Y-78882319D02*
X44141666Y-79882319D01*
X44141666Y-79882319D02*
X43951190Y-79168033D01*
X43951190Y-79168033D02*
X43760714Y-79882319D01*
X43760714Y-79882319D02*
X43522619Y-78882319D01*
X42617857Y-79882319D02*
X43189285Y-79882319D01*
X42903571Y-79882319D02*
X42903571Y-78882319D01*
X42903571Y-78882319D02*
X42998809Y-79025176D01*
X42998809Y-79025176D02*
X43094047Y-79120414D01*
X43094047Y-79120414D02*
X43189285Y-79168033D01*
X42284523Y-78882319D02*
X41665476Y-78882319D01*
X41665476Y-78882319D02*
X41998809Y-79263271D01*
X41998809Y-79263271D02*
X41855952Y-79263271D01*
X41855952Y-79263271D02*
X41760714Y-79310890D01*
X41760714Y-79310890D02*
X41713095Y-79358509D01*
X41713095Y-79358509D02*
X41665476Y-79453747D01*
X41665476Y-79453747D02*
X41665476Y-79691842D01*
X41665476Y-79691842D02*
X41713095Y-79787080D01*
X41713095Y-79787080D02*
X41760714Y-79834700D01*
X41760714Y-79834700D02*
X41855952Y-79882319D01*
X41855952Y-79882319D02*
X42141666Y-79882319D01*
X42141666Y-79882319D02*
X42236904Y-79834700D01*
X42236904Y-79834700D02*
X42284523Y-79787080D01*
X159584523Y-108409700D02*
X159441666Y-108457319D01*
X159441666Y-108457319D02*
X159203571Y-108457319D01*
X159203571Y-108457319D02*
X159108333Y-108409700D01*
X159108333Y-108409700D02*
X159060714Y-108362080D01*
X159060714Y-108362080D02*
X159013095Y-108266842D01*
X159013095Y-108266842D02*
X159013095Y-108171604D01*
X159013095Y-108171604D02*
X159060714Y-108076366D01*
X159060714Y-108076366D02*
X159108333Y-108028747D01*
X159108333Y-108028747D02*
X159203571Y-107981128D01*
X159203571Y-107981128D02*
X159394047Y-107933509D01*
X159394047Y-107933509D02*
X159489285Y-107885890D01*
X159489285Y-107885890D02*
X159536904Y-107838271D01*
X159536904Y-107838271D02*
X159584523Y-107743033D01*
X159584523Y-107743033D02*
X159584523Y-107647795D01*
X159584523Y-107647795D02*
X159536904Y-107552557D01*
X159536904Y-107552557D02*
X159489285Y-107504938D01*
X159489285Y-107504938D02*
X159394047Y-107457319D01*
X159394047Y-107457319D02*
X159155952Y-107457319D01*
X159155952Y-107457319D02*
X159013095Y-107504938D01*
X158679761Y-107457319D02*
X158441666Y-108457319D01*
X158441666Y-108457319D02*
X158251190Y-107743033D01*
X158251190Y-107743033D02*
X158060714Y-108457319D01*
X158060714Y-108457319D02*
X157822619Y-107457319D01*
X157489285Y-107552557D02*
X157441666Y-107504938D01*
X157441666Y-107504938D02*
X157346428Y-107457319D01*
X157346428Y-107457319D02*
X157108333Y-107457319D01*
X157108333Y-107457319D02*
X157013095Y-107504938D01*
X157013095Y-107504938D02*
X156965476Y-107552557D01*
X156965476Y-107552557D02*
X156917857Y-107647795D01*
X156917857Y-107647795D02*
X156917857Y-107743033D01*
X156917857Y-107743033D02*
X156965476Y-107885890D01*
X156965476Y-107885890D02*
X157536904Y-108457319D01*
X157536904Y-108457319D02*
X156917857Y-108457319D01*
X156013095Y-107457319D02*
X156489285Y-107457319D01*
X156489285Y-107457319D02*
X156536904Y-107933509D01*
X156536904Y-107933509D02*
X156489285Y-107885890D01*
X156489285Y-107885890D02*
X156394047Y-107838271D01*
X156394047Y-107838271D02*
X156155952Y-107838271D01*
X156155952Y-107838271D02*
X156060714Y-107885890D01*
X156060714Y-107885890D02*
X156013095Y-107933509D01*
X156013095Y-107933509D02*
X155965476Y-108028747D01*
X155965476Y-108028747D02*
X155965476Y-108266842D01*
X155965476Y-108266842D02*
X156013095Y-108362080D01*
X156013095Y-108362080D02*
X156060714Y-108409700D01*
X156060714Y-108409700D02*
X156155952Y-108457319D01*
X156155952Y-108457319D02*
X156394047Y-108457319D01*
X156394047Y-108457319D02*
X156489285Y-108409700D01*
X156489285Y-108409700D02*
X156536904Y-108362080D01*
X64334523Y-113172200D02*
X64191666Y-113219819D01*
X64191666Y-113219819D02*
X63953571Y-113219819D01*
X63953571Y-113219819D02*
X63858333Y-113172200D01*
X63858333Y-113172200D02*
X63810714Y-113124580D01*
X63810714Y-113124580D02*
X63763095Y-113029342D01*
X63763095Y-113029342D02*
X63763095Y-112934104D01*
X63763095Y-112934104D02*
X63810714Y-112838866D01*
X63810714Y-112838866D02*
X63858333Y-112791247D01*
X63858333Y-112791247D02*
X63953571Y-112743628D01*
X63953571Y-112743628D02*
X64144047Y-112696009D01*
X64144047Y-112696009D02*
X64239285Y-112648390D01*
X64239285Y-112648390D02*
X64286904Y-112600771D01*
X64286904Y-112600771D02*
X64334523Y-112505533D01*
X64334523Y-112505533D02*
X64334523Y-112410295D01*
X64334523Y-112410295D02*
X64286904Y-112315057D01*
X64286904Y-112315057D02*
X64239285Y-112267438D01*
X64239285Y-112267438D02*
X64144047Y-112219819D01*
X64144047Y-112219819D02*
X63905952Y-112219819D01*
X63905952Y-112219819D02*
X63763095Y-112267438D01*
X63429761Y-112219819D02*
X63191666Y-113219819D01*
X63191666Y-113219819D02*
X63001190Y-112505533D01*
X63001190Y-112505533D02*
X62810714Y-113219819D01*
X62810714Y-113219819D02*
X62572619Y-112219819D01*
X62239285Y-112315057D02*
X62191666Y-112267438D01*
X62191666Y-112267438D02*
X62096428Y-112219819D01*
X62096428Y-112219819D02*
X61858333Y-112219819D01*
X61858333Y-112219819D02*
X61763095Y-112267438D01*
X61763095Y-112267438D02*
X61715476Y-112315057D01*
X61715476Y-112315057D02*
X61667857Y-112410295D01*
X61667857Y-112410295D02*
X61667857Y-112505533D01*
X61667857Y-112505533D02*
X61715476Y-112648390D01*
X61715476Y-112648390D02*
X62286904Y-113219819D01*
X62286904Y-113219819D02*
X61667857Y-113219819D01*
X60810714Y-112219819D02*
X61001190Y-112219819D01*
X61001190Y-112219819D02*
X61096428Y-112267438D01*
X61096428Y-112267438D02*
X61144047Y-112315057D01*
X61144047Y-112315057D02*
X61239285Y-112457914D01*
X61239285Y-112457914D02*
X61286904Y-112648390D01*
X61286904Y-112648390D02*
X61286904Y-113029342D01*
X61286904Y-113029342D02*
X61239285Y-113124580D01*
X61239285Y-113124580D02*
X61191666Y-113172200D01*
X61191666Y-113172200D02*
X61096428Y-113219819D01*
X61096428Y-113219819D02*
X60905952Y-113219819D01*
X60905952Y-113219819D02*
X60810714Y-113172200D01*
X60810714Y-113172200D02*
X60763095Y-113124580D01*
X60763095Y-113124580D02*
X60715476Y-113029342D01*
X60715476Y-113029342D02*
X60715476Y-112791247D01*
X60715476Y-112791247D02*
X60763095Y-112696009D01*
X60763095Y-112696009D02*
X60810714Y-112648390D01*
X60810714Y-112648390D02*
X60905952Y-112600771D01*
X60905952Y-112600771D02*
X61096428Y-112600771D01*
X61096428Y-112600771D02*
X61191666Y-112648390D01*
X61191666Y-112648390D02*
X61239285Y-112696009D01*
X61239285Y-112696009D02*
X61286904Y-112791247D01*
X102434523Y-124602200D02*
X102291666Y-124649819D01*
X102291666Y-124649819D02*
X102053571Y-124649819D01*
X102053571Y-124649819D02*
X101958333Y-124602200D01*
X101958333Y-124602200D02*
X101910714Y-124554580D01*
X101910714Y-124554580D02*
X101863095Y-124459342D01*
X101863095Y-124459342D02*
X101863095Y-124364104D01*
X101863095Y-124364104D02*
X101910714Y-124268866D01*
X101910714Y-124268866D02*
X101958333Y-124221247D01*
X101958333Y-124221247D02*
X102053571Y-124173628D01*
X102053571Y-124173628D02*
X102244047Y-124126009D01*
X102244047Y-124126009D02*
X102339285Y-124078390D01*
X102339285Y-124078390D02*
X102386904Y-124030771D01*
X102386904Y-124030771D02*
X102434523Y-123935533D01*
X102434523Y-123935533D02*
X102434523Y-123840295D01*
X102434523Y-123840295D02*
X102386904Y-123745057D01*
X102386904Y-123745057D02*
X102339285Y-123697438D01*
X102339285Y-123697438D02*
X102244047Y-123649819D01*
X102244047Y-123649819D02*
X102005952Y-123649819D01*
X102005952Y-123649819D02*
X101863095Y-123697438D01*
X101529761Y-123649819D02*
X101291666Y-124649819D01*
X101291666Y-124649819D02*
X101101190Y-123935533D01*
X101101190Y-123935533D02*
X100910714Y-124649819D01*
X100910714Y-124649819D02*
X100672619Y-123649819D01*
X100339285Y-123745057D02*
X100291666Y-123697438D01*
X100291666Y-123697438D02*
X100196428Y-123649819D01*
X100196428Y-123649819D02*
X99958333Y-123649819D01*
X99958333Y-123649819D02*
X99863095Y-123697438D01*
X99863095Y-123697438D02*
X99815476Y-123745057D01*
X99815476Y-123745057D02*
X99767857Y-123840295D01*
X99767857Y-123840295D02*
X99767857Y-123935533D01*
X99767857Y-123935533D02*
X99815476Y-124078390D01*
X99815476Y-124078390D02*
X100386904Y-124649819D01*
X100386904Y-124649819D02*
X99767857Y-124649819D01*
X99196428Y-124078390D02*
X99291666Y-124030771D01*
X99291666Y-124030771D02*
X99339285Y-123983152D01*
X99339285Y-123983152D02*
X99386904Y-123887914D01*
X99386904Y-123887914D02*
X99386904Y-123840295D01*
X99386904Y-123840295D02*
X99339285Y-123745057D01*
X99339285Y-123745057D02*
X99291666Y-123697438D01*
X99291666Y-123697438D02*
X99196428Y-123649819D01*
X99196428Y-123649819D02*
X99005952Y-123649819D01*
X99005952Y-123649819D02*
X98910714Y-123697438D01*
X98910714Y-123697438D02*
X98863095Y-123745057D01*
X98863095Y-123745057D02*
X98815476Y-123840295D01*
X98815476Y-123840295D02*
X98815476Y-123887914D01*
X98815476Y-123887914D02*
X98863095Y-123983152D01*
X98863095Y-123983152D02*
X98910714Y-124030771D01*
X98910714Y-124030771D02*
X99005952Y-124078390D01*
X99005952Y-124078390D02*
X99196428Y-124078390D01*
X99196428Y-124078390D02*
X99291666Y-124126009D01*
X99291666Y-124126009D02*
X99339285Y-124173628D01*
X99339285Y-124173628D02*
X99386904Y-124268866D01*
X99386904Y-124268866D02*
X99386904Y-124459342D01*
X99386904Y-124459342D02*
X99339285Y-124554580D01*
X99339285Y-124554580D02*
X99291666Y-124602200D01*
X99291666Y-124602200D02*
X99196428Y-124649819D01*
X99196428Y-124649819D02*
X99005952Y-124649819D01*
X99005952Y-124649819D02*
X98910714Y-124602200D01*
X98910714Y-124602200D02*
X98863095Y-124554580D01*
X98863095Y-124554580D02*
X98815476Y-124459342D01*
X98815476Y-124459342D02*
X98815476Y-124268866D01*
X98815476Y-124268866D02*
X98863095Y-124173628D01*
X98863095Y-124173628D02*
X98910714Y-124126009D01*
X98910714Y-124126009D02*
X99005952Y-124078390D01*
X83384523Y-127459700D02*
X83241666Y-127507319D01*
X83241666Y-127507319D02*
X83003571Y-127507319D01*
X83003571Y-127507319D02*
X82908333Y-127459700D01*
X82908333Y-127459700D02*
X82860714Y-127412080D01*
X82860714Y-127412080D02*
X82813095Y-127316842D01*
X82813095Y-127316842D02*
X82813095Y-127221604D01*
X82813095Y-127221604D02*
X82860714Y-127126366D01*
X82860714Y-127126366D02*
X82908333Y-127078747D01*
X82908333Y-127078747D02*
X83003571Y-127031128D01*
X83003571Y-127031128D02*
X83194047Y-126983509D01*
X83194047Y-126983509D02*
X83289285Y-126935890D01*
X83289285Y-126935890D02*
X83336904Y-126888271D01*
X83336904Y-126888271D02*
X83384523Y-126793033D01*
X83384523Y-126793033D02*
X83384523Y-126697795D01*
X83384523Y-126697795D02*
X83336904Y-126602557D01*
X83336904Y-126602557D02*
X83289285Y-126554938D01*
X83289285Y-126554938D02*
X83194047Y-126507319D01*
X83194047Y-126507319D02*
X82955952Y-126507319D01*
X82955952Y-126507319D02*
X82813095Y-126554938D01*
X82479761Y-126507319D02*
X82241666Y-127507319D01*
X82241666Y-127507319D02*
X82051190Y-126793033D01*
X82051190Y-126793033D02*
X81860714Y-127507319D01*
X81860714Y-127507319D02*
X81622619Y-126507319D01*
X81336904Y-126507319D02*
X80717857Y-126507319D01*
X80717857Y-126507319D02*
X81051190Y-126888271D01*
X81051190Y-126888271D02*
X80908333Y-126888271D01*
X80908333Y-126888271D02*
X80813095Y-126935890D01*
X80813095Y-126935890D02*
X80765476Y-126983509D01*
X80765476Y-126983509D02*
X80717857Y-127078747D01*
X80717857Y-127078747D02*
X80717857Y-127316842D01*
X80717857Y-127316842D02*
X80765476Y-127412080D01*
X80765476Y-127412080D02*
X80813095Y-127459700D01*
X80813095Y-127459700D02*
X80908333Y-127507319D01*
X80908333Y-127507319D02*
X81194047Y-127507319D01*
X81194047Y-127507319D02*
X81289285Y-127459700D01*
X81289285Y-127459700D02*
X81336904Y-127412080D01*
X80098809Y-126507319D02*
X80003571Y-126507319D01*
X80003571Y-126507319D02*
X79908333Y-126554938D01*
X79908333Y-126554938D02*
X79860714Y-126602557D01*
X79860714Y-126602557D02*
X79813095Y-126697795D01*
X79813095Y-126697795D02*
X79765476Y-126888271D01*
X79765476Y-126888271D02*
X79765476Y-127126366D01*
X79765476Y-127126366D02*
X79813095Y-127316842D01*
X79813095Y-127316842D02*
X79860714Y-127412080D01*
X79860714Y-127412080D02*
X79908333Y-127459700D01*
X79908333Y-127459700D02*
X80003571Y-127507319D01*
X80003571Y-127507319D02*
X80098809Y-127507319D01*
X80098809Y-127507319D02*
X80194047Y-127459700D01*
X80194047Y-127459700D02*
X80241666Y-127412080D01*
X80241666Y-127412080D02*
X80289285Y-127316842D01*
X80289285Y-127316842D02*
X80336904Y-127126366D01*
X80336904Y-127126366D02*
X80336904Y-126888271D01*
X80336904Y-126888271D02*
X80289285Y-126697795D01*
X80289285Y-126697795D02*
X80241666Y-126602557D01*
X80241666Y-126602557D02*
X80194047Y-126554938D01*
X80194047Y-126554938D02*
X80098809Y-126507319D01*
X164378061Y-135799243D02*
X164230534Y-135769054D01*
X164230534Y-135769054D02*
X164024337Y-135650006D01*
X164024337Y-135650006D02*
X163965668Y-135561148D01*
X163965668Y-135561148D02*
X163948238Y-135496099D01*
X163948238Y-135496099D02*
X163954618Y-135389811D01*
X163954618Y-135389811D02*
X164002237Y-135307332D01*
X164002237Y-135307332D02*
X164091095Y-135248663D01*
X164091095Y-135248663D02*
X164156144Y-135231233D01*
X164156144Y-135231233D02*
X164262432Y-135237613D01*
X164262432Y-135237613D02*
X164451199Y-135291612D01*
X164451199Y-135291612D02*
X164557487Y-135297992D01*
X164557487Y-135297992D02*
X164622536Y-135280562D01*
X164622536Y-135280562D02*
X164711394Y-135221893D01*
X164711394Y-135221893D02*
X164759013Y-135139414D01*
X164759013Y-135139414D02*
X164765393Y-135033126D01*
X164765393Y-135033126D02*
X164747963Y-134968077D01*
X164747963Y-134968077D02*
X164689294Y-134879219D01*
X164689294Y-134879219D02*
X164483098Y-134760171D01*
X164483098Y-134760171D02*
X164335570Y-134729982D01*
X164070705Y-134522076D02*
X163364508Y-135269054D01*
X163364508Y-135269054D02*
X163556694Y-134555226D01*
X163556694Y-134555226D02*
X163034594Y-135078577D01*
X163034594Y-135078577D02*
X163328397Y-134093504D01*
X163080962Y-133950647D02*
X162544851Y-133641124D01*
X162544851Y-133641124D02*
X162643050Y-134137705D01*
X162643050Y-134137705D02*
X162519332Y-134066276D01*
X162519332Y-134066276D02*
X162413043Y-134059896D01*
X162413043Y-134059896D02*
X162347995Y-134077326D01*
X162347995Y-134077326D02*
X162259136Y-134135995D01*
X162259136Y-134135995D02*
X162140089Y-134342192D01*
X162140089Y-134342192D02*
X162133709Y-134448480D01*
X162133709Y-134448480D02*
X162151139Y-134513529D01*
X162151139Y-134513529D02*
X162209808Y-134602387D01*
X162209808Y-134602387D02*
X162457244Y-134745244D01*
X162457244Y-134745244D02*
X162563532Y-134751624D01*
X162563532Y-134751624D02*
X162628581Y-134734194D01*
X162167317Y-133533126D02*
X162149887Y-133468077D01*
X162149887Y-133468077D02*
X162091218Y-133379219D01*
X162091218Y-133379219D02*
X161885022Y-133260171D01*
X161885022Y-133260171D02*
X161778734Y-133253791D01*
X161778734Y-133253791D02*
X161713685Y-133271221D01*
X161713685Y-133271221D02*
X161624826Y-133329890D01*
X161624826Y-133329890D02*
X161577207Y-133412369D01*
X161577207Y-133412369D02*
X161547018Y-133559896D01*
X161547018Y-133559896D02*
X161756175Y-134340482D01*
X161756175Y-134340482D02*
X161220064Y-134030958D01*
X121484523Y-86502200D02*
X121341666Y-86549819D01*
X121341666Y-86549819D02*
X121103571Y-86549819D01*
X121103571Y-86549819D02*
X121008333Y-86502200D01*
X121008333Y-86502200D02*
X120960714Y-86454580D01*
X120960714Y-86454580D02*
X120913095Y-86359342D01*
X120913095Y-86359342D02*
X120913095Y-86264104D01*
X120913095Y-86264104D02*
X120960714Y-86168866D01*
X120960714Y-86168866D02*
X121008333Y-86121247D01*
X121008333Y-86121247D02*
X121103571Y-86073628D01*
X121103571Y-86073628D02*
X121294047Y-86026009D01*
X121294047Y-86026009D02*
X121389285Y-85978390D01*
X121389285Y-85978390D02*
X121436904Y-85930771D01*
X121436904Y-85930771D02*
X121484523Y-85835533D01*
X121484523Y-85835533D02*
X121484523Y-85740295D01*
X121484523Y-85740295D02*
X121436904Y-85645057D01*
X121436904Y-85645057D02*
X121389285Y-85597438D01*
X121389285Y-85597438D02*
X121294047Y-85549819D01*
X121294047Y-85549819D02*
X121055952Y-85549819D01*
X121055952Y-85549819D02*
X120913095Y-85597438D01*
X120579761Y-85549819D02*
X120341666Y-86549819D01*
X120341666Y-86549819D02*
X120151190Y-85835533D01*
X120151190Y-85835533D02*
X119960714Y-86549819D01*
X119960714Y-86549819D02*
X119722619Y-85549819D01*
X118817857Y-86549819D02*
X119389285Y-86549819D01*
X119103571Y-86549819D02*
X119103571Y-85549819D01*
X119103571Y-85549819D02*
X119198809Y-85692676D01*
X119198809Y-85692676D02*
X119294047Y-85787914D01*
X119294047Y-85787914D02*
X119389285Y-85835533D01*
X117960714Y-85549819D02*
X118151190Y-85549819D01*
X118151190Y-85549819D02*
X118246428Y-85597438D01*
X118246428Y-85597438D02*
X118294047Y-85645057D01*
X118294047Y-85645057D02*
X118389285Y-85787914D01*
X118389285Y-85787914D02*
X118436904Y-85978390D01*
X118436904Y-85978390D02*
X118436904Y-86359342D01*
X118436904Y-86359342D02*
X118389285Y-86454580D01*
X118389285Y-86454580D02*
X118341666Y-86502200D01*
X118341666Y-86502200D02*
X118246428Y-86549819D01*
X118246428Y-86549819D02*
X118055952Y-86549819D01*
X118055952Y-86549819D02*
X117960714Y-86502200D01*
X117960714Y-86502200D02*
X117913095Y-86454580D01*
X117913095Y-86454580D02*
X117865476Y-86359342D01*
X117865476Y-86359342D02*
X117865476Y-86121247D01*
X117865476Y-86121247D02*
X117913095Y-86026009D01*
X117913095Y-86026009D02*
X117960714Y-85978390D01*
X117960714Y-85978390D02*
X118055952Y-85930771D01*
X118055952Y-85930771D02*
X118246428Y-85930771D01*
X118246428Y-85930771D02*
X118341666Y-85978390D01*
X118341666Y-85978390D02*
X118389285Y-86026009D01*
X118389285Y-86026009D02*
X118436904Y-86121247D01*
X102434523Y-83644700D02*
X102291666Y-83692319D01*
X102291666Y-83692319D02*
X102053571Y-83692319D01*
X102053571Y-83692319D02*
X101958333Y-83644700D01*
X101958333Y-83644700D02*
X101910714Y-83597080D01*
X101910714Y-83597080D02*
X101863095Y-83501842D01*
X101863095Y-83501842D02*
X101863095Y-83406604D01*
X101863095Y-83406604D02*
X101910714Y-83311366D01*
X101910714Y-83311366D02*
X101958333Y-83263747D01*
X101958333Y-83263747D02*
X102053571Y-83216128D01*
X102053571Y-83216128D02*
X102244047Y-83168509D01*
X102244047Y-83168509D02*
X102339285Y-83120890D01*
X102339285Y-83120890D02*
X102386904Y-83073271D01*
X102386904Y-83073271D02*
X102434523Y-82978033D01*
X102434523Y-82978033D02*
X102434523Y-82882795D01*
X102434523Y-82882795D02*
X102386904Y-82787557D01*
X102386904Y-82787557D02*
X102339285Y-82739938D01*
X102339285Y-82739938D02*
X102244047Y-82692319D01*
X102244047Y-82692319D02*
X102005952Y-82692319D01*
X102005952Y-82692319D02*
X101863095Y-82739938D01*
X101529761Y-82692319D02*
X101291666Y-83692319D01*
X101291666Y-83692319D02*
X101101190Y-82978033D01*
X101101190Y-82978033D02*
X100910714Y-83692319D01*
X100910714Y-83692319D02*
X100672619Y-82692319D01*
X99767857Y-83692319D02*
X100339285Y-83692319D01*
X100053571Y-83692319D02*
X100053571Y-82692319D01*
X100053571Y-82692319D02*
X100148809Y-82835176D01*
X100148809Y-82835176D02*
X100244047Y-82930414D01*
X100244047Y-82930414D02*
X100339285Y-82978033D01*
X98910714Y-83025652D02*
X98910714Y-83692319D01*
X99148809Y-82644700D02*
X99386904Y-83358985D01*
X99386904Y-83358985D02*
X98767857Y-83358985D01*
X121008332Y-67452200D02*
X120865475Y-67499819D01*
X120865475Y-67499819D02*
X120627380Y-67499819D01*
X120627380Y-67499819D02*
X120532142Y-67452200D01*
X120532142Y-67452200D02*
X120484523Y-67404580D01*
X120484523Y-67404580D02*
X120436904Y-67309342D01*
X120436904Y-67309342D02*
X120436904Y-67214104D01*
X120436904Y-67214104D02*
X120484523Y-67118866D01*
X120484523Y-67118866D02*
X120532142Y-67071247D01*
X120532142Y-67071247D02*
X120627380Y-67023628D01*
X120627380Y-67023628D02*
X120817856Y-66976009D01*
X120817856Y-66976009D02*
X120913094Y-66928390D01*
X120913094Y-66928390D02*
X120960713Y-66880771D01*
X120960713Y-66880771D02*
X121008332Y-66785533D01*
X121008332Y-66785533D02*
X121008332Y-66690295D01*
X121008332Y-66690295D02*
X120960713Y-66595057D01*
X120960713Y-66595057D02*
X120913094Y-66547438D01*
X120913094Y-66547438D02*
X120817856Y-66499819D01*
X120817856Y-66499819D02*
X120579761Y-66499819D01*
X120579761Y-66499819D02*
X120436904Y-66547438D01*
X120103570Y-66499819D02*
X119865475Y-67499819D01*
X119865475Y-67499819D02*
X119674999Y-66785533D01*
X119674999Y-66785533D02*
X119484523Y-67499819D01*
X119484523Y-67499819D02*
X119246428Y-66499819D01*
X118817856Y-67499819D02*
X118627380Y-67499819D01*
X118627380Y-67499819D02*
X118532142Y-67452200D01*
X118532142Y-67452200D02*
X118484523Y-67404580D01*
X118484523Y-67404580D02*
X118389285Y-67261723D01*
X118389285Y-67261723D02*
X118341666Y-67071247D01*
X118341666Y-67071247D02*
X118341666Y-66690295D01*
X118341666Y-66690295D02*
X118389285Y-66595057D01*
X118389285Y-66595057D02*
X118436904Y-66547438D01*
X118436904Y-66547438D02*
X118532142Y-66499819D01*
X118532142Y-66499819D02*
X118722618Y-66499819D01*
X118722618Y-66499819D02*
X118817856Y-66547438D01*
X118817856Y-66547438D02*
X118865475Y-66595057D01*
X118865475Y-66595057D02*
X118913094Y-66690295D01*
X118913094Y-66690295D02*
X118913094Y-66928390D01*
X118913094Y-66928390D02*
X118865475Y-67023628D01*
X118865475Y-67023628D02*
X118817856Y-67071247D01*
X118817856Y-67071247D02*
X118722618Y-67118866D01*
X118722618Y-67118866D02*
X118532142Y-67118866D01*
X118532142Y-67118866D02*
X118436904Y-67071247D01*
X118436904Y-67071247D02*
X118389285Y-67023628D01*
X118389285Y-67023628D02*
X118341666Y-66928390D01*
X82908332Y-48402200D02*
X82765475Y-48449819D01*
X82765475Y-48449819D02*
X82527380Y-48449819D01*
X82527380Y-48449819D02*
X82432142Y-48402200D01*
X82432142Y-48402200D02*
X82384523Y-48354580D01*
X82384523Y-48354580D02*
X82336904Y-48259342D01*
X82336904Y-48259342D02*
X82336904Y-48164104D01*
X82336904Y-48164104D02*
X82384523Y-48068866D01*
X82384523Y-48068866D02*
X82432142Y-48021247D01*
X82432142Y-48021247D02*
X82527380Y-47973628D01*
X82527380Y-47973628D02*
X82717856Y-47926009D01*
X82717856Y-47926009D02*
X82813094Y-47878390D01*
X82813094Y-47878390D02*
X82860713Y-47830771D01*
X82860713Y-47830771D02*
X82908332Y-47735533D01*
X82908332Y-47735533D02*
X82908332Y-47640295D01*
X82908332Y-47640295D02*
X82860713Y-47545057D01*
X82860713Y-47545057D02*
X82813094Y-47497438D01*
X82813094Y-47497438D02*
X82717856Y-47449819D01*
X82717856Y-47449819D02*
X82479761Y-47449819D01*
X82479761Y-47449819D02*
X82336904Y-47497438D01*
X82003570Y-47449819D02*
X81765475Y-48449819D01*
X81765475Y-48449819D02*
X81574999Y-47735533D01*
X81574999Y-47735533D02*
X81384523Y-48449819D01*
X81384523Y-48449819D02*
X81146428Y-47449819D01*
X80813094Y-47545057D02*
X80765475Y-47497438D01*
X80765475Y-47497438D02*
X80670237Y-47449819D01*
X80670237Y-47449819D02*
X80432142Y-47449819D01*
X80432142Y-47449819D02*
X80336904Y-47497438D01*
X80336904Y-47497438D02*
X80289285Y-47545057D01*
X80289285Y-47545057D02*
X80241666Y-47640295D01*
X80241666Y-47640295D02*
X80241666Y-47735533D01*
X80241666Y-47735533D02*
X80289285Y-47878390D01*
X80289285Y-47878390D02*
X80860713Y-48449819D01*
X80860713Y-48449819D02*
X80241666Y-48449819D01*
X64334523Y-94122200D02*
X64191666Y-94169819D01*
X64191666Y-94169819D02*
X63953571Y-94169819D01*
X63953571Y-94169819D02*
X63858333Y-94122200D01*
X63858333Y-94122200D02*
X63810714Y-94074580D01*
X63810714Y-94074580D02*
X63763095Y-93979342D01*
X63763095Y-93979342D02*
X63763095Y-93884104D01*
X63763095Y-93884104D02*
X63810714Y-93788866D01*
X63810714Y-93788866D02*
X63858333Y-93741247D01*
X63858333Y-93741247D02*
X63953571Y-93693628D01*
X63953571Y-93693628D02*
X64144047Y-93646009D01*
X64144047Y-93646009D02*
X64239285Y-93598390D01*
X64239285Y-93598390D02*
X64286904Y-93550771D01*
X64286904Y-93550771D02*
X64334523Y-93455533D01*
X64334523Y-93455533D02*
X64334523Y-93360295D01*
X64334523Y-93360295D02*
X64286904Y-93265057D01*
X64286904Y-93265057D02*
X64239285Y-93217438D01*
X64239285Y-93217438D02*
X64144047Y-93169819D01*
X64144047Y-93169819D02*
X63905952Y-93169819D01*
X63905952Y-93169819D02*
X63763095Y-93217438D01*
X63429761Y-93169819D02*
X63191666Y-94169819D01*
X63191666Y-94169819D02*
X63001190Y-93455533D01*
X63001190Y-93455533D02*
X62810714Y-94169819D01*
X62810714Y-94169819D02*
X62572619Y-93169819D01*
X61667857Y-94169819D02*
X62239285Y-94169819D01*
X61953571Y-94169819D02*
X61953571Y-93169819D01*
X61953571Y-93169819D02*
X62048809Y-93312676D01*
X62048809Y-93312676D02*
X62144047Y-93407914D01*
X62144047Y-93407914D02*
X62239285Y-93455533D01*
X61191666Y-94169819D02*
X61001190Y-94169819D01*
X61001190Y-94169819D02*
X60905952Y-94122200D01*
X60905952Y-94122200D02*
X60858333Y-94074580D01*
X60858333Y-94074580D02*
X60763095Y-93931723D01*
X60763095Y-93931723D02*
X60715476Y-93741247D01*
X60715476Y-93741247D02*
X60715476Y-93360295D01*
X60715476Y-93360295D02*
X60763095Y-93265057D01*
X60763095Y-93265057D02*
X60810714Y-93217438D01*
X60810714Y-93217438D02*
X60905952Y-93169819D01*
X60905952Y-93169819D02*
X61096428Y-93169819D01*
X61096428Y-93169819D02*
X61191666Y-93217438D01*
X61191666Y-93217438D02*
X61239285Y-93265057D01*
X61239285Y-93265057D02*
X61286904Y-93360295D01*
X61286904Y-93360295D02*
X61286904Y-93598390D01*
X61286904Y-93598390D02*
X61239285Y-93693628D01*
X61239285Y-93693628D02*
X61191666Y-93741247D01*
X61191666Y-93741247D02*
X61096428Y-93788866D01*
X61096428Y-93788866D02*
X60905952Y-93788866D01*
X60905952Y-93788866D02*
X60810714Y-93741247D01*
X60810714Y-93741247D02*
X60763095Y-93693628D01*
X60763095Y-93693628D02*
X60715476Y-93598390D01*
X45284523Y-98884700D02*
X45141666Y-98932319D01*
X45141666Y-98932319D02*
X44903571Y-98932319D01*
X44903571Y-98932319D02*
X44808333Y-98884700D01*
X44808333Y-98884700D02*
X44760714Y-98837080D01*
X44760714Y-98837080D02*
X44713095Y-98741842D01*
X44713095Y-98741842D02*
X44713095Y-98646604D01*
X44713095Y-98646604D02*
X44760714Y-98551366D01*
X44760714Y-98551366D02*
X44808333Y-98503747D01*
X44808333Y-98503747D02*
X44903571Y-98456128D01*
X44903571Y-98456128D02*
X45094047Y-98408509D01*
X45094047Y-98408509D02*
X45189285Y-98360890D01*
X45189285Y-98360890D02*
X45236904Y-98313271D01*
X45236904Y-98313271D02*
X45284523Y-98218033D01*
X45284523Y-98218033D02*
X45284523Y-98122795D01*
X45284523Y-98122795D02*
X45236904Y-98027557D01*
X45236904Y-98027557D02*
X45189285Y-97979938D01*
X45189285Y-97979938D02*
X45094047Y-97932319D01*
X45094047Y-97932319D02*
X44855952Y-97932319D01*
X44855952Y-97932319D02*
X44713095Y-97979938D01*
X44379761Y-97932319D02*
X44141666Y-98932319D01*
X44141666Y-98932319D02*
X43951190Y-98218033D01*
X43951190Y-98218033D02*
X43760714Y-98932319D01*
X43760714Y-98932319D02*
X43522619Y-97932319D01*
X43189285Y-98027557D02*
X43141666Y-97979938D01*
X43141666Y-97979938D02*
X43046428Y-97932319D01*
X43046428Y-97932319D02*
X42808333Y-97932319D01*
X42808333Y-97932319D02*
X42713095Y-97979938D01*
X42713095Y-97979938D02*
X42665476Y-98027557D01*
X42665476Y-98027557D02*
X42617857Y-98122795D01*
X42617857Y-98122795D02*
X42617857Y-98218033D01*
X42617857Y-98218033D02*
X42665476Y-98360890D01*
X42665476Y-98360890D02*
X43236904Y-98932319D01*
X43236904Y-98932319D02*
X42617857Y-98932319D01*
X41998809Y-97932319D02*
X41903571Y-97932319D01*
X41903571Y-97932319D02*
X41808333Y-97979938D01*
X41808333Y-97979938D02*
X41760714Y-98027557D01*
X41760714Y-98027557D02*
X41713095Y-98122795D01*
X41713095Y-98122795D02*
X41665476Y-98313271D01*
X41665476Y-98313271D02*
X41665476Y-98551366D01*
X41665476Y-98551366D02*
X41713095Y-98741842D01*
X41713095Y-98741842D02*
X41760714Y-98837080D01*
X41760714Y-98837080D02*
X41808333Y-98884700D01*
X41808333Y-98884700D02*
X41903571Y-98932319D01*
X41903571Y-98932319D02*
X41998809Y-98932319D01*
X41998809Y-98932319D02*
X42094047Y-98884700D01*
X42094047Y-98884700D02*
X42141666Y-98837080D01*
X42141666Y-98837080D02*
X42189285Y-98741842D01*
X42189285Y-98741842D02*
X42236904Y-98551366D01*
X42236904Y-98551366D02*
X42236904Y-98313271D01*
X42236904Y-98313271D02*
X42189285Y-98122795D01*
X42189285Y-98122795D02*
X42141666Y-98027557D01*
X42141666Y-98027557D02*
X42094047Y-97979938D01*
X42094047Y-97979938D02*
X41998809Y-97932319D01*
X159584523Y-89359700D02*
X159441666Y-89407319D01*
X159441666Y-89407319D02*
X159203571Y-89407319D01*
X159203571Y-89407319D02*
X159108333Y-89359700D01*
X159108333Y-89359700D02*
X159060714Y-89312080D01*
X159060714Y-89312080D02*
X159013095Y-89216842D01*
X159013095Y-89216842D02*
X159013095Y-89121604D01*
X159013095Y-89121604D02*
X159060714Y-89026366D01*
X159060714Y-89026366D02*
X159108333Y-88978747D01*
X159108333Y-88978747D02*
X159203571Y-88931128D01*
X159203571Y-88931128D02*
X159394047Y-88883509D01*
X159394047Y-88883509D02*
X159489285Y-88835890D01*
X159489285Y-88835890D02*
X159536904Y-88788271D01*
X159536904Y-88788271D02*
X159584523Y-88693033D01*
X159584523Y-88693033D02*
X159584523Y-88597795D01*
X159584523Y-88597795D02*
X159536904Y-88502557D01*
X159536904Y-88502557D02*
X159489285Y-88454938D01*
X159489285Y-88454938D02*
X159394047Y-88407319D01*
X159394047Y-88407319D02*
X159155952Y-88407319D01*
X159155952Y-88407319D02*
X159013095Y-88454938D01*
X158679761Y-88407319D02*
X158441666Y-89407319D01*
X158441666Y-89407319D02*
X158251190Y-88693033D01*
X158251190Y-88693033D02*
X158060714Y-89407319D01*
X158060714Y-89407319D02*
X157822619Y-88407319D01*
X156917857Y-89407319D02*
X157489285Y-89407319D01*
X157203571Y-89407319D02*
X157203571Y-88407319D01*
X157203571Y-88407319D02*
X157298809Y-88550176D01*
X157298809Y-88550176D02*
X157394047Y-88645414D01*
X157394047Y-88645414D02*
X157489285Y-88693033D01*
X156346428Y-88835890D02*
X156441666Y-88788271D01*
X156441666Y-88788271D02*
X156489285Y-88740652D01*
X156489285Y-88740652D02*
X156536904Y-88645414D01*
X156536904Y-88645414D02*
X156536904Y-88597795D01*
X156536904Y-88597795D02*
X156489285Y-88502557D01*
X156489285Y-88502557D02*
X156441666Y-88454938D01*
X156441666Y-88454938D02*
X156346428Y-88407319D01*
X156346428Y-88407319D02*
X156155952Y-88407319D01*
X156155952Y-88407319D02*
X156060714Y-88454938D01*
X156060714Y-88454938D02*
X156013095Y-88502557D01*
X156013095Y-88502557D02*
X155965476Y-88597795D01*
X155965476Y-88597795D02*
X155965476Y-88645414D01*
X155965476Y-88645414D02*
X156013095Y-88740652D01*
X156013095Y-88740652D02*
X156060714Y-88788271D01*
X156060714Y-88788271D02*
X156155952Y-88835890D01*
X156155952Y-88835890D02*
X156346428Y-88835890D01*
X156346428Y-88835890D02*
X156441666Y-88883509D01*
X156441666Y-88883509D02*
X156489285Y-88931128D01*
X156489285Y-88931128D02*
X156536904Y-89026366D01*
X156536904Y-89026366D02*
X156536904Y-89216842D01*
X156536904Y-89216842D02*
X156489285Y-89312080D01*
X156489285Y-89312080D02*
X156441666Y-89359700D01*
X156441666Y-89359700D02*
X156346428Y-89407319D01*
X156346428Y-89407319D02*
X156155952Y-89407319D01*
X156155952Y-89407319D02*
X156060714Y-89359700D01*
X156060714Y-89359700D02*
X156013095Y-89312080D01*
X156013095Y-89312080D02*
X155965476Y-89216842D01*
X155965476Y-89216842D02*
X155965476Y-89026366D01*
X155965476Y-89026366D02*
X156013095Y-88931128D01*
X156013095Y-88931128D02*
X156060714Y-88883509D01*
X156060714Y-88883509D02*
X156155952Y-88835890D01*
X140534523Y-89359700D02*
X140391666Y-89407319D01*
X140391666Y-89407319D02*
X140153571Y-89407319D01*
X140153571Y-89407319D02*
X140058333Y-89359700D01*
X140058333Y-89359700D02*
X140010714Y-89312080D01*
X140010714Y-89312080D02*
X139963095Y-89216842D01*
X139963095Y-89216842D02*
X139963095Y-89121604D01*
X139963095Y-89121604D02*
X140010714Y-89026366D01*
X140010714Y-89026366D02*
X140058333Y-88978747D01*
X140058333Y-88978747D02*
X140153571Y-88931128D01*
X140153571Y-88931128D02*
X140344047Y-88883509D01*
X140344047Y-88883509D02*
X140439285Y-88835890D01*
X140439285Y-88835890D02*
X140486904Y-88788271D01*
X140486904Y-88788271D02*
X140534523Y-88693033D01*
X140534523Y-88693033D02*
X140534523Y-88597795D01*
X140534523Y-88597795D02*
X140486904Y-88502557D01*
X140486904Y-88502557D02*
X140439285Y-88454938D01*
X140439285Y-88454938D02*
X140344047Y-88407319D01*
X140344047Y-88407319D02*
X140105952Y-88407319D01*
X140105952Y-88407319D02*
X139963095Y-88454938D01*
X139629761Y-88407319D02*
X139391666Y-89407319D01*
X139391666Y-89407319D02*
X139201190Y-88693033D01*
X139201190Y-88693033D02*
X139010714Y-89407319D01*
X139010714Y-89407319D02*
X138772619Y-88407319D01*
X137867857Y-89407319D02*
X138439285Y-89407319D01*
X138153571Y-89407319D02*
X138153571Y-88407319D01*
X138153571Y-88407319D02*
X138248809Y-88550176D01*
X138248809Y-88550176D02*
X138344047Y-88645414D01*
X138344047Y-88645414D02*
X138439285Y-88693033D01*
X137534523Y-88407319D02*
X136867857Y-88407319D01*
X136867857Y-88407319D02*
X137296428Y-89407319D01*
X44808332Y-60784700D02*
X44665475Y-60832319D01*
X44665475Y-60832319D02*
X44427380Y-60832319D01*
X44427380Y-60832319D02*
X44332142Y-60784700D01*
X44332142Y-60784700D02*
X44284523Y-60737080D01*
X44284523Y-60737080D02*
X44236904Y-60641842D01*
X44236904Y-60641842D02*
X44236904Y-60546604D01*
X44236904Y-60546604D02*
X44284523Y-60451366D01*
X44284523Y-60451366D02*
X44332142Y-60403747D01*
X44332142Y-60403747D02*
X44427380Y-60356128D01*
X44427380Y-60356128D02*
X44617856Y-60308509D01*
X44617856Y-60308509D02*
X44713094Y-60260890D01*
X44713094Y-60260890D02*
X44760713Y-60213271D01*
X44760713Y-60213271D02*
X44808332Y-60118033D01*
X44808332Y-60118033D02*
X44808332Y-60022795D01*
X44808332Y-60022795D02*
X44760713Y-59927557D01*
X44760713Y-59927557D02*
X44713094Y-59879938D01*
X44713094Y-59879938D02*
X44617856Y-59832319D01*
X44617856Y-59832319D02*
X44379761Y-59832319D01*
X44379761Y-59832319D02*
X44236904Y-59879938D01*
X43903570Y-59832319D02*
X43665475Y-60832319D01*
X43665475Y-60832319D02*
X43474999Y-60118033D01*
X43474999Y-60118033D02*
X43284523Y-60832319D01*
X43284523Y-60832319D02*
X43046428Y-59832319D01*
X42236904Y-59832319D02*
X42427380Y-59832319D01*
X42427380Y-59832319D02*
X42522618Y-59879938D01*
X42522618Y-59879938D02*
X42570237Y-59927557D01*
X42570237Y-59927557D02*
X42665475Y-60070414D01*
X42665475Y-60070414D02*
X42713094Y-60260890D01*
X42713094Y-60260890D02*
X42713094Y-60641842D01*
X42713094Y-60641842D02*
X42665475Y-60737080D01*
X42665475Y-60737080D02*
X42617856Y-60784700D01*
X42617856Y-60784700D02*
X42522618Y-60832319D01*
X42522618Y-60832319D02*
X42332142Y-60832319D01*
X42332142Y-60832319D02*
X42236904Y-60784700D01*
X42236904Y-60784700D02*
X42189285Y-60737080D01*
X42189285Y-60737080D02*
X42141666Y-60641842D01*
X42141666Y-60641842D02*
X42141666Y-60403747D01*
X42141666Y-60403747D02*
X42189285Y-60308509D01*
X42189285Y-60308509D02*
X42236904Y-60260890D01*
X42236904Y-60260890D02*
X42332142Y-60213271D01*
X42332142Y-60213271D02*
X42522618Y-60213271D01*
X42522618Y-60213271D02*
X42617856Y-60260890D01*
X42617856Y-60260890D02*
X42665475Y-60308509D01*
X42665475Y-60308509D02*
X42713094Y-60403747D01*
X82908332Y-67452200D02*
X82765475Y-67499819D01*
X82765475Y-67499819D02*
X82527380Y-67499819D01*
X82527380Y-67499819D02*
X82432142Y-67452200D01*
X82432142Y-67452200D02*
X82384523Y-67404580D01*
X82384523Y-67404580D02*
X82336904Y-67309342D01*
X82336904Y-67309342D02*
X82336904Y-67214104D01*
X82336904Y-67214104D02*
X82384523Y-67118866D01*
X82384523Y-67118866D02*
X82432142Y-67071247D01*
X82432142Y-67071247D02*
X82527380Y-67023628D01*
X82527380Y-67023628D02*
X82717856Y-66976009D01*
X82717856Y-66976009D02*
X82813094Y-66928390D01*
X82813094Y-66928390D02*
X82860713Y-66880771D01*
X82860713Y-66880771D02*
X82908332Y-66785533D01*
X82908332Y-66785533D02*
X82908332Y-66690295D01*
X82908332Y-66690295D02*
X82860713Y-66595057D01*
X82860713Y-66595057D02*
X82813094Y-66547438D01*
X82813094Y-66547438D02*
X82717856Y-66499819D01*
X82717856Y-66499819D02*
X82479761Y-66499819D01*
X82479761Y-66499819D02*
X82336904Y-66547438D01*
X82003570Y-66499819D02*
X81765475Y-67499819D01*
X81765475Y-67499819D02*
X81574999Y-66785533D01*
X81574999Y-66785533D02*
X81384523Y-67499819D01*
X81384523Y-67499819D02*
X81146428Y-66499819D01*
X80622618Y-66928390D02*
X80717856Y-66880771D01*
X80717856Y-66880771D02*
X80765475Y-66833152D01*
X80765475Y-66833152D02*
X80813094Y-66737914D01*
X80813094Y-66737914D02*
X80813094Y-66690295D01*
X80813094Y-66690295D02*
X80765475Y-66595057D01*
X80765475Y-66595057D02*
X80717856Y-66547438D01*
X80717856Y-66547438D02*
X80622618Y-66499819D01*
X80622618Y-66499819D02*
X80432142Y-66499819D01*
X80432142Y-66499819D02*
X80336904Y-66547438D01*
X80336904Y-66547438D02*
X80289285Y-66595057D01*
X80289285Y-66595057D02*
X80241666Y-66690295D01*
X80241666Y-66690295D02*
X80241666Y-66737914D01*
X80241666Y-66737914D02*
X80289285Y-66833152D01*
X80289285Y-66833152D02*
X80336904Y-66880771D01*
X80336904Y-66880771D02*
X80432142Y-66928390D01*
X80432142Y-66928390D02*
X80622618Y-66928390D01*
X80622618Y-66928390D02*
X80717856Y-66976009D01*
X80717856Y-66976009D02*
X80765475Y-67023628D01*
X80765475Y-67023628D02*
X80813094Y-67118866D01*
X80813094Y-67118866D02*
X80813094Y-67309342D01*
X80813094Y-67309342D02*
X80765475Y-67404580D01*
X80765475Y-67404580D02*
X80717856Y-67452200D01*
X80717856Y-67452200D02*
X80622618Y-67499819D01*
X80622618Y-67499819D02*
X80432142Y-67499819D01*
X80432142Y-67499819D02*
X80336904Y-67452200D01*
X80336904Y-67452200D02*
X80289285Y-67404580D01*
X80289285Y-67404580D02*
X80241666Y-67309342D01*
X80241666Y-67309342D02*
X80241666Y-67118866D01*
X80241666Y-67118866D02*
X80289285Y-67023628D01*
X80289285Y-67023628D02*
X80336904Y-66976009D01*
X80336904Y-66976009D02*
X80432142Y-66928390D01*
X159584523Y-70309700D02*
X159441666Y-70357319D01*
X159441666Y-70357319D02*
X159203571Y-70357319D01*
X159203571Y-70357319D02*
X159108333Y-70309700D01*
X159108333Y-70309700D02*
X159060714Y-70262080D01*
X159060714Y-70262080D02*
X159013095Y-70166842D01*
X159013095Y-70166842D02*
X159013095Y-70071604D01*
X159013095Y-70071604D02*
X159060714Y-69976366D01*
X159060714Y-69976366D02*
X159108333Y-69928747D01*
X159108333Y-69928747D02*
X159203571Y-69881128D01*
X159203571Y-69881128D02*
X159394047Y-69833509D01*
X159394047Y-69833509D02*
X159489285Y-69785890D01*
X159489285Y-69785890D02*
X159536904Y-69738271D01*
X159536904Y-69738271D02*
X159584523Y-69643033D01*
X159584523Y-69643033D02*
X159584523Y-69547795D01*
X159584523Y-69547795D02*
X159536904Y-69452557D01*
X159536904Y-69452557D02*
X159489285Y-69404938D01*
X159489285Y-69404938D02*
X159394047Y-69357319D01*
X159394047Y-69357319D02*
X159155952Y-69357319D01*
X159155952Y-69357319D02*
X159013095Y-69404938D01*
X158679761Y-69357319D02*
X158441666Y-70357319D01*
X158441666Y-70357319D02*
X158251190Y-69643033D01*
X158251190Y-69643033D02*
X158060714Y-70357319D01*
X158060714Y-70357319D02*
X157822619Y-69357319D01*
X156917857Y-70357319D02*
X157489285Y-70357319D01*
X157203571Y-70357319D02*
X157203571Y-69357319D01*
X157203571Y-69357319D02*
X157298809Y-69500176D01*
X157298809Y-69500176D02*
X157394047Y-69595414D01*
X157394047Y-69595414D02*
X157489285Y-69643033D01*
X155965476Y-70357319D02*
X156536904Y-70357319D01*
X156251190Y-70357319D02*
X156251190Y-69357319D01*
X156251190Y-69357319D02*
X156346428Y-69500176D01*
X156346428Y-69500176D02*
X156441666Y-69595414D01*
X156441666Y-69595414D02*
X156536904Y-69643033D01*
X83384523Y-86502200D02*
X83241666Y-86549819D01*
X83241666Y-86549819D02*
X83003571Y-86549819D01*
X83003571Y-86549819D02*
X82908333Y-86502200D01*
X82908333Y-86502200D02*
X82860714Y-86454580D01*
X82860714Y-86454580D02*
X82813095Y-86359342D01*
X82813095Y-86359342D02*
X82813095Y-86264104D01*
X82813095Y-86264104D02*
X82860714Y-86168866D01*
X82860714Y-86168866D02*
X82908333Y-86121247D01*
X82908333Y-86121247D02*
X83003571Y-86073628D01*
X83003571Y-86073628D02*
X83194047Y-86026009D01*
X83194047Y-86026009D02*
X83289285Y-85978390D01*
X83289285Y-85978390D02*
X83336904Y-85930771D01*
X83336904Y-85930771D02*
X83384523Y-85835533D01*
X83384523Y-85835533D02*
X83384523Y-85740295D01*
X83384523Y-85740295D02*
X83336904Y-85645057D01*
X83336904Y-85645057D02*
X83289285Y-85597438D01*
X83289285Y-85597438D02*
X83194047Y-85549819D01*
X83194047Y-85549819D02*
X82955952Y-85549819D01*
X82955952Y-85549819D02*
X82813095Y-85597438D01*
X82479761Y-85549819D02*
X82241666Y-86549819D01*
X82241666Y-86549819D02*
X82051190Y-85835533D01*
X82051190Y-85835533D02*
X81860714Y-86549819D01*
X81860714Y-86549819D02*
X81622619Y-85549819D01*
X80717857Y-86549819D02*
X81289285Y-86549819D01*
X81003571Y-86549819D02*
X81003571Y-85549819D01*
X81003571Y-85549819D02*
X81098809Y-85692676D01*
X81098809Y-85692676D02*
X81194047Y-85787914D01*
X81194047Y-85787914D02*
X81289285Y-85835533D01*
X79813095Y-85549819D02*
X80289285Y-85549819D01*
X80289285Y-85549819D02*
X80336904Y-86026009D01*
X80336904Y-86026009D02*
X80289285Y-85978390D01*
X80289285Y-85978390D02*
X80194047Y-85930771D01*
X80194047Y-85930771D02*
X79955952Y-85930771D01*
X79955952Y-85930771D02*
X79860714Y-85978390D01*
X79860714Y-85978390D02*
X79813095Y-86026009D01*
X79813095Y-86026009D02*
X79765476Y-86121247D01*
X79765476Y-86121247D02*
X79765476Y-86359342D01*
X79765476Y-86359342D02*
X79813095Y-86454580D01*
X79813095Y-86454580D02*
X79860714Y-86502200D01*
X79860714Y-86502200D02*
X79955952Y-86549819D01*
X79955952Y-86549819D02*
X80194047Y-86549819D01*
X80194047Y-86549819D02*
X80289285Y-86502200D01*
X80289285Y-86502200D02*
X80336904Y-86454580D01*
X140534523Y-70309700D02*
X140391666Y-70357319D01*
X140391666Y-70357319D02*
X140153571Y-70357319D01*
X140153571Y-70357319D02*
X140058333Y-70309700D01*
X140058333Y-70309700D02*
X140010714Y-70262080D01*
X140010714Y-70262080D02*
X139963095Y-70166842D01*
X139963095Y-70166842D02*
X139963095Y-70071604D01*
X139963095Y-70071604D02*
X140010714Y-69976366D01*
X140010714Y-69976366D02*
X140058333Y-69928747D01*
X140058333Y-69928747D02*
X140153571Y-69881128D01*
X140153571Y-69881128D02*
X140344047Y-69833509D01*
X140344047Y-69833509D02*
X140439285Y-69785890D01*
X140439285Y-69785890D02*
X140486904Y-69738271D01*
X140486904Y-69738271D02*
X140534523Y-69643033D01*
X140534523Y-69643033D02*
X140534523Y-69547795D01*
X140534523Y-69547795D02*
X140486904Y-69452557D01*
X140486904Y-69452557D02*
X140439285Y-69404938D01*
X140439285Y-69404938D02*
X140344047Y-69357319D01*
X140344047Y-69357319D02*
X140105952Y-69357319D01*
X140105952Y-69357319D02*
X139963095Y-69404938D01*
X139629761Y-69357319D02*
X139391666Y-70357319D01*
X139391666Y-70357319D02*
X139201190Y-69643033D01*
X139201190Y-69643033D02*
X139010714Y-70357319D01*
X139010714Y-70357319D02*
X138772619Y-69357319D01*
X137867857Y-70357319D02*
X138439285Y-70357319D01*
X138153571Y-70357319D02*
X138153571Y-69357319D01*
X138153571Y-69357319D02*
X138248809Y-69500176D01*
X138248809Y-69500176D02*
X138344047Y-69595414D01*
X138344047Y-69595414D02*
X138439285Y-69643033D01*
X137248809Y-69357319D02*
X137153571Y-69357319D01*
X137153571Y-69357319D02*
X137058333Y-69404938D01*
X137058333Y-69404938D02*
X137010714Y-69452557D01*
X137010714Y-69452557D02*
X136963095Y-69547795D01*
X136963095Y-69547795D02*
X136915476Y-69738271D01*
X136915476Y-69738271D02*
X136915476Y-69976366D01*
X136915476Y-69976366D02*
X136963095Y-70166842D01*
X136963095Y-70166842D02*
X137010714Y-70262080D01*
X137010714Y-70262080D02*
X137058333Y-70309700D01*
X137058333Y-70309700D02*
X137153571Y-70357319D01*
X137153571Y-70357319D02*
X137248809Y-70357319D01*
X137248809Y-70357319D02*
X137344047Y-70309700D01*
X137344047Y-70309700D02*
X137391666Y-70262080D01*
X137391666Y-70262080D02*
X137439285Y-70166842D01*
X137439285Y-70166842D02*
X137486904Y-69976366D01*
X137486904Y-69976366D02*
X137486904Y-69738271D01*
X137486904Y-69738271D02*
X137439285Y-69547795D01*
X137439285Y-69547795D02*
X137391666Y-69452557D01*
X137391666Y-69452557D02*
X137344047Y-69404938D01*
X137344047Y-69404938D02*
X137248809Y-69357319D01*
X64334523Y-75072200D02*
X64191666Y-75119819D01*
X64191666Y-75119819D02*
X63953571Y-75119819D01*
X63953571Y-75119819D02*
X63858333Y-75072200D01*
X63858333Y-75072200D02*
X63810714Y-75024580D01*
X63810714Y-75024580D02*
X63763095Y-74929342D01*
X63763095Y-74929342D02*
X63763095Y-74834104D01*
X63763095Y-74834104D02*
X63810714Y-74738866D01*
X63810714Y-74738866D02*
X63858333Y-74691247D01*
X63858333Y-74691247D02*
X63953571Y-74643628D01*
X63953571Y-74643628D02*
X64144047Y-74596009D01*
X64144047Y-74596009D02*
X64239285Y-74548390D01*
X64239285Y-74548390D02*
X64286904Y-74500771D01*
X64286904Y-74500771D02*
X64334523Y-74405533D01*
X64334523Y-74405533D02*
X64334523Y-74310295D01*
X64334523Y-74310295D02*
X64286904Y-74215057D01*
X64286904Y-74215057D02*
X64239285Y-74167438D01*
X64239285Y-74167438D02*
X64144047Y-74119819D01*
X64144047Y-74119819D02*
X63905952Y-74119819D01*
X63905952Y-74119819D02*
X63763095Y-74167438D01*
X63429761Y-74119819D02*
X63191666Y-75119819D01*
X63191666Y-75119819D02*
X63001190Y-74405533D01*
X63001190Y-74405533D02*
X62810714Y-75119819D01*
X62810714Y-75119819D02*
X62572619Y-74119819D01*
X61667857Y-75119819D02*
X62239285Y-75119819D01*
X61953571Y-75119819D02*
X61953571Y-74119819D01*
X61953571Y-74119819D02*
X62048809Y-74262676D01*
X62048809Y-74262676D02*
X62144047Y-74357914D01*
X62144047Y-74357914D02*
X62239285Y-74405533D01*
X61286904Y-74215057D02*
X61239285Y-74167438D01*
X61239285Y-74167438D02*
X61144047Y-74119819D01*
X61144047Y-74119819D02*
X60905952Y-74119819D01*
X60905952Y-74119819D02*
X60810714Y-74167438D01*
X60810714Y-74167438D02*
X60763095Y-74215057D01*
X60763095Y-74215057D02*
X60715476Y-74310295D01*
X60715476Y-74310295D02*
X60715476Y-74405533D01*
X60715476Y-74405533D02*
X60763095Y-74548390D01*
X60763095Y-74548390D02*
X61334523Y-75119819D01*
X61334523Y-75119819D02*
X60715476Y-75119819D01*
X101958332Y-64594700D02*
X101815475Y-64642319D01*
X101815475Y-64642319D02*
X101577380Y-64642319D01*
X101577380Y-64642319D02*
X101482142Y-64594700D01*
X101482142Y-64594700D02*
X101434523Y-64547080D01*
X101434523Y-64547080D02*
X101386904Y-64451842D01*
X101386904Y-64451842D02*
X101386904Y-64356604D01*
X101386904Y-64356604D02*
X101434523Y-64261366D01*
X101434523Y-64261366D02*
X101482142Y-64213747D01*
X101482142Y-64213747D02*
X101577380Y-64166128D01*
X101577380Y-64166128D02*
X101767856Y-64118509D01*
X101767856Y-64118509D02*
X101863094Y-64070890D01*
X101863094Y-64070890D02*
X101910713Y-64023271D01*
X101910713Y-64023271D02*
X101958332Y-63928033D01*
X101958332Y-63928033D02*
X101958332Y-63832795D01*
X101958332Y-63832795D02*
X101910713Y-63737557D01*
X101910713Y-63737557D02*
X101863094Y-63689938D01*
X101863094Y-63689938D02*
X101767856Y-63642319D01*
X101767856Y-63642319D02*
X101529761Y-63642319D01*
X101529761Y-63642319D02*
X101386904Y-63689938D01*
X101053570Y-63642319D02*
X100815475Y-64642319D01*
X100815475Y-64642319D02*
X100624999Y-63928033D01*
X100624999Y-63928033D02*
X100434523Y-64642319D01*
X100434523Y-64642319D02*
X100196428Y-63642319D01*
X99910713Y-63642319D02*
X99244047Y-63642319D01*
X99244047Y-63642319D02*
X99672618Y-64642319D01*
X45284523Y-117934700D02*
X45141666Y-117982319D01*
X45141666Y-117982319D02*
X44903571Y-117982319D01*
X44903571Y-117982319D02*
X44808333Y-117934700D01*
X44808333Y-117934700D02*
X44760714Y-117887080D01*
X44760714Y-117887080D02*
X44713095Y-117791842D01*
X44713095Y-117791842D02*
X44713095Y-117696604D01*
X44713095Y-117696604D02*
X44760714Y-117601366D01*
X44760714Y-117601366D02*
X44808333Y-117553747D01*
X44808333Y-117553747D02*
X44903571Y-117506128D01*
X44903571Y-117506128D02*
X45094047Y-117458509D01*
X45094047Y-117458509D02*
X45189285Y-117410890D01*
X45189285Y-117410890D02*
X45236904Y-117363271D01*
X45236904Y-117363271D02*
X45284523Y-117268033D01*
X45284523Y-117268033D02*
X45284523Y-117172795D01*
X45284523Y-117172795D02*
X45236904Y-117077557D01*
X45236904Y-117077557D02*
X45189285Y-117029938D01*
X45189285Y-117029938D02*
X45094047Y-116982319D01*
X45094047Y-116982319D02*
X44855952Y-116982319D01*
X44855952Y-116982319D02*
X44713095Y-117029938D01*
X44379761Y-116982319D02*
X44141666Y-117982319D01*
X44141666Y-117982319D02*
X43951190Y-117268033D01*
X43951190Y-117268033D02*
X43760714Y-117982319D01*
X43760714Y-117982319D02*
X43522619Y-116982319D01*
X43189285Y-117077557D02*
X43141666Y-117029938D01*
X43141666Y-117029938D02*
X43046428Y-116982319D01*
X43046428Y-116982319D02*
X42808333Y-116982319D01*
X42808333Y-116982319D02*
X42713095Y-117029938D01*
X42713095Y-117029938D02*
X42665476Y-117077557D01*
X42665476Y-117077557D02*
X42617857Y-117172795D01*
X42617857Y-117172795D02*
X42617857Y-117268033D01*
X42617857Y-117268033D02*
X42665476Y-117410890D01*
X42665476Y-117410890D02*
X43236904Y-117982319D01*
X43236904Y-117982319D02*
X42617857Y-117982319D01*
X42284523Y-116982319D02*
X41617857Y-116982319D01*
X41617857Y-116982319D02*
X42046428Y-117982319D01*
X83384523Y-105552200D02*
X83241666Y-105599819D01*
X83241666Y-105599819D02*
X83003571Y-105599819D01*
X83003571Y-105599819D02*
X82908333Y-105552200D01*
X82908333Y-105552200D02*
X82860714Y-105504580D01*
X82860714Y-105504580D02*
X82813095Y-105409342D01*
X82813095Y-105409342D02*
X82813095Y-105314104D01*
X82813095Y-105314104D02*
X82860714Y-105218866D01*
X82860714Y-105218866D02*
X82908333Y-105171247D01*
X82908333Y-105171247D02*
X83003571Y-105123628D01*
X83003571Y-105123628D02*
X83194047Y-105076009D01*
X83194047Y-105076009D02*
X83289285Y-105028390D01*
X83289285Y-105028390D02*
X83336904Y-104980771D01*
X83336904Y-104980771D02*
X83384523Y-104885533D01*
X83384523Y-104885533D02*
X83384523Y-104790295D01*
X83384523Y-104790295D02*
X83336904Y-104695057D01*
X83336904Y-104695057D02*
X83289285Y-104647438D01*
X83289285Y-104647438D02*
X83194047Y-104599819D01*
X83194047Y-104599819D02*
X82955952Y-104599819D01*
X82955952Y-104599819D02*
X82813095Y-104647438D01*
X82479761Y-104599819D02*
X82241666Y-105599819D01*
X82241666Y-105599819D02*
X82051190Y-104885533D01*
X82051190Y-104885533D02*
X81860714Y-105599819D01*
X81860714Y-105599819D02*
X81622619Y-104599819D01*
X81289285Y-104695057D02*
X81241666Y-104647438D01*
X81241666Y-104647438D02*
X81146428Y-104599819D01*
X81146428Y-104599819D02*
X80908333Y-104599819D01*
X80908333Y-104599819D02*
X80813095Y-104647438D01*
X80813095Y-104647438D02*
X80765476Y-104695057D01*
X80765476Y-104695057D02*
X80717857Y-104790295D01*
X80717857Y-104790295D02*
X80717857Y-104885533D01*
X80717857Y-104885533D02*
X80765476Y-105028390D01*
X80765476Y-105028390D02*
X81336904Y-105599819D01*
X81336904Y-105599819D02*
X80717857Y-105599819D01*
X80336904Y-104695057D02*
X80289285Y-104647438D01*
X80289285Y-104647438D02*
X80194047Y-104599819D01*
X80194047Y-104599819D02*
X79955952Y-104599819D01*
X79955952Y-104599819D02*
X79860714Y-104647438D01*
X79860714Y-104647438D02*
X79813095Y-104695057D01*
X79813095Y-104695057D02*
X79765476Y-104790295D01*
X79765476Y-104790295D02*
X79765476Y-104885533D01*
X79765476Y-104885533D02*
X79813095Y-105028390D01*
X79813095Y-105028390D02*
X80384523Y-105599819D01*
X80384523Y-105599819D02*
X79765476Y-105599819D01*
X121484523Y-105552200D02*
X121341666Y-105599819D01*
X121341666Y-105599819D02*
X121103571Y-105599819D01*
X121103571Y-105599819D02*
X121008333Y-105552200D01*
X121008333Y-105552200D02*
X120960714Y-105504580D01*
X120960714Y-105504580D02*
X120913095Y-105409342D01*
X120913095Y-105409342D02*
X120913095Y-105314104D01*
X120913095Y-105314104D02*
X120960714Y-105218866D01*
X120960714Y-105218866D02*
X121008333Y-105171247D01*
X121008333Y-105171247D02*
X121103571Y-105123628D01*
X121103571Y-105123628D02*
X121294047Y-105076009D01*
X121294047Y-105076009D02*
X121389285Y-105028390D01*
X121389285Y-105028390D02*
X121436904Y-104980771D01*
X121436904Y-104980771D02*
X121484523Y-104885533D01*
X121484523Y-104885533D02*
X121484523Y-104790295D01*
X121484523Y-104790295D02*
X121436904Y-104695057D01*
X121436904Y-104695057D02*
X121389285Y-104647438D01*
X121389285Y-104647438D02*
X121294047Y-104599819D01*
X121294047Y-104599819D02*
X121055952Y-104599819D01*
X121055952Y-104599819D02*
X120913095Y-104647438D01*
X120579761Y-104599819D02*
X120341666Y-105599819D01*
X120341666Y-105599819D02*
X120151190Y-104885533D01*
X120151190Y-104885533D02*
X119960714Y-105599819D01*
X119960714Y-105599819D02*
X119722619Y-104599819D01*
X119389285Y-104695057D02*
X119341666Y-104647438D01*
X119341666Y-104647438D02*
X119246428Y-104599819D01*
X119246428Y-104599819D02*
X119008333Y-104599819D01*
X119008333Y-104599819D02*
X118913095Y-104647438D01*
X118913095Y-104647438D02*
X118865476Y-104695057D01*
X118865476Y-104695057D02*
X118817857Y-104790295D01*
X118817857Y-104790295D02*
X118817857Y-104885533D01*
X118817857Y-104885533D02*
X118865476Y-105028390D01*
X118865476Y-105028390D02*
X119436904Y-105599819D01*
X119436904Y-105599819D02*
X118817857Y-105599819D01*
X118484523Y-104599819D02*
X117865476Y-104599819D01*
X117865476Y-104599819D02*
X118198809Y-104980771D01*
X118198809Y-104980771D02*
X118055952Y-104980771D01*
X118055952Y-104980771D02*
X117960714Y-105028390D01*
X117960714Y-105028390D02*
X117913095Y-105076009D01*
X117913095Y-105076009D02*
X117865476Y-105171247D01*
X117865476Y-105171247D02*
X117865476Y-105409342D01*
X117865476Y-105409342D02*
X117913095Y-105504580D01*
X117913095Y-105504580D02*
X117960714Y-105552200D01*
X117960714Y-105552200D02*
X118055952Y-105599819D01*
X118055952Y-105599819D02*
X118341666Y-105599819D01*
X118341666Y-105599819D02*
X118436904Y-105552200D01*
X118436904Y-105552200D02*
X118484523Y-105504580D01*
X101958332Y-45544700D02*
X101815475Y-45592319D01*
X101815475Y-45592319D02*
X101577380Y-45592319D01*
X101577380Y-45592319D02*
X101482142Y-45544700D01*
X101482142Y-45544700D02*
X101434523Y-45497080D01*
X101434523Y-45497080D02*
X101386904Y-45401842D01*
X101386904Y-45401842D02*
X101386904Y-45306604D01*
X101386904Y-45306604D02*
X101434523Y-45211366D01*
X101434523Y-45211366D02*
X101482142Y-45163747D01*
X101482142Y-45163747D02*
X101577380Y-45116128D01*
X101577380Y-45116128D02*
X101767856Y-45068509D01*
X101767856Y-45068509D02*
X101863094Y-45020890D01*
X101863094Y-45020890D02*
X101910713Y-44973271D01*
X101910713Y-44973271D02*
X101958332Y-44878033D01*
X101958332Y-44878033D02*
X101958332Y-44782795D01*
X101958332Y-44782795D02*
X101910713Y-44687557D01*
X101910713Y-44687557D02*
X101863094Y-44639938D01*
X101863094Y-44639938D02*
X101767856Y-44592319D01*
X101767856Y-44592319D02*
X101529761Y-44592319D01*
X101529761Y-44592319D02*
X101386904Y-44639938D01*
X101053570Y-44592319D02*
X100815475Y-45592319D01*
X100815475Y-45592319D02*
X100624999Y-44878033D01*
X100624999Y-44878033D02*
X100434523Y-45592319D01*
X100434523Y-45592319D02*
X100196428Y-44592319D01*
X99291666Y-45592319D02*
X99863094Y-45592319D01*
X99577380Y-45592319D02*
X99577380Y-44592319D01*
X99577380Y-44592319D02*
X99672618Y-44735176D01*
X99672618Y-44735176D02*
X99767856Y-44830414D01*
X99767856Y-44830414D02*
X99863094Y-44878033D01*
X140534523Y-108409700D02*
X140391666Y-108457319D01*
X140391666Y-108457319D02*
X140153571Y-108457319D01*
X140153571Y-108457319D02*
X140058333Y-108409700D01*
X140058333Y-108409700D02*
X140010714Y-108362080D01*
X140010714Y-108362080D02*
X139963095Y-108266842D01*
X139963095Y-108266842D02*
X139963095Y-108171604D01*
X139963095Y-108171604D02*
X140010714Y-108076366D01*
X140010714Y-108076366D02*
X140058333Y-108028747D01*
X140058333Y-108028747D02*
X140153571Y-107981128D01*
X140153571Y-107981128D02*
X140344047Y-107933509D01*
X140344047Y-107933509D02*
X140439285Y-107885890D01*
X140439285Y-107885890D02*
X140486904Y-107838271D01*
X140486904Y-107838271D02*
X140534523Y-107743033D01*
X140534523Y-107743033D02*
X140534523Y-107647795D01*
X140534523Y-107647795D02*
X140486904Y-107552557D01*
X140486904Y-107552557D02*
X140439285Y-107504938D01*
X140439285Y-107504938D02*
X140344047Y-107457319D01*
X140344047Y-107457319D02*
X140105952Y-107457319D01*
X140105952Y-107457319D02*
X139963095Y-107504938D01*
X139629761Y-107457319D02*
X139391666Y-108457319D01*
X139391666Y-108457319D02*
X139201190Y-107743033D01*
X139201190Y-107743033D02*
X139010714Y-108457319D01*
X139010714Y-108457319D02*
X138772619Y-107457319D01*
X138439285Y-107552557D02*
X138391666Y-107504938D01*
X138391666Y-107504938D02*
X138296428Y-107457319D01*
X138296428Y-107457319D02*
X138058333Y-107457319D01*
X138058333Y-107457319D02*
X137963095Y-107504938D01*
X137963095Y-107504938D02*
X137915476Y-107552557D01*
X137915476Y-107552557D02*
X137867857Y-107647795D01*
X137867857Y-107647795D02*
X137867857Y-107743033D01*
X137867857Y-107743033D02*
X137915476Y-107885890D01*
X137915476Y-107885890D02*
X138486904Y-108457319D01*
X138486904Y-108457319D02*
X137867857Y-108457319D01*
X137010714Y-107790652D02*
X137010714Y-108457319D01*
X137248809Y-107409700D02*
X137486904Y-108123985D01*
X137486904Y-108123985D02*
X136867857Y-108123985D01*
X102554819Y-35966666D02*
X103269104Y-35966666D01*
X103269104Y-35966666D02*
X103411961Y-35919047D01*
X103411961Y-35919047D02*
X103507200Y-35823809D01*
X103507200Y-35823809D02*
X103554819Y-35680952D01*
X103554819Y-35680952D02*
X103554819Y-35585714D01*
X102554819Y-36347619D02*
X102554819Y-36966666D01*
X102554819Y-36966666D02*
X102935771Y-36633333D01*
X102935771Y-36633333D02*
X102935771Y-36776190D01*
X102935771Y-36776190D02*
X102983390Y-36871428D01*
X102983390Y-36871428D02*
X103031009Y-36919047D01*
X103031009Y-36919047D02*
X103126247Y-36966666D01*
X103126247Y-36966666D02*
X103364342Y-36966666D01*
X103364342Y-36966666D02*
X103459580Y-36919047D01*
X103459580Y-36919047D02*
X103507200Y-36871428D01*
X103507200Y-36871428D02*
X103554819Y-36776190D01*
X103554819Y-36776190D02*
X103554819Y-36490476D01*
X103554819Y-36490476D02*
X103507200Y-36395238D01*
X103507200Y-36395238D02*
X103459580Y-36347619D01*
X63858332Y-56022200D02*
X63715475Y-56069819D01*
X63715475Y-56069819D02*
X63477380Y-56069819D01*
X63477380Y-56069819D02*
X63382142Y-56022200D01*
X63382142Y-56022200D02*
X63334523Y-55974580D01*
X63334523Y-55974580D02*
X63286904Y-55879342D01*
X63286904Y-55879342D02*
X63286904Y-55784104D01*
X63286904Y-55784104D02*
X63334523Y-55688866D01*
X63334523Y-55688866D02*
X63382142Y-55641247D01*
X63382142Y-55641247D02*
X63477380Y-55593628D01*
X63477380Y-55593628D02*
X63667856Y-55546009D01*
X63667856Y-55546009D02*
X63763094Y-55498390D01*
X63763094Y-55498390D02*
X63810713Y-55450771D01*
X63810713Y-55450771D02*
X63858332Y-55355533D01*
X63858332Y-55355533D02*
X63858332Y-55260295D01*
X63858332Y-55260295D02*
X63810713Y-55165057D01*
X63810713Y-55165057D02*
X63763094Y-55117438D01*
X63763094Y-55117438D02*
X63667856Y-55069819D01*
X63667856Y-55069819D02*
X63429761Y-55069819D01*
X63429761Y-55069819D02*
X63286904Y-55117438D01*
X62953570Y-55069819D02*
X62715475Y-56069819D01*
X62715475Y-56069819D02*
X62524999Y-55355533D01*
X62524999Y-55355533D02*
X62334523Y-56069819D01*
X62334523Y-56069819D02*
X62096428Y-55069819D01*
X61239285Y-55069819D02*
X61715475Y-55069819D01*
X61715475Y-55069819D02*
X61763094Y-55546009D01*
X61763094Y-55546009D02*
X61715475Y-55498390D01*
X61715475Y-55498390D02*
X61620237Y-55450771D01*
X61620237Y-55450771D02*
X61382142Y-55450771D01*
X61382142Y-55450771D02*
X61286904Y-55498390D01*
X61286904Y-55498390D02*
X61239285Y-55546009D01*
X61239285Y-55546009D02*
X61191666Y-55641247D01*
X61191666Y-55641247D02*
X61191666Y-55879342D01*
X61191666Y-55879342D02*
X61239285Y-55974580D01*
X61239285Y-55974580D02*
X61286904Y-56022200D01*
X61286904Y-56022200D02*
X61382142Y-56069819D01*
X61382142Y-56069819D02*
X61620237Y-56069819D01*
X61620237Y-56069819D02*
X61715475Y-56022200D01*
X61715475Y-56022200D02*
X61763094Y-55974580D01*
D13*
%TO.C,U1*%
X70740000Y-42390000D02*
X70740000Y-24610000D01*
X70740000Y-24610000D02*
X37720000Y-24610000D01*
X37720000Y-42390000D02*
X70740000Y-42390000D01*
X37720000Y-24610000D02*
X37720000Y-42390000D01*
D14*
%TO.C,SW33*%
X86750000Y-28500000D02*
X86750000Y-27000000D01*
X88000000Y-24500000D02*
X92500000Y-24500000D01*
X92500000Y-31000000D02*
X88000000Y-31000000D01*
X93750000Y-27000000D02*
X93750000Y-28500000D01*
%TO.C,SWI1*%
X96500000Y-32600000D02*
X100700000Y-32600000D01*
X100700000Y-23600000D01*
X96500000Y-23600000D01*
X96500000Y-32600000D01*
D12*
%TO.C,J4*%
X168774259Y-59424507D02*
X165110461Y-47055732D01*
X164938980Y-60560568D02*
X168774259Y-59424507D01*
X161275182Y-48191794D02*
X164938980Y-60560568D01*
X165110461Y-47055732D02*
X161275182Y-48191794D01*
D10*
%TO.C,D29*%
X125275000Y-135350000D02*
X125275000Y-136850000D01*
X125275000Y-135350000D02*
X130675000Y-135350000D01*
X127475000Y-136600000D02*
X128375000Y-136100000D01*
X127475000Y-135600000D02*
X127475000Y-136600000D01*
X128375000Y-136100000D02*
X127475000Y-135600000D01*
X128475000Y-135600000D02*
X128475000Y-136600000D01*
X130675000Y-136850000D02*
X125275000Y-136850000D01*
X130675000Y-135350000D02*
X130675000Y-136850000D01*
%TO.C,D27*%
X49275000Y-128682500D02*
X49275000Y-130182500D01*
X49275000Y-128682500D02*
X54675000Y-128682500D01*
X51475000Y-129932500D02*
X52375000Y-129432500D01*
X51475000Y-128932500D02*
X51475000Y-129932500D01*
X52375000Y-129432500D02*
X51475000Y-128932500D01*
X52475000Y-128932500D02*
X52475000Y-129932500D01*
X54675000Y-130182500D02*
X49275000Y-130182500D01*
X54675000Y-128682500D02*
X54675000Y-130182500D01*
%TO.C,D22*%
X87125000Y-116300000D02*
X87125000Y-117800000D01*
X87125000Y-116300000D02*
X92525000Y-116300000D01*
X89325000Y-117550000D02*
X90225000Y-117050000D01*
X89325000Y-116550000D02*
X89325000Y-117550000D01*
X90225000Y-117050000D02*
X89325000Y-116550000D01*
X90325000Y-116550000D02*
X90325000Y-117550000D01*
X92525000Y-117800000D02*
X87125000Y-117800000D01*
X92525000Y-116300000D02*
X92525000Y-117800000D01*
%TO.C,SW21*%
X104070000Y-107892500D02*
G75*
G02*
X102570000Y-106392500I1J1500001D01*
G01*
X102570000Y-110392500D02*
G75*
G02*
X103070000Y-110892500I-1J-500001D01*
G01*
X112070000Y-111192500D02*
X111070000Y-111192500D01*
X112070000Y-110192500D02*
X112070000Y-111192500D01*
X112070000Y-97192500D02*
X112070000Y-98192500D01*
X111070000Y-97192500D02*
X112070000Y-97192500D01*
X107070000Y-111892500D02*
X106570000Y-112392500D01*
X107070000Y-108392500D02*
X106570000Y-107892500D01*
X106570000Y-112392500D02*
X103570000Y-112392500D01*
X106570000Y-107892500D02*
X104070000Y-107892500D01*
X103570000Y-112392500D02*
X103070000Y-111892500D01*
X103070000Y-110892500D02*
X103070000Y-111892500D01*
X102570000Y-106392500D02*
X102570000Y-105692500D01*
X102570000Y-105692500D02*
X98070000Y-105692500D01*
X99070000Y-111192500D02*
X98070000Y-111192500D01*
X98070000Y-111192500D02*
X98070000Y-110192500D01*
X98070000Y-110392500D02*
X102570000Y-110392500D01*
X98070000Y-109792500D02*
X98070000Y-110392500D01*
X98070000Y-105692500D02*
X98070000Y-106192500D01*
X98070000Y-98192500D02*
X98070000Y-97192500D01*
X98070000Y-97192500D02*
X99070000Y-97192500D01*
%TO.C,D15*%
X87125000Y-97250000D02*
X87125000Y-98750000D01*
X87125000Y-97250000D02*
X92525000Y-97250000D01*
X89325000Y-98500000D02*
X90225000Y-98000000D01*
X89325000Y-97500000D02*
X89325000Y-98500000D01*
X90225000Y-98000000D02*
X89325000Y-97500000D01*
X90325000Y-97500000D02*
X90325000Y-98500000D01*
X92525000Y-98750000D02*
X87125000Y-98750000D01*
X92525000Y-97250000D02*
X92525000Y-98750000D01*
%TO.C,SW3*%
X123120000Y-53600000D02*
G75*
G02*
X121620000Y-52100000I1J1500001D01*
G01*
X121620000Y-56100000D02*
G75*
G02*
X122120000Y-56600000I-1J-500001D01*
G01*
X131120000Y-56900000D02*
X130120000Y-56900000D01*
X131120000Y-55900000D02*
X131120000Y-56900000D01*
X131120000Y-42900000D02*
X131120000Y-43900000D01*
X130120000Y-42900000D02*
X131120000Y-42900000D01*
X126120000Y-57600000D02*
X125620000Y-58100000D01*
X126120000Y-54100000D02*
X125620000Y-53600000D01*
X125620000Y-58100000D02*
X122620000Y-58100000D01*
X125620000Y-53600000D02*
X123120000Y-53600000D01*
X122620000Y-58100000D02*
X122120000Y-57600000D01*
X122120000Y-56600000D02*
X122120000Y-57600000D01*
X121620000Y-52100000D02*
X121620000Y-51400000D01*
X121620000Y-51400000D02*
X117120000Y-51400000D01*
X118120000Y-56900000D02*
X117120000Y-56900000D01*
X117120000Y-56900000D02*
X117120000Y-55900000D01*
X117120000Y-56100000D02*
X121620000Y-56100000D01*
X117120000Y-55500000D02*
X117120000Y-56100000D01*
X117120000Y-51400000D02*
X117120000Y-51900000D01*
X117120000Y-43900000D02*
X117120000Y-42900000D01*
X117120000Y-42900000D02*
X118120000Y-42900000D01*
%TO.C,D5*%
X73475000Y-66770000D02*
X73475000Y-68270000D01*
X73475000Y-68270000D02*
X68075000Y-68270000D01*
X71275000Y-67020000D02*
X71275000Y-68020000D01*
X71175000Y-67520000D02*
X70275000Y-67020000D01*
X70275000Y-67020000D02*
X70275000Y-68020000D01*
X70275000Y-68020000D02*
X71175000Y-67520000D01*
X68075000Y-66770000D02*
X73475000Y-66770000D01*
X68075000Y-66770000D02*
X68075000Y-68270000D01*
%TO.C,D19*%
X73475000Y-104870000D02*
X73475000Y-106370000D01*
X73475000Y-106370000D02*
X68075000Y-106370000D01*
X71275000Y-105120000D02*
X71275000Y-106120000D01*
X71175000Y-105620000D02*
X70275000Y-105120000D01*
X70275000Y-105120000D02*
X70275000Y-106120000D01*
X70275000Y-106120000D02*
X71175000Y-105620000D01*
X68075000Y-104870000D02*
X73475000Y-104870000D01*
X68075000Y-104870000D02*
X68075000Y-106370000D01*
%TO.C,D8*%
X92525000Y-78200000D02*
X92525000Y-79700000D01*
X92525000Y-79700000D02*
X87125000Y-79700000D01*
X90325000Y-78450000D02*
X90325000Y-79450000D01*
X90225000Y-78950000D02*
X89325000Y-78450000D01*
X89325000Y-78450000D02*
X89325000Y-79450000D01*
X89325000Y-79450000D02*
X90225000Y-78950000D01*
X87125000Y-78200000D02*
X92525000Y-78200000D01*
X87125000Y-78200000D02*
X87125000Y-79700000D01*
%TO.C,D2*%
X92525000Y-59150000D02*
X92525000Y-60650000D01*
X92525000Y-60650000D02*
X87125000Y-60650000D01*
X90325000Y-59400000D02*
X90325000Y-60400000D01*
X90225000Y-59900000D02*
X89325000Y-59400000D01*
X89325000Y-59400000D02*
X89325000Y-60400000D01*
X89325000Y-60400000D02*
X90225000Y-59900000D01*
X87125000Y-59150000D02*
X92525000Y-59150000D01*
X87125000Y-59150000D02*
X87125000Y-60650000D01*
%TO.C,D24*%
X149675000Y-119157500D02*
X149675000Y-120657500D01*
X149675000Y-120657500D02*
X144275000Y-120657500D01*
X147475000Y-119407500D02*
X147475000Y-120407500D01*
X147375000Y-119907500D02*
X146475000Y-119407500D01*
X146475000Y-119407500D02*
X146475000Y-120407500D01*
X146475000Y-120407500D02*
X147375000Y-119907500D01*
X144275000Y-119157500D02*
X149675000Y-119157500D01*
X144275000Y-119157500D02*
X144275000Y-120657500D01*
%TO.C,D9*%
X130625000Y-78200000D02*
X130625000Y-79700000D01*
X130625000Y-79700000D02*
X125225000Y-79700000D01*
X128425000Y-78450000D02*
X128425000Y-79450000D01*
X128325000Y-78950000D02*
X127425000Y-78450000D01*
X127425000Y-78450000D02*
X127425000Y-79450000D01*
X127425000Y-79450000D02*
X128325000Y-78950000D01*
X125225000Y-78200000D02*
X130625000Y-78200000D01*
X125225000Y-78200000D02*
X125225000Y-79700000D01*
%TO.C,D25*%
X168725000Y-119157500D02*
X168725000Y-120657500D01*
X168725000Y-120657500D02*
X163325000Y-120657500D01*
X166525000Y-119407500D02*
X166525000Y-120407500D01*
X166425000Y-119907500D02*
X165525000Y-119407500D01*
X165525000Y-119407500D02*
X165525000Y-120407500D01*
X165525000Y-120407500D02*
X166425000Y-119907500D01*
X163325000Y-119157500D02*
X168725000Y-119157500D01*
X163325000Y-119157500D02*
X163325000Y-120657500D01*
%TO.C,D12*%
X73475000Y-85820000D02*
X73475000Y-87320000D01*
X73475000Y-87320000D02*
X68075000Y-87320000D01*
X71275000Y-86070000D02*
X71275000Y-87070000D01*
X71175000Y-86570000D02*
X70275000Y-86070000D01*
X70275000Y-86070000D02*
X70275000Y-87070000D01*
X70275000Y-87070000D02*
X71175000Y-86570000D01*
X68075000Y-85820000D02*
X73475000Y-85820000D01*
X68075000Y-85820000D02*
X68075000Y-87320000D01*
%TO.C,D18*%
X168725000Y-100107500D02*
X168725000Y-101607500D01*
X168725000Y-101607500D02*
X163325000Y-101607500D01*
X166525000Y-100357500D02*
X166525000Y-101357500D01*
X166425000Y-100857500D02*
X165525000Y-100357500D01*
X165525000Y-100357500D02*
X165525000Y-101357500D01*
X165525000Y-101357500D02*
X166425000Y-100857500D01*
X163325000Y-100107500D02*
X168725000Y-100107500D01*
X163325000Y-100107500D02*
X163325000Y-101607500D01*
%TO.C,D4*%
X149675000Y-62007500D02*
X149675000Y-63507500D01*
X149675000Y-63507500D02*
X144275000Y-63507500D01*
X147475000Y-62257500D02*
X147475000Y-63257500D01*
X147375000Y-62757500D02*
X146475000Y-62257500D01*
X146475000Y-62257500D02*
X146475000Y-63257500D01*
X146475000Y-63257500D02*
X147375000Y-62757500D01*
X144275000Y-62007500D02*
X149675000Y-62007500D01*
X144275000Y-62007500D02*
X144275000Y-63507500D01*
%TO.C,D20*%
X54425000Y-109632500D02*
X54425000Y-111132500D01*
X54425000Y-111132500D02*
X49025000Y-111132500D01*
X52225000Y-109882500D02*
X52225000Y-110882500D01*
X52125000Y-110382500D02*
X51225000Y-109882500D01*
X51225000Y-109882500D02*
X51225000Y-110882500D01*
X51225000Y-110882500D02*
X52125000Y-110382500D01*
X49025000Y-109632500D02*
X54425000Y-109632500D01*
X49025000Y-109632500D02*
X49025000Y-111132500D01*
%TO.C,D21*%
X111575000Y-113442500D02*
X111575000Y-114942500D01*
X111575000Y-114942500D02*
X106175000Y-114942500D01*
X109375000Y-113692500D02*
X109375000Y-114692500D01*
X109275000Y-114192500D02*
X108375000Y-113692500D01*
X108375000Y-113692500D02*
X108375000Y-114692500D01*
X108375000Y-114692500D02*
X109275000Y-114192500D01*
X106175000Y-113442500D02*
X111575000Y-113442500D01*
X106175000Y-113442500D02*
X106175000Y-114942500D01*
%TO.C,D10*%
X149675000Y-81057500D02*
X149675000Y-82557500D01*
X149675000Y-82557500D02*
X144275000Y-82557500D01*
X147475000Y-81307500D02*
X147475000Y-82307500D01*
X147375000Y-81807500D02*
X146475000Y-81307500D01*
X146475000Y-81307500D02*
X146475000Y-82307500D01*
X146475000Y-82307500D02*
X147375000Y-81807500D01*
X144275000Y-81057500D02*
X149675000Y-81057500D01*
X144275000Y-81057500D02*
X144275000Y-82557500D01*
%TO.C,D14*%
X111575000Y-94392500D02*
X111575000Y-95892500D01*
X111575000Y-95892500D02*
X106175000Y-95892500D01*
X109375000Y-94642500D02*
X109375000Y-95642500D01*
X109275000Y-95142500D02*
X108375000Y-94642500D01*
X108375000Y-94642500D02*
X108375000Y-95642500D01*
X108375000Y-95642500D02*
X109275000Y-95142500D01*
X106175000Y-94392500D02*
X111575000Y-94392500D01*
X106175000Y-94392500D02*
X106175000Y-95892500D01*
%TO.C,D23*%
X130625000Y-116300000D02*
X130625000Y-117800000D01*
X130625000Y-117800000D02*
X125225000Y-117800000D01*
X128425000Y-116550000D02*
X128425000Y-117550000D01*
X128325000Y-117050000D02*
X127425000Y-116550000D01*
X127425000Y-116550000D02*
X127425000Y-117550000D01*
X127425000Y-117550000D02*
X128325000Y-117050000D01*
X125225000Y-116300000D02*
X130625000Y-116300000D01*
X125225000Y-116300000D02*
X125225000Y-117800000D01*
%TO.C,D1*%
X111575000Y-56292500D02*
X111575000Y-57792500D01*
X111575000Y-57792500D02*
X106175000Y-57792500D01*
X109375000Y-56542500D02*
X109375000Y-57542500D01*
X109275000Y-57042500D02*
X108375000Y-56542500D01*
X108375000Y-56542500D02*
X108375000Y-57542500D01*
X108375000Y-57542500D02*
X109275000Y-57042500D01*
X106175000Y-56292500D02*
X111575000Y-56292500D01*
X106175000Y-56292500D02*
X106175000Y-57792500D01*
%TO.C,D6*%
X54425000Y-71532500D02*
X54425000Y-73032500D01*
X54425000Y-73032500D02*
X49025000Y-73032500D01*
X52225000Y-71782500D02*
X52225000Y-72782500D01*
X52125000Y-72282500D02*
X51225000Y-71782500D01*
X51225000Y-71782500D02*
X51225000Y-72782500D01*
X51225000Y-72782500D02*
X52125000Y-72282500D01*
X49025000Y-71532500D02*
X54425000Y-71532500D01*
X49025000Y-71532500D02*
X49025000Y-73032500D01*
%TO.C,D17*%
X149675000Y-100107500D02*
X149675000Y-101607500D01*
X149675000Y-101607500D02*
X144275000Y-101607500D01*
X147475000Y-100357500D02*
X147475000Y-101357500D01*
X147375000Y-100857500D02*
X146475000Y-100357500D01*
X146475000Y-100357500D02*
X146475000Y-101357500D01*
X146475000Y-101357500D02*
X147375000Y-100857500D01*
X144275000Y-100107500D02*
X149675000Y-100107500D01*
X144275000Y-100107500D02*
X144275000Y-101607500D01*
%TO.C,D28*%
X111625000Y-135350000D02*
X111625000Y-136850000D01*
X111625000Y-136850000D02*
X106225000Y-136850000D01*
X109425000Y-135600000D02*
X109425000Y-136600000D01*
X109325000Y-136100000D02*
X108425000Y-135600000D01*
X108425000Y-135600000D02*
X108425000Y-136600000D01*
X108425000Y-136600000D02*
X109325000Y-136100000D01*
X106225000Y-135350000D02*
X111625000Y-135350000D01*
X106225000Y-135350000D02*
X106225000Y-136850000D01*
%TO.C,D26*%
X73475000Y-123920000D02*
X73475000Y-125420000D01*
X73475000Y-125420000D02*
X68075000Y-125420000D01*
X71275000Y-124170000D02*
X71275000Y-125170000D01*
X71175000Y-124670000D02*
X70275000Y-124170000D01*
X70275000Y-124170000D02*
X70275000Y-125170000D01*
X70275000Y-125170000D02*
X71175000Y-124670000D01*
X68075000Y-123920000D02*
X73475000Y-123920000D01*
X68075000Y-123920000D02*
X68075000Y-125420000D01*
%TO.C,D11*%
X168725000Y-81057500D02*
X168725000Y-82557500D01*
X168725000Y-82557500D02*
X163325000Y-82557500D01*
X166525000Y-81307500D02*
X166525000Y-82307500D01*
X166425000Y-81807500D02*
X165525000Y-81307500D01*
X165525000Y-81307500D02*
X165525000Y-82307500D01*
X165525000Y-82307500D02*
X166425000Y-81807500D01*
X163325000Y-81057500D02*
X168725000Y-81057500D01*
X163325000Y-81057500D02*
X163325000Y-82557500D01*
%TO.C,D32*%
X164250464Y-148587981D02*
X163500464Y-149887019D01*
X163500464Y-149887019D02*
X158823926Y-147187019D01*
X162220208Y-147704487D02*
X161720208Y-148570513D01*
X161883605Y-148087500D02*
X161354182Y-147204487D01*
X161354182Y-147204487D02*
X160854182Y-148070513D01*
X160854182Y-148070513D02*
X161883605Y-148087500D01*
X159573926Y-145887981D02*
X164250464Y-148587981D01*
X159573926Y-145887981D02*
X158823926Y-147187019D01*
%TO.C,D16*%
X130625000Y-97250000D02*
X130625000Y-98750000D01*
X130625000Y-98750000D02*
X125225000Y-98750000D01*
X128425000Y-97500000D02*
X128425000Y-98500000D01*
X128325000Y-98000000D02*
X127425000Y-97500000D01*
X127425000Y-97500000D02*
X127425000Y-98500000D01*
X127425000Y-98500000D02*
X128325000Y-98000000D01*
X125225000Y-97250000D02*
X130625000Y-97250000D01*
X125225000Y-97250000D02*
X125225000Y-98750000D01*
%TO.C,D30*%
X92575000Y-138207500D02*
X92575000Y-139707500D01*
X92575000Y-139707500D02*
X87175000Y-139707500D01*
X90375000Y-138457500D02*
X90375000Y-139457500D01*
X90275000Y-138957500D02*
X89375000Y-138457500D01*
X89375000Y-138457500D02*
X89375000Y-139457500D01*
X89375000Y-139457500D02*
X90275000Y-138957500D01*
X87175000Y-138207500D02*
X92575000Y-138207500D01*
X87175000Y-138207500D02*
X87175000Y-139707500D01*
%TO.C,D13*%
X54425000Y-90582500D02*
X54425000Y-92082500D01*
X54425000Y-92082500D02*
X49025000Y-92082500D01*
X52225000Y-90832500D02*
X52225000Y-91832500D01*
X52125000Y-91332500D02*
X51225000Y-90832500D01*
X51225000Y-90832500D02*
X51225000Y-91832500D01*
X51225000Y-91832500D02*
X52125000Y-91332500D01*
X49025000Y-90582500D02*
X54425000Y-90582500D01*
X49025000Y-90582500D02*
X49025000Y-92082500D01*
%TO.C,D31*%
X149802114Y-141474367D02*
X149413885Y-142923256D01*
X149413885Y-142923256D02*
X144197886Y-141525633D01*
X147612372Y-141146447D02*
X147353553Y-142112372D01*
X147386370Y-141603528D02*
X146646447Y-140887628D01*
X146646447Y-140887628D02*
X146387628Y-141853553D01*
X146387628Y-141853553D02*
X147386370Y-141603528D01*
X144586115Y-140076744D02*
X149802114Y-141474367D01*
X144586115Y-140076744D02*
X144197886Y-141525633D01*
%TO.C,D7*%
X111575000Y-75342500D02*
X111575000Y-76842500D01*
X111575000Y-76842500D02*
X106175000Y-76842500D01*
X109375000Y-75592500D02*
X109375000Y-76592500D01*
X109275000Y-76092500D02*
X108375000Y-75592500D01*
X108375000Y-75592500D02*
X108375000Y-76592500D01*
X108375000Y-76592500D02*
X109275000Y-76092500D01*
X106175000Y-75342500D02*
X111575000Y-75342500D01*
X106175000Y-75342500D02*
X106175000Y-76842500D01*
%TO.C,D3*%
X130625000Y-59150000D02*
X130625000Y-60650000D01*
X130625000Y-60650000D02*
X125225000Y-60650000D01*
X128425000Y-59400000D02*
X128425000Y-60400000D01*
X128325000Y-59900000D02*
X127425000Y-59400000D01*
X127425000Y-59400000D02*
X127425000Y-60400000D01*
X127425000Y-60400000D02*
X128325000Y-59900000D01*
X125225000Y-59150000D02*
X130625000Y-59150000D01*
X125225000Y-59150000D02*
X125225000Y-60650000D01*
%TO.C,SW31*%
X137059684Y-135935866D02*
X137318503Y-134969941D01*
X137266739Y-135163126D02*
X141613405Y-136327812D01*
X137422031Y-134583570D02*
X137266739Y-135163126D01*
X138025610Y-136194686D02*
X137059684Y-135935866D01*
X138483189Y-130623273D02*
X138353779Y-131106237D01*
X140424331Y-123378831D02*
X140683151Y-122412905D01*
X140683151Y-122412905D02*
X141649076Y-122671724D01*
X141966959Y-136940184D02*
X141708140Y-137906110D01*
X142061693Y-138518482D02*
X141708140Y-137906110D01*
X142648682Y-132464108D02*
X142829855Y-131787960D01*
X142829855Y-131787960D02*
X138483189Y-130623273D01*
X144959471Y-139294939D02*
X142061693Y-138518482D01*
X145571843Y-138941386D02*
X144959471Y-139294939D01*
X146124156Y-134948273D02*
X143709342Y-134301226D01*
X146477710Y-135560646D02*
X146124156Y-134948273D01*
X150582645Y-139559333D02*
X149616720Y-139300514D01*
X150841465Y-138593407D02*
X150582645Y-139559333D01*
X153240186Y-125777552D02*
X154206112Y-126036372D01*
X154206112Y-126036372D02*
X153947293Y-127002297D01*
X141613405Y-136327812D02*
G75*
G02*
X141966959Y-136940184I-129409J-482963D01*
G01*
X143709342Y-134301226D02*
G75*
G02*
X142648681Y-132464108I388229J1448890D01*
G01*
%TO.C,SW4*%
X136170000Y-45757500D02*
X137170000Y-45757500D01*
X136170000Y-46757500D02*
X136170000Y-45757500D01*
X136170000Y-54257500D02*
X136170000Y-54757500D01*
X136170000Y-58357500D02*
X136170000Y-58957500D01*
X136170000Y-58957500D02*
X140670000Y-58957500D01*
X136170000Y-59757500D02*
X136170000Y-58757500D01*
X137170000Y-59757500D02*
X136170000Y-59757500D01*
X140670000Y-54257500D02*
X136170000Y-54257500D01*
X140670000Y-54957500D02*
X140670000Y-54257500D01*
X141170000Y-59457500D02*
X141170000Y-60457500D01*
X141670000Y-60957500D02*
X141170000Y-60457500D01*
X144670000Y-56457500D02*
X142170000Y-56457500D01*
X144670000Y-60957500D02*
X141670000Y-60957500D01*
X145170000Y-56957500D02*
X144670000Y-56457500D01*
X145170000Y-60457500D02*
X144670000Y-60957500D01*
X149170000Y-45757500D02*
X150170000Y-45757500D01*
X150170000Y-45757500D02*
X150170000Y-46757500D01*
X150170000Y-58757500D02*
X150170000Y-59757500D01*
X150170000Y-59757500D02*
X149170000Y-59757500D01*
X140670000Y-58957500D02*
G75*
G02*
X141170000Y-59457500I-1J-500001D01*
G01*
X142170000Y-56457500D02*
G75*
G02*
X140670000Y-54957500I1J1500001D01*
G01*
%TO.C,SW29*%
X117120000Y-119100000D02*
X118120000Y-119100000D01*
X117120000Y-120100000D02*
X117120000Y-119100000D01*
X117120000Y-127600000D02*
X117120000Y-128100000D01*
X117120000Y-131700000D02*
X117120000Y-132300000D01*
X117120000Y-132300000D02*
X121620000Y-132300000D01*
X117120000Y-133100000D02*
X117120000Y-132100000D01*
X118120000Y-133100000D02*
X117120000Y-133100000D01*
X121620000Y-127600000D02*
X117120000Y-127600000D01*
X121620000Y-128300000D02*
X121620000Y-127600000D01*
X122120000Y-132800000D02*
X122120000Y-133800000D01*
X122620000Y-134300000D02*
X122120000Y-133800000D01*
X125620000Y-129800000D02*
X123120000Y-129800000D01*
X125620000Y-134300000D02*
X122620000Y-134300000D01*
X126120000Y-130300000D02*
X125620000Y-129800000D01*
X126120000Y-133800000D02*
X125620000Y-134300000D01*
X130120000Y-119100000D02*
X131120000Y-119100000D01*
X131120000Y-119100000D02*
X131120000Y-120100000D01*
X131120000Y-132100000D02*
X131120000Y-133100000D01*
X131120000Y-133100000D02*
X130120000Y-133100000D01*
X121620000Y-132300000D02*
G75*
G02*
X122120000Y-132800000I-1J-500001D01*
G01*
X123120000Y-129800000D02*
G75*
G02*
X121620000Y-128300000I1J1500001D01*
G01*
%TO.C,SW13*%
X40920000Y-74332500D02*
X41920000Y-74332500D01*
X40920000Y-75332500D02*
X40920000Y-74332500D01*
X40920000Y-82832500D02*
X40920000Y-83332500D01*
X40920000Y-86932500D02*
X40920000Y-87532500D01*
X40920000Y-87532500D02*
X45420000Y-87532500D01*
X40920000Y-88332500D02*
X40920000Y-87332500D01*
X41920000Y-88332500D02*
X40920000Y-88332500D01*
X45420000Y-82832500D02*
X40920000Y-82832500D01*
X45420000Y-83532500D02*
X45420000Y-82832500D01*
X45920000Y-88032500D02*
X45920000Y-89032500D01*
X46420000Y-89532500D02*
X45920000Y-89032500D01*
X49420000Y-85032500D02*
X46920000Y-85032500D01*
X49420000Y-89532500D02*
X46420000Y-89532500D01*
X49920000Y-85532500D02*
X49420000Y-85032500D01*
X49920000Y-89032500D02*
X49420000Y-89532500D01*
X53920000Y-74332500D02*
X54920000Y-74332500D01*
X54920000Y-74332500D02*
X54920000Y-75332500D01*
X54920000Y-87332500D02*
X54920000Y-88332500D01*
X54920000Y-88332500D02*
X53920000Y-88332500D01*
X45420000Y-87532500D02*
G75*
G02*
X45920000Y-88032500I-1J-500001D01*
G01*
X46920000Y-85032500D02*
G75*
G02*
X45420000Y-83532500I1J1500001D01*
G01*
%TO.C,SW25*%
X155220000Y-102907500D02*
X156220000Y-102907500D01*
X155220000Y-103907500D02*
X155220000Y-102907500D01*
X155220000Y-111407500D02*
X155220000Y-111907500D01*
X155220000Y-115507500D02*
X155220000Y-116107500D01*
X155220000Y-116107500D02*
X159720000Y-116107500D01*
X155220000Y-116907500D02*
X155220000Y-115907500D01*
X156220000Y-116907500D02*
X155220000Y-116907500D01*
X159720000Y-111407500D02*
X155220000Y-111407500D01*
X159720000Y-112107500D02*
X159720000Y-111407500D01*
X160220000Y-116607500D02*
X160220000Y-117607500D01*
X160720000Y-118107500D02*
X160220000Y-117607500D01*
X163720000Y-113607500D02*
X161220000Y-113607500D01*
X163720000Y-118107500D02*
X160720000Y-118107500D01*
X164220000Y-114107500D02*
X163720000Y-113607500D01*
X164220000Y-117607500D02*
X163720000Y-118107500D01*
X168220000Y-102907500D02*
X169220000Y-102907500D01*
X169220000Y-102907500D02*
X169220000Y-103907500D01*
X169220000Y-115907500D02*
X169220000Y-116907500D01*
X169220000Y-116907500D02*
X168220000Y-116907500D01*
X159720000Y-116107500D02*
G75*
G02*
X160220000Y-116607500I-1J-500001D01*
G01*
X161220000Y-113607500D02*
G75*
G02*
X159720000Y-112107500I1J1500001D01*
G01*
%TO.C,SW26*%
X59970000Y-107670000D02*
X60970000Y-107670000D01*
X59970000Y-108670000D02*
X59970000Y-107670000D01*
X59970000Y-116170000D02*
X59970000Y-116670000D01*
X59970000Y-120270000D02*
X59970000Y-120870000D01*
X59970000Y-120870000D02*
X64470000Y-120870000D01*
X59970000Y-121670000D02*
X59970000Y-120670000D01*
X60970000Y-121670000D02*
X59970000Y-121670000D01*
X64470000Y-116170000D02*
X59970000Y-116170000D01*
X64470000Y-116870000D02*
X64470000Y-116170000D01*
X64970000Y-121370000D02*
X64970000Y-122370000D01*
X65470000Y-122870000D02*
X64970000Y-122370000D01*
X68470000Y-118370000D02*
X65970000Y-118370000D01*
X68470000Y-122870000D02*
X65470000Y-122870000D01*
X68970000Y-118870000D02*
X68470000Y-118370000D01*
X68970000Y-122370000D02*
X68470000Y-122870000D01*
X72970000Y-107670000D02*
X73970000Y-107670000D01*
X73970000Y-107670000D02*
X73970000Y-108670000D01*
X73970000Y-120670000D02*
X73970000Y-121670000D01*
X73970000Y-121670000D02*
X72970000Y-121670000D01*
X64470000Y-120870000D02*
G75*
G02*
X64970000Y-121370000I-1J-500001D01*
G01*
X65970000Y-118370000D02*
G75*
G02*
X64470000Y-116870000I1J1500001D01*
G01*
%TO.C,SW28*%
X98070000Y-119100000D02*
X99070000Y-119100000D01*
X98070000Y-120100000D02*
X98070000Y-119100000D01*
X98070000Y-127600000D02*
X98070000Y-128100000D01*
X98070000Y-131700000D02*
X98070000Y-132300000D01*
X98070000Y-132300000D02*
X102570000Y-132300000D01*
X98070000Y-133100000D02*
X98070000Y-132100000D01*
X99070000Y-133100000D02*
X98070000Y-133100000D01*
X102570000Y-127600000D02*
X98070000Y-127600000D01*
X102570000Y-128300000D02*
X102570000Y-127600000D01*
X103070000Y-132800000D02*
X103070000Y-133800000D01*
X103570000Y-134300000D02*
X103070000Y-133800000D01*
X106570000Y-129800000D02*
X104070000Y-129800000D01*
X106570000Y-134300000D02*
X103570000Y-134300000D01*
X107070000Y-130300000D02*
X106570000Y-129800000D01*
X107070000Y-133800000D02*
X106570000Y-134300000D01*
X111070000Y-119100000D02*
X112070000Y-119100000D01*
X112070000Y-119100000D02*
X112070000Y-120100000D01*
X112070000Y-132100000D02*
X112070000Y-133100000D01*
X112070000Y-133100000D02*
X111070000Y-133100000D01*
X102570000Y-132300000D02*
G75*
G02*
X103070000Y-132800000I-1J-500001D01*
G01*
X104070000Y-129800000D02*
G75*
G02*
X102570000Y-128300000I1J1500001D01*
G01*
%TO.C,SW30*%
X79020000Y-121957500D02*
X80020000Y-121957500D01*
X79020000Y-122957500D02*
X79020000Y-121957500D01*
X79020000Y-130457500D02*
X79020000Y-130957500D01*
X79020000Y-134557500D02*
X79020000Y-135157500D01*
X79020000Y-135157500D02*
X83520000Y-135157500D01*
X79020000Y-135957500D02*
X79020000Y-134957500D01*
X80020000Y-135957500D02*
X79020000Y-135957500D01*
X83520000Y-130457500D02*
X79020000Y-130457500D01*
X83520000Y-131157500D02*
X83520000Y-130457500D01*
X84020000Y-135657500D02*
X84020000Y-136657500D01*
X84520000Y-137157500D02*
X84020000Y-136657500D01*
X87520000Y-132657500D02*
X85020000Y-132657500D01*
X87520000Y-137157500D02*
X84520000Y-137157500D01*
X88020000Y-133157500D02*
X87520000Y-132657500D01*
X88020000Y-136657500D02*
X87520000Y-137157500D01*
X92020000Y-121957500D02*
X93020000Y-121957500D01*
X93020000Y-121957500D02*
X93020000Y-122957500D01*
X93020000Y-134957500D02*
X93020000Y-135957500D01*
X93020000Y-135957500D02*
X92020000Y-135957500D01*
X83520000Y-135157500D02*
G75*
G02*
X84020000Y-135657500I-1J-500001D01*
G01*
X85020000Y-132657500D02*
G75*
G02*
X83520000Y-131157500I1J1500001D01*
G01*
%TO.C,SW32*%
X156349373Y-140976292D02*
X156849373Y-140110266D01*
X156749373Y-140283472D02*
X160646487Y-142533472D01*
X157049373Y-139763856D02*
X156749373Y-140283472D01*
X157215399Y-141476292D02*
X156349373Y-140976292D01*
X159099373Y-136213152D02*
X158849373Y-136646165D01*
X160512513Y-144765522D02*
X160329500Y-144082510D01*
X160829500Y-143216484D02*
X160329500Y-144082510D01*
X162646487Y-139069370D02*
X162996487Y-138463152D01*
X162849373Y-129717962D02*
X163349373Y-128851936D01*
X162996487Y-138463152D02*
X159099373Y-136213152D01*
X163110589Y-146265522D02*
X160512513Y-144765522D01*
X163349373Y-128851936D02*
X164215399Y-129351936D01*
X163793602Y-146082510D02*
X163110589Y-146265522D01*
X165360589Y-142368408D02*
X163195526Y-141118408D01*
X165543602Y-143051421D02*
X165360589Y-142368408D01*
X168473729Y-147976292D02*
X167607703Y-147476292D01*
X168973729Y-147110266D02*
X168473729Y-147976292D01*
X174607703Y-135351936D02*
X175473729Y-135851936D01*
X175473729Y-135851936D02*
X174973729Y-136717962D01*
X160646487Y-142533472D02*
G75*
G02*
X160829500Y-143216484I-250000J-433013D01*
G01*
X163195526Y-141118408D02*
G75*
G02*
X162646488Y-139069371I750001J1299038D01*
G01*
%TO.C,SW16*%
X117120000Y-81000000D02*
X118120000Y-81000000D01*
X117120000Y-82000000D02*
X117120000Y-81000000D01*
X117120000Y-89500000D02*
X117120000Y-90000000D01*
X117120000Y-93600000D02*
X117120000Y-94200000D01*
X117120000Y-94200000D02*
X121620000Y-94200000D01*
X117120000Y-95000000D02*
X117120000Y-94000000D01*
X118120000Y-95000000D02*
X117120000Y-95000000D01*
X121620000Y-89500000D02*
X117120000Y-89500000D01*
X121620000Y-90200000D02*
X121620000Y-89500000D01*
X122120000Y-94700000D02*
X122120000Y-95700000D01*
X122620000Y-96200000D02*
X122120000Y-95700000D01*
X125620000Y-91700000D02*
X123120000Y-91700000D01*
X125620000Y-96200000D02*
X122620000Y-96200000D01*
X126120000Y-92200000D02*
X125620000Y-91700000D01*
X126120000Y-95700000D02*
X125620000Y-96200000D01*
X130120000Y-81000000D02*
X131120000Y-81000000D01*
X131120000Y-81000000D02*
X131120000Y-82000000D01*
X131120000Y-94000000D02*
X131120000Y-95000000D01*
X131120000Y-95000000D02*
X130120000Y-95000000D01*
X121620000Y-94200000D02*
G75*
G02*
X122120000Y-94700000I-1J-500001D01*
G01*
X123120000Y-91700000D02*
G75*
G02*
X121620000Y-90200000I1J1500001D01*
G01*
%TO.C,SW14*%
X98070000Y-78142500D02*
X99070000Y-78142500D01*
X98070000Y-79142500D02*
X98070000Y-78142500D01*
X98070000Y-86642500D02*
X98070000Y-87142500D01*
X98070000Y-90742500D02*
X98070000Y-91342500D01*
X98070000Y-91342500D02*
X102570000Y-91342500D01*
X98070000Y-92142500D02*
X98070000Y-91142500D01*
X99070000Y-92142500D02*
X98070000Y-92142500D01*
X102570000Y-86642500D02*
X98070000Y-86642500D01*
X102570000Y-87342500D02*
X102570000Y-86642500D01*
X103070000Y-91842500D02*
X103070000Y-92842500D01*
X103570000Y-93342500D02*
X103070000Y-92842500D01*
X106570000Y-88842500D02*
X104070000Y-88842500D01*
X106570000Y-93342500D02*
X103570000Y-93342500D01*
X107070000Y-89342500D02*
X106570000Y-88842500D01*
X107070000Y-92842500D02*
X106570000Y-93342500D01*
X111070000Y-78142500D02*
X112070000Y-78142500D01*
X112070000Y-78142500D02*
X112070000Y-79142500D01*
X112070000Y-91142500D02*
X112070000Y-92142500D01*
X112070000Y-92142500D02*
X111070000Y-92142500D01*
X102570000Y-91342500D02*
G75*
G02*
X103070000Y-91842500I-1J-500001D01*
G01*
X104070000Y-88842500D02*
G75*
G02*
X102570000Y-87342500I1J1500001D01*
G01*
%TO.C,SW9*%
X117120000Y-61950000D02*
X118120000Y-61950000D01*
X117120000Y-62950000D02*
X117120000Y-61950000D01*
X117120000Y-70450000D02*
X117120000Y-70950000D01*
X117120000Y-74550000D02*
X117120000Y-75150000D01*
X117120000Y-75150000D02*
X121620000Y-75150000D01*
X117120000Y-75950000D02*
X117120000Y-74950000D01*
X118120000Y-75950000D02*
X117120000Y-75950000D01*
X121620000Y-70450000D02*
X117120000Y-70450000D01*
X121620000Y-71150000D02*
X121620000Y-70450000D01*
X122120000Y-75650000D02*
X122120000Y-76650000D01*
X122620000Y-77150000D02*
X122120000Y-76650000D01*
X125620000Y-72650000D02*
X123120000Y-72650000D01*
X125620000Y-77150000D02*
X122620000Y-77150000D01*
X126120000Y-73150000D02*
X125620000Y-72650000D01*
X126120000Y-76650000D02*
X125620000Y-77150000D01*
X130120000Y-61950000D02*
X131120000Y-61950000D01*
X131120000Y-61950000D02*
X131120000Y-62950000D01*
X131120000Y-74950000D02*
X131120000Y-75950000D01*
X131120000Y-75950000D02*
X130120000Y-75950000D01*
X121620000Y-75150000D02*
G75*
G02*
X122120000Y-75650000I-1J-500001D01*
G01*
X123120000Y-72650000D02*
G75*
G02*
X121620000Y-71150000I1J1500001D01*
G01*
%TO.C,SW2*%
X79020000Y-42900000D02*
X80020000Y-42900000D01*
X79020000Y-43900000D02*
X79020000Y-42900000D01*
X79020000Y-51400000D02*
X79020000Y-51900000D01*
X79020000Y-55500000D02*
X79020000Y-56100000D01*
X79020000Y-56100000D02*
X83520000Y-56100000D01*
X79020000Y-56900000D02*
X79020000Y-55900000D01*
X80020000Y-56900000D02*
X79020000Y-56900000D01*
X83520000Y-51400000D02*
X79020000Y-51400000D01*
X83520000Y-52100000D02*
X83520000Y-51400000D01*
X84020000Y-56600000D02*
X84020000Y-57600000D01*
X84520000Y-58100000D02*
X84020000Y-57600000D01*
X87520000Y-53600000D02*
X85020000Y-53600000D01*
X87520000Y-58100000D02*
X84520000Y-58100000D01*
X88020000Y-54100000D02*
X87520000Y-53600000D01*
X88020000Y-57600000D02*
X87520000Y-58100000D01*
X92020000Y-42900000D02*
X93020000Y-42900000D01*
X93020000Y-42900000D02*
X93020000Y-43900000D01*
X93020000Y-55900000D02*
X93020000Y-56900000D01*
X93020000Y-56900000D02*
X92020000Y-56900000D01*
X83520000Y-56100000D02*
G75*
G02*
X84020000Y-56600000I-1J-500001D01*
G01*
X85020000Y-53600000D02*
G75*
G02*
X83520000Y-52100000I1J1500001D01*
G01*
%TO.C,SW19*%
X59970000Y-88620000D02*
X60970000Y-88620000D01*
X59970000Y-89620000D02*
X59970000Y-88620000D01*
X59970000Y-97120000D02*
X59970000Y-97620000D01*
X59970000Y-101220000D02*
X59970000Y-101820000D01*
X59970000Y-101820000D02*
X64470000Y-101820000D01*
X59970000Y-102620000D02*
X59970000Y-101620000D01*
X60970000Y-102620000D02*
X59970000Y-102620000D01*
X64470000Y-97120000D02*
X59970000Y-97120000D01*
X64470000Y-97820000D02*
X64470000Y-97120000D01*
X64970000Y-102320000D02*
X64970000Y-103320000D01*
X65470000Y-103820000D02*
X64970000Y-103320000D01*
X68470000Y-99320000D02*
X65970000Y-99320000D01*
X68470000Y-103820000D02*
X65470000Y-103820000D01*
X68970000Y-99820000D02*
X68470000Y-99320000D01*
X68970000Y-103320000D02*
X68470000Y-103820000D01*
X72970000Y-88620000D02*
X73970000Y-88620000D01*
X73970000Y-88620000D02*
X73970000Y-89620000D01*
X73970000Y-101620000D02*
X73970000Y-102620000D01*
X73970000Y-102620000D02*
X72970000Y-102620000D01*
X64470000Y-101820000D02*
G75*
G02*
X64970000Y-102320000I-1J-500001D01*
G01*
X65970000Y-99320000D02*
G75*
G02*
X64470000Y-97820000I1J1500001D01*
G01*
%TO.C,SW20*%
X40920000Y-93382500D02*
X41920000Y-93382500D01*
X40920000Y-94382500D02*
X40920000Y-93382500D01*
X40920000Y-101882500D02*
X40920000Y-102382500D01*
X40920000Y-105982500D02*
X40920000Y-106582500D01*
X40920000Y-106582500D02*
X45420000Y-106582500D01*
X40920000Y-107382500D02*
X40920000Y-106382500D01*
X41920000Y-107382500D02*
X40920000Y-107382500D01*
X45420000Y-101882500D02*
X40920000Y-101882500D01*
X45420000Y-102582500D02*
X45420000Y-101882500D01*
X45920000Y-107082500D02*
X45920000Y-108082500D01*
X46420000Y-108582500D02*
X45920000Y-108082500D01*
X49420000Y-104082500D02*
X46920000Y-104082500D01*
X49420000Y-108582500D02*
X46420000Y-108582500D01*
X49920000Y-104582500D02*
X49420000Y-104082500D01*
X49920000Y-108082500D02*
X49420000Y-108582500D01*
X53920000Y-93382500D02*
X54920000Y-93382500D01*
X54920000Y-93382500D02*
X54920000Y-94382500D01*
X54920000Y-106382500D02*
X54920000Y-107382500D01*
X54920000Y-107382500D02*
X53920000Y-107382500D01*
X45420000Y-106582500D02*
G75*
G02*
X45920000Y-107082500I-1J-500001D01*
G01*
X46920000Y-104082500D02*
G75*
G02*
X45420000Y-102582500I1J1500001D01*
G01*
%TO.C,SW18*%
X155220000Y-83857500D02*
X156220000Y-83857500D01*
X155220000Y-84857500D02*
X155220000Y-83857500D01*
X155220000Y-92357500D02*
X155220000Y-92857500D01*
X155220000Y-96457500D02*
X155220000Y-97057500D01*
X155220000Y-97057500D02*
X159720000Y-97057500D01*
X155220000Y-97857500D02*
X155220000Y-96857500D01*
X156220000Y-97857500D02*
X155220000Y-97857500D01*
X159720000Y-92357500D02*
X155220000Y-92357500D01*
X159720000Y-93057500D02*
X159720000Y-92357500D01*
X160220000Y-97557500D02*
X160220000Y-98557500D01*
X160720000Y-99057500D02*
X160220000Y-98557500D01*
X163720000Y-94557500D02*
X161220000Y-94557500D01*
X163720000Y-99057500D02*
X160720000Y-99057500D01*
X164220000Y-95057500D02*
X163720000Y-94557500D01*
X164220000Y-98557500D02*
X163720000Y-99057500D01*
X168220000Y-83857500D02*
X169220000Y-83857500D01*
X169220000Y-83857500D02*
X169220000Y-84857500D01*
X169220000Y-96857500D02*
X169220000Y-97857500D01*
X169220000Y-97857500D02*
X168220000Y-97857500D01*
X159720000Y-97057500D02*
G75*
G02*
X160220000Y-97557500I-1J-500001D01*
G01*
X161220000Y-94557500D02*
G75*
G02*
X159720000Y-93057500I1J1500001D01*
G01*
%TO.C,SW17*%
X136170000Y-83857500D02*
X137170000Y-83857500D01*
X136170000Y-84857500D02*
X136170000Y-83857500D01*
X136170000Y-92357500D02*
X136170000Y-92857500D01*
X136170000Y-96457500D02*
X136170000Y-97057500D01*
X136170000Y-97057500D02*
X140670000Y-97057500D01*
X136170000Y-97857500D02*
X136170000Y-96857500D01*
X137170000Y-97857500D02*
X136170000Y-97857500D01*
X140670000Y-92357500D02*
X136170000Y-92357500D01*
X140670000Y-93057500D02*
X140670000Y-92357500D01*
X141170000Y-97557500D02*
X141170000Y-98557500D01*
X141670000Y-99057500D02*
X141170000Y-98557500D01*
X144670000Y-94557500D02*
X142170000Y-94557500D01*
X144670000Y-99057500D02*
X141670000Y-99057500D01*
X145170000Y-95057500D02*
X144670000Y-94557500D01*
X145170000Y-98557500D02*
X144670000Y-99057500D01*
X149170000Y-83857500D02*
X150170000Y-83857500D01*
X150170000Y-83857500D02*
X150170000Y-84857500D01*
X150170000Y-96857500D02*
X150170000Y-97857500D01*
X150170000Y-97857500D02*
X149170000Y-97857500D01*
X140670000Y-97057500D02*
G75*
G02*
X141170000Y-97557500I-1J-500001D01*
G01*
X142170000Y-94557500D02*
G75*
G02*
X140670000Y-93057500I1J1500001D01*
G01*
%TO.C,SW6*%
X40920000Y-55282500D02*
X41920000Y-55282500D01*
X40920000Y-56282500D02*
X40920000Y-55282500D01*
X40920000Y-63782500D02*
X40920000Y-64282500D01*
X40920000Y-67882500D02*
X40920000Y-68482500D01*
X40920000Y-68482500D02*
X45420000Y-68482500D01*
X40920000Y-69282500D02*
X40920000Y-68282500D01*
X41920000Y-69282500D02*
X40920000Y-69282500D01*
X45420000Y-63782500D02*
X40920000Y-63782500D01*
X45420000Y-64482500D02*
X45420000Y-63782500D01*
X45920000Y-68982500D02*
X45920000Y-69982500D01*
X46420000Y-70482500D02*
X45920000Y-69982500D01*
X49420000Y-65982500D02*
X46920000Y-65982500D01*
X49420000Y-70482500D02*
X46420000Y-70482500D01*
X49920000Y-66482500D02*
X49420000Y-65982500D01*
X49920000Y-69982500D02*
X49420000Y-70482500D01*
X53920000Y-55282500D02*
X54920000Y-55282500D01*
X54920000Y-55282500D02*
X54920000Y-56282500D01*
X54920000Y-68282500D02*
X54920000Y-69282500D01*
X54920000Y-69282500D02*
X53920000Y-69282500D01*
X45420000Y-68482500D02*
G75*
G02*
X45920000Y-68982500I-1J-500001D01*
G01*
X46920000Y-65982500D02*
G75*
G02*
X45420000Y-64482500I1J1500001D01*
G01*
%TO.C,SW8*%
X79020000Y-61950000D02*
X80020000Y-61950000D01*
X79020000Y-62950000D02*
X79020000Y-61950000D01*
X79020000Y-70450000D02*
X79020000Y-70950000D01*
X79020000Y-74550000D02*
X79020000Y-75150000D01*
X79020000Y-75150000D02*
X83520000Y-75150000D01*
X79020000Y-75950000D02*
X79020000Y-74950000D01*
X80020000Y-75950000D02*
X79020000Y-75950000D01*
X83520000Y-70450000D02*
X79020000Y-70450000D01*
X83520000Y-71150000D02*
X83520000Y-70450000D01*
X84020000Y-75650000D02*
X84020000Y-76650000D01*
X84520000Y-77150000D02*
X84020000Y-76650000D01*
X87520000Y-72650000D02*
X85020000Y-72650000D01*
X87520000Y-77150000D02*
X84520000Y-77150000D01*
X88020000Y-73150000D02*
X87520000Y-72650000D01*
X88020000Y-76650000D02*
X87520000Y-77150000D01*
X92020000Y-61950000D02*
X93020000Y-61950000D01*
X93020000Y-61950000D02*
X93020000Y-62950000D01*
X93020000Y-74950000D02*
X93020000Y-75950000D01*
X93020000Y-75950000D02*
X92020000Y-75950000D01*
X83520000Y-75150000D02*
G75*
G02*
X84020000Y-75650000I-1J-500001D01*
G01*
X85020000Y-72650000D02*
G75*
G02*
X83520000Y-71150000I1J1500001D01*
G01*
%TO.C,SW11*%
X155220000Y-64807500D02*
X156220000Y-64807500D01*
X155220000Y-65807500D02*
X155220000Y-64807500D01*
X155220000Y-73307500D02*
X155220000Y-73807500D01*
X155220000Y-77407500D02*
X155220000Y-78007500D01*
X155220000Y-78007500D02*
X159720000Y-78007500D01*
X155220000Y-78807500D02*
X155220000Y-77807500D01*
X156220000Y-78807500D02*
X155220000Y-78807500D01*
X159720000Y-73307500D02*
X155220000Y-73307500D01*
X159720000Y-74007500D02*
X159720000Y-73307500D01*
X160220000Y-78507500D02*
X160220000Y-79507500D01*
X160720000Y-80007500D02*
X160220000Y-79507500D01*
X163720000Y-75507500D02*
X161220000Y-75507500D01*
X163720000Y-80007500D02*
X160720000Y-80007500D01*
X164220000Y-76007500D02*
X163720000Y-75507500D01*
X164220000Y-79507500D02*
X163720000Y-80007500D01*
X168220000Y-64807500D02*
X169220000Y-64807500D01*
X169220000Y-64807500D02*
X169220000Y-65807500D01*
X169220000Y-77807500D02*
X169220000Y-78807500D01*
X169220000Y-78807500D02*
X168220000Y-78807500D01*
X159720000Y-78007500D02*
G75*
G02*
X160220000Y-78507500I-1J-500001D01*
G01*
X161220000Y-75507500D02*
G75*
G02*
X159720000Y-74007500I1J1500001D01*
G01*
%TO.C,SW15*%
X79020000Y-81000000D02*
X80020000Y-81000000D01*
X79020000Y-82000000D02*
X79020000Y-81000000D01*
X79020000Y-89500000D02*
X79020000Y-90000000D01*
X79020000Y-93600000D02*
X79020000Y-94200000D01*
X79020000Y-94200000D02*
X83520000Y-94200000D01*
X79020000Y-95000000D02*
X79020000Y-94000000D01*
X80020000Y-95000000D02*
X79020000Y-95000000D01*
X83520000Y-89500000D02*
X79020000Y-89500000D01*
X83520000Y-90200000D02*
X83520000Y-89500000D01*
X84020000Y-94700000D02*
X84020000Y-95700000D01*
X84520000Y-96200000D02*
X84020000Y-95700000D01*
X87520000Y-91700000D02*
X85020000Y-91700000D01*
X87520000Y-96200000D02*
X84520000Y-96200000D01*
X88020000Y-92200000D02*
X87520000Y-91700000D01*
X88020000Y-95700000D02*
X87520000Y-96200000D01*
X92020000Y-81000000D02*
X93020000Y-81000000D01*
X93020000Y-81000000D02*
X93020000Y-82000000D01*
X93020000Y-94000000D02*
X93020000Y-95000000D01*
X93020000Y-95000000D02*
X92020000Y-95000000D01*
X83520000Y-94200000D02*
G75*
G02*
X84020000Y-94700000I-1J-500001D01*
G01*
X85020000Y-91700000D02*
G75*
G02*
X83520000Y-90200000I1J1500001D01*
G01*
%TO.C,SW10*%
X136170000Y-64807500D02*
X137170000Y-64807500D01*
X136170000Y-65807500D02*
X136170000Y-64807500D01*
X136170000Y-73307500D02*
X136170000Y-73807500D01*
X136170000Y-77407500D02*
X136170000Y-78007500D01*
X136170000Y-78007500D02*
X140670000Y-78007500D01*
X136170000Y-78807500D02*
X136170000Y-77807500D01*
X137170000Y-78807500D02*
X136170000Y-78807500D01*
X140670000Y-73307500D02*
X136170000Y-73307500D01*
X140670000Y-74007500D02*
X140670000Y-73307500D01*
X141170000Y-78507500D02*
X141170000Y-79507500D01*
X141670000Y-80007500D02*
X141170000Y-79507500D01*
X144670000Y-75507500D02*
X142170000Y-75507500D01*
X144670000Y-80007500D02*
X141670000Y-80007500D01*
X145170000Y-76007500D02*
X144670000Y-75507500D01*
X145170000Y-79507500D02*
X144670000Y-80007500D01*
X149170000Y-64807500D02*
X150170000Y-64807500D01*
X150170000Y-64807500D02*
X150170000Y-65807500D01*
X150170000Y-77807500D02*
X150170000Y-78807500D01*
X150170000Y-78807500D02*
X149170000Y-78807500D01*
X140670000Y-78007500D02*
G75*
G02*
X141170000Y-78507500I-1J-500001D01*
G01*
X142170000Y-75507500D02*
G75*
G02*
X140670000Y-74007500I1J1500001D01*
G01*
%TO.C,SW12*%
X59970000Y-69570000D02*
X60970000Y-69570000D01*
X59970000Y-70570000D02*
X59970000Y-69570000D01*
X59970000Y-78070000D02*
X59970000Y-78570000D01*
X59970000Y-82170000D02*
X59970000Y-82770000D01*
X59970000Y-82770000D02*
X64470000Y-82770000D01*
X59970000Y-83570000D02*
X59970000Y-82570000D01*
X60970000Y-83570000D02*
X59970000Y-83570000D01*
X64470000Y-78070000D02*
X59970000Y-78070000D01*
X64470000Y-78770000D02*
X64470000Y-78070000D01*
X64970000Y-83270000D02*
X64970000Y-84270000D01*
X65470000Y-84770000D02*
X64970000Y-84270000D01*
X68470000Y-80270000D02*
X65970000Y-80270000D01*
X68470000Y-84770000D02*
X65470000Y-84770000D01*
X68970000Y-80770000D02*
X68470000Y-80270000D01*
X68970000Y-84270000D02*
X68470000Y-84770000D01*
X72970000Y-69570000D02*
X73970000Y-69570000D01*
X73970000Y-69570000D02*
X73970000Y-70570000D01*
X73970000Y-82570000D02*
X73970000Y-83570000D01*
X73970000Y-83570000D02*
X72970000Y-83570000D01*
X64470000Y-82770000D02*
G75*
G02*
X64970000Y-83270000I-1J-500001D01*
G01*
X65970000Y-80270000D02*
G75*
G02*
X64470000Y-78770000I1J1500001D01*
G01*
%TO.C,SW7*%
X98070000Y-59092500D02*
X99070000Y-59092500D01*
X98070000Y-60092500D02*
X98070000Y-59092500D01*
X98070000Y-67592500D02*
X98070000Y-68092500D01*
X98070000Y-71692500D02*
X98070000Y-72292500D01*
X98070000Y-72292500D02*
X102570000Y-72292500D01*
X98070000Y-73092500D02*
X98070000Y-72092500D01*
X99070000Y-73092500D02*
X98070000Y-73092500D01*
X102570000Y-67592500D02*
X98070000Y-67592500D01*
X102570000Y-68292500D02*
X102570000Y-67592500D01*
X103070000Y-72792500D02*
X103070000Y-73792500D01*
X103570000Y-74292500D02*
X103070000Y-73792500D01*
X106570000Y-69792500D02*
X104070000Y-69792500D01*
X106570000Y-74292500D02*
X103570000Y-74292500D01*
X107070000Y-70292500D02*
X106570000Y-69792500D01*
X107070000Y-73792500D02*
X106570000Y-74292500D01*
X111070000Y-59092500D02*
X112070000Y-59092500D01*
X112070000Y-59092500D02*
X112070000Y-60092500D01*
X112070000Y-72092500D02*
X112070000Y-73092500D01*
X112070000Y-73092500D02*
X111070000Y-73092500D01*
X102570000Y-72292500D02*
G75*
G02*
X103070000Y-72792500I-1J-500001D01*
G01*
X104070000Y-69792500D02*
G75*
G02*
X102570000Y-68292500I1J1500001D01*
G01*
%TO.C,SW27*%
X40920000Y-112432500D02*
X41920000Y-112432500D01*
X40920000Y-113432500D02*
X40920000Y-112432500D01*
X40920000Y-120932500D02*
X40920000Y-121432500D01*
X40920000Y-125032500D02*
X40920000Y-125632500D01*
X40920000Y-125632500D02*
X45420000Y-125632500D01*
X40920000Y-126432500D02*
X40920000Y-125432500D01*
X41920000Y-126432500D02*
X40920000Y-126432500D01*
X45420000Y-120932500D02*
X40920000Y-120932500D01*
X45420000Y-121632500D02*
X45420000Y-120932500D01*
X45920000Y-126132500D02*
X45920000Y-127132500D01*
X46420000Y-127632500D02*
X45920000Y-127132500D01*
X49420000Y-123132500D02*
X46920000Y-123132500D01*
X49420000Y-127632500D02*
X46420000Y-127632500D01*
X49920000Y-123632500D02*
X49420000Y-123132500D01*
X49920000Y-127132500D02*
X49420000Y-127632500D01*
X53920000Y-112432500D02*
X54920000Y-112432500D01*
X54920000Y-112432500D02*
X54920000Y-113432500D01*
X54920000Y-125432500D02*
X54920000Y-126432500D01*
X54920000Y-126432500D02*
X53920000Y-126432500D01*
X45420000Y-125632500D02*
G75*
G02*
X45920000Y-126132500I-1J-500001D01*
G01*
X46920000Y-123132500D02*
G75*
G02*
X45420000Y-121632500I1J1500001D01*
G01*
%TO.C,SW22*%
X79020000Y-100050000D02*
X80020000Y-100050000D01*
X79020000Y-101050000D02*
X79020000Y-100050000D01*
X79020000Y-108550000D02*
X79020000Y-109050000D01*
X79020000Y-112650000D02*
X79020000Y-113250000D01*
X79020000Y-113250000D02*
X83520000Y-113250000D01*
X79020000Y-114050000D02*
X79020000Y-113050000D01*
X80020000Y-114050000D02*
X79020000Y-114050000D01*
X83520000Y-108550000D02*
X79020000Y-108550000D01*
X83520000Y-109250000D02*
X83520000Y-108550000D01*
X84020000Y-113750000D02*
X84020000Y-114750000D01*
X84520000Y-115250000D02*
X84020000Y-114750000D01*
X87520000Y-110750000D02*
X85020000Y-110750000D01*
X87520000Y-115250000D02*
X84520000Y-115250000D01*
X88020000Y-111250000D02*
X87520000Y-110750000D01*
X88020000Y-114750000D02*
X87520000Y-115250000D01*
X92020000Y-100050000D02*
X93020000Y-100050000D01*
X93020000Y-100050000D02*
X93020000Y-101050000D01*
X93020000Y-113050000D02*
X93020000Y-114050000D01*
X93020000Y-114050000D02*
X92020000Y-114050000D01*
X83520000Y-113250000D02*
G75*
G02*
X84020000Y-113750000I-1J-500001D01*
G01*
X85020000Y-110750000D02*
G75*
G02*
X83520000Y-109250000I1J1500001D01*
G01*
%TO.C,SW23*%
X117120000Y-100050000D02*
X118120000Y-100050000D01*
X117120000Y-101050000D02*
X117120000Y-100050000D01*
X117120000Y-108550000D02*
X117120000Y-109050000D01*
X117120000Y-112650000D02*
X117120000Y-113250000D01*
X117120000Y-113250000D02*
X121620000Y-113250000D01*
X117120000Y-114050000D02*
X117120000Y-113050000D01*
X118120000Y-114050000D02*
X117120000Y-114050000D01*
X121620000Y-108550000D02*
X117120000Y-108550000D01*
X121620000Y-109250000D02*
X121620000Y-108550000D01*
X122120000Y-113750000D02*
X122120000Y-114750000D01*
X122620000Y-115250000D02*
X122120000Y-114750000D01*
X125620000Y-110750000D02*
X123120000Y-110750000D01*
X125620000Y-115250000D02*
X122620000Y-115250000D01*
X126120000Y-111250000D02*
X125620000Y-110750000D01*
X126120000Y-114750000D02*
X125620000Y-115250000D01*
X130120000Y-100050000D02*
X131120000Y-100050000D01*
X131120000Y-100050000D02*
X131120000Y-101050000D01*
X131120000Y-113050000D02*
X131120000Y-114050000D01*
X131120000Y-114050000D02*
X130120000Y-114050000D01*
X121620000Y-113250000D02*
G75*
G02*
X122120000Y-113750000I-1J-500001D01*
G01*
X123120000Y-110750000D02*
G75*
G02*
X121620000Y-109250000I1J1500001D01*
G01*
%TO.C,SW1*%
X98070000Y-40042500D02*
X99070000Y-40042500D01*
X98070000Y-41042500D02*
X98070000Y-40042500D01*
X98070000Y-48542500D02*
X98070000Y-49042500D01*
X98070000Y-52642500D02*
X98070000Y-53242500D01*
X98070000Y-53242500D02*
X102570000Y-53242500D01*
X98070000Y-54042500D02*
X98070000Y-53042500D01*
X99070000Y-54042500D02*
X98070000Y-54042500D01*
X102570000Y-48542500D02*
X98070000Y-48542500D01*
X102570000Y-49242500D02*
X102570000Y-48542500D01*
X103070000Y-53742500D02*
X103070000Y-54742500D01*
X103570000Y-55242500D02*
X103070000Y-54742500D01*
X106570000Y-50742500D02*
X104070000Y-50742500D01*
X106570000Y-55242500D02*
X103570000Y-55242500D01*
X107070000Y-51242500D02*
X106570000Y-50742500D01*
X107070000Y-54742500D02*
X106570000Y-55242500D01*
X111070000Y-40042500D02*
X112070000Y-40042500D01*
X112070000Y-40042500D02*
X112070000Y-41042500D01*
X112070000Y-53042500D02*
X112070000Y-54042500D01*
X112070000Y-54042500D02*
X111070000Y-54042500D01*
X102570000Y-53242500D02*
G75*
G02*
X103070000Y-53742500I-1J-500001D01*
G01*
X104070000Y-50742500D02*
G75*
G02*
X102570000Y-49242500I1J1500001D01*
G01*
%TO.C,SW24*%
X136170000Y-102907500D02*
X137170000Y-102907500D01*
X136170000Y-103907500D02*
X136170000Y-102907500D01*
X136170000Y-111407500D02*
X136170000Y-111907500D01*
X136170000Y-115507500D02*
X136170000Y-116107500D01*
X136170000Y-116107500D02*
X140670000Y-116107500D01*
X136170000Y-116907500D02*
X136170000Y-115907500D01*
X137170000Y-116907500D02*
X136170000Y-116907500D01*
X140670000Y-111407500D02*
X136170000Y-111407500D01*
X140670000Y-112107500D02*
X140670000Y-111407500D01*
X141170000Y-116607500D02*
X141170000Y-117607500D01*
X141670000Y-118107500D02*
X141170000Y-117607500D01*
X144670000Y-113607500D02*
X142170000Y-113607500D01*
X144670000Y-118107500D02*
X141670000Y-118107500D01*
X145170000Y-114107500D02*
X144670000Y-113607500D01*
X145170000Y-117607500D02*
X144670000Y-118107500D01*
X149170000Y-102907500D02*
X150170000Y-102907500D01*
X150170000Y-102907500D02*
X150170000Y-103907500D01*
X150170000Y-115907500D02*
X150170000Y-116907500D01*
X150170000Y-116907500D02*
X149170000Y-116907500D01*
X140670000Y-116107500D02*
G75*
G02*
X141170000Y-116607500I-1J-500001D01*
G01*
X142170000Y-113607500D02*
G75*
G02*
X140670000Y-112107500I1J1500001D01*
G01*
D14*
%TO.C,J3*%
X96415000Y-35210000D02*
X96415000Y-34860000D01*
X96415000Y-36790000D02*
X96915000Y-36390000D01*
X96415000Y-37140000D02*
X96415000Y-36790000D01*
X96915000Y-35610000D02*
X96415000Y-35210000D01*
X96915000Y-36390000D02*
X96915000Y-35610000D01*
X97585000Y-33790000D02*
X100935000Y-33790000D01*
X97585000Y-38210000D02*
X100935000Y-38210000D01*
X100935000Y-33790000D02*
X100935000Y-34840000D01*
X100935000Y-37160000D02*
X101125000Y-37160000D01*
X100935000Y-38210000D02*
X100935000Y-37160000D01*
X101625000Y-36600000D02*
X101978553Y-36350000D01*
X101978553Y-36350000D02*
X101978553Y-36850000D01*
X101978553Y-36850000D02*
X101625000Y-36600000D01*
D10*
%TO.C,SW5*%
X59970000Y-50520000D02*
X60970000Y-50520000D01*
X59970000Y-51520000D02*
X59970000Y-50520000D01*
X59970000Y-59020000D02*
X59970000Y-59520000D01*
X59970000Y-63120000D02*
X59970000Y-63720000D01*
X59970000Y-63720000D02*
X64470000Y-63720000D01*
X59970000Y-64520000D02*
X59970000Y-63520000D01*
X60970000Y-64520000D02*
X59970000Y-64520000D01*
X64470000Y-59020000D02*
X59970000Y-59020000D01*
X64470000Y-59720000D02*
X64470000Y-59020000D01*
X64970000Y-64220000D02*
X64970000Y-65220000D01*
X65470000Y-65720000D02*
X64970000Y-65220000D01*
X68470000Y-61220000D02*
X65970000Y-61220000D01*
X68470000Y-65720000D02*
X65470000Y-65720000D01*
X68970000Y-61720000D02*
X68470000Y-61220000D01*
X68970000Y-65220000D02*
X68470000Y-65720000D01*
X72970000Y-50520000D02*
X73970000Y-50520000D01*
X73970000Y-50520000D02*
X73970000Y-51520000D01*
X73970000Y-63520000D02*
X73970000Y-64520000D01*
X73970000Y-64520000D02*
X72970000Y-64520000D01*
X64470000Y-63720000D02*
G75*
G02*
X64970000Y-64220000I-1J-500001D01*
G01*
X65970000Y-61220000D02*
G75*
G02*
X64470000Y-59720000I1J1500001D01*
G01*
%TD*%
D15*
%TO.C,U1*%
X64390000Y-33500000D03*
X64390000Y-36040000D03*
X64390000Y-38580000D03*
X38990000Y-25880000D03*
X41530000Y-25880000D03*
X44070000Y-25880000D03*
X46610000Y-25880000D03*
X49150000Y-25880000D03*
X51690000Y-25880000D03*
X54230000Y-25880000D03*
X56770000Y-25880000D03*
X59310000Y-25880000D03*
X61850000Y-25880000D03*
X64390000Y-25880000D03*
X66930000Y-25880000D03*
X69470000Y-25880000D03*
X69470000Y-41120000D03*
X66930000Y-41120000D03*
X64390000Y-41120000D03*
X61850000Y-41120000D03*
X59310000Y-41120000D03*
X56770000Y-41120000D03*
X54230000Y-41120000D03*
X51690000Y-41120000D03*
X49150000Y-41120000D03*
X46610000Y-41120000D03*
X44070000Y-41120000D03*
X41530000Y-41120000D03*
X38990000Y-41120000D03*
%TD*%
M02*
