%TF.GenerationSoftware,KiCad,Pcbnew,9.0.2+dfsg-1*%
%TF.CreationDate,2025-11-17T22:50:06+01:00*%
%TF.ProjectId,LuMo,4c754d6f-2e6b-4696-9361-645f70636258,rev?*%
%TF.SameCoordinates,Original*%
%TF.FileFunction,AssemblyDrawing,Bot*%
%FSLAX46Y46*%
G04 Gerber Fmt 4.6, Leading zero omitted, Abs format (unit mm)*
G04 Created by KiCad (PCBNEW 9.0.2+dfsg-1) date 2025-11-17 22:50:06*
%MOMM*%
%LPD*%
G01*
G04 APERTURE LIST*
%ADD10C,0.150000*%
%ADD11C,0.120000*%
%ADD12C,0.100000*%
G04 APERTURE END LIST*
D10*
X143083499Y-135900955D02*
X142933185Y-135909977D01*
X142933185Y-135909977D02*
X142703203Y-135848353D01*
X142703203Y-135848353D02*
X142623534Y-135777708D01*
X142623534Y-135777708D02*
X142589863Y-135719386D01*
X142589863Y-135719386D02*
X142568516Y-135615069D01*
X142568516Y-135615069D02*
X142593165Y-135523076D01*
X142593165Y-135523076D02*
X142663811Y-135443408D01*
X142663811Y-135443408D02*
X142722132Y-135409736D01*
X142722132Y-135409736D02*
X142826450Y-135388389D01*
X142826450Y-135388389D02*
X143022760Y-135391691D01*
X143022760Y-135391691D02*
X143127078Y-135370344D01*
X143127078Y-135370344D02*
X143185399Y-135336672D01*
X143185399Y-135336672D02*
X143256045Y-135257004D01*
X143256045Y-135257004D02*
X143280695Y-135165011D01*
X143280695Y-135165011D02*
X143259348Y-135060694D01*
X143259348Y-135060694D02*
X143225676Y-135002372D01*
X143225676Y-135002372D02*
X143146008Y-134931726D01*
X143146008Y-134931726D02*
X142916025Y-134870103D01*
X142916025Y-134870103D02*
X142765711Y-134879125D01*
X142456061Y-134746856D02*
X141967259Y-135651158D01*
X141967259Y-135651158D02*
X141968144Y-134911912D01*
X141968144Y-134911912D02*
X141599287Y-135552560D01*
X141599287Y-135552560D02*
X141628124Y-134525011D01*
X141352145Y-134451063D02*
X140754191Y-134290841D01*
X140754191Y-134290841D02*
X140977569Y-134745086D01*
X140977569Y-134745086D02*
X140839580Y-134708112D01*
X140839580Y-134708112D02*
X140735262Y-134729459D01*
X140735262Y-134729459D02*
X140676941Y-134763131D01*
X140676941Y-134763131D02*
X140606295Y-134842799D01*
X140606295Y-134842799D02*
X140544671Y-135072781D01*
X140544671Y-135072781D02*
X140566018Y-135177099D01*
X140566018Y-135177099D02*
X140599690Y-135235420D01*
X140599690Y-135235420D02*
X140679358Y-135306066D01*
X140679358Y-135306066D02*
X140955337Y-135380014D01*
X140955337Y-135380014D02*
X141059655Y-135358667D01*
X141059655Y-135358667D02*
X141117976Y-135324995D01*
X139575443Y-135010273D02*
X140127401Y-135158169D01*
X139851422Y-135084221D02*
X140110241Y-134118295D01*
X140110241Y-134118295D02*
X140165260Y-134280934D01*
X140165260Y-134280934D02*
X140232603Y-134397576D01*
X140232603Y-134397576D02*
X140312271Y-134468222D01*
X141503332Y-58164700D02*
X141360475Y-58212319D01*
X141360475Y-58212319D02*
X141122380Y-58212319D01*
X141122380Y-58212319D02*
X141027142Y-58164700D01*
X141027142Y-58164700D02*
X140979523Y-58117080D01*
X140979523Y-58117080D02*
X140931904Y-58021842D01*
X140931904Y-58021842D02*
X140931904Y-57926604D01*
X140931904Y-57926604D02*
X140979523Y-57831366D01*
X140979523Y-57831366D02*
X141027142Y-57783747D01*
X141027142Y-57783747D02*
X141122380Y-57736128D01*
X141122380Y-57736128D02*
X141312856Y-57688509D01*
X141312856Y-57688509D02*
X141408094Y-57640890D01*
X141408094Y-57640890D02*
X141455713Y-57593271D01*
X141455713Y-57593271D02*
X141503332Y-57498033D01*
X141503332Y-57498033D02*
X141503332Y-57402795D01*
X141503332Y-57402795D02*
X141455713Y-57307557D01*
X141455713Y-57307557D02*
X141408094Y-57259938D01*
X141408094Y-57259938D02*
X141312856Y-57212319D01*
X141312856Y-57212319D02*
X141074761Y-57212319D01*
X141074761Y-57212319D02*
X140931904Y-57259938D01*
X140598570Y-57212319D02*
X140360475Y-58212319D01*
X140360475Y-58212319D02*
X140169999Y-57498033D01*
X140169999Y-57498033D02*
X139979523Y-58212319D01*
X139979523Y-58212319D02*
X139741428Y-57212319D01*
X138931904Y-57545652D02*
X138931904Y-58212319D01*
X139169999Y-57164700D02*
X139408094Y-57878985D01*
X139408094Y-57878985D02*
X138789047Y-57878985D01*
X122929523Y-131507200D02*
X122786666Y-131554819D01*
X122786666Y-131554819D02*
X122548571Y-131554819D01*
X122548571Y-131554819D02*
X122453333Y-131507200D01*
X122453333Y-131507200D02*
X122405714Y-131459580D01*
X122405714Y-131459580D02*
X122358095Y-131364342D01*
X122358095Y-131364342D02*
X122358095Y-131269104D01*
X122358095Y-131269104D02*
X122405714Y-131173866D01*
X122405714Y-131173866D02*
X122453333Y-131126247D01*
X122453333Y-131126247D02*
X122548571Y-131078628D01*
X122548571Y-131078628D02*
X122739047Y-131031009D01*
X122739047Y-131031009D02*
X122834285Y-130983390D01*
X122834285Y-130983390D02*
X122881904Y-130935771D01*
X122881904Y-130935771D02*
X122929523Y-130840533D01*
X122929523Y-130840533D02*
X122929523Y-130745295D01*
X122929523Y-130745295D02*
X122881904Y-130650057D01*
X122881904Y-130650057D02*
X122834285Y-130602438D01*
X122834285Y-130602438D02*
X122739047Y-130554819D01*
X122739047Y-130554819D02*
X122500952Y-130554819D01*
X122500952Y-130554819D02*
X122358095Y-130602438D01*
X122024761Y-130554819D02*
X121786666Y-131554819D01*
X121786666Y-131554819D02*
X121596190Y-130840533D01*
X121596190Y-130840533D02*
X121405714Y-131554819D01*
X121405714Y-131554819D02*
X121167619Y-130554819D01*
X120834285Y-130650057D02*
X120786666Y-130602438D01*
X120786666Y-130602438D02*
X120691428Y-130554819D01*
X120691428Y-130554819D02*
X120453333Y-130554819D01*
X120453333Y-130554819D02*
X120358095Y-130602438D01*
X120358095Y-130602438D02*
X120310476Y-130650057D01*
X120310476Y-130650057D02*
X120262857Y-130745295D01*
X120262857Y-130745295D02*
X120262857Y-130840533D01*
X120262857Y-130840533D02*
X120310476Y-130983390D01*
X120310476Y-130983390D02*
X120881904Y-131554819D01*
X120881904Y-131554819D02*
X120262857Y-131554819D01*
X119786666Y-131554819D02*
X119596190Y-131554819D01*
X119596190Y-131554819D02*
X119500952Y-131507200D01*
X119500952Y-131507200D02*
X119453333Y-131459580D01*
X119453333Y-131459580D02*
X119358095Y-131316723D01*
X119358095Y-131316723D02*
X119310476Y-131126247D01*
X119310476Y-131126247D02*
X119310476Y-130745295D01*
X119310476Y-130745295D02*
X119358095Y-130650057D01*
X119358095Y-130650057D02*
X119405714Y-130602438D01*
X119405714Y-130602438D02*
X119500952Y-130554819D01*
X119500952Y-130554819D02*
X119691428Y-130554819D01*
X119691428Y-130554819D02*
X119786666Y-130602438D01*
X119786666Y-130602438D02*
X119834285Y-130650057D01*
X119834285Y-130650057D02*
X119881904Y-130745295D01*
X119881904Y-130745295D02*
X119881904Y-130983390D01*
X119881904Y-130983390D02*
X119834285Y-131078628D01*
X119834285Y-131078628D02*
X119786666Y-131126247D01*
X119786666Y-131126247D02*
X119691428Y-131173866D01*
X119691428Y-131173866D02*
X119500952Y-131173866D01*
X119500952Y-131173866D02*
X119405714Y-131126247D01*
X119405714Y-131126247D02*
X119358095Y-131078628D01*
X119358095Y-131078628D02*
X119310476Y-130983390D01*
X46729523Y-86739700D02*
X46586666Y-86787319D01*
X46586666Y-86787319D02*
X46348571Y-86787319D01*
X46348571Y-86787319D02*
X46253333Y-86739700D01*
X46253333Y-86739700D02*
X46205714Y-86692080D01*
X46205714Y-86692080D02*
X46158095Y-86596842D01*
X46158095Y-86596842D02*
X46158095Y-86501604D01*
X46158095Y-86501604D02*
X46205714Y-86406366D01*
X46205714Y-86406366D02*
X46253333Y-86358747D01*
X46253333Y-86358747D02*
X46348571Y-86311128D01*
X46348571Y-86311128D02*
X46539047Y-86263509D01*
X46539047Y-86263509D02*
X46634285Y-86215890D01*
X46634285Y-86215890D02*
X46681904Y-86168271D01*
X46681904Y-86168271D02*
X46729523Y-86073033D01*
X46729523Y-86073033D02*
X46729523Y-85977795D01*
X46729523Y-85977795D02*
X46681904Y-85882557D01*
X46681904Y-85882557D02*
X46634285Y-85834938D01*
X46634285Y-85834938D02*
X46539047Y-85787319D01*
X46539047Y-85787319D02*
X46300952Y-85787319D01*
X46300952Y-85787319D02*
X46158095Y-85834938D01*
X45824761Y-85787319D02*
X45586666Y-86787319D01*
X45586666Y-86787319D02*
X45396190Y-86073033D01*
X45396190Y-86073033D02*
X45205714Y-86787319D01*
X45205714Y-86787319D02*
X44967619Y-85787319D01*
X44062857Y-86787319D02*
X44634285Y-86787319D01*
X44348571Y-86787319D02*
X44348571Y-85787319D01*
X44348571Y-85787319D02*
X44443809Y-85930176D01*
X44443809Y-85930176D02*
X44539047Y-86025414D01*
X44539047Y-86025414D02*
X44634285Y-86073033D01*
X43729523Y-85787319D02*
X43110476Y-85787319D01*
X43110476Y-85787319D02*
X43443809Y-86168271D01*
X43443809Y-86168271D02*
X43300952Y-86168271D01*
X43300952Y-86168271D02*
X43205714Y-86215890D01*
X43205714Y-86215890D02*
X43158095Y-86263509D01*
X43158095Y-86263509D02*
X43110476Y-86358747D01*
X43110476Y-86358747D02*
X43110476Y-86596842D01*
X43110476Y-86596842D02*
X43158095Y-86692080D01*
X43158095Y-86692080D02*
X43205714Y-86739700D01*
X43205714Y-86739700D02*
X43300952Y-86787319D01*
X43300952Y-86787319D02*
X43586666Y-86787319D01*
X43586666Y-86787319D02*
X43681904Y-86739700D01*
X43681904Y-86739700D02*
X43729523Y-86692080D01*
X161029523Y-115314700D02*
X160886666Y-115362319D01*
X160886666Y-115362319D02*
X160648571Y-115362319D01*
X160648571Y-115362319D02*
X160553333Y-115314700D01*
X160553333Y-115314700D02*
X160505714Y-115267080D01*
X160505714Y-115267080D02*
X160458095Y-115171842D01*
X160458095Y-115171842D02*
X160458095Y-115076604D01*
X160458095Y-115076604D02*
X160505714Y-114981366D01*
X160505714Y-114981366D02*
X160553333Y-114933747D01*
X160553333Y-114933747D02*
X160648571Y-114886128D01*
X160648571Y-114886128D02*
X160839047Y-114838509D01*
X160839047Y-114838509D02*
X160934285Y-114790890D01*
X160934285Y-114790890D02*
X160981904Y-114743271D01*
X160981904Y-114743271D02*
X161029523Y-114648033D01*
X161029523Y-114648033D02*
X161029523Y-114552795D01*
X161029523Y-114552795D02*
X160981904Y-114457557D01*
X160981904Y-114457557D02*
X160934285Y-114409938D01*
X160934285Y-114409938D02*
X160839047Y-114362319D01*
X160839047Y-114362319D02*
X160600952Y-114362319D01*
X160600952Y-114362319D02*
X160458095Y-114409938D01*
X160124761Y-114362319D02*
X159886666Y-115362319D01*
X159886666Y-115362319D02*
X159696190Y-114648033D01*
X159696190Y-114648033D02*
X159505714Y-115362319D01*
X159505714Y-115362319D02*
X159267619Y-114362319D01*
X158934285Y-114457557D02*
X158886666Y-114409938D01*
X158886666Y-114409938D02*
X158791428Y-114362319D01*
X158791428Y-114362319D02*
X158553333Y-114362319D01*
X158553333Y-114362319D02*
X158458095Y-114409938D01*
X158458095Y-114409938D02*
X158410476Y-114457557D01*
X158410476Y-114457557D02*
X158362857Y-114552795D01*
X158362857Y-114552795D02*
X158362857Y-114648033D01*
X158362857Y-114648033D02*
X158410476Y-114790890D01*
X158410476Y-114790890D02*
X158981904Y-115362319D01*
X158981904Y-115362319D02*
X158362857Y-115362319D01*
X157458095Y-114362319D02*
X157934285Y-114362319D01*
X157934285Y-114362319D02*
X157981904Y-114838509D01*
X157981904Y-114838509D02*
X157934285Y-114790890D01*
X157934285Y-114790890D02*
X157839047Y-114743271D01*
X157839047Y-114743271D02*
X157600952Y-114743271D01*
X157600952Y-114743271D02*
X157505714Y-114790890D01*
X157505714Y-114790890D02*
X157458095Y-114838509D01*
X157458095Y-114838509D02*
X157410476Y-114933747D01*
X157410476Y-114933747D02*
X157410476Y-115171842D01*
X157410476Y-115171842D02*
X157458095Y-115267080D01*
X157458095Y-115267080D02*
X157505714Y-115314700D01*
X157505714Y-115314700D02*
X157600952Y-115362319D01*
X157600952Y-115362319D02*
X157839047Y-115362319D01*
X157839047Y-115362319D02*
X157934285Y-115314700D01*
X157934285Y-115314700D02*
X157981904Y-115267080D01*
X77752380Y-23754819D02*
X77752380Y-22754819D01*
X77752380Y-22754819D02*
X77514285Y-22754819D01*
X77514285Y-22754819D02*
X77371428Y-22802438D01*
X77371428Y-22802438D02*
X77276190Y-22897676D01*
X77276190Y-22897676D02*
X77228571Y-22992914D01*
X77228571Y-22992914D02*
X77180952Y-23183390D01*
X77180952Y-23183390D02*
X77180952Y-23326247D01*
X77180952Y-23326247D02*
X77228571Y-23516723D01*
X77228571Y-23516723D02*
X77276190Y-23611961D01*
X77276190Y-23611961D02*
X77371428Y-23707200D01*
X77371428Y-23707200D02*
X77514285Y-23754819D01*
X77514285Y-23754819D02*
X77752380Y-23754819D01*
X76752380Y-23754819D02*
X76752380Y-23088152D01*
X76752380Y-22754819D02*
X76799999Y-22802438D01*
X76799999Y-22802438D02*
X76752380Y-22850057D01*
X76752380Y-22850057D02*
X76704761Y-22802438D01*
X76704761Y-22802438D02*
X76752380Y-22754819D01*
X76752380Y-22754819D02*
X76752380Y-22850057D01*
X76323809Y-23707200D02*
X76228571Y-23754819D01*
X76228571Y-23754819D02*
X76038095Y-23754819D01*
X76038095Y-23754819D02*
X75942857Y-23707200D01*
X75942857Y-23707200D02*
X75895238Y-23611961D01*
X75895238Y-23611961D02*
X75895238Y-23564342D01*
X75895238Y-23564342D02*
X75942857Y-23469104D01*
X75942857Y-23469104D02*
X76038095Y-23421485D01*
X76038095Y-23421485D02*
X76180952Y-23421485D01*
X76180952Y-23421485D02*
X76276190Y-23373866D01*
X76276190Y-23373866D02*
X76323809Y-23278628D01*
X76323809Y-23278628D02*
X76323809Y-23231009D01*
X76323809Y-23231009D02*
X76276190Y-23135771D01*
X76276190Y-23135771D02*
X76180952Y-23088152D01*
X76180952Y-23088152D02*
X76038095Y-23088152D01*
X76038095Y-23088152D02*
X75942857Y-23135771D01*
X75466666Y-23088152D02*
X75466666Y-24088152D01*
X75466666Y-23135771D02*
X75371428Y-23088152D01*
X75371428Y-23088152D02*
X75180952Y-23088152D01*
X75180952Y-23088152D02*
X75085714Y-23135771D01*
X75085714Y-23135771D02*
X75038095Y-23183390D01*
X75038095Y-23183390D02*
X74990476Y-23278628D01*
X74990476Y-23278628D02*
X74990476Y-23564342D01*
X74990476Y-23564342D02*
X75038095Y-23659580D01*
X75038095Y-23659580D02*
X75085714Y-23707200D01*
X75085714Y-23707200D02*
X75180952Y-23754819D01*
X75180952Y-23754819D02*
X75371428Y-23754819D01*
X75371428Y-23754819D02*
X75466666Y-23707200D01*
X74419047Y-23754819D02*
X74514285Y-23707200D01*
X74514285Y-23707200D02*
X74561904Y-23611961D01*
X74561904Y-23611961D02*
X74561904Y-22754819D01*
X73609523Y-23754819D02*
X73609523Y-23231009D01*
X73609523Y-23231009D02*
X73657142Y-23135771D01*
X73657142Y-23135771D02*
X73752380Y-23088152D01*
X73752380Y-23088152D02*
X73942856Y-23088152D01*
X73942856Y-23088152D02*
X74038094Y-23135771D01*
X73609523Y-23707200D02*
X73704761Y-23754819D01*
X73704761Y-23754819D02*
X73942856Y-23754819D01*
X73942856Y-23754819D02*
X74038094Y-23707200D01*
X74038094Y-23707200D02*
X74085713Y-23611961D01*
X74085713Y-23611961D02*
X74085713Y-23516723D01*
X74085713Y-23516723D02*
X74038094Y-23421485D01*
X74038094Y-23421485D02*
X73942856Y-23373866D01*
X73942856Y-23373866D02*
X73704761Y-23373866D01*
X73704761Y-23373866D02*
X73609523Y-23326247D01*
X73228570Y-23088152D02*
X72990475Y-23754819D01*
X72752380Y-23088152D02*
X72990475Y-23754819D01*
X72990475Y-23754819D02*
X73085713Y-23992914D01*
X73085713Y-23992914D02*
X73133332Y-24040533D01*
X73133332Y-24040533D02*
X73228570Y-24088152D01*
X103879523Y-109599700D02*
X103736666Y-109647319D01*
X103736666Y-109647319D02*
X103498571Y-109647319D01*
X103498571Y-109647319D02*
X103403333Y-109599700D01*
X103403333Y-109599700D02*
X103355714Y-109552080D01*
X103355714Y-109552080D02*
X103308095Y-109456842D01*
X103308095Y-109456842D02*
X103308095Y-109361604D01*
X103308095Y-109361604D02*
X103355714Y-109266366D01*
X103355714Y-109266366D02*
X103403333Y-109218747D01*
X103403333Y-109218747D02*
X103498571Y-109171128D01*
X103498571Y-109171128D02*
X103689047Y-109123509D01*
X103689047Y-109123509D02*
X103784285Y-109075890D01*
X103784285Y-109075890D02*
X103831904Y-109028271D01*
X103831904Y-109028271D02*
X103879523Y-108933033D01*
X103879523Y-108933033D02*
X103879523Y-108837795D01*
X103879523Y-108837795D02*
X103831904Y-108742557D01*
X103831904Y-108742557D02*
X103784285Y-108694938D01*
X103784285Y-108694938D02*
X103689047Y-108647319D01*
X103689047Y-108647319D02*
X103450952Y-108647319D01*
X103450952Y-108647319D02*
X103308095Y-108694938D01*
X102974761Y-108647319D02*
X102736666Y-109647319D01*
X102736666Y-109647319D02*
X102546190Y-108933033D01*
X102546190Y-108933033D02*
X102355714Y-109647319D01*
X102355714Y-109647319D02*
X102117619Y-108647319D01*
X101784285Y-108742557D02*
X101736666Y-108694938D01*
X101736666Y-108694938D02*
X101641428Y-108647319D01*
X101641428Y-108647319D02*
X101403333Y-108647319D01*
X101403333Y-108647319D02*
X101308095Y-108694938D01*
X101308095Y-108694938D02*
X101260476Y-108742557D01*
X101260476Y-108742557D02*
X101212857Y-108837795D01*
X101212857Y-108837795D02*
X101212857Y-108933033D01*
X101212857Y-108933033D02*
X101260476Y-109075890D01*
X101260476Y-109075890D02*
X101831904Y-109647319D01*
X101831904Y-109647319D02*
X101212857Y-109647319D01*
X100260476Y-109647319D02*
X100831904Y-109647319D01*
X100546190Y-109647319D02*
X100546190Y-108647319D01*
X100546190Y-108647319D02*
X100641428Y-108790176D01*
X100641428Y-108790176D02*
X100736666Y-108885414D01*
X100736666Y-108885414D02*
X100831904Y-108933033D01*
X65779523Y-120077200D02*
X65636666Y-120124819D01*
X65636666Y-120124819D02*
X65398571Y-120124819D01*
X65398571Y-120124819D02*
X65303333Y-120077200D01*
X65303333Y-120077200D02*
X65255714Y-120029580D01*
X65255714Y-120029580D02*
X65208095Y-119934342D01*
X65208095Y-119934342D02*
X65208095Y-119839104D01*
X65208095Y-119839104D02*
X65255714Y-119743866D01*
X65255714Y-119743866D02*
X65303333Y-119696247D01*
X65303333Y-119696247D02*
X65398571Y-119648628D01*
X65398571Y-119648628D02*
X65589047Y-119601009D01*
X65589047Y-119601009D02*
X65684285Y-119553390D01*
X65684285Y-119553390D02*
X65731904Y-119505771D01*
X65731904Y-119505771D02*
X65779523Y-119410533D01*
X65779523Y-119410533D02*
X65779523Y-119315295D01*
X65779523Y-119315295D02*
X65731904Y-119220057D01*
X65731904Y-119220057D02*
X65684285Y-119172438D01*
X65684285Y-119172438D02*
X65589047Y-119124819D01*
X65589047Y-119124819D02*
X65350952Y-119124819D01*
X65350952Y-119124819D02*
X65208095Y-119172438D01*
X64874761Y-119124819D02*
X64636666Y-120124819D01*
X64636666Y-120124819D02*
X64446190Y-119410533D01*
X64446190Y-119410533D02*
X64255714Y-120124819D01*
X64255714Y-120124819D02*
X64017619Y-119124819D01*
X63684285Y-119220057D02*
X63636666Y-119172438D01*
X63636666Y-119172438D02*
X63541428Y-119124819D01*
X63541428Y-119124819D02*
X63303333Y-119124819D01*
X63303333Y-119124819D02*
X63208095Y-119172438D01*
X63208095Y-119172438D02*
X63160476Y-119220057D01*
X63160476Y-119220057D02*
X63112857Y-119315295D01*
X63112857Y-119315295D02*
X63112857Y-119410533D01*
X63112857Y-119410533D02*
X63160476Y-119553390D01*
X63160476Y-119553390D02*
X63731904Y-120124819D01*
X63731904Y-120124819D02*
X63112857Y-120124819D01*
X62255714Y-119124819D02*
X62446190Y-119124819D01*
X62446190Y-119124819D02*
X62541428Y-119172438D01*
X62541428Y-119172438D02*
X62589047Y-119220057D01*
X62589047Y-119220057D02*
X62684285Y-119362914D01*
X62684285Y-119362914D02*
X62731904Y-119553390D01*
X62731904Y-119553390D02*
X62731904Y-119934342D01*
X62731904Y-119934342D02*
X62684285Y-120029580D01*
X62684285Y-120029580D02*
X62636666Y-120077200D01*
X62636666Y-120077200D02*
X62541428Y-120124819D01*
X62541428Y-120124819D02*
X62350952Y-120124819D01*
X62350952Y-120124819D02*
X62255714Y-120077200D01*
X62255714Y-120077200D02*
X62208095Y-120029580D01*
X62208095Y-120029580D02*
X62160476Y-119934342D01*
X62160476Y-119934342D02*
X62160476Y-119696247D01*
X62160476Y-119696247D02*
X62208095Y-119601009D01*
X62208095Y-119601009D02*
X62255714Y-119553390D01*
X62255714Y-119553390D02*
X62350952Y-119505771D01*
X62350952Y-119505771D02*
X62541428Y-119505771D01*
X62541428Y-119505771D02*
X62636666Y-119553390D01*
X62636666Y-119553390D02*
X62684285Y-119601009D01*
X62684285Y-119601009D02*
X62731904Y-119696247D01*
X103879523Y-131507200D02*
X103736666Y-131554819D01*
X103736666Y-131554819D02*
X103498571Y-131554819D01*
X103498571Y-131554819D02*
X103403333Y-131507200D01*
X103403333Y-131507200D02*
X103355714Y-131459580D01*
X103355714Y-131459580D02*
X103308095Y-131364342D01*
X103308095Y-131364342D02*
X103308095Y-131269104D01*
X103308095Y-131269104D02*
X103355714Y-131173866D01*
X103355714Y-131173866D02*
X103403333Y-131126247D01*
X103403333Y-131126247D02*
X103498571Y-131078628D01*
X103498571Y-131078628D02*
X103689047Y-131031009D01*
X103689047Y-131031009D02*
X103784285Y-130983390D01*
X103784285Y-130983390D02*
X103831904Y-130935771D01*
X103831904Y-130935771D02*
X103879523Y-130840533D01*
X103879523Y-130840533D02*
X103879523Y-130745295D01*
X103879523Y-130745295D02*
X103831904Y-130650057D01*
X103831904Y-130650057D02*
X103784285Y-130602438D01*
X103784285Y-130602438D02*
X103689047Y-130554819D01*
X103689047Y-130554819D02*
X103450952Y-130554819D01*
X103450952Y-130554819D02*
X103308095Y-130602438D01*
X102974761Y-130554819D02*
X102736666Y-131554819D01*
X102736666Y-131554819D02*
X102546190Y-130840533D01*
X102546190Y-130840533D02*
X102355714Y-131554819D01*
X102355714Y-131554819D02*
X102117619Y-130554819D01*
X101784285Y-130650057D02*
X101736666Y-130602438D01*
X101736666Y-130602438D02*
X101641428Y-130554819D01*
X101641428Y-130554819D02*
X101403333Y-130554819D01*
X101403333Y-130554819D02*
X101308095Y-130602438D01*
X101308095Y-130602438D02*
X101260476Y-130650057D01*
X101260476Y-130650057D02*
X101212857Y-130745295D01*
X101212857Y-130745295D02*
X101212857Y-130840533D01*
X101212857Y-130840533D02*
X101260476Y-130983390D01*
X101260476Y-130983390D02*
X101831904Y-131554819D01*
X101831904Y-131554819D02*
X101212857Y-131554819D01*
X100641428Y-130983390D02*
X100736666Y-130935771D01*
X100736666Y-130935771D02*
X100784285Y-130888152D01*
X100784285Y-130888152D02*
X100831904Y-130792914D01*
X100831904Y-130792914D02*
X100831904Y-130745295D01*
X100831904Y-130745295D02*
X100784285Y-130650057D01*
X100784285Y-130650057D02*
X100736666Y-130602438D01*
X100736666Y-130602438D02*
X100641428Y-130554819D01*
X100641428Y-130554819D02*
X100450952Y-130554819D01*
X100450952Y-130554819D02*
X100355714Y-130602438D01*
X100355714Y-130602438D02*
X100308095Y-130650057D01*
X100308095Y-130650057D02*
X100260476Y-130745295D01*
X100260476Y-130745295D02*
X100260476Y-130792914D01*
X100260476Y-130792914D02*
X100308095Y-130888152D01*
X100308095Y-130888152D02*
X100355714Y-130935771D01*
X100355714Y-130935771D02*
X100450952Y-130983390D01*
X100450952Y-130983390D02*
X100641428Y-130983390D01*
X100641428Y-130983390D02*
X100736666Y-131031009D01*
X100736666Y-131031009D02*
X100784285Y-131078628D01*
X100784285Y-131078628D02*
X100831904Y-131173866D01*
X100831904Y-131173866D02*
X100831904Y-131364342D01*
X100831904Y-131364342D02*
X100784285Y-131459580D01*
X100784285Y-131459580D02*
X100736666Y-131507200D01*
X100736666Y-131507200D02*
X100641428Y-131554819D01*
X100641428Y-131554819D02*
X100450952Y-131554819D01*
X100450952Y-131554819D02*
X100355714Y-131507200D01*
X100355714Y-131507200D02*
X100308095Y-131459580D01*
X100308095Y-131459580D02*
X100260476Y-131364342D01*
X100260476Y-131364342D02*
X100260476Y-131173866D01*
X100260476Y-131173866D02*
X100308095Y-131078628D01*
X100308095Y-131078628D02*
X100355714Y-131031009D01*
X100355714Y-131031009D02*
X100450952Y-130983390D01*
X84829523Y-134364700D02*
X84686666Y-134412319D01*
X84686666Y-134412319D02*
X84448571Y-134412319D01*
X84448571Y-134412319D02*
X84353333Y-134364700D01*
X84353333Y-134364700D02*
X84305714Y-134317080D01*
X84305714Y-134317080D02*
X84258095Y-134221842D01*
X84258095Y-134221842D02*
X84258095Y-134126604D01*
X84258095Y-134126604D02*
X84305714Y-134031366D01*
X84305714Y-134031366D02*
X84353333Y-133983747D01*
X84353333Y-133983747D02*
X84448571Y-133936128D01*
X84448571Y-133936128D02*
X84639047Y-133888509D01*
X84639047Y-133888509D02*
X84734285Y-133840890D01*
X84734285Y-133840890D02*
X84781904Y-133793271D01*
X84781904Y-133793271D02*
X84829523Y-133698033D01*
X84829523Y-133698033D02*
X84829523Y-133602795D01*
X84829523Y-133602795D02*
X84781904Y-133507557D01*
X84781904Y-133507557D02*
X84734285Y-133459938D01*
X84734285Y-133459938D02*
X84639047Y-133412319D01*
X84639047Y-133412319D02*
X84400952Y-133412319D01*
X84400952Y-133412319D02*
X84258095Y-133459938D01*
X83924761Y-133412319D02*
X83686666Y-134412319D01*
X83686666Y-134412319D02*
X83496190Y-133698033D01*
X83496190Y-133698033D02*
X83305714Y-134412319D01*
X83305714Y-134412319D02*
X83067619Y-133412319D01*
X82781904Y-133412319D02*
X82162857Y-133412319D01*
X82162857Y-133412319D02*
X82496190Y-133793271D01*
X82496190Y-133793271D02*
X82353333Y-133793271D01*
X82353333Y-133793271D02*
X82258095Y-133840890D01*
X82258095Y-133840890D02*
X82210476Y-133888509D01*
X82210476Y-133888509D02*
X82162857Y-133983747D01*
X82162857Y-133983747D02*
X82162857Y-134221842D01*
X82162857Y-134221842D02*
X82210476Y-134317080D01*
X82210476Y-134317080D02*
X82258095Y-134364700D01*
X82258095Y-134364700D02*
X82353333Y-134412319D01*
X82353333Y-134412319D02*
X82639047Y-134412319D01*
X82639047Y-134412319D02*
X82734285Y-134364700D01*
X82734285Y-134364700D02*
X82781904Y-134317080D01*
X81543809Y-133412319D02*
X81448571Y-133412319D01*
X81448571Y-133412319D02*
X81353333Y-133459938D01*
X81353333Y-133459938D02*
X81305714Y-133507557D01*
X81305714Y-133507557D02*
X81258095Y-133602795D01*
X81258095Y-133602795D02*
X81210476Y-133793271D01*
X81210476Y-133793271D02*
X81210476Y-134031366D01*
X81210476Y-134031366D02*
X81258095Y-134221842D01*
X81258095Y-134221842D02*
X81305714Y-134317080D01*
X81305714Y-134317080D02*
X81353333Y-134364700D01*
X81353333Y-134364700D02*
X81448571Y-134412319D01*
X81448571Y-134412319D02*
X81543809Y-134412319D01*
X81543809Y-134412319D02*
X81639047Y-134364700D01*
X81639047Y-134364700D02*
X81686666Y-134317080D01*
X81686666Y-134317080D02*
X81734285Y-134221842D01*
X81734285Y-134221842D02*
X81781904Y-134031366D01*
X81781904Y-134031366D02*
X81781904Y-133793271D01*
X81781904Y-133793271D02*
X81734285Y-133602795D01*
X81734285Y-133602795D02*
X81686666Y-133507557D01*
X81686666Y-133507557D02*
X81639047Y-133459938D01*
X81639047Y-133459938D02*
X81543809Y-133412319D01*
X162176968Y-142501648D02*
X162029441Y-142471459D01*
X162029441Y-142471459D02*
X161823244Y-142352411D01*
X161823244Y-142352411D02*
X161764575Y-142263553D01*
X161764575Y-142263553D02*
X161747145Y-142198504D01*
X161747145Y-142198504D02*
X161753525Y-142092216D01*
X161753525Y-142092216D02*
X161801144Y-142009737D01*
X161801144Y-142009737D02*
X161890002Y-141951068D01*
X161890002Y-141951068D02*
X161955051Y-141933638D01*
X161955051Y-141933638D02*
X162061339Y-141940018D01*
X162061339Y-141940018D02*
X162250106Y-141994017D01*
X162250106Y-141994017D02*
X162356394Y-142000397D01*
X162356394Y-142000397D02*
X162421443Y-141982967D01*
X162421443Y-141982967D02*
X162510301Y-141924298D01*
X162510301Y-141924298D02*
X162557920Y-141841819D01*
X162557920Y-141841819D02*
X162564300Y-141735531D01*
X162564300Y-141735531D02*
X162546870Y-141670482D01*
X162546870Y-141670482D02*
X162488201Y-141581624D01*
X162488201Y-141581624D02*
X162282005Y-141462576D01*
X162282005Y-141462576D02*
X162134477Y-141432387D01*
X161869612Y-141224481D02*
X161163415Y-141971459D01*
X161163415Y-141971459D02*
X161355601Y-141257631D01*
X161355601Y-141257631D02*
X160833501Y-141780982D01*
X160833501Y-141780982D02*
X161127304Y-140795909D01*
X160879869Y-140653052D02*
X160343758Y-140343529D01*
X160343758Y-140343529D02*
X160441957Y-140840110D01*
X160441957Y-140840110D02*
X160318239Y-140768681D01*
X160318239Y-140768681D02*
X160211950Y-140762301D01*
X160211950Y-140762301D02*
X160146902Y-140779731D01*
X160146902Y-140779731D02*
X160058043Y-140838400D01*
X160058043Y-140838400D02*
X159938996Y-141044597D01*
X159938996Y-141044597D02*
X159932616Y-141150885D01*
X159932616Y-141150885D02*
X159950046Y-141215934D01*
X159950046Y-141215934D02*
X160008715Y-141304792D01*
X160008715Y-141304792D02*
X160256151Y-141447649D01*
X160256151Y-141447649D02*
X160362439Y-141454029D01*
X160362439Y-141454029D02*
X160427488Y-141436599D01*
X159966224Y-140235531D02*
X159948794Y-140170482D01*
X159948794Y-140170482D02*
X159890125Y-140081624D01*
X159890125Y-140081624D02*
X159683929Y-139962576D01*
X159683929Y-139962576D02*
X159577641Y-139956196D01*
X159577641Y-139956196D02*
X159512592Y-139973626D01*
X159512592Y-139973626D02*
X159423733Y-140032295D01*
X159423733Y-140032295D02*
X159376114Y-140114774D01*
X159376114Y-140114774D02*
X159345925Y-140262301D01*
X159345925Y-140262301D02*
X159555082Y-141042887D01*
X159555082Y-141042887D02*
X159018971Y-140733363D01*
X122929523Y-93407200D02*
X122786666Y-93454819D01*
X122786666Y-93454819D02*
X122548571Y-93454819D01*
X122548571Y-93454819D02*
X122453333Y-93407200D01*
X122453333Y-93407200D02*
X122405714Y-93359580D01*
X122405714Y-93359580D02*
X122358095Y-93264342D01*
X122358095Y-93264342D02*
X122358095Y-93169104D01*
X122358095Y-93169104D02*
X122405714Y-93073866D01*
X122405714Y-93073866D02*
X122453333Y-93026247D01*
X122453333Y-93026247D02*
X122548571Y-92978628D01*
X122548571Y-92978628D02*
X122739047Y-92931009D01*
X122739047Y-92931009D02*
X122834285Y-92883390D01*
X122834285Y-92883390D02*
X122881904Y-92835771D01*
X122881904Y-92835771D02*
X122929523Y-92740533D01*
X122929523Y-92740533D02*
X122929523Y-92645295D01*
X122929523Y-92645295D02*
X122881904Y-92550057D01*
X122881904Y-92550057D02*
X122834285Y-92502438D01*
X122834285Y-92502438D02*
X122739047Y-92454819D01*
X122739047Y-92454819D02*
X122500952Y-92454819D01*
X122500952Y-92454819D02*
X122358095Y-92502438D01*
X122024761Y-92454819D02*
X121786666Y-93454819D01*
X121786666Y-93454819D02*
X121596190Y-92740533D01*
X121596190Y-92740533D02*
X121405714Y-93454819D01*
X121405714Y-93454819D02*
X121167619Y-92454819D01*
X120262857Y-93454819D02*
X120834285Y-93454819D01*
X120548571Y-93454819D02*
X120548571Y-92454819D01*
X120548571Y-92454819D02*
X120643809Y-92597676D01*
X120643809Y-92597676D02*
X120739047Y-92692914D01*
X120739047Y-92692914D02*
X120834285Y-92740533D01*
X119405714Y-92454819D02*
X119596190Y-92454819D01*
X119596190Y-92454819D02*
X119691428Y-92502438D01*
X119691428Y-92502438D02*
X119739047Y-92550057D01*
X119739047Y-92550057D02*
X119834285Y-92692914D01*
X119834285Y-92692914D02*
X119881904Y-92883390D01*
X119881904Y-92883390D02*
X119881904Y-93264342D01*
X119881904Y-93264342D02*
X119834285Y-93359580D01*
X119834285Y-93359580D02*
X119786666Y-93407200D01*
X119786666Y-93407200D02*
X119691428Y-93454819D01*
X119691428Y-93454819D02*
X119500952Y-93454819D01*
X119500952Y-93454819D02*
X119405714Y-93407200D01*
X119405714Y-93407200D02*
X119358095Y-93359580D01*
X119358095Y-93359580D02*
X119310476Y-93264342D01*
X119310476Y-93264342D02*
X119310476Y-93026247D01*
X119310476Y-93026247D02*
X119358095Y-92931009D01*
X119358095Y-92931009D02*
X119405714Y-92883390D01*
X119405714Y-92883390D02*
X119500952Y-92835771D01*
X119500952Y-92835771D02*
X119691428Y-92835771D01*
X119691428Y-92835771D02*
X119786666Y-92883390D01*
X119786666Y-92883390D02*
X119834285Y-92931009D01*
X119834285Y-92931009D02*
X119881904Y-93026247D01*
X103879523Y-90549700D02*
X103736666Y-90597319D01*
X103736666Y-90597319D02*
X103498571Y-90597319D01*
X103498571Y-90597319D02*
X103403333Y-90549700D01*
X103403333Y-90549700D02*
X103355714Y-90502080D01*
X103355714Y-90502080D02*
X103308095Y-90406842D01*
X103308095Y-90406842D02*
X103308095Y-90311604D01*
X103308095Y-90311604D02*
X103355714Y-90216366D01*
X103355714Y-90216366D02*
X103403333Y-90168747D01*
X103403333Y-90168747D02*
X103498571Y-90121128D01*
X103498571Y-90121128D02*
X103689047Y-90073509D01*
X103689047Y-90073509D02*
X103784285Y-90025890D01*
X103784285Y-90025890D02*
X103831904Y-89978271D01*
X103831904Y-89978271D02*
X103879523Y-89883033D01*
X103879523Y-89883033D02*
X103879523Y-89787795D01*
X103879523Y-89787795D02*
X103831904Y-89692557D01*
X103831904Y-89692557D02*
X103784285Y-89644938D01*
X103784285Y-89644938D02*
X103689047Y-89597319D01*
X103689047Y-89597319D02*
X103450952Y-89597319D01*
X103450952Y-89597319D02*
X103308095Y-89644938D01*
X102974761Y-89597319D02*
X102736666Y-90597319D01*
X102736666Y-90597319D02*
X102546190Y-89883033D01*
X102546190Y-89883033D02*
X102355714Y-90597319D01*
X102355714Y-90597319D02*
X102117619Y-89597319D01*
X101212857Y-90597319D02*
X101784285Y-90597319D01*
X101498571Y-90597319D02*
X101498571Y-89597319D01*
X101498571Y-89597319D02*
X101593809Y-89740176D01*
X101593809Y-89740176D02*
X101689047Y-89835414D01*
X101689047Y-89835414D02*
X101784285Y-89883033D01*
X100355714Y-89930652D02*
X100355714Y-90597319D01*
X100593809Y-89549700D02*
X100831904Y-90263985D01*
X100831904Y-90263985D02*
X100212857Y-90263985D01*
X122453332Y-74357200D02*
X122310475Y-74404819D01*
X122310475Y-74404819D02*
X122072380Y-74404819D01*
X122072380Y-74404819D02*
X121977142Y-74357200D01*
X121977142Y-74357200D02*
X121929523Y-74309580D01*
X121929523Y-74309580D02*
X121881904Y-74214342D01*
X121881904Y-74214342D02*
X121881904Y-74119104D01*
X121881904Y-74119104D02*
X121929523Y-74023866D01*
X121929523Y-74023866D02*
X121977142Y-73976247D01*
X121977142Y-73976247D02*
X122072380Y-73928628D01*
X122072380Y-73928628D02*
X122262856Y-73881009D01*
X122262856Y-73881009D02*
X122358094Y-73833390D01*
X122358094Y-73833390D02*
X122405713Y-73785771D01*
X122405713Y-73785771D02*
X122453332Y-73690533D01*
X122453332Y-73690533D02*
X122453332Y-73595295D01*
X122453332Y-73595295D02*
X122405713Y-73500057D01*
X122405713Y-73500057D02*
X122358094Y-73452438D01*
X122358094Y-73452438D02*
X122262856Y-73404819D01*
X122262856Y-73404819D02*
X122024761Y-73404819D01*
X122024761Y-73404819D02*
X121881904Y-73452438D01*
X121548570Y-73404819D02*
X121310475Y-74404819D01*
X121310475Y-74404819D02*
X121119999Y-73690533D01*
X121119999Y-73690533D02*
X120929523Y-74404819D01*
X120929523Y-74404819D02*
X120691428Y-73404819D01*
X120262856Y-74404819D02*
X120072380Y-74404819D01*
X120072380Y-74404819D02*
X119977142Y-74357200D01*
X119977142Y-74357200D02*
X119929523Y-74309580D01*
X119929523Y-74309580D02*
X119834285Y-74166723D01*
X119834285Y-74166723D02*
X119786666Y-73976247D01*
X119786666Y-73976247D02*
X119786666Y-73595295D01*
X119786666Y-73595295D02*
X119834285Y-73500057D01*
X119834285Y-73500057D02*
X119881904Y-73452438D01*
X119881904Y-73452438D02*
X119977142Y-73404819D01*
X119977142Y-73404819D02*
X120167618Y-73404819D01*
X120167618Y-73404819D02*
X120262856Y-73452438D01*
X120262856Y-73452438D02*
X120310475Y-73500057D01*
X120310475Y-73500057D02*
X120358094Y-73595295D01*
X120358094Y-73595295D02*
X120358094Y-73833390D01*
X120358094Y-73833390D02*
X120310475Y-73928628D01*
X120310475Y-73928628D02*
X120262856Y-73976247D01*
X120262856Y-73976247D02*
X120167618Y-74023866D01*
X120167618Y-74023866D02*
X119977142Y-74023866D01*
X119977142Y-74023866D02*
X119881904Y-73976247D01*
X119881904Y-73976247D02*
X119834285Y-73928628D01*
X119834285Y-73928628D02*
X119786666Y-73833390D01*
X84353332Y-55307200D02*
X84210475Y-55354819D01*
X84210475Y-55354819D02*
X83972380Y-55354819D01*
X83972380Y-55354819D02*
X83877142Y-55307200D01*
X83877142Y-55307200D02*
X83829523Y-55259580D01*
X83829523Y-55259580D02*
X83781904Y-55164342D01*
X83781904Y-55164342D02*
X83781904Y-55069104D01*
X83781904Y-55069104D02*
X83829523Y-54973866D01*
X83829523Y-54973866D02*
X83877142Y-54926247D01*
X83877142Y-54926247D02*
X83972380Y-54878628D01*
X83972380Y-54878628D02*
X84162856Y-54831009D01*
X84162856Y-54831009D02*
X84258094Y-54783390D01*
X84258094Y-54783390D02*
X84305713Y-54735771D01*
X84305713Y-54735771D02*
X84353332Y-54640533D01*
X84353332Y-54640533D02*
X84353332Y-54545295D01*
X84353332Y-54545295D02*
X84305713Y-54450057D01*
X84305713Y-54450057D02*
X84258094Y-54402438D01*
X84258094Y-54402438D02*
X84162856Y-54354819D01*
X84162856Y-54354819D02*
X83924761Y-54354819D01*
X83924761Y-54354819D02*
X83781904Y-54402438D01*
X83448570Y-54354819D02*
X83210475Y-55354819D01*
X83210475Y-55354819D02*
X83019999Y-54640533D01*
X83019999Y-54640533D02*
X82829523Y-55354819D01*
X82829523Y-55354819D02*
X82591428Y-54354819D01*
X82258094Y-54450057D02*
X82210475Y-54402438D01*
X82210475Y-54402438D02*
X82115237Y-54354819D01*
X82115237Y-54354819D02*
X81877142Y-54354819D01*
X81877142Y-54354819D02*
X81781904Y-54402438D01*
X81781904Y-54402438D02*
X81734285Y-54450057D01*
X81734285Y-54450057D02*
X81686666Y-54545295D01*
X81686666Y-54545295D02*
X81686666Y-54640533D01*
X81686666Y-54640533D02*
X81734285Y-54783390D01*
X81734285Y-54783390D02*
X82305713Y-55354819D01*
X82305713Y-55354819D02*
X81686666Y-55354819D01*
X65779523Y-101027200D02*
X65636666Y-101074819D01*
X65636666Y-101074819D02*
X65398571Y-101074819D01*
X65398571Y-101074819D02*
X65303333Y-101027200D01*
X65303333Y-101027200D02*
X65255714Y-100979580D01*
X65255714Y-100979580D02*
X65208095Y-100884342D01*
X65208095Y-100884342D02*
X65208095Y-100789104D01*
X65208095Y-100789104D02*
X65255714Y-100693866D01*
X65255714Y-100693866D02*
X65303333Y-100646247D01*
X65303333Y-100646247D02*
X65398571Y-100598628D01*
X65398571Y-100598628D02*
X65589047Y-100551009D01*
X65589047Y-100551009D02*
X65684285Y-100503390D01*
X65684285Y-100503390D02*
X65731904Y-100455771D01*
X65731904Y-100455771D02*
X65779523Y-100360533D01*
X65779523Y-100360533D02*
X65779523Y-100265295D01*
X65779523Y-100265295D02*
X65731904Y-100170057D01*
X65731904Y-100170057D02*
X65684285Y-100122438D01*
X65684285Y-100122438D02*
X65589047Y-100074819D01*
X65589047Y-100074819D02*
X65350952Y-100074819D01*
X65350952Y-100074819D02*
X65208095Y-100122438D01*
X64874761Y-100074819D02*
X64636666Y-101074819D01*
X64636666Y-101074819D02*
X64446190Y-100360533D01*
X64446190Y-100360533D02*
X64255714Y-101074819D01*
X64255714Y-101074819D02*
X64017619Y-100074819D01*
X63112857Y-101074819D02*
X63684285Y-101074819D01*
X63398571Y-101074819D02*
X63398571Y-100074819D01*
X63398571Y-100074819D02*
X63493809Y-100217676D01*
X63493809Y-100217676D02*
X63589047Y-100312914D01*
X63589047Y-100312914D02*
X63684285Y-100360533D01*
X62636666Y-101074819D02*
X62446190Y-101074819D01*
X62446190Y-101074819D02*
X62350952Y-101027200D01*
X62350952Y-101027200D02*
X62303333Y-100979580D01*
X62303333Y-100979580D02*
X62208095Y-100836723D01*
X62208095Y-100836723D02*
X62160476Y-100646247D01*
X62160476Y-100646247D02*
X62160476Y-100265295D01*
X62160476Y-100265295D02*
X62208095Y-100170057D01*
X62208095Y-100170057D02*
X62255714Y-100122438D01*
X62255714Y-100122438D02*
X62350952Y-100074819D01*
X62350952Y-100074819D02*
X62541428Y-100074819D01*
X62541428Y-100074819D02*
X62636666Y-100122438D01*
X62636666Y-100122438D02*
X62684285Y-100170057D01*
X62684285Y-100170057D02*
X62731904Y-100265295D01*
X62731904Y-100265295D02*
X62731904Y-100503390D01*
X62731904Y-100503390D02*
X62684285Y-100598628D01*
X62684285Y-100598628D02*
X62636666Y-100646247D01*
X62636666Y-100646247D02*
X62541428Y-100693866D01*
X62541428Y-100693866D02*
X62350952Y-100693866D01*
X62350952Y-100693866D02*
X62255714Y-100646247D01*
X62255714Y-100646247D02*
X62208095Y-100598628D01*
X62208095Y-100598628D02*
X62160476Y-100503390D01*
X46729523Y-105789700D02*
X46586666Y-105837319D01*
X46586666Y-105837319D02*
X46348571Y-105837319D01*
X46348571Y-105837319D02*
X46253333Y-105789700D01*
X46253333Y-105789700D02*
X46205714Y-105742080D01*
X46205714Y-105742080D02*
X46158095Y-105646842D01*
X46158095Y-105646842D02*
X46158095Y-105551604D01*
X46158095Y-105551604D02*
X46205714Y-105456366D01*
X46205714Y-105456366D02*
X46253333Y-105408747D01*
X46253333Y-105408747D02*
X46348571Y-105361128D01*
X46348571Y-105361128D02*
X46539047Y-105313509D01*
X46539047Y-105313509D02*
X46634285Y-105265890D01*
X46634285Y-105265890D02*
X46681904Y-105218271D01*
X46681904Y-105218271D02*
X46729523Y-105123033D01*
X46729523Y-105123033D02*
X46729523Y-105027795D01*
X46729523Y-105027795D02*
X46681904Y-104932557D01*
X46681904Y-104932557D02*
X46634285Y-104884938D01*
X46634285Y-104884938D02*
X46539047Y-104837319D01*
X46539047Y-104837319D02*
X46300952Y-104837319D01*
X46300952Y-104837319D02*
X46158095Y-104884938D01*
X45824761Y-104837319D02*
X45586666Y-105837319D01*
X45586666Y-105837319D02*
X45396190Y-105123033D01*
X45396190Y-105123033D02*
X45205714Y-105837319D01*
X45205714Y-105837319D02*
X44967619Y-104837319D01*
X44634285Y-104932557D02*
X44586666Y-104884938D01*
X44586666Y-104884938D02*
X44491428Y-104837319D01*
X44491428Y-104837319D02*
X44253333Y-104837319D01*
X44253333Y-104837319D02*
X44158095Y-104884938D01*
X44158095Y-104884938D02*
X44110476Y-104932557D01*
X44110476Y-104932557D02*
X44062857Y-105027795D01*
X44062857Y-105027795D02*
X44062857Y-105123033D01*
X44062857Y-105123033D02*
X44110476Y-105265890D01*
X44110476Y-105265890D02*
X44681904Y-105837319D01*
X44681904Y-105837319D02*
X44062857Y-105837319D01*
X43443809Y-104837319D02*
X43348571Y-104837319D01*
X43348571Y-104837319D02*
X43253333Y-104884938D01*
X43253333Y-104884938D02*
X43205714Y-104932557D01*
X43205714Y-104932557D02*
X43158095Y-105027795D01*
X43158095Y-105027795D02*
X43110476Y-105218271D01*
X43110476Y-105218271D02*
X43110476Y-105456366D01*
X43110476Y-105456366D02*
X43158095Y-105646842D01*
X43158095Y-105646842D02*
X43205714Y-105742080D01*
X43205714Y-105742080D02*
X43253333Y-105789700D01*
X43253333Y-105789700D02*
X43348571Y-105837319D01*
X43348571Y-105837319D02*
X43443809Y-105837319D01*
X43443809Y-105837319D02*
X43539047Y-105789700D01*
X43539047Y-105789700D02*
X43586666Y-105742080D01*
X43586666Y-105742080D02*
X43634285Y-105646842D01*
X43634285Y-105646842D02*
X43681904Y-105456366D01*
X43681904Y-105456366D02*
X43681904Y-105218271D01*
X43681904Y-105218271D02*
X43634285Y-105027795D01*
X43634285Y-105027795D02*
X43586666Y-104932557D01*
X43586666Y-104932557D02*
X43539047Y-104884938D01*
X43539047Y-104884938D02*
X43443809Y-104837319D01*
X161029523Y-96264700D02*
X160886666Y-96312319D01*
X160886666Y-96312319D02*
X160648571Y-96312319D01*
X160648571Y-96312319D02*
X160553333Y-96264700D01*
X160553333Y-96264700D02*
X160505714Y-96217080D01*
X160505714Y-96217080D02*
X160458095Y-96121842D01*
X160458095Y-96121842D02*
X160458095Y-96026604D01*
X160458095Y-96026604D02*
X160505714Y-95931366D01*
X160505714Y-95931366D02*
X160553333Y-95883747D01*
X160553333Y-95883747D02*
X160648571Y-95836128D01*
X160648571Y-95836128D02*
X160839047Y-95788509D01*
X160839047Y-95788509D02*
X160934285Y-95740890D01*
X160934285Y-95740890D02*
X160981904Y-95693271D01*
X160981904Y-95693271D02*
X161029523Y-95598033D01*
X161029523Y-95598033D02*
X161029523Y-95502795D01*
X161029523Y-95502795D02*
X160981904Y-95407557D01*
X160981904Y-95407557D02*
X160934285Y-95359938D01*
X160934285Y-95359938D02*
X160839047Y-95312319D01*
X160839047Y-95312319D02*
X160600952Y-95312319D01*
X160600952Y-95312319D02*
X160458095Y-95359938D01*
X160124761Y-95312319D02*
X159886666Y-96312319D01*
X159886666Y-96312319D02*
X159696190Y-95598033D01*
X159696190Y-95598033D02*
X159505714Y-96312319D01*
X159505714Y-96312319D02*
X159267619Y-95312319D01*
X158362857Y-96312319D02*
X158934285Y-96312319D01*
X158648571Y-96312319D02*
X158648571Y-95312319D01*
X158648571Y-95312319D02*
X158743809Y-95455176D01*
X158743809Y-95455176D02*
X158839047Y-95550414D01*
X158839047Y-95550414D02*
X158934285Y-95598033D01*
X157791428Y-95740890D02*
X157886666Y-95693271D01*
X157886666Y-95693271D02*
X157934285Y-95645652D01*
X157934285Y-95645652D02*
X157981904Y-95550414D01*
X157981904Y-95550414D02*
X157981904Y-95502795D01*
X157981904Y-95502795D02*
X157934285Y-95407557D01*
X157934285Y-95407557D02*
X157886666Y-95359938D01*
X157886666Y-95359938D02*
X157791428Y-95312319D01*
X157791428Y-95312319D02*
X157600952Y-95312319D01*
X157600952Y-95312319D02*
X157505714Y-95359938D01*
X157505714Y-95359938D02*
X157458095Y-95407557D01*
X157458095Y-95407557D02*
X157410476Y-95502795D01*
X157410476Y-95502795D02*
X157410476Y-95550414D01*
X157410476Y-95550414D02*
X157458095Y-95645652D01*
X157458095Y-95645652D02*
X157505714Y-95693271D01*
X157505714Y-95693271D02*
X157600952Y-95740890D01*
X157600952Y-95740890D02*
X157791428Y-95740890D01*
X157791428Y-95740890D02*
X157886666Y-95788509D01*
X157886666Y-95788509D02*
X157934285Y-95836128D01*
X157934285Y-95836128D02*
X157981904Y-95931366D01*
X157981904Y-95931366D02*
X157981904Y-96121842D01*
X157981904Y-96121842D02*
X157934285Y-96217080D01*
X157934285Y-96217080D02*
X157886666Y-96264700D01*
X157886666Y-96264700D02*
X157791428Y-96312319D01*
X157791428Y-96312319D02*
X157600952Y-96312319D01*
X157600952Y-96312319D02*
X157505714Y-96264700D01*
X157505714Y-96264700D02*
X157458095Y-96217080D01*
X157458095Y-96217080D02*
X157410476Y-96121842D01*
X157410476Y-96121842D02*
X157410476Y-95931366D01*
X157410476Y-95931366D02*
X157458095Y-95836128D01*
X157458095Y-95836128D02*
X157505714Y-95788509D01*
X157505714Y-95788509D02*
X157600952Y-95740890D01*
X141979523Y-96264700D02*
X141836666Y-96312319D01*
X141836666Y-96312319D02*
X141598571Y-96312319D01*
X141598571Y-96312319D02*
X141503333Y-96264700D01*
X141503333Y-96264700D02*
X141455714Y-96217080D01*
X141455714Y-96217080D02*
X141408095Y-96121842D01*
X141408095Y-96121842D02*
X141408095Y-96026604D01*
X141408095Y-96026604D02*
X141455714Y-95931366D01*
X141455714Y-95931366D02*
X141503333Y-95883747D01*
X141503333Y-95883747D02*
X141598571Y-95836128D01*
X141598571Y-95836128D02*
X141789047Y-95788509D01*
X141789047Y-95788509D02*
X141884285Y-95740890D01*
X141884285Y-95740890D02*
X141931904Y-95693271D01*
X141931904Y-95693271D02*
X141979523Y-95598033D01*
X141979523Y-95598033D02*
X141979523Y-95502795D01*
X141979523Y-95502795D02*
X141931904Y-95407557D01*
X141931904Y-95407557D02*
X141884285Y-95359938D01*
X141884285Y-95359938D02*
X141789047Y-95312319D01*
X141789047Y-95312319D02*
X141550952Y-95312319D01*
X141550952Y-95312319D02*
X141408095Y-95359938D01*
X141074761Y-95312319D02*
X140836666Y-96312319D01*
X140836666Y-96312319D02*
X140646190Y-95598033D01*
X140646190Y-95598033D02*
X140455714Y-96312319D01*
X140455714Y-96312319D02*
X140217619Y-95312319D01*
X139312857Y-96312319D02*
X139884285Y-96312319D01*
X139598571Y-96312319D02*
X139598571Y-95312319D01*
X139598571Y-95312319D02*
X139693809Y-95455176D01*
X139693809Y-95455176D02*
X139789047Y-95550414D01*
X139789047Y-95550414D02*
X139884285Y-95598033D01*
X138979523Y-95312319D02*
X138312857Y-95312319D01*
X138312857Y-95312319D02*
X138741428Y-96312319D01*
X122453332Y-55307200D02*
X122310475Y-55354819D01*
X122310475Y-55354819D02*
X122072380Y-55354819D01*
X122072380Y-55354819D02*
X121977142Y-55307200D01*
X121977142Y-55307200D02*
X121929523Y-55259580D01*
X121929523Y-55259580D02*
X121881904Y-55164342D01*
X121881904Y-55164342D02*
X121881904Y-55069104D01*
X121881904Y-55069104D02*
X121929523Y-54973866D01*
X121929523Y-54973866D02*
X121977142Y-54926247D01*
X121977142Y-54926247D02*
X122072380Y-54878628D01*
X122072380Y-54878628D02*
X122262856Y-54831009D01*
X122262856Y-54831009D02*
X122358094Y-54783390D01*
X122358094Y-54783390D02*
X122405713Y-54735771D01*
X122405713Y-54735771D02*
X122453332Y-54640533D01*
X122453332Y-54640533D02*
X122453332Y-54545295D01*
X122453332Y-54545295D02*
X122405713Y-54450057D01*
X122405713Y-54450057D02*
X122358094Y-54402438D01*
X122358094Y-54402438D02*
X122262856Y-54354819D01*
X122262856Y-54354819D02*
X122024761Y-54354819D01*
X122024761Y-54354819D02*
X121881904Y-54402438D01*
X121548570Y-54354819D02*
X121310475Y-55354819D01*
X121310475Y-55354819D02*
X121119999Y-54640533D01*
X121119999Y-54640533D02*
X120929523Y-55354819D01*
X120929523Y-55354819D02*
X120691428Y-54354819D01*
X120405713Y-54354819D02*
X119786666Y-54354819D01*
X119786666Y-54354819D02*
X120119999Y-54735771D01*
X120119999Y-54735771D02*
X119977142Y-54735771D01*
X119977142Y-54735771D02*
X119881904Y-54783390D01*
X119881904Y-54783390D02*
X119834285Y-54831009D01*
X119834285Y-54831009D02*
X119786666Y-54926247D01*
X119786666Y-54926247D02*
X119786666Y-55164342D01*
X119786666Y-55164342D02*
X119834285Y-55259580D01*
X119834285Y-55259580D02*
X119881904Y-55307200D01*
X119881904Y-55307200D02*
X119977142Y-55354819D01*
X119977142Y-55354819D02*
X120262856Y-55354819D01*
X120262856Y-55354819D02*
X120358094Y-55307200D01*
X120358094Y-55307200D02*
X120405713Y-55259580D01*
X167854285Y-60190221D02*
X168813105Y-59906205D01*
X168813105Y-59906205D02*
X168704909Y-59540941D01*
X168704909Y-59540941D02*
X168632201Y-59463149D01*
X168632201Y-59463149D02*
X168573019Y-59431015D01*
X168573019Y-59431015D02*
X168468178Y-59412406D01*
X168468178Y-59412406D02*
X168331204Y-59452980D01*
X168331204Y-59452980D02*
X168253412Y-59525687D01*
X168253412Y-59525687D02*
X168221279Y-59584870D01*
X168221279Y-59584870D02*
X168202670Y-59689710D01*
X168202670Y-59689710D02*
X168310866Y-60054975D01*
X167570270Y-59231401D02*
X168529089Y-58947385D01*
X167435024Y-58774820D02*
X168393844Y-58490805D01*
X168393844Y-58490805D02*
X167272730Y-58226923D01*
X167272730Y-58226923D02*
X168231550Y-57942908D01*
X167137485Y-57770343D02*
X168096304Y-57486327D01*
X167639724Y-57621573D02*
X167477429Y-57073676D01*
X166975190Y-57222446D02*
X167934010Y-56938430D01*
X166839945Y-56765865D02*
X167798764Y-56481850D01*
X167798764Y-56481850D02*
X167731142Y-56253559D01*
X167731142Y-56253559D02*
X167644910Y-56130109D01*
X167644910Y-56130109D02*
X167526545Y-56065842D01*
X167526545Y-56065842D02*
X167421704Y-56047233D01*
X167421704Y-56047233D02*
X167225547Y-56055673D01*
X167225547Y-56055673D02*
X167088573Y-56096247D01*
X167088573Y-56096247D02*
X166919465Y-56196003D01*
X166919465Y-56196003D02*
X166841674Y-56268710D01*
X166841674Y-56268710D02*
X166777407Y-56387076D01*
X166777407Y-56387076D02*
X166772322Y-56537574D01*
X166772322Y-56537574D02*
X166839945Y-56765865D01*
X166532236Y-56062385D02*
X166315843Y-55331855D01*
X166190767Y-54574277D02*
X166353061Y-55122174D01*
X166271914Y-54848225D02*
X167230734Y-54564210D01*
X167230734Y-54564210D02*
X167120809Y-54696100D01*
X167120809Y-54696100D02*
X167056541Y-54814465D01*
X167056541Y-54814465D02*
X167037932Y-54919306D01*
X166096095Y-54254670D02*
X166586538Y-53563088D01*
X166735308Y-54065327D02*
X165947325Y-53752431D01*
X166720157Y-53175858D02*
X166752290Y-53116676D01*
X166752290Y-53116676D02*
X166770899Y-53011835D01*
X166770899Y-53011835D02*
X166703277Y-52783544D01*
X166703277Y-52783544D02*
X166630569Y-52705753D01*
X166630569Y-52705753D02*
X166571387Y-52673619D01*
X166571387Y-52673619D02*
X166466546Y-52655010D01*
X166466546Y-52655010D02*
X166375230Y-52682059D01*
X166375230Y-52682059D02*
X166251780Y-52768291D01*
X166251780Y-52768291D02*
X165866178Y-53478482D01*
X165866178Y-53478482D02*
X165690359Y-52884927D01*
X165544944Y-52729344D02*
X165328552Y-51998815D01*
X165759812Y-51275099D02*
X165854484Y-51594705D01*
X165352245Y-51743475D02*
X166311065Y-51459460D01*
X166311065Y-51459460D02*
X166175819Y-51002879D01*
X165046265Y-50542840D02*
X165027656Y-50647681D01*
X165027656Y-50647681D02*
X165081754Y-50830313D01*
X165081754Y-50830313D02*
X165154461Y-50908105D01*
X165154461Y-50908105D02*
X165259302Y-50926714D01*
X165259302Y-50926714D02*
X165624567Y-50818518D01*
X165624567Y-50818518D02*
X165702358Y-50745810D01*
X165702358Y-50745810D02*
X165720967Y-50640970D01*
X165720967Y-50640970D02*
X165666869Y-50458337D01*
X165666869Y-50458337D02*
X165594162Y-50380546D01*
X165594162Y-50380546D02*
X165489321Y-50361937D01*
X165489321Y-50361937D02*
X165398005Y-50388986D01*
X165398005Y-50388986D02*
X165441934Y-50872616D01*
X164865362Y-50099784D02*
X165504575Y-49910440D01*
X165413259Y-49937489D02*
X165445392Y-49878307D01*
X165445392Y-49878307D02*
X165464001Y-49773466D01*
X165464001Y-49773466D02*
X165423427Y-49636492D01*
X165423427Y-49636492D02*
X165350720Y-49558700D01*
X165350720Y-49558700D02*
X165245880Y-49540091D01*
X165245880Y-49540091D02*
X164743641Y-49688861D01*
X165245880Y-49540091D02*
X165323671Y-49467384D01*
X165323671Y-49467384D02*
X165342280Y-49362543D01*
X165342280Y-49362543D02*
X165301707Y-49225569D01*
X165301707Y-49225569D02*
X165228999Y-49147777D01*
X165228999Y-49147777D02*
X165124159Y-49129168D01*
X165124159Y-49129168D02*
X164621920Y-49277938D01*
X164364954Y-48410435D02*
X164867193Y-48261665D01*
X164867193Y-48261665D02*
X164972033Y-48280274D01*
X164972033Y-48280274D02*
X165044740Y-48358066D01*
X165044740Y-48358066D02*
X165098839Y-48540698D01*
X165098839Y-48540698D02*
X165080230Y-48645539D01*
X164410612Y-48396911D02*
X164392003Y-48501751D01*
X164392003Y-48501751D02*
X164459625Y-48730042D01*
X164459625Y-48730042D02*
X164532333Y-48807833D01*
X164532333Y-48807833D02*
X164637173Y-48826442D01*
X164637173Y-48826442D02*
X164728489Y-48799393D01*
X164728489Y-48799393D02*
X164806281Y-48726686D01*
X164806281Y-48726686D02*
X164824890Y-48621845D01*
X164824890Y-48621845D02*
X164757267Y-48393555D01*
X164757267Y-48393555D02*
X164775876Y-48288714D01*
X164189135Y-47816880D02*
X164261842Y-47894672D01*
X164261842Y-47894672D02*
X164366682Y-47913281D01*
X164366682Y-47913281D02*
X165188528Y-47669839D01*
X164018400Y-47072826D02*
X163999791Y-47177666D01*
X163999791Y-47177666D02*
X164053889Y-47360299D01*
X164053889Y-47360299D02*
X164126596Y-47438090D01*
X164126596Y-47438090D02*
X164231437Y-47456699D01*
X164231437Y-47456699D02*
X164596702Y-47348503D01*
X164596702Y-47348503D02*
X164674493Y-47275796D01*
X164674493Y-47275796D02*
X164693102Y-47170955D01*
X164693102Y-47170955D02*
X164639004Y-46988323D01*
X164639004Y-46988323D02*
X164566297Y-46910531D01*
X164566297Y-46910531D02*
X164461456Y-46891922D01*
X164461456Y-46891922D02*
X164370140Y-46918971D01*
X164370140Y-46918971D02*
X164414069Y-47402601D01*
X46253332Y-67689700D02*
X46110475Y-67737319D01*
X46110475Y-67737319D02*
X45872380Y-67737319D01*
X45872380Y-67737319D02*
X45777142Y-67689700D01*
X45777142Y-67689700D02*
X45729523Y-67642080D01*
X45729523Y-67642080D02*
X45681904Y-67546842D01*
X45681904Y-67546842D02*
X45681904Y-67451604D01*
X45681904Y-67451604D02*
X45729523Y-67356366D01*
X45729523Y-67356366D02*
X45777142Y-67308747D01*
X45777142Y-67308747D02*
X45872380Y-67261128D01*
X45872380Y-67261128D02*
X46062856Y-67213509D01*
X46062856Y-67213509D02*
X46158094Y-67165890D01*
X46158094Y-67165890D02*
X46205713Y-67118271D01*
X46205713Y-67118271D02*
X46253332Y-67023033D01*
X46253332Y-67023033D02*
X46253332Y-66927795D01*
X46253332Y-66927795D02*
X46205713Y-66832557D01*
X46205713Y-66832557D02*
X46158094Y-66784938D01*
X46158094Y-66784938D02*
X46062856Y-66737319D01*
X46062856Y-66737319D02*
X45824761Y-66737319D01*
X45824761Y-66737319D02*
X45681904Y-66784938D01*
X45348570Y-66737319D02*
X45110475Y-67737319D01*
X45110475Y-67737319D02*
X44919999Y-67023033D01*
X44919999Y-67023033D02*
X44729523Y-67737319D01*
X44729523Y-67737319D02*
X44491428Y-66737319D01*
X43681904Y-66737319D02*
X43872380Y-66737319D01*
X43872380Y-66737319D02*
X43967618Y-66784938D01*
X43967618Y-66784938D02*
X44015237Y-66832557D01*
X44015237Y-66832557D02*
X44110475Y-66975414D01*
X44110475Y-66975414D02*
X44158094Y-67165890D01*
X44158094Y-67165890D02*
X44158094Y-67546842D01*
X44158094Y-67546842D02*
X44110475Y-67642080D01*
X44110475Y-67642080D02*
X44062856Y-67689700D01*
X44062856Y-67689700D02*
X43967618Y-67737319D01*
X43967618Y-67737319D02*
X43777142Y-67737319D01*
X43777142Y-67737319D02*
X43681904Y-67689700D01*
X43681904Y-67689700D02*
X43634285Y-67642080D01*
X43634285Y-67642080D02*
X43586666Y-67546842D01*
X43586666Y-67546842D02*
X43586666Y-67308747D01*
X43586666Y-67308747D02*
X43634285Y-67213509D01*
X43634285Y-67213509D02*
X43681904Y-67165890D01*
X43681904Y-67165890D02*
X43777142Y-67118271D01*
X43777142Y-67118271D02*
X43967618Y-67118271D01*
X43967618Y-67118271D02*
X44062856Y-67165890D01*
X44062856Y-67165890D02*
X44110475Y-67213509D01*
X44110475Y-67213509D02*
X44158094Y-67308747D01*
X84353332Y-74357200D02*
X84210475Y-74404819D01*
X84210475Y-74404819D02*
X83972380Y-74404819D01*
X83972380Y-74404819D02*
X83877142Y-74357200D01*
X83877142Y-74357200D02*
X83829523Y-74309580D01*
X83829523Y-74309580D02*
X83781904Y-74214342D01*
X83781904Y-74214342D02*
X83781904Y-74119104D01*
X83781904Y-74119104D02*
X83829523Y-74023866D01*
X83829523Y-74023866D02*
X83877142Y-73976247D01*
X83877142Y-73976247D02*
X83972380Y-73928628D01*
X83972380Y-73928628D02*
X84162856Y-73881009D01*
X84162856Y-73881009D02*
X84258094Y-73833390D01*
X84258094Y-73833390D02*
X84305713Y-73785771D01*
X84305713Y-73785771D02*
X84353332Y-73690533D01*
X84353332Y-73690533D02*
X84353332Y-73595295D01*
X84353332Y-73595295D02*
X84305713Y-73500057D01*
X84305713Y-73500057D02*
X84258094Y-73452438D01*
X84258094Y-73452438D02*
X84162856Y-73404819D01*
X84162856Y-73404819D02*
X83924761Y-73404819D01*
X83924761Y-73404819D02*
X83781904Y-73452438D01*
X83448570Y-73404819D02*
X83210475Y-74404819D01*
X83210475Y-74404819D02*
X83019999Y-73690533D01*
X83019999Y-73690533D02*
X82829523Y-74404819D01*
X82829523Y-74404819D02*
X82591428Y-73404819D01*
X82067618Y-73833390D02*
X82162856Y-73785771D01*
X82162856Y-73785771D02*
X82210475Y-73738152D01*
X82210475Y-73738152D02*
X82258094Y-73642914D01*
X82258094Y-73642914D02*
X82258094Y-73595295D01*
X82258094Y-73595295D02*
X82210475Y-73500057D01*
X82210475Y-73500057D02*
X82162856Y-73452438D01*
X82162856Y-73452438D02*
X82067618Y-73404819D01*
X82067618Y-73404819D02*
X81877142Y-73404819D01*
X81877142Y-73404819D02*
X81781904Y-73452438D01*
X81781904Y-73452438D02*
X81734285Y-73500057D01*
X81734285Y-73500057D02*
X81686666Y-73595295D01*
X81686666Y-73595295D02*
X81686666Y-73642914D01*
X81686666Y-73642914D02*
X81734285Y-73738152D01*
X81734285Y-73738152D02*
X81781904Y-73785771D01*
X81781904Y-73785771D02*
X81877142Y-73833390D01*
X81877142Y-73833390D02*
X82067618Y-73833390D01*
X82067618Y-73833390D02*
X82162856Y-73881009D01*
X82162856Y-73881009D02*
X82210475Y-73928628D01*
X82210475Y-73928628D02*
X82258094Y-74023866D01*
X82258094Y-74023866D02*
X82258094Y-74214342D01*
X82258094Y-74214342D02*
X82210475Y-74309580D01*
X82210475Y-74309580D02*
X82162856Y-74357200D01*
X82162856Y-74357200D02*
X82067618Y-74404819D01*
X82067618Y-74404819D02*
X81877142Y-74404819D01*
X81877142Y-74404819D02*
X81781904Y-74357200D01*
X81781904Y-74357200D02*
X81734285Y-74309580D01*
X81734285Y-74309580D02*
X81686666Y-74214342D01*
X81686666Y-74214342D02*
X81686666Y-74023866D01*
X81686666Y-74023866D02*
X81734285Y-73928628D01*
X81734285Y-73928628D02*
X81781904Y-73881009D01*
X81781904Y-73881009D02*
X81877142Y-73833390D01*
X161029523Y-77214700D02*
X160886666Y-77262319D01*
X160886666Y-77262319D02*
X160648571Y-77262319D01*
X160648571Y-77262319D02*
X160553333Y-77214700D01*
X160553333Y-77214700D02*
X160505714Y-77167080D01*
X160505714Y-77167080D02*
X160458095Y-77071842D01*
X160458095Y-77071842D02*
X160458095Y-76976604D01*
X160458095Y-76976604D02*
X160505714Y-76881366D01*
X160505714Y-76881366D02*
X160553333Y-76833747D01*
X160553333Y-76833747D02*
X160648571Y-76786128D01*
X160648571Y-76786128D02*
X160839047Y-76738509D01*
X160839047Y-76738509D02*
X160934285Y-76690890D01*
X160934285Y-76690890D02*
X160981904Y-76643271D01*
X160981904Y-76643271D02*
X161029523Y-76548033D01*
X161029523Y-76548033D02*
X161029523Y-76452795D01*
X161029523Y-76452795D02*
X160981904Y-76357557D01*
X160981904Y-76357557D02*
X160934285Y-76309938D01*
X160934285Y-76309938D02*
X160839047Y-76262319D01*
X160839047Y-76262319D02*
X160600952Y-76262319D01*
X160600952Y-76262319D02*
X160458095Y-76309938D01*
X160124761Y-76262319D02*
X159886666Y-77262319D01*
X159886666Y-77262319D02*
X159696190Y-76548033D01*
X159696190Y-76548033D02*
X159505714Y-77262319D01*
X159505714Y-77262319D02*
X159267619Y-76262319D01*
X158362857Y-77262319D02*
X158934285Y-77262319D01*
X158648571Y-77262319D02*
X158648571Y-76262319D01*
X158648571Y-76262319D02*
X158743809Y-76405176D01*
X158743809Y-76405176D02*
X158839047Y-76500414D01*
X158839047Y-76500414D02*
X158934285Y-76548033D01*
X157410476Y-77262319D02*
X157981904Y-77262319D01*
X157696190Y-77262319D02*
X157696190Y-76262319D01*
X157696190Y-76262319D02*
X157791428Y-76405176D01*
X157791428Y-76405176D02*
X157886666Y-76500414D01*
X157886666Y-76500414D02*
X157981904Y-76548033D01*
X84829523Y-93407200D02*
X84686666Y-93454819D01*
X84686666Y-93454819D02*
X84448571Y-93454819D01*
X84448571Y-93454819D02*
X84353333Y-93407200D01*
X84353333Y-93407200D02*
X84305714Y-93359580D01*
X84305714Y-93359580D02*
X84258095Y-93264342D01*
X84258095Y-93264342D02*
X84258095Y-93169104D01*
X84258095Y-93169104D02*
X84305714Y-93073866D01*
X84305714Y-93073866D02*
X84353333Y-93026247D01*
X84353333Y-93026247D02*
X84448571Y-92978628D01*
X84448571Y-92978628D02*
X84639047Y-92931009D01*
X84639047Y-92931009D02*
X84734285Y-92883390D01*
X84734285Y-92883390D02*
X84781904Y-92835771D01*
X84781904Y-92835771D02*
X84829523Y-92740533D01*
X84829523Y-92740533D02*
X84829523Y-92645295D01*
X84829523Y-92645295D02*
X84781904Y-92550057D01*
X84781904Y-92550057D02*
X84734285Y-92502438D01*
X84734285Y-92502438D02*
X84639047Y-92454819D01*
X84639047Y-92454819D02*
X84400952Y-92454819D01*
X84400952Y-92454819D02*
X84258095Y-92502438D01*
X83924761Y-92454819D02*
X83686666Y-93454819D01*
X83686666Y-93454819D02*
X83496190Y-92740533D01*
X83496190Y-92740533D02*
X83305714Y-93454819D01*
X83305714Y-93454819D02*
X83067619Y-92454819D01*
X82162857Y-93454819D02*
X82734285Y-93454819D01*
X82448571Y-93454819D02*
X82448571Y-92454819D01*
X82448571Y-92454819D02*
X82543809Y-92597676D01*
X82543809Y-92597676D02*
X82639047Y-92692914D01*
X82639047Y-92692914D02*
X82734285Y-92740533D01*
X81258095Y-92454819D02*
X81734285Y-92454819D01*
X81734285Y-92454819D02*
X81781904Y-92931009D01*
X81781904Y-92931009D02*
X81734285Y-92883390D01*
X81734285Y-92883390D02*
X81639047Y-92835771D01*
X81639047Y-92835771D02*
X81400952Y-92835771D01*
X81400952Y-92835771D02*
X81305714Y-92883390D01*
X81305714Y-92883390D02*
X81258095Y-92931009D01*
X81258095Y-92931009D02*
X81210476Y-93026247D01*
X81210476Y-93026247D02*
X81210476Y-93264342D01*
X81210476Y-93264342D02*
X81258095Y-93359580D01*
X81258095Y-93359580D02*
X81305714Y-93407200D01*
X81305714Y-93407200D02*
X81400952Y-93454819D01*
X81400952Y-93454819D02*
X81639047Y-93454819D01*
X81639047Y-93454819D02*
X81734285Y-93407200D01*
X81734285Y-93407200D02*
X81781904Y-93359580D01*
X141979523Y-77214700D02*
X141836666Y-77262319D01*
X141836666Y-77262319D02*
X141598571Y-77262319D01*
X141598571Y-77262319D02*
X141503333Y-77214700D01*
X141503333Y-77214700D02*
X141455714Y-77167080D01*
X141455714Y-77167080D02*
X141408095Y-77071842D01*
X141408095Y-77071842D02*
X141408095Y-76976604D01*
X141408095Y-76976604D02*
X141455714Y-76881366D01*
X141455714Y-76881366D02*
X141503333Y-76833747D01*
X141503333Y-76833747D02*
X141598571Y-76786128D01*
X141598571Y-76786128D02*
X141789047Y-76738509D01*
X141789047Y-76738509D02*
X141884285Y-76690890D01*
X141884285Y-76690890D02*
X141931904Y-76643271D01*
X141931904Y-76643271D02*
X141979523Y-76548033D01*
X141979523Y-76548033D02*
X141979523Y-76452795D01*
X141979523Y-76452795D02*
X141931904Y-76357557D01*
X141931904Y-76357557D02*
X141884285Y-76309938D01*
X141884285Y-76309938D02*
X141789047Y-76262319D01*
X141789047Y-76262319D02*
X141550952Y-76262319D01*
X141550952Y-76262319D02*
X141408095Y-76309938D01*
X141074761Y-76262319D02*
X140836666Y-77262319D01*
X140836666Y-77262319D02*
X140646190Y-76548033D01*
X140646190Y-76548033D02*
X140455714Y-77262319D01*
X140455714Y-77262319D02*
X140217619Y-76262319D01*
X139312857Y-77262319D02*
X139884285Y-77262319D01*
X139598571Y-77262319D02*
X139598571Y-76262319D01*
X139598571Y-76262319D02*
X139693809Y-76405176D01*
X139693809Y-76405176D02*
X139789047Y-76500414D01*
X139789047Y-76500414D02*
X139884285Y-76548033D01*
X138693809Y-76262319D02*
X138598571Y-76262319D01*
X138598571Y-76262319D02*
X138503333Y-76309938D01*
X138503333Y-76309938D02*
X138455714Y-76357557D01*
X138455714Y-76357557D02*
X138408095Y-76452795D01*
X138408095Y-76452795D02*
X138360476Y-76643271D01*
X138360476Y-76643271D02*
X138360476Y-76881366D01*
X138360476Y-76881366D02*
X138408095Y-77071842D01*
X138408095Y-77071842D02*
X138455714Y-77167080D01*
X138455714Y-77167080D02*
X138503333Y-77214700D01*
X138503333Y-77214700D02*
X138598571Y-77262319D01*
X138598571Y-77262319D02*
X138693809Y-77262319D01*
X138693809Y-77262319D02*
X138789047Y-77214700D01*
X138789047Y-77214700D02*
X138836666Y-77167080D01*
X138836666Y-77167080D02*
X138884285Y-77071842D01*
X138884285Y-77071842D02*
X138931904Y-76881366D01*
X138931904Y-76881366D02*
X138931904Y-76643271D01*
X138931904Y-76643271D02*
X138884285Y-76452795D01*
X138884285Y-76452795D02*
X138836666Y-76357557D01*
X138836666Y-76357557D02*
X138789047Y-76309938D01*
X138789047Y-76309938D02*
X138693809Y-76262319D01*
X65779523Y-81977200D02*
X65636666Y-82024819D01*
X65636666Y-82024819D02*
X65398571Y-82024819D01*
X65398571Y-82024819D02*
X65303333Y-81977200D01*
X65303333Y-81977200D02*
X65255714Y-81929580D01*
X65255714Y-81929580D02*
X65208095Y-81834342D01*
X65208095Y-81834342D02*
X65208095Y-81739104D01*
X65208095Y-81739104D02*
X65255714Y-81643866D01*
X65255714Y-81643866D02*
X65303333Y-81596247D01*
X65303333Y-81596247D02*
X65398571Y-81548628D01*
X65398571Y-81548628D02*
X65589047Y-81501009D01*
X65589047Y-81501009D02*
X65684285Y-81453390D01*
X65684285Y-81453390D02*
X65731904Y-81405771D01*
X65731904Y-81405771D02*
X65779523Y-81310533D01*
X65779523Y-81310533D02*
X65779523Y-81215295D01*
X65779523Y-81215295D02*
X65731904Y-81120057D01*
X65731904Y-81120057D02*
X65684285Y-81072438D01*
X65684285Y-81072438D02*
X65589047Y-81024819D01*
X65589047Y-81024819D02*
X65350952Y-81024819D01*
X65350952Y-81024819D02*
X65208095Y-81072438D01*
X64874761Y-81024819D02*
X64636666Y-82024819D01*
X64636666Y-82024819D02*
X64446190Y-81310533D01*
X64446190Y-81310533D02*
X64255714Y-82024819D01*
X64255714Y-82024819D02*
X64017619Y-81024819D01*
X63112857Y-82024819D02*
X63684285Y-82024819D01*
X63398571Y-82024819D02*
X63398571Y-81024819D01*
X63398571Y-81024819D02*
X63493809Y-81167676D01*
X63493809Y-81167676D02*
X63589047Y-81262914D01*
X63589047Y-81262914D02*
X63684285Y-81310533D01*
X62731904Y-81120057D02*
X62684285Y-81072438D01*
X62684285Y-81072438D02*
X62589047Y-81024819D01*
X62589047Y-81024819D02*
X62350952Y-81024819D01*
X62350952Y-81024819D02*
X62255714Y-81072438D01*
X62255714Y-81072438D02*
X62208095Y-81120057D01*
X62208095Y-81120057D02*
X62160476Y-81215295D01*
X62160476Y-81215295D02*
X62160476Y-81310533D01*
X62160476Y-81310533D02*
X62208095Y-81453390D01*
X62208095Y-81453390D02*
X62779523Y-82024819D01*
X62779523Y-82024819D02*
X62160476Y-82024819D01*
X65303332Y-62927200D02*
X65160475Y-62974819D01*
X65160475Y-62974819D02*
X64922380Y-62974819D01*
X64922380Y-62974819D02*
X64827142Y-62927200D01*
X64827142Y-62927200D02*
X64779523Y-62879580D01*
X64779523Y-62879580D02*
X64731904Y-62784342D01*
X64731904Y-62784342D02*
X64731904Y-62689104D01*
X64731904Y-62689104D02*
X64779523Y-62593866D01*
X64779523Y-62593866D02*
X64827142Y-62546247D01*
X64827142Y-62546247D02*
X64922380Y-62498628D01*
X64922380Y-62498628D02*
X65112856Y-62451009D01*
X65112856Y-62451009D02*
X65208094Y-62403390D01*
X65208094Y-62403390D02*
X65255713Y-62355771D01*
X65255713Y-62355771D02*
X65303332Y-62260533D01*
X65303332Y-62260533D02*
X65303332Y-62165295D01*
X65303332Y-62165295D02*
X65255713Y-62070057D01*
X65255713Y-62070057D02*
X65208094Y-62022438D01*
X65208094Y-62022438D02*
X65112856Y-61974819D01*
X65112856Y-61974819D02*
X64874761Y-61974819D01*
X64874761Y-61974819D02*
X64731904Y-62022438D01*
X64398570Y-61974819D02*
X64160475Y-62974819D01*
X64160475Y-62974819D02*
X63969999Y-62260533D01*
X63969999Y-62260533D02*
X63779523Y-62974819D01*
X63779523Y-62974819D02*
X63541428Y-61974819D01*
X62684285Y-61974819D02*
X63160475Y-61974819D01*
X63160475Y-61974819D02*
X63208094Y-62451009D01*
X63208094Y-62451009D02*
X63160475Y-62403390D01*
X63160475Y-62403390D02*
X63065237Y-62355771D01*
X63065237Y-62355771D02*
X62827142Y-62355771D01*
X62827142Y-62355771D02*
X62731904Y-62403390D01*
X62731904Y-62403390D02*
X62684285Y-62451009D01*
X62684285Y-62451009D02*
X62636666Y-62546247D01*
X62636666Y-62546247D02*
X62636666Y-62784342D01*
X62636666Y-62784342D02*
X62684285Y-62879580D01*
X62684285Y-62879580D02*
X62731904Y-62927200D01*
X62731904Y-62927200D02*
X62827142Y-62974819D01*
X62827142Y-62974819D02*
X63065237Y-62974819D01*
X63065237Y-62974819D02*
X63160475Y-62927200D01*
X63160475Y-62927200D02*
X63208094Y-62879580D01*
X103403332Y-71499700D02*
X103260475Y-71547319D01*
X103260475Y-71547319D02*
X103022380Y-71547319D01*
X103022380Y-71547319D02*
X102927142Y-71499700D01*
X102927142Y-71499700D02*
X102879523Y-71452080D01*
X102879523Y-71452080D02*
X102831904Y-71356842D01*
X102831904Y-71356842D02*
X102831904Y-71261604D01*
X102831904Y-71261604D02*
X102879523Y-71166366D01*
X102879523Y-71166366D02*
X102927142Y-71118747D01*
X102927142Y-71118747D02*
X103022380Y-71071128D01*
X103022380Y-71071128D02*
X103212856Y-71023509D01*
X103212856Y-71023509D02*
X103308094Y-70975890D01*
X103308094Y-70975890D02*
X103355713Y-70928271D01*
X103355713Y-70928271D02*
X103403332Y-70833033D01*
X103403332Y-70833033D02*
X103403332Y-70737795D01*
X103403332Y-70737795D02*
X103355713Y-70642557D01*
X103355713Y-70642557D02*
X103308094Y-70594938D01*
X103308094Y-70594938D02*
X103212856Y-70547319D01*
X103212856Y-70547319D02*
X102974761Y-70547319D01*
X102974761Y-70547319D02*
X102831904Y-70594938D01*
X102498570Y-70547319D02*
X102260475Y-71547319D01*
X102260475Y-71547319D02*
X102069999Y-70833033D01*
X102069999Y-70833033D02*
X101879523Y-71547319D01*
X101879523Y-71547319D02*
X101641428Y-70547319D01*
X101355713Y-70547319D02*
X100689047Y-70547319D01*
X100689047Y-70547319D02*
X101117618Y-71547319D01*
X87159523Y-28057200D02*
X87016666Y-28104819D01*
X87016666Y-28104819D02*
X86778571Y-28104819D01*
X86778571Y-28104819D02*
X86683333Y-28057200D01*
X86683333Y-28057200D02*
X86635714Y-28009580D01*
X86635714Y-28009580D02*
X86588095Y-27914342D01*
X86588095Y-27914342D02*
X86588095Y-27819104D01*
X86588095Y-27819104D02*
X86635714Y-27723866D01*
X86635714Y-27723866D02*
X86683333Y-27676247D01*
X86683333Y-27676247D02*
X86778571Y-27628628D01*
X86778571Y-27628628D02*
X86969047Y-27581009D01*
X86969047Y-27581009D02*
X87064285Y-27533390D01*
X87064285Y-27533390D02*
X87111904Y-27485771D01*
X87111904Y-27485771D02*
X87159523Y-27390533D01*
X87159523Y-27390533D02*
X87159523Y-27295295D01*
X87159523Y-27295295D02*
X87111904Y-27200057D01*
X87111904Y-27200057D02*
X87064285Y-27152438D01*
X87064285Y-27152438D02*
X86969047Y-27104819D01*
X86969047Y-27104819D02*
X86730952Y-27104819D01*
X86730952Y-27104819D02*
X86588095Y-27152438D01*
X86254761Y-27104819D02*
X86016666Y-28104819D01*
X86016666Y-28104819D02*
X85826190Y-27390533D01*
X85826190Y-27390533D02*
X85635714Y-28104819D01*
X85635714Y-28104819D02*
X85397619Y-27104819D01*
X85111904Y-27104819D02*
X84492857Y-27104819D01*
X84492857Y-27104819D02*
X84826190Y-27485771D01*
X84826190Y-27485771D02*
X84683333Y-27485771D01*
X84683333Y-27485771D02*
X84588095Y-27533390D01*
X84588095Y-27533390D02*
X84540476Y-27581009D01*
X84540476Y-27581009D02*
X84492857Y-27676247D01*
X84492857Y-27676247D02*
X84492857Y-27914342D01*
X84492857Y-27914342D02*
X84540476Y-28009580D01*
X84540476Y-28009580D02*
X84588095Y-28057200D01*
X84588095Y-28057200D02*
X84683333Y-28104819D01*
X84683333Y-28104819D02*
X84969047Y-28104819D01*
X84969047Y-28104819D02*
X85064285Y-28057200D01*
X85064285Y-28057200D02*
X85111904Y-28009580D01*
X84159523Y-27104819D02*
X83540476Y-27104819D01*
X83540476Y-27104819D02*
X83873809Y-27485771D01*
X83873809Y-27485771D02*
X83730952Y-27485771D01*
X83730952Y-27485771D02*
X83635714Y-27533390D01*
X83635714Y-27533390D02*
X83588095Y-27581009D01*
X83588095Y-27581009D02*
X83540476Y-27676247D01*
X83540476Y-27676247D02*
X83540476Y-27914342D01*
X83540476Y-27914342D02*
X83588095Y-28009580D01*
X83588095Y-28009580D02*
X83635714Y-28057200D01*
X83635714Y-28057200D02*
X83730952Y-28104819D01*
X83730952Y-28104819D02*
X84016666Y-28104819D01*
X84016666Y-28104819D02*
X84111904Y-28057200D01*
X84111904Y-28057200D02*
X84159523Y-28009580D01*
X46729523Y-124839700D02*
X46586666Y-124887319D01*
X46586666Y-124887319D02*
X46348571Y-124887319D01*
X46348571Y-124887319D02*
X46253333Y-124839700D01*
X46253333Y-124839700D02*
X46205714Y-124792080D01*
X46205714Y-124792080D02*
X46158095Y-124696842D01*
X46158095Y-124696842D02*
X46158095Y-124601604D01*
X46158095Y-124601604D02*
X46205714Y-124506366D01*
X46205714Y-124506366D02*
X46253333Y-124458747D01*
X46253333Y-124458747D02*
X46348571Y-124411128D01*
X46348571Y-124411128D02*
X46539047Y-124363509D01*
X46539047Y-124363509D02*
X46634285Y-124315890D01*
X46634285Y-124315890D02*
X46681904Y-124268271D01*
X46681904Y-124268271D02*
X46729523Y-124173033D01*
X46729523Y-124173033D02*
X46729523Y-124077795D01*
X46729523Y-124077795D02*
X46681904Y-123982557D01*
X46681904Y-123982557D02*
X46634285Y-123934938D01*
X46634285Y-123934938D02*
X46539047Y-123887319D01*
X46539047Y-123887319D02*
X46300952Y-123887319D01*
X46300952Y-123887319D02*
X46158095Y-123934938D01*
X45824761Y-123887319D02*
X45586666Y-124887319D01*
X45586666Y-124887319D02*
X45396190Y-124173033D01*
X45396190Y-124173033D02*
X45205714Y-124887319D01*
X45205714Y-124887319D02*
X44967619Y-123887319D01*
X44634285Y-123982557D02*
X44586666Y-123934938D01*
X44586666Y-123934938D02*
X44491428Y-123887319D01*
X44491428Y-123887319D02*
X44253333Y-123887319D01*
X44253333Y-123887319D02*
X44158095Y-123934938D01*
X44158095Y-123934938D02*
X44110476Y-123982557D01*
X44110476Y-123982557D02*
X44062857Y-124077795D01*
X44062857Y-124077795D02*
X44062857Y-124173033D01*
X44062857Y-124173033D02*
X44110476Y-124315890D01*
X44110476Y-124315890D02*
X44681904Y-124887319D01*
X44681904Y-124887319D02*
X44062857Y-124887319D01*
X43729523Y-123887319D02*
X43062857Y-123887319D01*
X43062857Y-123887319D02*
X43491428Y-124887319D01*
X84829523Y-112457200D02*
X84686666Y-112504819D01*
X84686666Y-112504819D02*
X84448571Y-112504819D01*
X84448571Y-112504819D02*
X84353333Y-112457200D01*
X84353333Y-112457200D02*
X84305714Y-112409580D01*
X84305714Y-112409580D02*
X84258095Y-112314342D01*
X84258095Y-112314342D02*
X84258095Y-112219104D01*
X84258095Y-112219104D02*
X84305714Y-112123866D01*
X84305714Y-112123866D02*
X84353333Y-112076247D01*
X84353333Y-112076247D02*
X84448571Y-112028628D01*
X84448571Y-112028628D02*
X84639047Y-111981009D01*
X84639047Y-111981009D02*
X84734285Y-111933390D01*
X84734285Y-111933390D02*
X84781904Y-111885771D01*
X84781904Y-111885771D02*
X84829523Y-111790533D01*
X84829523Y-111790533D02*
X84829523Y-111695295D01*
X84829523Y-111695295D02*
X84781904Y-111600057D01*
X84781904Y-111600057D02*
X84734285Y-111552438D01*
X84734285Y-111552438D02*
X84639047Y-111504819D01*
X84639047Y-111504819D02*
X84400952Y-111504819D01*
X84400952Y-111504819D02*
X84258095Y-111552438D01*
X83924761Y-111504819D02*
X83686666Y-112504819D01*
X83686666Y-112504819D02*
X83496190Y-111790533D01*
X83496190Y-111790533D02*
X83305714Y-112504819D01*
X83305714Y-112504819D02*
X83067619Y-111504819D01*
X82734285Y-111600057D02*
X82686666Y-111552438D01*
X82686666Y-111552438D02*
X82591428Y-111504819D01*
X82591428Y-111504819D02*
X82353333Y-111504819D01*
X82353333Y-111504819D02*
X82258095Y-111552438D01*
X82258095Y-111552438D02*
X82210476Y-111600057D01*
X82210476Y-111600057D02*
X82162857Y-111695295D01*
X82162857Y-111695295D02*
X82162857Y-111790533D01*
X82162857Y-111790533D02*
X82210476Y-111933390D01*
X82210476Y-111933390D02*
X82781904Y-112504819D01*
X82781904Y-112504819D02*
X82162857Y-112504819D01*
X81781904Y-111600057D02*
X81734285Y-111552438D01*
X81734285Y-111552438D02*
X81639047Y-111504819D01*
X81639047Y-111504819D02*
X81400952Y-111504819D01*
X81400952Y-111504819D02*
X81305714Y-111552438D01*
X81305714Y-111552438D02*
X81258095Y-111600057D01*
X81258095Y-111600057D02*
X81210476Y-111695295D01*
X81210476Y-111695295D02*
X81210476Y-111790533D01*
X81210476Y-111790533D02*
X81258095Y-111933390D01*
X81258095Y-111933390D02*
X81829523Y-112504819D01*
X81829523Y-112504819D02*
X81210476Y-112504819D01*
X122929523Y-112457200D02*
X122786666Y-112504819D01*
X122786666Y-112504819D02*
X122548571Y-112504819D01*
X122548571Y-112504819D02*
X122453333Y-112457200D01*
X122453333Y-112457200D02*
X122405714Y-112409580D01*
X122405714Y-112409580D02*
X122358095Y-112314342D01*
X122358095Y-112314342D02*
X122358095Y-112219104D01*
X122358095Y-112219104D02*
X122405714Y-112123866D01*
X122405714Y-112123866D02*
X122453333Y-112076247D01*
X122453333Y-112076247D02*
X122548571Y-112028628D01*
X122548571Y-112028628D02*
X122739047Y-111981009D01*
X122739047Y-111981009D02*
X122834285Y-111933390D01*
X122834285Y-111933390D02*
X122881904Y-111885771D01*
X122881904Y-111885771D02*
X122929523Y-111790533D01*
X122929523Y-111790533D02*
X122929523Y-111695295D01*
X122929523Y-111695295D02*
X122881904Y-111600057D01*
X122881904Y-111600057D02*
X122834285Y-111552438D01*
X122834285Y-111552438D02*
X122739047Y-111504819D01*
X122739047Y-111504819D02*
X122500952Y-111504819D01*
X122500952Y-111504819D02*
X122358095Y-111552438D01*
X122024761Y-111504819D02*
X121786666Y-112504819D01*
X121786666Y-112504819D02*
X121596190Y-111790533D01*
X121596190Y-111790533D02*
X121405714Y-112504819D01*
X121405714Y-112504819D02*
X121167619Y-111504819D01*
X120834285Y-111600057D02*
X120786666Y-111552438D01*
X120786666Y-111552438D02*
X120691428Y-111504819D01*
X120691428Y-111504819D02*
X120453333Y-111504819D01*
X120453333Y-111504819D02*
X120358095Y-111552438D01*
X120358095Y-111552438D02*
X120310476Y-111600057D01*
X120310476Y-111600057D02*
X120262857Y-111695295D01*
X120262857Y-111695295D02*
X120262857Y-111790533D01*
X120262857Y-111790533D02*
X120310476Y-111933390D01*
X120310476Y-111933390D02*
X120881904Y-112504819D01*
X120881904Y-112504819D02*
X120262857Y-112504819D01*
X119929523Y-111504819D02*
X119310476Y-111504819D01*
X119310476Y-111504819D02*
X119643809Y-111885771D01*
X119643809Y-111885771D02*
X119500952Y-111885771D01*
X119500952Y-111885771D02*
X119405714Y-111933390D01*
X119405714Y-111933390D02*
X119358095Y-111981009D01*
X119358095Y-111981009D02*
X119310476Y-112076247D01*
X119310476Y-112076247D02*
X119310476Y-112314342D01*
X119310476Y-112314342D02*
X119358095Y-112409580D01*
X119358095Y-112409580D02*
X119405714Y-112457200D01*
X119405714Y-112457200D02*
X119500952Y-112504819D01*
X119500952Y-112504819D02*
X119786666Y-112504819D01*
X119786666Y-112504819D02*
X119881904Y-112457200D01*
X119881904Y-112457200D02*
X119929523Y-112409580D01*
X103403332Y-52449700D02*
X103260475Y-52497319D01*
X103260475Y-52497319D02*
X103022380Y-52497319D01*
X103022380Y-52497319D02*
X102927142Y-52449700D01*
X102927142Y-52449700D02*
X102879523Y-52402080D01*
X102879523Y-52402080D02*
X102831904Y-52306842D01*
X102831904Y-52306842D02*
X102831904Y-52211604D01*
X102831904Y-52211604D02*
X102879523Y-52116366D01*
X102879523Y-52116366D02*
X102927142Y-52068747D01*
X102927142Y-52068747D02*
X103022380Y-52021128D01*
X103022380Y-52021128D02*
X103212856Y-51973509D01*
X103212856Y-51973509D02*
X103308094Y-51925890D01*
X103308094Y-51925890D02*
X103355713Y-51878271D01*
X103355713Y-51878271D02*
X103403332Y-51783033D01*
X103403332Y-51783033D02*
X103403332Y-51687795D01*
X103403332Y-51687795D02*
X103355713Y-51592557D01*
X103355713Y-51592557D02*
X103308094Y-51544938D01*
X103308094Y-51544938D02*
X103212856Y-51497319D01*
X103212856Y-51497319D02*
X102974761Y-51497319D01*
X102974761Y-51497319D02*
X102831904Y-51544938D01*
X102498570Y-51497319D02*
X102260475Y-52497319D01*
X102260475Y-52497319D02*
X102069999Y-51783033D01*
X102069999Y-51783033D02*
X101879523Y-52497319D01*
X101879523Y-52497319D02*
X101641428Y-51497319D01*
X100736666Y-52497319D02*
X101308094Y-52497319D01*
X101022380Y-52497319D02*
X101022380Y-51497319D01*
X101022380Y-51497319D02*
X101117618Y-51640176D01*
X101117618Y-51640176D02*
X101212856Y-51735414D01*
X101212856Y-51735414D02*
X101308094Y-51783033D01*
X141979523Y-115314700D02*
X141836666Y-115362319D01*
X141836666Y-115362319D02*
X141598571Y-115362319D01*
X141598571Y-115362319D02*
X141503333Y-115314700D01*
X141503333Y-115314700D02*
X141455714Y-115267080D01*
X141455714Y-115267080D02*
X141408095Y-115171842D01*
X141408095Y-115171842D02*
X141408095Y-115076604D01*
X141408095Y-115076604D02*
X141455714Y-114981366D01*
X141455714Y-114981366D02*
X141503333Y-114933747D01*
X141503333Y-114933747D02*
X141598571Y-114886128D01*
X141598571Y-114886128D02*
X141789047Y-114838509D01*
X141789047Y-114838509D02*
X141884285Y-114790890D01*
X141884285Y-114790890D02*
X141931904Y-114743271D01*
X141931904Y-114743271D02*
X141979523Y-114648033D01*
X141979523Y-114648033D02*
X141979523Y-114552795D01*
X141979523Y-114552795D02*
X141931904Y-114457557D01*
X141931904Y-114457557D02*
X141884285Y-114409938D01*
X141884285Y-114409938D02*
X141789047Y-114362319D01*
X141789047Y-114362319D02*
X141550952Y-114362319D01*
X141550952Y-114362319D02*
X141408095Y-114409938D01*
X141074761Y-114362319D02*
X140836666Y-115362319D01*
X140836666Y-115362319D02*
X140646190Y-114648033D01*
X140646190Y-114648033D02*
X140455714Y-115362319D01*
X140455714Y-115362319D02*
X140217619Y-114362319D01*
X139884285Y-114457557D02*
X139836666Y-114409938D01*
X139836666Y-114409938D02*
X139741428Y-114362319D01*
X139741428Y-114362319D02*
X139503333Y-114362319D01*
X139503333Y-114362319D02*
X139408095Y-114409938D01*
X139408095Y-114409938D02*
X139360476Y-114457557D01*
X139360476Y-114457557D02*
X139312857Y-114552795D01*
X139312857Y-114552795D02*
X139312857Y-114648033D01*
X139312857Y-114648033D02*
X139360476Y-114790890D01*
X139360476Y-114790890D02*
X139931904Y-115362319D01*
X139931904Y-115362319D02*
X139312857Y-115362319D01*
X138455714Y-114695652D02*
X138455714Y-115362319D01*
X138693809Y-114314700D02*
X138931904Y-115028985D01*
X138931904Y-115028985D02*
X138312857Y-115028985D01*
D11*
X68271428Y-107663855D02*
X68271428Y-106863855D01*
X68271428Y-106863855D02*
X68080952Y-106863855D01*
X68080952Y-106863855D02*
X67966666Y-106901950D01*
X67966666Y-106901950D02*
X67890476Y-106978140D01*
X67890476Y-106978140D02*
X67852381Y-107054331D01*
X67852381Y-107054331D02*
X67814285Y-107206712D01*
X67814285Y-107206712D02*
X67814285Y-107320998D01*
X67814285Y-107320998D02*
X67852381Y-107473379D01*
X67852381Y-107473379D02*
X67890476Y-107549569D01*
X67890476Y-107549569D02*
X67966666Y-107625760D01*
X67966666Y-107625760D02*
X68080952Y-107663855D01*
X68080952Y-107663855D02*
X68271428Y-107663855D01*
X67052381Y-107663855D02*
X67509524Y-107663855D01*
X67280952Y-107663855D02*
X67280952Y-106863855D01*
X67280952Y-106863855D02*
X67357143Y-106978140D01*
X67357143Y-106978140D02*
X67433333Y-107054331D01*
X67433333Y-107054331D02*
X67509524Y-107092426D01*
X66671428Y-107663855D02*
X66519047Y-107663855D01*
X66519047Y-107663855D02*
X66442857Y-107625760D01*
X66442857Y-107625760D02*
X66404761Y-107587664D01*
X66404761Y-107587664D02*
X66328571Y-107473379D01*
X66328571Y-107473379D02*
X66290476Y-107320998D01*
X66290476Y-107320998D02*
X66290476Y-107016236D01*
X66290476Y-107016236D02*
X66328571Y-106940045D01*
X66328571Y-106940045D02*
X66366666Y-106901950D01*
X66366666Y-106901950D02*
X66442857Y-106863855D01*
X66442857Y-106863855D02*
X66595238Y-106863855D01*
X66595238Y-106863855D02*
X66671428Y-106901950D01*
X66671428Y-106901950D02*
X66709523Y-106940045D01*
X66709523Y-106940045D02*
X66747619Y-107016236D01*
X66747619Y-107016236D02*
X66747619Y-107206712D01*
X66747619Y-107206712D02*
X66709523Y-107282902D01*
X66709523Y-107282902D02*
X66671428Y-107320998D01*
X66671428Y-107320998D02*
X66595238Y-107359093D01*
X66595238Y-107359093D02*
X66442857Y-107359093D01*
X66442857Y-107359093D02*
X66366666Y-107320998D01*
X66366666Y-107320998D02*
X66328571Y-107282902D01*
X66328571Y-107282902D02*
X66290476Y-107206712D01*
X86940475Y-80993855D02*
X86940475Y-80193855D01*
X86940475Y-80193855D02*
X86749999Y-80193855D01*
X86749999Y-80193855D02*
X86635713Y-80231950D01*
X86635713Y-80231950D02*
X86559523Y-80308140D01*
X86559523Y-80308140D02*
X86521428Y-80384331D01*
X86521428Y-80384331D02*
X86483332Y-80536712D01*
X86483332Y-80536712D02*
X86483332Y-80650998D01*
X86483332Y-80650998D02*
X86521428Y-80803379D01*
X86521428Y-80803379D02*
X86559523Y-80879569D01*
X86559523Y-80879569D02*
X86635713Y-80955760D01*
X86635713Y-80955760D02*
X86749999Y-80993855D01*
X86749999Y-80993855D02*
X86940475Y-80993855D01*
X86026190Y-80536712D02*
X86102380Y-80498617D01*
X86102380Y-80498617D02*
X86140475Y-80460521D01*
X86140475Y-80460521D02*
X86178571Y-80384331D01*
X86178571Y-80384331D02*
X86178571Y-80346236D01*
X86178571Y-80346236D02*
X86140475Y-80270045D01*
X86140475Y-80270045D02*
X86102380Y-80231950D01*
X86102380Y-80231950D02*
X86026190Y-80193855D01*
X86026190Y-80193855D02*
X85873809Y-80193855D01*
X85873809Y-80193855D02*
X85797618Y-80231950D01*
X85797618Y-80231950D02*
X85759523Y-80270045D01*
X85759523Y-80270045D02*
X85721428Y-80346236D01*
X85721428Y-80346236D02*
X85721428Y-80384331D01*
X85721428Y-80384331D02*
X85759523Y-80460521D01*
X85759523Y-80460521D02*
X85797618Y-80498617D01*
X85797618Y-80498617D02*
X85873809Y-80536712D01*
X85873809Y-80536712D02*
X86026190Y-80536712D01*
X86026190Y-80536712D02*
X86102380Y-80574807D01*
X86102380Y-80574807D02*
X86140475Y-80612902D01*
X86140475Y-80612902D02*
X86178571Y-80689093D01*
X86178571Y-80689093D02*
X86178571Y-80841474D01*
X86178571Y-80841474D02*
X86140475Y-80917664D01*
X86140475Y-80917664D02*
X86102380Y-80955760D01*
X86102380Y-80955760D02*
X86026190Y-80993855D01*
X86026190Y-80993855D02*
X85873809Y-80993855D01*
X85873809Y-80993855D02*
X85797618Y-80955760D01*
X85797618Y-80955760D02*
X85759523Y-80917664D01*
X85759523Y-80917664D02*
X85721428Y-80841474D01*
X85721428Y-80841474D02*
X85721428Y-80689093D01*
X85721428Y-80689093D02*
X85759523Y-80612902D01*
X85759523Y-80612902D02*
X85797618Y-80574807D01*
X85797618Y-80574807D02*
X85873809Y-80536712D01*
X87321428Y-100043855D02*
X87321428Y-99243855D01*
X87321428Y-99243855D02*
X87130952Y-99243855D01*
X87130952Y-99243855D02*
X87016666Y-99281950D01*
X87016666Y-99281950D02*
X86940476Y-99358140D01*
X86940476Y-99358140D02*
X86902381Y-99434331D01*
X86902381Y-99434331D02*
X86864285Y-99586712D01*
X86864285Y-99586712D02*
X86864285Y-99700998D01*
X86864285Y-99700998D02*
X86902381Y-99853379D01*
X86902381Y-99853379D02*
X86940476Y-99929569D01*
X86940476Y-99929569D02*
X87016666Y-100005760D01*
X87016666Y-100005760D02*
X87130952Y-100043855D01*
X87130952Y-100043855D02*
X87321428Y-100043855D01*
X86102381Y-100043855D02*
X86559524Y-100043855D01*
X86330952Y-100043855D02*
X86330952Y-99243855D01*
X86330952Y-99243855D02*
X86407143Y-99358140D01*
X86407143Y-99358140D02*
X86483333Y-99434331D01*
X86483333Y-99434331D02*
X86559524Y-99472426D01*
X85378571Y-99243855D02*
X85759523Y-99243855D01*
X85759523Y-99243855D02*
X85797619Y-99624807D01*
X85797619Y-99624807D02*
X85759523Y-99586712D01*
X85759523Y-99586712D02*
X85683333Y-99548617D01*
X85683333Y-99548617D02*
X85492857Y-99548617D01*
X85492857Y-99548617D02*
X85416666Y-99586712D01*
X85416666Y-99586712D02*
X85378571Y-99624807D01*
X85378571Y-99624807D02*
X85340476Y-99700998D01*
X85340476Y-99700998D02*
X85340476Y-99891474D01*
X85340476Y-99891474D02*
X85378571Y-99967664D01*
X85378571Y-99967664D02*
X85416666Y-100005760D01*
X85416666Y-100005760D02*
X85492857Y-100043855D01*
X85492857Y-100043855D02*
X85683333Y-100043855D01*
X85683333Y-100043855D02*
X85759523Y-100005760D01*
X85759523Y-100005760D02*
X85797619Y-99967664D01*
X86940475Y-61943855D02*
X86940475Y-61143855D01*
X86940475Y-61143855D02*
X86749999Y-61143855D01*
X86749999Y-61143855D02*
X86635713Y-61181950D01*
X86635713Y-61181950D02*
X86559523Y-61258140D01*
X86559523Y-61258140D02*
X86521428Y-61334331D01*
X86521428Y-61334331D02*
X86483332Y-61486712D01*
X86483332Y-61486712D02*
X86483332Y-61600998D01*
X86483332Y-61600998D02*
X86521428Y-61753379D01*
X86521428Y-61753379D02*
X86559523Y-61829569D01*
X86559523Y-61829569D02*
X86635713Y-61905760D01*
X86635713Y-61905760D02*
X86749999Y-61943855D01*
X86749999Y-61943855D02*
X86940475Y-61943855D01*
X86178571Y-61220045D02*
X86140475Y-61181950D01*
X86140475Y-61181950D02*
X86064285Y-61143855D01*
X86064285Y-61143855D02*
X85873809Y-61143855D01*
X85873809Y-61143855D02*
X85797618Y-61181950D01*
X85797618Y-61181950D02*
X85759523Y-61220045D01*
X85759523Y-61220045D02*
X85721428Y-61296236D01*
X85721428Y-61296236D02*
X85721428Y-61372426D01*
X85721428Y-61372426D02*
X85759523Y-61486712D01*
X85759523Y-61486712D02*
X86216666Y-61943855D01*
X86216666Y-61943855D02*
X85721428Y-61943855D01*
X144471428Y-121951355D02*
X144471428Y-121151355D01*
X144471428Y-121151355D02*
X144280952Y-121151355D01*
X144280952Y-121151355D02*
X144166666Y-121189450D01*
X144166666Y-121189450D02*
X144090476Y-121265640D01*
X144090476Y-121265640D02*
X144052381Y-121341831D01*
X144052381Y-121341831D02*
X144014285Y-121494212D01*
X144014285Y-121494212D02*
X144014285Y-121608498D01*
X144014285Y-121608498D02*
X144052381Y-121760879D01*
X144052381Y-121760879D02*
X144090476Y-121837069D01*
X144090476Y-121837069D02*
X144166666Y-121913260D01*
X144166666Y-121913260D02*
X144280952Y-121951355D01*
X144280952Y-121951355D02*
X144471428Y-121951355D01*
X143709524Y-121227545D02*
X143671428Y-121189450D01*
X143671428Y-121189450D02*
X143595238Y-121151355D01*
X143595238Y-121151355D02*
X143404762Y-121151355D01*
X143404762Y-121151355D02*
X143328571Y-121189450D01*
X143328571Y-121189450D02*
X143290476Y-121227545D01*
X143290476Y-121227545D02*
X143252381Y-121303736D01*
X143252381Y-121303736D02*
X143252381Y-121379926D01*
X143252381Y-121379926D02*
X143290476Y-121494212D01*
X143290476Y-121494212D02*
X143747619Y-121951355D01*
X143747619Y-121951355D02*
X143252381Y-121951355D01*
X142566666Y-121418021D02*
X142566666Y-121951355D01*
X142757142Y-121113260D02*
X142947619Y-121684688D01*
X142947619Y-121684688D02*
X142452380Y-121684688D01*
X125040475Y-80993855D02*
X125040475Y-80193855D01*
X125040475Y-80193855D02*
X124849999Y-80193855D01*
X124849999Y-80193855D02*
X124735713Y-80231950D01*
X124735713Y-80231950D02*
X124659523Y-80308140D01*
X124659523Y-80308140D02*
X124621428Y-80384331D01*
X124621428Y-80384331D02*
X124583332Y-80536712D01*
X124583332Y-80536712D02*
X124583332Y-80650998D01*
X124583332Y-80650998D02*
X124621428Y-80803379D01*
X124621428Y-80803379D02*
X124659523Y-80879569D01*
X124659523Y-80879569D02*
X124735713Y-80955760D01*
X124735713Y-80955760D02*
X124849999Y-80993855D01*
X124849999Y-80993855D02*
X125040475Y-80993855D01*
X124202380Y-80993855D02*
X124049999Y-80993855D01*
X124049999Y-80993855D02*
X123973809Y-80955760D01*
X123973809Y-80955760D02*
X123935713Y-80917664D01*
X123935713Y-80917664D02*
X123859523Y-80803379D01*
X123859523Y-80803379D02*
X123821428Y-80650998D01*
X123821428Y-80650998D02*
X123821428Y-80346236D01*
X123821428Y-80346236D02*
X123859523Y-80270045D01*
X123859523Y-80270045D02*
X123897618Y-80231950D01*
X123897618Y-80231950D02*
X123973809Y-80193855D01*
X123973809Y-80193855D02*
X124126190Y-80193855D01*
X124126190Y-80193855D02*
X124202380Y-80231950D01*
X124202380Y-80231950D02*
X124240475Y-80270045D01*
X124240475Y-80270045D02*
X124278571Y-80346236D01*
X124278571Y-80346236D02*
X124278571Y-80536712D01*
X124278571Y-80536712D02*
X124240475Y-80612902D01*
X124240475Y-80612902D02*
X124202380Y-80650998D01*
X124202380Y-80650998D02*
X124126190Y-80689093D01*
X124126190Y-80689093D02*
X123973809Y-80689093D01*
X123973809Y-80689093D02*
X123897618Y-80650998D01*
X123897618Y-80650998D02*
X123859523Y-80612902D01*
X123859523Y-80612902D02*
X123821428Y-80536712D01*
X163521428Y-121951355D02*
X163521428Y-121151355D01*
X163521428Y-121151355D02*
X163330952Y-121151355D01*
X163330952Y-121151355D02*
X163216666Y-121189450D01*
X163216666Y-121189450D02*
X163140476Y-121265640D01*
X163140476Y-121265640D02*
X163102381Y-121341831D01*
X163102381Y-121341831D02*
X163064285Y-121494212D01*
X163064285Y-121494212D02*
X163064285Y-121608498D01*
X163064285Y-121608498D02*
X163102381Y-121760879D01*
X163102381Y-121760879D02*
X163140476Y-121837069D01*
X163140476Y-121837069D02*
X163216666Y-121913260D01*
X163216666Y-121913260D02*
X163330952Y-121951355D01*
X163330952Y-121951355D02*
X163521428Y-121951355D01*
X162759524Y-121227545D02*
X162721428Y-121189450D01*
X162721428Y-121189450D02*
X162645238Y-121151355D01*
X162645238Y-121151355D02*
X162454762Y-121151355D01*
X162454762Y-121151355D02*
X162378571Y-121189450D01*
X162378571Y-121189450D02*
X162340476Y-121227545D01*
X162340476Y-121227545D02*
X162302381Y-121303736D01*
X162302381Y-121303736D02*
X162302381Y-121379926D01*
X162302381Y-121379926D02*
X162340476Y-121494212D01*
X162340476Y-121494212D02*
X162797619Y-121951355D01*
X162797619Y-121951355D02*
X162302381Y-121951355D01*
X161578571Y-121151355D02*
X161959523Y-121151355D01*
X161959523Y-121151355D02*
X161997619Y-121532307D01*
X161997619Y-121532307D02*
X161959523Y-121494212D01*
X161959523Y-121494212D02*
X161883333Y-121456117D01*
X161883333Y-121456117D02*
X161692857Y-121456117D01*
X161692857Y-121456117D02*
X161616666Y-121494212D01*
X161616666Y-121494212D02*
X161578571Y-121532307D01*
X161578571Y-121532307D02*
X161540476Y-121608498D01*
X161540476Y-121608498D02*
X161540476Y-121798974D01*
X161540476Y-121798974D02*
X161578571Y-121875164D01*
X161578571Y-121875164D02*
X161616666Y-121913260D01*
X161616666Y-121913260D02*
X161692857Y-121951355D01*
X161692857Y-121951355D02*
X161883333Y-121951355D01*
X161883333Y-121951355D02*
X161959523Y-121913260D01*
X161959523Y-121913260D02*
X161997619Y-121875164D01*
X68271428Y-88613855D02*
X68271428Y-87813855D01*
X68271428Y-87813855D02*
X68080952Y-87813855D01*
X68080952Y-87813855D02*
X67966666Y-87851950D01*
X67966666Y-87851950D02*
X67890476Y-87928140D01*
X67890476Y-87928140D02*
X67852381Y-88004331D01*
X67852381Y-88004331D02*
X67814285Y-88156712D01*
X67814285Y-88156712D02*
X67814285Y-88270998D01*
X67814285Y-88270998D02*
X67852381Y-88423379D01*
X67852381Y-88423379D02*
X67890476Y-88499569D01*
X67890476Y-88499569D02*
X67966666Y-88575760D01*
X67966666Y-88575760D02*
X68080952Y-88613855D01*
X68080952Y-88613855D02*
X68271428Y-88613855D01*
X67052381Y-88613855D02*
X67509524Y-88613855D01*
X67280952Y-88613855D02*
X67280952Y-87813855D01*
X67280952Y-87813855D02*
X67357143Y-87928140D01*
X67357143Y-87928140D02*
X67433333Y-88004331D01*
X67433333Y-88004331D02*
X67509524Y-88042426D01*
X66747619Y-87890045D02*
X66709523Y-87851950D01*
X66709523Y-87851950D02*
X66633333Y-87813855D01*
X66633333Y-87813855D02*
X66442857Y-87813855D01*
X66442857Y-87813855D02*
X66366666Y-87851950D01*
X66366666Y-87851950D02*
X66328571Y-87890045D01*
X66328571Y-87890045D02*
X66290476Y-87966236D01*
X66290476Y-87966236D02*
X66290476Y-88042426D01*
X66290476Y-88042426D02*
X66328571Y-88156712D01*
X66328571Y-88156712D02*
X66785714Y-88613855D01*
X66785714Y-88613855D02*
X66290476Y-88613855D01*
X163521428Y-102901355D02*
X163521428Y-102101355D01*
X163521428Y-102101355D02*
X163330952Y-102101355D01*
X163330952Y-102101355D02*
X163216666Y-102139450D01*
X163216666Y-102139450D02*
X163140476Y-102215640D01*
X163140476Y-102215640D02*
X163102381Y-102291831D01*
X163102381Y-102291831D02*
X163064285Y-102444212D01*
X163064285Y-102444212D02*
X163064285Y-102558498D01*
X163064285Y-102558498D02*
X163102381Y-102710879D01*
X163102381Y-102710879D02*
X163140476Y-102787069D01*
X163140476Y-102787069D02*
X163216666Y-102863260D01*
X163216666Y-102863260D02*
X163330952Y-102901355D01*
X163330952Y-102901355D02*
X163521428Y-102901355D01*
X162302381Y-102901355D02*
X162759524Y-102901355D01*
X162530952Y-102901355D02*
X162530952Y-102101355D01*
X162530952Y-102101355D02*
X162607143Y-102215640D01*
X162607143Y-102215640D02*
X162683333Y-102291831D01*
X162683333Y-102291831D02*
X162759524Y-102329926D01*
X161845238Y-102444212D02*
X161921428Y-102406117D01*
X161921428Y-102406117D02*
X161959523Y-102368021D01*
X161959523Y-102368021D02*
X161997619Y-102291831D01*
X161997619Y-102291831D02*
X161997619Y-102253736D01*
X161997619Y-102253736D02*
X161959523Y-102177545D01*
X161959523Y-102177545D02*
X161921428Y-102139450D01*
X161921428Y-102139450D02*
X161845238Y-102101355D01*
X161845238Y-102101355D02*
X161692857Y-102101355D01*
X161692857Y-102101355D02*
X161616666Y-102139450D01*
X161616666Y-102139450D02*
X161578571Y-102177545D01*
X161578571Y-102177545D02*
X161540476Y-102253736D01*
X161540476Y-102253736D02*
X161540476Y-102291831D01*
X161540476Y-102291831D02*
X161578571Y-102368021D01*
X161578571Y-102368021D02*
X161616666Y-102406117D01*
X161616666Y-102406117D02*
X161692857Y-102444212D01*
X161692857Y-102444212D02*
X161845238Y-102444212D01*
X161845238Y-102444212D02*
X161921428Y-102482307D01*
X161921428Y-102482307D02*
X161959523Y-102520402D01*
X161959523Y-102520402D02*
X161997619Y-102596593D01*
X161997619Y-102596593D02*
X161997619Y-102748974D01*
X161997619Y-102748974D02*
X161959523Y-102825164D01*
X161959523Y-102825164D02*
X161921428Y-102863260D01*
X161921428Y-102863260D02*
X161845238Y-102901355D01*
X161845238Y-102901355D02*
X161692857Y-102901355D01*
X161692857Y-102901355D02*
X161616666Y-102863260D01*
X161616666Y-102863260D02*
X161578571Y-102825164D01*
X161578571Y-102825164D02*
X161540476Y-102748974D01*
X161540476Y-102748974D02*
X161540476Y-102596593D01*
X161540476Y-102596593D02*
X161578571Y-102520402D01*
X161578571Y-102520402D02*
X161616666Y-102482307D01*
X161616666Y-102482307D02*
X161692857Y-102444212D01*
X49471428Y-131476355D02*
X49471428Y-130676355D01*
X49471428Y-130676355D02*
X49280952Y-130676355D01*
X49280952Y-130676355D02*
X49166666Y-130714450D01*
X49166666Y-130714450D02*
X49090476Y-130790640D01*
X49090476Y-130790640D02*
X49052381Y-130866831D01*
X49052381Y-130866831D02*
X49014285Y-131019212D01*
X49014285Y-131019212D02*
X49014285Y-131133498D01*
X49014285Y-131133498D02*
X49052381Y-131285879D01*
X49052381Y-131285879D02*
X49090476Y-131362069D01*
X49090476Y-131362069D02*
X49166666Y-131438260D01*
X49166666Y-131438260D02*
X49280952Y-131476355D01*
X49280952Y-131476355D02*
X49471428Y-131476355D01*
X48709524Y-130752545D02*
X48671428Y-130714450D01*
X48671428Y-130714450D02*
X48595238Y-130676355D01*
X48595238Y-130676355D02*
X48404762Y-130676355D01*
X48404762Y-130676355D02*
X48328571Y-130714450D01*
X48328571Y-130714450D02*
X48290476Y-130752545D01*
X48290476Y-130752545D02*
X48252381Y-130828736D01*
X48252381Y-130828736D02*
X48252381Y-130904926D01*
X48252381Y-130904926D02*
X48290476Y-131019212D01*
X48290476Y-131019212D02*
X48747619Y-131476355D01*
X48747619Y-131476355D02*
X48252381Y-131476355D01*
X47985714Y-130676355D02*
X47452380Y-130676355D01*
X47452380Y-130676355D02*
X47795238Y-131476355D01*
X144090475Y-64801355D02*
X144090475Y-64001355D01*
X144090475Y-64001355D02*
X143899999Y-64001355D01*
X143899999Y-64001355D02*
X143785713Y-64039450D01*
X143785713Y-64039450D02*
X143709523Y-64115640D01*
X143709523Y-64115640D02*
X143671428Y-64191831D01*
X143671428Y-64191831D02*
X143633332Y-64344212D01*
X143633332Y-64344212D02*
X143633332Y-64458498D01*
X143633332Y-64458498D02*
X143671428Y-64610879D01*
X143671428Y-64610879D02*
X143709523Y-64687069D01*
X143709523Y-64687069D02*
X143785713Y-64763260D01*
X143785713Y-64763260D02*
X143899999Y-64801355D01*
X143899999Y-64801355D02*
X144090475Y-64801355D01*
X142947618Y-64268021D02*
X142947618Y-64801355D01*
X143138094Y-63963260D02*
X143328571Y-64534688D01*
X143328571Y-64534688D02*
X142833332Y-64534688D01*
X45111428Y-110426355D02*
X45111428Y-109626355D01*
X45111428Y-109626355D02*
X44920952Y-109626355D01*
X44920952Y-109626355D02*
X44806666Y-109664450D01*
X44806666Y-109664450D02*
X44730476Y-109740640D01*
X44730476Y-109740640D02*
X44692381Y-109816831D01*
X44692381Y-109816831D02*
X44654285Y-109969212D01*
X44654285Y-109969212D02*
X44654285Y-110083498D01*
X44654285Y-110083498D02*
X44692381Y-110235879D01*
X44692381Y-110235879D02*
X44730476Y-110312069D01*
X44730476Y-110312069D02*
X44806666Y-110388260D01*
X44806666Y-110388260D02*
X44920952Y-110426355D01*
X44920952Y-110426355D02*
X45111428Y-110426355D01*
X44349524Y-109702545D02*
X44311428Y-109664450D01*
X44311428Y-109664450D02*
X44235238Y-109626355D01*
X44235238Y-109626355D02*
X44044762Y-109626355D01*
X44044762Y-109626355D02*
X43968571Y-109664450D01*
X43968571Y-109664450D02*
X43930476Y-109702545D01*
X43930476Y-109702545D02*
X43892381Y-109778736D01*
X43892381Y-109778736D02*
X43892381Y-109854926D01*
X43892381Y-109854926D02*
X43930476Y-109969212D01*
X43930476Y-109969212D02*
X44387619Y-110426355D01*
X44387619Y-110426355D02*
X43892381Y-110426355D01*
X43397142Y-109626355D02*
X43320952Y-109626355D01*
X43320952Y-109626355D02*
X43244761Y-109664450D01*
X43244761Y-109664450D02*
X43206666Y-109702545D01*
X43206666Y-109702545D02*
X43168571Y-109778736D01*
X43168571Y-109778736D02*
X43130476Y-109931117D01*
X43130476Y-109931117D02*
X43130476Y-110121593D01*
X43130476Y-110121593D02*
X43168571Y-110273974D01*
X43168571Y-110273974D02*
X43206666Y-110350164D01*
X43206666Y-110350164D02*
X43244761Y-110388260D01*
X43244761Y-110388260D02*
X43320952Y-110426355D01*
X43320952Y-110426355D02*
X43397142Y-110426355D01*
X43397142Y-110426355D02*
X43473333Y-110388260D01*
X43473333Y-110388260D02*
X43511428Y-110350164D01*
X43511428Y-110350164D02*
X43549523Y-110273974D01*
X43549523Y-110273974D02*
X43587619Y-110121593D01*
X43587619Y-110121593D02*
X43587619Y-109931117D01*
X43587619Y-109931117D02*
X43549523Y-109778736D01*
X43549523Y-109778736D02*
X43511428Y-109702545D01*
X43511428Y-109702545D02*
X43473333Y-109664450D01*
X43473333Y-109664450D02*
X43397142Y-109626355D01*
X106371428Y-116236355D02*
X106371428Y-115436355D01*
X106371428Y-115436355D02*
X106180952Y-115436355D01*
X106180952Y-115436355D02*
X106066666Y-115474450D01*
X106066666Y-115474450D02*
X105990476Y-115550640D01*
X105990476Y-115550640D02*
X105952381Y-115626831D01*
X105952381Y-115626831D02*
X105914285Y-115779212D01*
X105914285Y-115779212D02*
X105914285Y-115893498D01*
X105914285Y-115893498D02*
X105952381Y-116045879D01*
X105952381Y-116045879D02*
X105990476Y-116122069D01*
X105990476Y-116122069D02*
X106066666Y-116198260D01*
X106066666Y-116198260D02*
X106180952Y-116236355D01*
X106180952Y-116236355D02*
X106371428Y-116236355D01*
X105609524Y-115512545D02*
X105571428Y-115474450D01*
X105571428Y-115474450D02*
X105495238Y-115436355D01*
X105495238Y-115436355D02*
X105304762Y-115436355D01*
X105304762Y-115436355D02*
X105228571Y-115474450D01*
X105228571Y-115474450D02*
X105190476Y-115512545D01*
X105190476Y-115512545D02*
X105152381Y-115588736D01*
X105152381Y-115588736D02*
X105152381Y-115664926D01*
X105152381Y-115664926D02*
X105190476Y-115779212D01*
X105190476Y-115779212D02*
X105647619Y-116236355D01*
X105647619Y-116236355D02*
X105152381Y-116236355D01*
X104390476Y-116236355D02*
X104847619Y-116236355D01*
X104619047Y-116236355D02*
X104619047Y-115436355D01*
X104619047Y-115436355D02*
X104695238Y-115550640D01*
X104695238Y-115550640D02*
X104771428Y-115626831D01*
X104771428Y-115626831D02*
X104847619Y-115664926D01*
X144471428Y-83851355D02*
X144471428Y-83051355D01*
X144471428Y-83051355D02*
X144280952Y-83051355D01*
X144280952Y-83051355D02*
X144166666Y-83089450D01*
X144166666Y-83089450D02*
X144090476Y-83165640D01*
X144090476Y-83165640D02*
X144052381Y-83241831D01*
X144052381Y-83241831D02*
X144014285Y-83394212D01*
X144014285Y-83394212D02*
X144014285Y-83508498D01*
X144014285Y-83508498D02*
X144052381Y-83660879D01*
X144052381Y-83660879D02*
X144090476Y-83737069D01*
X144090476Y-83737069D02*
X144166666Y-83813260D01*
X144166666Y-83813260D02*
X144280952Y-83851355D01*
X144280952Y-83851355D02*
X144471428Y-83851355D01*
X143252381Y-83851355D02*
X143709524Y-83851355D01*
X143480952Y-83851355D02*
X143480952Y-83051355D01*
X143480952Y-83051355D02*
X143557143Y-83165640D01*
X143557143Y-83165640D02*
X143633333Y-83241831D01*
X143633333Y-83241831D02*
X143709524Y-83279926D01*
X142757142Y-83051355D02*
X142680952Y-83051355D01*
X142680952Y-83051355D02*
X142604761Y-83089450D01*
X142604761Y-83089450D02*
X142566666Y-83127545D01*
X142566666Y-83127545D02*
X142528571Y-83203736D01*
X142528571Y-83203736D02*
X142490476Y-83356117D01*
X142490476Y-83356117D02*
X142490476Y-83546593D01*
X142490476Y-83546593D02*
X142528571Y-83698974D01*
X142528571Y-83698974D02*
X142566666Y-83775164D01*
X142566666Y-83775164D02*
X142604761Y-83813260D01*
X142604761Y-83813260D02*
X142680952Y-83851355D01*
X142680952Y-83851355D02*
X142757142Y-83851355D01*
X142757142Y-83851355D02*
X142833333Y-83813260D01*
X142833333Y-83813260D02*
X142871428Y-83775164D01*
X142871428Y-83775164D02*
X142909523Y-83698974D01*
X142909523Y-83698974D02*
X142947619Y-83546593D01*
X142947619Y-83546593D02*
X142947619Y-83356117D01*
X142947619Y-83356117D02*
X142909523Y-83203736D01*
X142909523Y-83203736D02*
X142871428Y-83127545D01*
X142871428Y-83127545D02*
X142833333Y-83089450D01*
X142833333Y-83089450D02*
X142757142Y-83051355D01*
X67890475Y-69563855D02*
X67890475Y-68763855D01*
X67890475Y-68763855D02*
X67699999Y-68763855D01*
X67699999Y-68763855D02*
X67585713Y-68801950D01*
X67585713Y-68801950D02*
X67509523Y-68878140D01*
X67509523Y-68878140D02*
X67471428Y-68954331D01*
X67471428Y-68954331D02*
X67433332Y-69106712D01*
X67433332Y-69106712D02*
X67433332Y-69220998D01*
X67433332Y-69220998D02*
X67471428Y-69373379D01*
X67471428Y-69373379D02*
X67509523Y-69449569D01*
X67509523Y-69449569D02*
X67585713Y-69525760D01*
X67585713Y-69525760D02*
X67699999Y-69563855D01*
X67699999Y-69563855D02*
X67890475Y-69563855D01*
X66709523Y-68763855D02*
X67090475Y-68763855D01*
X67090475Y-68763855D02*
X67128571Y-69144807D01*
X67128571Y-69144807D02*
X67090475Y-69106712D01*
X67090475Y-69106712D02*
X67014285Y-69068617D01*
X67014285Y-69068617D02*
X66823809Y-69068617D01*
X66823809Y-69068617D02*
X66747618Y-69106712D01*
X66747618Y-69106712D02*
X66709523Y-69144807D01*
X66709523Y-69144807D02*
X66671428Y-69220998D01*
X66671428Y-69220998D02*
X66671428Y-69411474D01*
X66671428Y-69411474D02*
X66709523Y-69487664D01*
X66709523Y-69487664D02*
X66747618Y-69525760D01*
X66747618Y-69525760D02*
X66823809Y-69563855D01*
X66823809Y-69563855D02*
X67014285Y-69563855D01*
X67014285Y-69563855D02*
X67090475Y-69525760D01*
X67090475Y-69525760D02*
X67128571Y-69487664D01*
X106371428Y-97186355D02*
X106371428Y-96386355D01*
X106371428Y-96386355D02*
X106180952Y-96386355D01*
X106180952Y-96386355D02*
X106066666Y-96424450D01*
X106066666Y-96424450D02*
X105990476Y-96500640D01*
X105990476Y-96500640D02*
X105952381Y-96576831D01*
X105952381Y-96576831D02*
X105914285Y-96729212D01*
X105914285Y-96729212D02*
X105914285Y-96843498D01*
X105914285Y-96843498D02*
X105952381Y-96995879D01*
X105952381Y-96995879D02*
X105990476Y-97072069D01*
X105990476Y-97072069D02*
X106066666Y-97148260D01*
X106066666Y-97148260D02*
X106180952Y-97186355D01*
X106180952Y-97186355D02*
X106371428Y-97186355D01*
X105152381Y-97186355D02*
X105609524Y-97186355D01*
X105380952Y-97186355D02*
X105380952Y-96386355D01*
X105380952Y-96386355D02*
X105457143Y-96500640D01*
X105457143Y-96500640D02*
X105533333Y-96576831D01*
X105533333Y-96576831D02*
X105609524Y-96614926D01*
X104466666Y-96653021D02*
X104466666Y-97186355D01*
X104657142Y-96348260D02*
X104847619Y-96919688D01*
X104847619Y-96919688D02*
X104352380Y-96919688D01*
X125421428Y-119093855D02*
X125421428Y-118293855D01*
X125421428Y-118293855D02*
X125230952Y-118293855D01*
X125230952Y-118293855D02*
X125116666Y-118331950D01*
X125116666Y-118331950D02*
X125040476Y-118408140D01*
X125040476Y-118408140D02*
X125002381Y-118484331D01*
X125002381Y-118484331D02*
X124964285Y-118636712D01*
X124964285Y-118636712D02*
X124964285Y-118750998D01*
X124964285Y-118750998D02*
X125002381Y-118903379D01*
X125002381Y-118903379D02*
X125040476Y-118979569D01*
X125040476Y-118979569D02*
X125116666Y-119055760D01*
X125116666Y-119055760D02*
X125230952Y-119093855D01*
X125230952Y-119093855D02*
X125421428Y-119093855D01*
X124659524Y-118370045D02*
X124621428Y-118331950D01*
X124621428Y-118331950D02*
X124545238Y-118293855D01*
X124545238Y-118293855D02*
X124354762Y-118293855D01*
X124354762Y-118293855D02*
X124278571Y-118331950D01*
X124278571Y-118331950D02*
X124240476Y-118370045D01*
X124240476Y-118370045D02*
X124202381Y-118446236D01*
X124202381Y-118446236D02*
X124202381Y-118522426D01*
X124202381Y-118522426D02*
X124240476Y-118636712D01*
X124240476Y-118636712D02*
X124697619Y-119093855D01*
X124697619Y-119093855D02*
X124202381Y-119093855D01*
X123935714Y-118293855D02*
X123440476Y-118293855D01*
X123440476Y-118293855D02*
X123707142Y-118598617D01*
X123707142Y-118598617D02*
X123592857Y-118598617D01*
X123592857Y-118598617D02*
X123516666Y-118636712D01*
X123516666Y-118636712D02*
X123478571Y-118674807D01*
X123478571Y-118674807D02*
X123440476Y-118750998D01*
X123440476Y-118750998D02*
X123440476Y-118941474D01*
X123440476Y-118941474D02*
X123478571Y-119017664D01*
X123478571Y-119017664D02*
X123516666Y-119055760D01*
X123516666Y-119055760D02*
X123592857Y-119093855D01*
X123592857Y-119093855D02*
X123821428Y-119093855D01*
X123821428Y-119093855D02*
X123897619Y-119055760D01*
X123897619Y-119055760D02*
X123935714Y-119017664D01*
X87321428Y-119093855D02*
X87321428Y-118293855D01*
X87321428Y-118293855D02*
X87130952Y-118293855D01*
X87130952Y-118293855D02*
X87016666Y-118331950D01*
X87016666Y-118331950D02*
X86940476Y-118408140D01*
X86940476Y-118408140D02*
X86902381Y-118484331D01*
X86902381Y-118484331D02*
X86864285Y-118636712D01*
X86864285Y-118636712D02*
X86864285Y-118750998D01*
X86864285Y-118750998D02*
X86902381Y-118903379D01*
X86902381Y-118903379D02*
X86940476Y-118979569D01*
X86940476Y-118979569D02*
X87016666Y-119055760D01*
X87016666Y-119055760D02*
X87130952Y-119093855D01*
X87130952Y-119093855D02*
X87321428Y-119093855D01*
X86559524Y-118370045D02*
X86521428Y-118331950D01*
X86521428Y-118331950D02*
X86445238Y-118293855D01*
X86445238Y-118293855D02*
X86254762Y-118293855D01*
X86254762Y-118293855D02*
X86178571Y-118331950D01*
X86178571Y-118331950D02*
X86140476Y-118370045D01*
X86140476Y-118370045D02*
X86102381Y-118446236D01*
X86102381Y-118446236D02*
X86102381Y-118522426D01*
X86102381Y-118522426D02*
X86140476Y-118636712D01*
X86140476Y-118636712D02*
X86597619Y-119093855D01*
X86597619Y-119093855D02*
X86102381Y-119093855D01*
X85797619Y-118370045D02*
X85759523Y-118331950D01*
X85759523Y-118331950D02*
X85683333Y-118293855D01*
X85683333Y-118293855D02*
X85492857Y-118293855D01*
X85492857Y-118293855D02*
X85416666Y-118331950D01*
X85416666Y-118331950D02*
X85378571Y-118370045D01*
X85378571Y-118370045D02*
X85340476Y-118446236D01*
X85340476Y-118446236D02*
X85340476Y-118522426D01*
X85340476Y-118522426D02*
X85378571Y-118636712D01*
X85378571Y-118636712D02*
X85835714Y-119093855D01*
X85835714Y-119093855D02*
X85340476Y-119093855D01*
X105990475Y-59086355D02*
X105990475Y-58286355D01*
X105990475Y-58286355D02*
X105799999Y-58286355D01*
X105799999Y-58286355D02*
X105685713Y-58324450D01*
X105685713Y-58324450D02*
X105609523Y-58400640D01*
X105609523Y-58400640D02*
X105571428Y-58476831D01*
X105571428Y-58476831D02*
X105533332Y-58629212D01*
X105533332Y-58629212D02*
X105533332Y-58743498D01*
X105533332Y-58743498D02*
X105571428Y-58895879D01*
X105571428Y-58895879D02*
X105609523Y-58972069D01*
X105609523Y-58972069D02*
X105685713Y-59048260D01*
X105685713Y-59048260D02*
X105799999Y-59086355D01*
X105799999Y-59086355D02*
X105990475Y-59086355D01*
X104771428Y-59086355D02*
X105228571Y-59086355D01*
X104999999Y-59086355D02*
X104999999Y-58286355D01*
X104999999Y-58286355D02*
X105076190Y-58400640D01*
X105076190Y-58400640D02*
X105152380Y-58476831D01*
X105152380Y-58476831D02*
X105228571Y-58514926D01*
X48840475Y-74326355D02*
X48840475Y-73526355D01*
X48840475Y-73526355D02*
X48649999Y-73526355D01*
X48649999Y-73526355D02*
X48535713Y-73564450D01*
X48535713Y-73564450D02*
X48459523Y-73640640D01*
X48459523Y-73640640D02*
X48421428Y-73716831D01*
X48421428Y-73716831D02*
X48383332Y-73869212D01*
X48383332Y-73869212D02*
X48383332Y-73983498D01*
X48383332Y-73983498D02*
X48421428Y-74135879D01*
X48421428Y-74135879D02*
X48459523Y-74212069D01*
X48459523Y-74212069D02*
X48535713Y-74288260D01*
X48535713Y-74288260D02*
X48649999Y-74326355D01*
X48649999Y-74326355D02*
X48840475Y-74326355D01*
X47697618Y-73526355D02*
X47849999Y-73526355D01*
X47849999Y-73526355D02*
X47926190Y-73564450D01*
X47926190Y-73564450D02*
X47964285Y-73602545D01*
X47964285Y-73602545D02*
X48040475Y-73716831D01*
X48040475Y-73716831D02*
X48078571Y-73869212D01*
X48078571Y-73869212D02*
X48078571Y-74173974D01*
X48078571Y-74173974D02*
X48040475Y-74250164D01*
X48040475Y-74250164D02*
X48002380Y-74288260D01*
X48002380Y-74288260D02*
X47926190Y-74326355D01*
X47926190Y-74326355D02*
X47773809Y-74326355D01*
X47773809Y-74326355D02*
X47697618Y-74288260D01*
X47697618Y-74288260D02*
X47659523Y-74250164D01*
X47659523Y-74250164D02*
X47621428Y-74173974D01*
X47621428Y-74173974D02*
X47621428Y-73983498D01*
X47621428Y-73983498D02*
X47659523Y-73907307D01*
X47659523Y-73907307D02*
X47697618Y-73869212D01*
X47697618Y-73869212D02*
X47773809Y-73831117D01*
X47773809Y-73831117D02*
X47926190Y-73831117D01*
X47926190Y-73831117D02*
X48002380Y-73869212D01*
X48002380Y-73869212D02*
X48040475Y-73907307D01*
X48040475Y-73907307D02*
X48078571Y-73983498D01*
X144471428Y-102901355D02*
X144471428Y-102101355D01*
X144471428Y-102101355D02*
X144280952Y-102101355D01*
X144280952Y-102101355D02*
X144166666Y-102139450D01*
X144166666Y-102139450D02*
X144090476Y-102215640D01*
X144090476Y-102215640D02*
X144052381Y-102291831D01*
X144052381Y-102291831D02*
X144014285Y-102444212D01*
X144014285Y-102444212D02*
X144014285Y-102558498D01*
X144014285Y-102558498D02*
X144052381Y-102710879D01*
X144052381Y-102710879D02*
X144090476Y-102787069D01*
X144090476Y-102787069D02*
X144166666Y-102863260D01*
X144166666Y-102863260D02*
X144280952Y-102901355D01*
X144280952Y-102901355D02*
X144471428Y-102901355D01*
X143252381Y-102901355D02*
X143709524Y-102901355D01*
X143480952Y-102901355D02*
X143480952Y-102101355D01*
X143480952Y-102101355D02*
X143557143Y-102215640D01*
X143557143Y-102215640D02*
X143633333Y-102291831D01*
X143633333Y-102291831D02*
X143709524Y-102329926D01*
X142985714Y-102101355D02*
X142452380Y-102101355D01*
X142452380Y-102101355D02*
X142795238Y-102901355D01*
X106421428Y-138143855D02*
X106421428Y-137343855D01*
X106421428Y-137343855D02*
X106230952Y-137343855D01*
X106230952Y-137343855D02*
X106116666Y-137381950D01*
X106116666Y-137381950D02*
X106040476Y-137458140D01*
X106040476Y-137458140D02*
X106002381Y-137534331D01*
X106002381Y-137534331D02*
X105964285Y-137686712D01*
X105964285Y-137686712D02*
X105964285Y-137800998D01*
X105964285Y-137800998D02*
X106002381Y-137953379D01*
X106002381Y-137953379D02*
X106040476Y-138029569D01*
X106040476Y-138029569D02*
X106116666Y-138105760D01*
X106116666Y-138105760D02*
X106230952Y-138143855D01*
X106230952Y-138143855D02*
X106421428Y-138143855D01*
X105659524Y-137420045D02*
X105621428Y-137381950D01*
X105621428Y-137381950D02*
X105545238Y-137343855D01*
X105545238Y-137343855D02*
X105354762Y-137343855D01*
X105354762Y-137343855D02*
X105278571Y-137381950D01*
X105278571Y-137381950D02*
X105240476Y-137420045D01*
X105240476Y-137420045D02*
X105202381Y-137496236D01*
X105202381Y-137496236D02*
X105202381Y-137572426D01*
X105202381Y-137572426D02*
X105240476Y-137686712D01*
X105240476Y-137686712D02*
X105697619Y-138143855D01*
X105697619Y-138143855D02*
X105202381Y-138143855D01*
X104745238Y-137686712D02*
X104821428Y-137648617D01*
X104821428Y-137648617D02*
X104859523Y-137610521D01*
X104859523Y-137610521D02*
X104897619Y-137534331D01*
X104897619Y-137534331D02*
X104897619Y-137496236D01*
X104897619Y-137496236D02*
X104859523Y-137420045D01*
X104859523Y-137420045D02*
X104821428Y-137381950D01*
X104821428Y-137381950D02*
X104745238Y-137343855D01*
X104745238Y-137343855D02*
X104592857Y-137343855D01*
X104592857Y-137343855D02*
X104516666Y-137381950D01*
X104516666Y-137381950D02*
X104478571Y-137420045D01*
X104478571Y-137420045D02*
X104440476Y-137496236D01*
X104440476Y-137496236D02*
X104440476Y-137534331D01*
X104440476Y-137534331D02*
X104478571Y-137610521D01*
X104478571Y-137610521D02*
X104516666Y-137648617D01*
X104516666Y-137648617D02*
X104592857Y-137686712D01*
X104592857Y-137686712D02*
X104745238Y-137686712D01*
X104745238Y-137686712D02*
X104821428Y-137724807D01*
X104821428Y-137724807D02*
X104859523Y-137762902D01*
X104859523Y-137762902D02*
X104897619Y-137839093D01*
X104897619Y-137839093D02*
X104897619Y-137991474D01*
X104897619Y-137991474D02*
X104859523Y-138067664D01*
X104859523Y-138067664D02*
X104821428Y-138105760D01*
X104821428Y-138105760D02*
X104745238Y-138143855D01*
X104745238Y-138143855D02*
X104592857Y-138143855D01*
X104592857Y-138143855D02*
X104516666Y-138105760D01*
X104516666Y-138105760D02*
X104478571Y-138067664D01*
X104478571Y-138067664D02*
X104440476Y-137991474D01*
X104440476Y-137991474D02*
X104440476Y-137839093D01*
X104440476Y-137839093D02*
X104478571Y-137762902D01*
X104478571Y-137762902D02*
X104516666Y-137724807D01*
X104516666Y-137724807D02*
X104592857Y-137686712D01*
X68271428Y-126713855D02*
X68271428Y-125913855D01*
X68271428Y-125913855D02*
X68080952Y-125913855D01*
X68080952Y-125913855D02*
X67966666Y-125951950D01*
X67966666Y-125951950D02*
X67890476Y-126028140D01*
X67890476Y-126028140D02*
X67852381Y-126104331D01*
X67852381Y-126104331D02*
X67814285Y-126256712D01*
X67814285Y-126256712D02*
X67814285Y-126370998D01*
X67814285Y-126370998D02*
X67852381Y-126523379D01*
X67852381Y-126523379D02*
X67890476Y-126599569D01*
X67890476Y-126599569D02*
X67966666Y-126675760D01*
X67966666Y-126675760D02*
X68080952Y-126713855D01*
X68080952Y-126713855D02*
X68271428Y-126713855D01*
X67509524Y-125990045D02*
X67471428Y-125951950D01*
X67471428Y-125951950D02*
X67395238Y-125913855D01*
X67395238Y-125913855D02*
X67204762Y-125913855D01*
X67204762Y-125913855D02*
X67128571Y-125951950D01*
X67128571Y-125951950D02*
X67090476Y-125990045D01*
X67090476Y-125990045D02*
X67052381Y-126066236D01*
X67052381Y-126066236D02*
X67052381Y-126142426D01*
X67052381Y-126142426D02*
X67090476Y-126256712D01*
X67090476Y-126256712D02*
X67547619Y-126713855D01*
X67547619Y-126713855D02*
X67052381Y-126713855D01*
X66366666Y-125913855D02*
X66519047Y-125913855D01*
X66519047Y-125913855D02*
X66595238Y-125951950D01*
X66595238Y-125951950D02*
X66633333Y-125990045D01*
X66633333Y-125990045D02*
X66709523Y-126104331D01*
X66709523Y-126104331D02*
X66747619Y-126256712D01*
X66747619Y-126256712D02*
X66747619Y-126561474D01*
X66747619Y-126561474D02*
X66709523Y-126637664D01*
X66709523Y-126637664D02*
X66671428Y-126675760D01*
X66671428Y-126675760D02*
X66595238Y-126713855D01*
X66595238Y-126713855D02*
X66442857Y-126713855D01*
X66442857Y-126713855D02*
X66366666Y-126675760D01*
X66366666Y-126675760D02*
X66328571Y-126637664D01*
X66328571Y-126637664D02*
X66290476Y-126561474D01*
X66290476Y-126561474D02*
X66290476Y-126370998D01*
X66290476Y-126370998D02*
X66328571Y-126294807D01*
X66328571Y-126294807D02*
X66366666Y-126256712D01*
X66366666Y-126256712D02*
X66442857Y-126218617D01*
X66442857Y-126218617D02*
X66595238Y-126218617D01*
X66595238Y-126218617D02*
X66671428Y-126256712D01*
X66671428Y-126256712D02*
X66709523Y-126294807D01*
X66709523Y-126294807D02*
X66747619Y-126370998D01*
X163521428Y-83851355D02*
X163521428Y-83051355D01*
X163521428Y-83051355D02*
X163330952Y-83051355D01*
X163330952Y-83051355D02*
X163216666Y-83089450D01*
X163216666Y-83089450D02*
X163140476Y-83165640D01*
X163140476Y-83165640D02*
X163102381Y-83241831D01*
X163102381Y-83241831D02*
X163064285Y-83394212D01*
X163064285Y-83394212D02*
X163064285Y-83508498D01*
X163064285Y-83508498D02*
X163102381Y-83660879D01*
X163102381Y-83660879D02*
X163140476Y-83737069D01*
X163140476Y-83737069D02*
X163216666Y-83813260D01*
X163216666Y-83813260D02*
X163330952Y-83851355D01*
X163330952Y-83851355D02*
X163521428Y-83851355D01*
X162302381Y-83851355D02*
X162759524Y-83851355D01*
X162530952Y-83851355D02*
X162530952Y-83051355D01*
X162530952Y-83051355D02*
X162607143Y-83165640D01*
X162607143Y-83165640D02*
X162683333Y-83241831D01*
X162683333Y-83241831D02*
X162759524Y-83279926D01*
X161540476Y-83851355D02*
X161997619Y-83851355D01*
X161769047Y-83851355D02*
X161769047Y-83051355D01*
X161769047Y-83051355D02*
X161845238Y-83165640D01*
X161845238Y-83165640D02*
X161921428Y-83241831D01*
X161921428Y-83241831D02*
X161997619Y-83279926D01*
X155099990Y-143945822D02*
X155499990Y-143253001D01*
X155499990Y-143253001D02*
X155335033Y-143157763D01*
X155335033Y-143157763D02*
X155217011Y-143133612D01*
X155217011Y-143133612D02*
X155112933Y-143161500D01*
X155112933Y-143161500D02*
X155041846Y-143208435D01*
X155041846Y-143208435D02*
X154932664Y-143321353D01*
X154932664Y-143321353D02*
X154875521Y-143420327D01*
X154875521Y-143420327D02*
X154832322Y-143571341D01*
X154832322Y-143571341D02*
X154827218Y-143656371D01*
X154827218Y-143656371D02*
X154855106Y-143760449D01*
X154855106Y-143760449D02*
X154935033Y-143850584D01*
X154935033Y-143850584D02*
X155099990Y-143945822D01*
X154873152Y-142891097D02*
X154444264Y-142643478D01*
X154444264Y-142643478D02*
X154522823Y-143040743D01*
X154522823Y-143040743D02*
X154423849Y-142983600D01*
X154423849Y-142983600D02*
X154338818Y-142978496D01*
X154338818Y-142978496D02*
X154286779Y-142992440D01*
X154286779Y-142992440D02*
X154215692Y-143039375D01*
X154215692Y-143039375D02*
X154120454Y-143204332D01*
X154120454Y-143204332D02*
X154115350Y-143289363D01*
X154115350Y-143289363D02*
X154129294Y-143341402D01*
X154129294Y-143341402D02*
X154176229Y-143412488D01*
X154176229Y-143412488D02*
X154374178Y-143526774D01*
X154374178Y-143526774D02*
X154459209Y-143531878D01*
X154459209Y-143531878D02*
X154511248Y-143517934D01*
X154142237Y-142557079D02*
X154128293Y-142505040D01*
X154128293Y-142505040D02*
X154081358Y-142433954D01*
X154081358Y-142433954D02*
X153916400Y-142338716D01*
X153916400Y-142338716D02*
X153831370Y-142333612D01*
X153831370Y-142333612D02*
X153779331Y-142347556D01*
X153779331Y-142347556D02*
X153708244Y-142394491D01*
X153708244Y-142394491D02*
X153670149Y-142460474D01*
X153670149Y-142460474D02*
X153645997Y-142578496D01*
X153645997Y-142578496D02*
X153813323Y-143202965D01*
X153813323Y-143202965D02*
X153384435Y-142955345D01*
X125421428Y-100043855D02*
X125421428Y-99243855D01*
X125421428Y-99243855D02*
X125230952Y-99243855D01*
X125230952Y-99243855D02*
X125116666Y-99281950D01*
X125116666Y-99281950D02*
X125040476Y-99358140D01*
X125040476Y-99358140D02*
X125002381Y-99434331D01*
X125002381Y-99434331D02*
X124964285Y-99586712D01*
X124964285Y-99586712D02*
X124964285Y-99700998D01*
X124964285Y-99700998D02*
X125002381Y-99853379D01*
X125002381Y-99853379D02*
X125040476Y-99929569D01*
X125040476Y-99929569D02*
X125116666Y-100005760D01*
X125116666Y-100005760D02*
X125230952Y-100043855D01*
X125230952Y-100043855D02*
X125421428Y-100043855D01*
X124202381Y-100043855D02*
X124659524Y-100043855D01*
X124430952Y-100043855D02*
X124430952Y-99243855D01*
X124430952Y-99243855D02*
X124507143Y-99358140D01*
X124507143Y-99358140D02*
X124583333Y-99434331D01*
X124583333Y-99434331D02*
X124659524Y-99472426D01*
X123516666Y-99243855D02*
X123669047Y-99243855D01*
X123669047Y-99243855D02*
X123745238Y-99281950D01*
X123745238Y-99281950D02*
X123783333Y-99320045D01*
X123783333Y-99320045D02*
X123859523Y-99434331D01*
X123859523Y-99434331D02*
X123897619Y-99586712D01*
X123897619Y-99586712D02*
X123897619Y-99891474D01*
X123897619Y-99891474D02*
X123859523Y-99967664D01*
X123859523Y-99967664D02*
X123821428Y-100005760D01*
X123821428Y-100005760D02*
X123745238Y-100043855D01*
X123745238Y-100043855D02*
X123592857Y-100043855D01*
X123592857Y-100043855D02*
X123516666Y-100005760D01*
X123516666Y-100005760D02*
X123478571Y-99967664D01*
X123478571Y-99967664D02*
X123440476Y-99891474D01*
X123440476Y-99891474D02*
X123440476Y-99700998D01*
X123440476Y-99700998D02*
X123478571Y-99624807D01*
X123478571Y-99624807D02*
X123516666Y-99586712D01*
X123516666Y-99586712D02*
X123592857Y-99548617D01*
X123592857Y-99548617D02*
X123745238Y-99548617D01*
X123745238Y-99548617D02*
X123821428Y-99586712D01*
X123821428Y-99586712D02*
X123859523Y-99624807D01*
X123859523Y-99624807D02*
X123897619Y-99700998D01*
X125471428Y-138143855D02*
X125471428Y-137343855D01*
X125471428Y-137343855D02*
X125280952Y-137343855D01*
X125280952Y-137343855D02*
X125166666Y-137381950D01*
X125166666Y-137381950D02*
X125090476Y-137458140D01*
X125090476Y-137458140D02*
X125052381Y-137534331D01*
X125052381Y-137534331D02*
X125014285Y-137686712D01*
X125014285Y-137686712D02*
X125014285Y-137800998D01*
X125014285Y-137800998D02*
X125052381Y-137953379D01*
X125052381Y-137953379D02*
X125090476Y-138029569D01*
X125090476Y-138029569D02*
X125166666Y-138105760D01*
X125166666Y-138105760D02*
X125280952Y-138143855D01*
X125280952Y-138143855D02*
X125471428Y-138143855D01*
X124709524Y-137420045D02*
X124671428Y-137381950D01*
X124671428Y-137381950D02*
X124595238Y-137343855D01*
X124595238Y-137343855D02*
X124404762Y-137343855D01*
X124404762Y-137343855D02*
X124328571Y-137381950D01*
X124328571Y-137381950D02*
X124290476Y-137420045D01*
X124290476Y-137420045D02*
X124252381Y-137496236D01*
X124252381Y-137496236D02*
X124252381Y-137572426D01*
X124252381Y-137572426D02*
X124290476Y-137686712D01*
X124290476Y-137686712D02*
X124747619Y-138143855D01*
X124747619Y-138143855D02*
X124252381Y-138143855D01*
X123871428Y-138143855D02*
X123719047Y-138143855D01*
X123719047Y-138143855D02*
X123642857Y-138105760D01*
X123642857Y-138105760D02*
X123604761Y-138067664D01*
X123604761Y-138067664D02*
X123528571Y-137953379D01*
X123528571Y-137953379D02*
X123490476Y-137800998D01*
X123490476Y-137800998D02*
X123490476Y-137496236D01*
X123490476Y-137496236D02*
X123528571Y-137420045D01*
X123528571Y-137420045D02*
X123566666Y-137381950D01*
X123566666Y-137381950D02*
X123642857Y-137343855D01*
X123642857Y-137343855D02*
X123795238Y-137343855D01*
X123795238Y-137343855D02*
X123871428Y-137381950D01*
X123871428Y-137381950D02*
X123909523Y-137420045D01*
X123909523Y-137420045D02*
X123947619Y-137496236D01*
X123947619Y-137496236D02*
X123947619Y-137686712D01*
X123947619Y-137686712D02*
X123909523Y-137762902D01*
X123909523Y-137762902D02*
X123871428Y-137800998D01*
X123871428Y-137800998D02*
X123795238Y-137839093D01*
X123795238Y-137839093D02*
X123642857Y-137839093D01*
X123642857Y-137839093D02*
X123566666Y-137800998D01*
X123566666Y-137800998D02*
X123528571Y-137762902D01*
X123528571Y-137762902D02*
X123490476Y-137686712D01*
X87371428Y-141001355D02*
X87371428Y-140201355D01*
X87371428Y-140201355D02*
X87180952Y-140201355D01*
X87180952Y-140201355D02*
X87066666Y-140239450D01*
X87066666Y-140239450D02*
X86990476Y-140315640D01*
X86990476Y-140315640D02*
X86952381Y-140391831D01*
X86952381Y-140391831D02*
X86914285Y-140544212D01*
X86914285Y-140544212D02*
X86914285Y-140658498D01*
X86914285Y-140658498D02*
X86952381Y-140810879D01*
X86952381Y-140810879D02*
X86990476Y-140887069D01*
X86990476Y-140887069D02*
X87066666Y-140963260D01*
X87066666Y-140963260D02*
X87180952Y-141001355D01*
X87180952Y-141001355D02*
X87371428Y-141001355D01*
X86647619Y-140201355D02*
X86152381Y-140201355D01*
X86152381Y-140201355D02*
X86419047Y-140506117D01*
X86419047Y-140506117D02*
X86304762Y-140506117D01*
X86304762Y-140506117D02*
X86228571Y-140544212D01*
X86228571Y-140544212D02*
X86190476Y-140582307D01*
X86190476Y-140582307D02*
X86152381Y-140658498D01*
X86152381Y-140658498D02*
X86152381Y-140848974D01*
X86152381Y-140848974D02*
X86190476Y-140925164D01*
X86190476Y-140925164D02*
X86228571Y-140963260D01*
X86228571Y-140963260D02*
X86304762Y-141001355D01*
X86304762Y-141001355D02*
X86533333Y-141001355D01*
X86533333Y-141001355D02*
X86609524Y-140963260D01*
X86609524Y-140963260D02*
X86647619Y-140925164D01*
X85657142Y-140201355D02*
X85580952Y-140201355D01*
X85580952Y-140201355D02*
X85504761Y-140239450D01*
X85504761Y-140239450D02*
X85466666Y-140277545D01*
X85466666Y-140277545D02*
X85428571Y-140353736D01*
X85428571Y-140353736D02*
X85390476Y-140506117D01*
X85390476Y-140506117D02*
X85390476Y-140696593D01*
X85390476Y-140696593D02*
X85428571Y-140848974D01*
X85428571Y-140848974D02*
X85466666Y-140925164D01*
X85466666Y-140925164D02*
X85504761Y-140963260D01*
X85504761Y-140963260D02*
X85580952Y-141001355D01*
X85580952Y-141001355D02*
X85657142Y-141001355D01*
X85657142Y-141001355D02*
X85733333Y-140963260D01*
X85733333Y-140963260D02*
X85771428Y-140925164D01*
X85771428Y-140925164D02*
X85809523Y-140848974D01*
X85809523Y-140848974D02*
X85847619Y-140696593D01*
X85847619Y-140696593D02*
X85847619Y-140506117D01*
X85847619Y-140506117D02*
X85809523Y-140353736D01*
X85809523Y-140353736D02*
X85771428Y-140277545D01*
X85771428Y-140277545D02*
X85733333Y-140239450D01*
X85733333Y-140239450D02*
X85657142Y-140201355D01*
X49221428Y-93376355D02*
X49221428Y-92576355D01*
X49221428Y-92576355D02*
X49030952Y-92576355D01*
X49030952Y-92576355D02*
X48916666Y-92614450D01*
X48916666Y-92614450D02*
X48840476Y-92690640D01*
X48840476Y-92690640D02*
X48802381Y-92766831D01*
X48802381Y-92766831D02*
X48764285Y-92919212D01*
X48764285Y-92919212D02*
X48764285Y-93033498D01*
X48764285Y-93033498D02*
X48802381Y-93185879D01*
X48802381Y-93185879D02*
X48840476Y-93262069D01*
X48840476Y-93262069D02*
X48916666Y-93338260D01*
X48916666Y-93338260D02*
X49030952Y-93376355D01*
X49030952Y-93376355D02*
X49221428Y-93376355D01*
X48002381Y-93376355D02*
X48459524Y-93376355D01*
X48230952Y-93376355D02*
X48230952Y-92576355D01*
X48230952Y-92576355D02*
X48307143Y-92690640D01*
X48307143Y-92690640D02*
X48383333Y-92766831D01*
X48383333Y-92766831D02*
X48459524Y-92804926D01*
X47735714Y-92576355D02*
X47240476Y-92576355D01*
X47240476Y-92576355D02*
X47507142Y-92881117D01*
X47507142Y-92881117D02*
X47392857Y-92881117D01*
X47392857Y-92881117D02*
X47316666Y-92919212D01*
X47316666Y-92919212D02*
X47278571Y-92957307D01*
X47278571Y-92957307D02*
X47240476Y-93033498D01*
X47240476Y-93033498D02*
X47240476Y-93223974D01*
X47240476Y-93223974D02*
X47278571Y-93300164D01*
X47278571Y-93300164D02*
X47316666Y-93338260D01*
X47316666Y-93338260D02*
X47392857Y-93376355D01*
X47392857Y-93376355D02*
X47621428Y-93376355D01*
X47621428Y-93376355D02*
X47697619Y-93338260D01*
X47697619Y-93338260D02*
X47735714Y-93300164D01*
X140388718Y-139998539D02*
X140595773Y-139225798D01*
X140595773Y-139225798D02*
X140411787Y-139176499D01*
X140411787Y-139176499D02*
X140291536Y-139183717D01*
X140291536Y-139183717D02*
X140198222Y-139237592D01*
X140198222Y-139237592D02*
X140141705Y-139301327D01*
X140141705Y-139301327D02*
X140065469Y-139438656D01*
X140065469Y-139438656D02*
X140035890Y-139549047D01*
X140035890Y-139549047D02*
X140033248Y-139706096D01*
X140033248Y-139706096D02*
X140050326Y-139789550D01*
X140050326Y-139789550D02*
X140104200Y-139882864D01*
X140104200Y-139882864D02*
X140204732Y-139949240D01*
X140204732Y-139949240D02*
X140388718Y-139998539D01*
X139896627Y-139038463D02*
X139418264Y-138910286D01*
X139418264Y-138910286D02*
X139596966Y-139273681D01*
X139596966Y-139273681D02*
X139486574Y-139244102D01*
X139486574Y-139244102D02*
X139403120Y-139261180D01*
X139403120Y-139261180D02*
X139356463Y-139288117D01*
X139356463Y-139288117D02*
X139299946Y-139351852D01*
X139299946Y-139351852D02*
X139250648Y-139535838D01*
X139250648Y-139535838D02*
X139267725Y-139619292D01*
X139267725Y-139619292D02*
X139294663Y-139665949D01*
X139294663Y-139665949D02*
X139358397Y-139722465D01*
X139358397Y-139722465D02*
X139579180Y-139781624D01*
X139579180Y-139781624D02*
X139662634Y-139764546D01*
X139662634Y-139764546D02*
X139709291Y-139737609D01*
X138475265Y-139485831D02*
X138916831Y-139604148D01*
X138696048Y-139544989D02*
X138903103Y-138772249D01*
X138903103Y-138772249D02*
X138947118Y-138902360D01*
X138947118Y-138902360D02*
X139000993Y-138995674D01*
X139000993Y-138995674D02*
X139064727Y-139052190D01*
X105990475Y-78136355D02*
X105990475Y-77336355D01*
X105990475Y-77336355D02*
X105799999Y-77336355D01*
X105799999Y-77336355D02*
X105685713Y-77374450D01*
X105685713Y-77374450D02*
X105609523Y-77450640D01*
X105609523Y-77450640D02*
X105571428Y-77526831D01*
X105571428Y-77526831D02*
X105533332Y-77679212D01*
X105533332Y-77679212D02*
X105533332Y-77793498D01*
X105533332Y-77793498D02*
X105571428Y-77945879D01*
X105571428Y-77945879D02*
X105609523Y-78022069D01*
X105609523Y-78022069D02*
X105685713Y-78098260D01*
X105685713Y-78098260D02*
X105799999Y-78136355D01*
X105799999Y-78136355D02*
X105990475Y-78136355D01*
X105266666Y-77336355D02*
X104733332Y-77336355D01*
X104733332Y-77336355D02*
X105076190Y-78136355D01*
X125040475Y-61943855D02*
X125040475Y-61143855D01*
X125040475Y-61143855D02*
X124849999Y-61143855D01*
X124849999Y-61143855D02*
X124735713Y-61181950D01*
X124735713Y-61181950D02*
X124659523Y-61258140D01*
X124659523Y-61258140D02*
X124621428Y-61334331D01*
X124621428Y-61334331D02*
X124583332Y-61486712D01*
X124583332Y-61486712D02*
X124583332Y-61600998D01*
X124583332Y-61600998D02*
X124621428Y-61753379D01*
X124621428Y-61753379D02*
X124659523Y-61829569D01*
X124659523Y-61829569D02*
X124735713Y-61905760D01*
X124735713Y-61905760D02*
X124849999Y-61943855D01*
X124849999Y-61943855D02*
X125040475Y-61943855D01*
X124316666Y-61143855D02*
X123821428Y-61143855D01*
X123821428Y-61143855D02*
X124088094Y-61448617D01*
X124088094Y-61448617D02*
X123973809Y-61448617D01*
X123973809Y-61448617D02*
X123897618Y-61486712D01*
X123897618Y-61486712D02*
X123859523Y-61524807D01*
X123859523Y-61524807D02*
X123821428Y-61600998D01*
X123821428Y-61600998D02*
X123821428Y-61791474D01*
X123821428Y-61791474D02*
X123859523Y-61867664D01*
X123859523Y-61867664D02*
X123897618Y-61905760D01*
X123897618Y-61905760D02*
X123973809Y-61943855D01*
X123973809Y-61943855D02*
X124202380Y-61943855D01*
X124202380Y-61943855D02*
X124278571Y-61905760D01*
X124278571Y-61905760D02*
X124316666Y-61867664D01*
%TO.C,SW31*%
X135162507Y-133356967D02*
X135809555Y-130942153D01*
X135809555Y-130942153D02*
X138224370Y-131589200D01*
D10*
X136447311Y-136289420D02*
X140329597Y-121800532D01*
X137266739Y-135163126D02*
X141613405Y-136327812D01*
D11*
X137577322Y-134004015D02*
X135162507Y-133356967D01*
X138483189Y-130623273D02*
X137266739Y-135163126D01*
D10*
X140329597Y-121800532D02*
X154818485Y-125682818D01*
X141966959Y-136940184D02*
X141708140Y-137906110D01*
X142061693Y-138518482D02*
X141708140Y-137906110D01*
X142648682Y-132464108D02*
X142829855Y-131787960D01*
X142829855Y-131787960D02*
X138483189Y-130623273D01*
X144959471Y-139294939D02*
X142061693Y-138518482D01*
X145571843Y-138941386D02*
X144959471Y-139294939D01*
X146124156Y-134948273D02*
X143709342Y-134301226D01*
D11*
X146335359Y-136091905D02*
X148750174Y-136738952D01*
X146464769Y-135608942D02*
X145571843Y-138941386D01*
D10*
X146477710Y-135560646D02*
X146124156Y-134948273D01*
D11*
X148103126Y-139153767D02*
X145688312Y-138506719D01*
X148750174Y-136738952D02*
X148103126Y-139153767D01*
D10*
X150936199Y-140171706D02*
X136447311Y-136289420D01*
X154818485Y-125682818D02*
X150936199Y-140171706D01*
X141613405Y-136327812D02*
G75*
G02*
X141966959Y-136940184I-129409J-482963D01*
G01*
X143709342Y-134301226D02*
G75*
G02*
X142648681Y-132464108I388229J1448890D01*
G01*
D11*
%TO.C,SW4*%
X133670000Y-55257500D02*
X136170000Y-55257500D01*
X133670000Y-57757500D02*
X133670000Y-55257500D01*
D10*
X135670000Y-45257500D02*
X150670000Y-45257500D01*
X135670000Y-60257500D02*
X135670000Y-45257500D01*
D11*
X136170000Y-54257500D02*
X136170000Y-58957500D01*
X136170000Y-57757500D02*
X133670000Y-57757500D01*
D10*
X136170000Y-58957500D02*
X140670000Y-58957500D01*
X140670000Y-54257500D02*
X136170000Y-54257500D01*
X140670000Y-54957500D02*
X140670000Y-54257500D01*
X141170000Y-59457500D02*
X141170000Y-60457500D01*
X141670000Y-60957500D02*
X141170000Y-60457500D01*
X144670000Y-56457500D02*
X142170000Y-56457500D01*
X144670000Y-60957500D02*
X141670000Y-60957500D01*
X145170000Y-56957500D02*
X144670000Y-56457500D01*
D11*
X145170000Y-57007500D02*
X145170000Y-60457500D01*
X145170000Y-57507500D02*
X147670000Y-57507500D01*
D10*
X145170000Y-60457500D02*
X144670000Y-60957500D01*
D11*
X147670000Y-57507500D02*
X147670000Y-60007500D01*
X147670000Y-60007500D02*
X145170000Y-60007500D01*
D10*
X150670000Y-45257500D02*
X150670000Y-60257500D01*
X150670000Y-60257500D02*
X135670000Y-60257500D01*
X140670000Y-58957500D02*
G75*
G02*
X141170000Y-59457500I-1J-500001D01*
G01*
X142170000Y-56457500D02*
G75*
G02*
X140670000Y-54957500I1J1500001D01*
G01*
D11*
%TO.C,SW29*%
X114620000Y-128600000D02*
X117120000Y-128600000D01*
X114620000Y-131100000D02*
X114620000Y-128600000D01*
D10*
X116620000Y-118600000D02*
X131620000Y-118600000D01*
X116620000Y-133600000D02*
X116620000Y-118600000D01*
D11*
X117120000Y-127600000D02*
X117120000Y-132300000D01*
X117120000Y-131100000D02*
X114620000Y-131100000D01*
D10*
X117120000Y-132300000D02*
X121620000Y-132300000D01*
X121620000Y-127600000D02*
X117120000Y-127600000D01*
X121620000Y-128300000D02*
X121620000Y-127600000D01*
X122120000Y-132800000D02*
X122120000Y-133800000D01*
X122620000Y-134300000D02*
X122120000Y-133800000D01*
X125620000Y-129800000D02*
X123120000Y-129800000D01*
X125620000Y-134300000D02*
X122620000Y-134300000D01*
X126120000Y-130300000D02*
X125620000Y-129800000D01*
D11*
X126120000Y-130350000D02*
X126120000Y-133800000D01*
X126120000Y-130850000D02*
X128620000Y-130850000D01*
D10*
X126120000Y-133800000D02*
X125620000Y-134300000D01*
D11*
X128620000Y-130850000D02*
X128620000Y-133350000D01*
X128620000Y-133350000D02*
X126120000Y-133350000D01*
D10*
X131620000Y-118600000D02*
X131620000Y-133600000D01*
X131620000Y-133600000D02*
X116620000Y-133600000D01*
X121620000Y-132300000D02*
G75*
G02*
X122120000Y-132800000I-1J-500001D01*
G01*
X123120000Y-129800000D02*
G75*
G02*
X121620000Y-128300000I1J1500001D01*
G01*
D11*
%TO.C,SW13*%
X38420000Y-83832500D02*
X40920000Y-83832500D01*
X38420000Y-86332500D02*
X38420000Y-83832500D01*
D10*
X40420000Y-73832500D02*
X55420000Y-73832500D01*
X40420000Y-88832500D02*
X40420000Y-73832500D01*
D11*
X40920000Y-82832500D02*
X40920000Y-87532500D01*
X40920000Y-86332500D02*
X38420000Y-86332500D01*
D10*
X40920000Y-87532500D02*
X45420000Y-87532500D01*
X45420000Y-82832500D02*
X40920000Y-82832500D01*
X45420000Y-83532500D02*
X45420000Y-82832500D01*
X45920000Y-88032500D02*
X45920000Y-89032500D01*
X46420000Y-89532500D02*
X45920000Y-89032500D01*
X49420000Y-85032500D02*
X46920000Y-85032500D01*
X49420000Y-89532500D02*
X46420000Y-89532500D01*
X49920000Y-85532500D02*
X49420000Y-85032500D01*
D11*
X49920000Y-85582500D02*
X49920000Y-89032500D01*
X49920000Y-86082500D02*
X52420000Y-86082500D01*
D10*
X49920000Y-89032500D02*
X49420000Y-89532500D01*
D11*
X52420000Y-86082500D02*
X52420000Y-88582500D01*
X52420000Y-88582500D02*
X49920000Y-88582500D01*
D10*
X55420000Y-73832500D02*
X55420000Y-88832500D01*
X55420000Y-88832500D02*
X40420000Y-88832500D01*
X45420000Y-87532500D02*
G75*
G02*
X45920000Y-88032500I-1J-500001D01*
G01*
X46920000Y-85032500D02*
G75*
G02*
X45420000Y-83532500I1J1500001D01*
G01*
D11*
%TO.C,SW25*%
X152720000Y-112407500D02*
X155220000Y-112407500D01*
X152720000Y-114907500D02*
X152720000Y-112407500D01*
D10*
X154720000Y-102407500D02*
X169720000Y-102407500D01*
X154720000Y-117407500D02*
X154720000Y-102407500D01*
D11*
X155220000Y-111407500D02*
X155220000Y-116107500D01*
X155220000Y-114907500D02*
X152720000Y-114907500D01*
D10*
X155220000Y-116107500D02*
X159720000Y-116107500D01*
X159720000Y-111407500D02*
X155220000Y-111407500D01*
X159720000Y-112107500D02*
X159720000Y-111407500D01*
X160220000Y-116607500D02*
X160220000Y-117607500D01*
X160720000Y-118107500D02*
X160220000Y-117607500D01*
X163720000Y-113607500D02*
X161220000Y-113607500D01*
X163720000Y-118107500D02*
X160720000Y-118107500D01*
X164220000Y-114107500D02*
X163720000Y-113607500D01*
D11*
X164220000Y-114157500D02*
X164220000Y-117607500D01*
X164220000Y-114657500D02*
X166720000Y-114657500D01*
D10*
X164220000Y-117607500D02*
X163720000Y-118107500D01*
D11*
X166720000Y-114657500D02*
X166720000Y-117157500D01*
X166720000Y-117157500D02*
X164220000Y-117157500D01*
D10*
X169720000Y-102407500D02*
X169720000Y-117407500D01*
X169720000Y-117407500D02*
X154720000Y-117407500D01*
X159720000Y-116107500D02*
G75*
G02*
X160220000Y-116607500I-1J-500001D01*
G01*
X161220000Y-113607500D02*
G75*
G02*
X159720000Y-112107500I1J1500001D01*
G01*
D11*
%TO.C,SW21*%
X95570000Y-106692500D02*
X98070000Y-106692500D01*
X95570000Y-109192500D02*
X95570000Y-106692500D01*
D10*
X97570000Y-96692500D02*
X112570000Y-96692500D01*
X97570000Y-111692500D02*
X97570000Y-96692500D01*
D11*
X98070000Y-105692500D02*
X98070000Y-110392500D01*
X98070000Y-109192500D02*
X95570000Y-109192500D01*
D10*
X98070000Y-110392500D02*
X102570000Y-110392500D01*
X102570000Y-105692500D02*
X98070000Y-105692500D01*
X102570000Y-106392500D02*
X102570000Y-105692500D01*
X103070000Y-110892500D02*
X103070000Y-111892500D01*
X103570000Y-112392500D02*
X103070000Y-111892500D01*
X106570000Y-107892500D02*
X104070000Y-107892500D01*
X106570000Y-112392500D02*
X103570000Y-112392500D01*
X107070000Y-108392500D02*
X106570000Y-107892500D01*
D11*
X107070000Y-108442500D02*
X107070000Y-111892500D01*
X107070000Y-108942500D02*
X109570000Y-108942500D01*
D10*
X107070000Y-111892500D02*
X106570000Y-112392500D01*
D11*
X109570000Y-108942500D02*
X109570000Y-111442500D01*
X109570000Y-111442500D02*
X107070000Y-111442500D01*
D10*
X112570000Y-96692500D02*
X112570000Y-111692500D01*
X112570000Y-111692500D02*
X97570000Y-111692500D01*
X102570000Y-110392500D02*
G75*
G02*
X103070000Y-110892500I-1J-500001D01*
G01*
X104070000Y-107892500D02*
G75*
G02*
X102570000Y-106392500I1J1500001D01*
G01*
D11*
%TO.C,SW26*%
X57470000Y-117170000D02*
X59970000Y-117170000D01*
X57470000Y-119670000D02*
X57470000Y-117170000D01*
D10*
X59470000Y-107170000D02*
X74470000Y-107170000D01*
X59470000Y-122170000D02*
X59470000Y-107170000D01*
D11*
X59970000Y-116170000D02*
X59970000Y-120870000D01*
X59970000Y-119670000D02*
X57470000Y-119670000D01*
D10*
X59970000Y-120870000D02*
X64470000Y-120870000D01*
X64470000Y-116170000D02*
X59970000Y-116170000D01*
X64470000Y-116870000D02*
X64470000Y-116170000D01*
X64970000Y-121370000D02*
X64970000Y-122370000D01*
X65470000Y-122870000D02*
X64970000Y-122370000D01*
X68470000Y-118370000D02*
X65970000Y-118370000D01*
X68470000Y-122870000D02*
X65470000Y-122870000D01*
X68970000Y-118870000D02*
X68470000Y-118370000D01*
D11*
X68970000Y-118920000D02*
X68970000Y-122370000D01*
X68970000Y-119420000D02*
X71470000Y-119420000D01*
D10*
X68970000Y-122370000D02*
X68470000Y-122870000D01*
D11*
X71470000Y-119420000D02*
X71470000Y-121920000D01*
X71470000Y-121920000D02*
X68970000Y-121920000D01*
D10*
X74470000Y-107170000D02*
X74470000Y-122170000D01*
X74470000Y-122170000D02*
X59470000Y-122170000D01*
X64470000Y-120870000D02*
G75*
G02*
X64970000Y-121370000I-1J-500001D01*
G01*
X65970000Y-118370000D02*
G75*
G02*
X64470000Y-116870000I1J1500001D01*
G01*
D11*
%TO.C,SW28*%
X95570000Y-128600000D02*
X98070000Y-128600000D01*
X95570000Y-131100000D02*
X95570000Y-128600000D01*
D10*
X97570000Y-118600000D02*
X112570000Y-118600000D01*
X97570000Y-133600000D02*
X97570000Y-118600000D01*
D11*
X98070000Y-127600000D02*
X98070000Y-132300000D01*
X98070000Y-131100000D02*
X95570000Y-131100000D01*
D10*
X98070000Y-132300000D02*
X102570000Y-132300000D01*
X102570000Y-127600000D02*
X98070000Y-127600000D01*
X102570000Y-128300000D02*
X102570000Y-127600000D01*
X103070000Y-132800000D02*
X103070000Y-133800000D01*
X103570000Y-134300000D02*
X103070000Y-133800000D01*
X106570000Y-129800000D02*
X104070000Y-129800000D01*
X106570000Y-134300000D02*
X103570000Y-134300000D01*
X107070000Y-130300000D02*
X106570000Y-129800000D01*
D11*
X107070000Y-130350000D02*
X107070000Y-133800000D01*
X107070000Y-130850000D02*
X109570000Y-130850000D01*
D10*
X107070000Y-133800000D02*
X106570000Y-134300000D01*
D11*
X109570000Y-130850000D02*
X109570000Y-133350000D01*
X109570000Y-133350000D02*
X107070000Y-133350000D01*
D10*
X112570000Y-118600000D02*
X112570000Y-133600000D01*
X112570000Y-133600000D02*
X97570000Y-133600000D01*
X102570000Y-132300000D02*
G75*
G02*
X103070000Y-132800000I-1J-500001D01*
G01*
X104070000Y-129800000D02*
G75*
G02*
X102570000Y-128300000I1J1500001D01*
G01*
D11*
%TO.C,SW30*%
X76520000Y-131457500D02*
X79020000Y-131457500D01*
X76520000Y-133957500D02*
X76520000Y-131457500D01*
D10*
X78520000Y-121457500D02*
X93520000Y-121457500D01*
X78520000Y-136457500D02*
X78520000Y-121457500D01*
D11*
X79020000Y-130457500D02*
X79020000Y-135157500D01*
X79020000Y-133957500D02*
X76520000Y-133957500D01*
D10*
X79020000Y-135157500D02*
X83520000Y-135157500D01*
X83520000Y-130457500D02*
X79020000Y-130457500D01*
X83520000Y-131157500D02*
X83520000Y-130457500D01*
X84020000Y-135657500D02*
X84020000Y-136657500D01*
X84520000Y-137157500D02*
X84020000Y-136657500D01*
X87520000Y-132657500D02*
X85020000Y-132657500D01*
X87520000Y-137157500D02*
X84520000Y-137157500D01*
X88020000Y-133157500D02*
X87520000Y-132657500D01*
D11*
X88020000Y-133207500D02*
X88020000Y-136657500D01*
X88020000Y-133707500D02*
X90520000Y-133707500D01*
D10*
X88020000Y-136657500D02*
X87520000Y-137157500D01*
D11*
X90520000Y-133707500D02*
X90520000Y-136207500D01*
X90520000Y-136207500D02*
X88020000Y-136207500D01*
D10*
X93520000Y-121457500D02*
X93520000Y-136457500D01*
X93520000Y-136457500D02*
X78520000Y-136457500D01*
X83520000Y-135157500D02*
G75*
G02*
X84020000Y-135657500I-1J-500001D01*
G01*
X85020000Y-132657500D02*
G75*
G02*
X83520000Y-131157500I1J1500001D01*
G01*
D11*
%TO.C,SW32*%
X155184310Y-137994241D02*
X156434311Y-135829178D01*
D10*
X155666360Y-141159305D02*
X163166360Y-128168923D01*
D11*
X156434311Y-135829178D02*
X158599373Y-137079178D01*
D10*
X156749373Y-140283472D02*
X160646487Y-142533472D01*
D11*
X157349373Y-139244241D02*
X155184310Y-137994241D01*
X159099373Y-136213152D02*
X156749373Y-140283472D01*
D10*
X160512513Y-144765522D02*
X160329500Y-144082510D01*
X160829500Y-143216484D02*
X160329500Y-144082510D01*
X162646487Y-139069370D02*
X162996487Y-138463152D01*
X162996487Y-138463152D02*
X159099373Y-136213152D01*
X163110589Y-146265522D02*
X160512513Y-144765522D01*
X163166360Y-128168923D02*
X176156742Y-135668923D01*
X163793602Y-146082510D02*
X163110589Y-146265522D01*
D11*
X165268602Y-143527735D02*
X167433665Y-144777735D01*
D10*
X165360589Y-142368408D02*
X163195526Y-141118408D01*
D11*
X165518602Y-143094722D02*
X163793602Y-146082510D01*
D10*
X165543602Y-143051421D02*
X165360589Y-142368408D01*
D11*
X166183665Y-146942798D02*
X164018602Y-145692798D01*
X167433665Y-144777735D02*
X166183665Y-146942798D01*
D10*
X168656742Y-148659305D02*
X155666360Y-141159305D01*
X176156742Y-135668923D02*
X168656742Y-148659305D01*
X160646487Y-142533472D02*
G75*
G02*
X160829500Y-143216484I-250000J-433013D01*
G01*
X163195526Y-141118408D02*
G75*
G02*
X162646488Y-139069371I750001J1299038D01*
G01*
D11*
%TO.C,SW16*%
X114620000Y-90500000D02*
X117120000Y-90500000D01*
X114620000Y-93000000D02*
X114620000Y-90500000D01*
D10*
X116620000Y-80500000D02*
X131620000Y-80500000D01*
X116620000Y-95500000D02*
X116620000Y-80500000D01*
D11*
X117120000Y-89500000D02*
X117120000Y-94200000D01*
X117120000Y-93000000D02*
X114620000Y-93000000D01*
D10*
X117120000Y-94200000D02*
X121620000Y-94200000D01*
X121620000Y-89500000D02*
X117120000Y-89500000D01*
X121620000Y-90200000D02*
X121620000Y-89500000D01*
X122120000Y-94700000D02*
X122120000Y-95700000D01*
X122620000Y-96200000D02*
X122120000Y-95700000D01*
X125620000Y-91700000D02*
X123120000Y-91700000D01*
X125620000Y-96200000D02*
X122620000Y-96200000D01*
X126120000Y-92200000D02*
X125620000Y-91700000D01*
D11*
X126120000Y-92250000D02*
X126120000Y-95700000D01*
X126120000Y-92750000D02*
X128620000Y-92750000D01*
D10*
X126120000Y-95700000D02*
X125620000Y-96200000D01*
D11*
X128620000Y-92750000D02*
X128620000Y-95250000D01*
X128620000Y-95250000D02*
X126120000Y-95250000D01*
D10*
X131620000Y-80500000D02*
X131620000Y-95500000D01*
X131620000Y-95500000D02*
X116620000Y-95500000D01*
X121620000Y-94200000D02*
G75*
G02*
X122120000Y-94700000I-1J-500001D01*
G01*
X123120000Y-91700000D02*
G75*
G02*
X121620000Y-90200000I1J1500001D01*
G01*
D11*
%TO.C,SW14*%
X95570000Y-87642500D02*
X98070000Y-87642500D01*
X95570000Y-90142500D02*
X95570000Y-87642500D01*
D10*
X97570000Y-77642500D02*
X112570000Y-77642500D01*
X97570000Y-92642500D02*
X97570000Y-77642500D01*
D11*
X98070000Y-86642500D02*
X98070000Y-91342500D01*
X98070000Y-90142500D02*
X95570000Y-90142500D01*
D10*
X98070000Y-91342500D02*
X102570000Y-91342500D01*
X102570000Y-86642500D02*
X98070000Y-86642500D01*
X102570000Y-87342500D02*
X102570000Y-86642500D01*
X103070000Y-91842500D02*
X103070000Y-92842500D01*
X103570000Y-93342500D02*
X103070000Y-92842500D01*
X106570000Y-88842500D02*
X104070000Y-88842500D01*
X106570000Y-93342500D02*
X103570000Y-93342500D01*
X107070000Y-89342500D02*
X106570000Y-88842500D01*
D11*
X107070000Y-89392500D02*
X107070000Y-92842500D01*
X107070000Y-89892500D02*
X109570000Y-89892500D01*
D10*
X107070000Y-92842500D02*
X106570000Y-93342500D01*
D11*
X109570000Y-89892500D02*
X109570000Y-92392500D01*
X109570000Y-92392500D02*
X107070000Y-92392500D01*
D10*
X112570000Y-77642500D02*
X112570000Y-92642500D01*
X112570000Y-92642500D02*
X97570000Y-92642500D01*
X102570000Y-91342500D02*
G75*
G02*
X103070000Y-91842500I-1J-500001D01*
G01*
X104070000Y-88842500D02*
G75*
G02*
X102570000Y-87342500I1J1500001D01*
G01*
D11*
%TO.C,SW9*%
X114620000Y-71450000D02*
X117120000Y-71450000D01*
X114620000Y-73950000D02*
X114620000Y-71450000D01*
D10*
X116620000Y-61450000D02*
X131620000Y-61450000D01*
X116620000Y-76450000D02*
X116620000Y-61450000D01*
D11*
X117120000Y-70450000D02*
X117120000Y-75150000D01*
X117120000Y-73950000D02*
X114620000Y-73950000D01*
D10*
X117120000Y-75150000D02*
X121620000Y-75150000D01*
X121620000Y-70450000D02*
X117120000Y-70450000D01*
X121620000Y-71150000D02*
X121620000Y-70450000D01*
X122120000Y-75650000D02*
X122120000Y-76650000D01*
X122620000Y-77150000D02*
X122120000Y-76650000D01*
X125620000Y-72650000D02*
X123120000Y-72650000D01*
X125620000Y-77150000D02*
X122620000Y-77150000D01*
X126120000Y-73150000D02*
X125620000Y-72650000D01*
D11*
X126120000Y-73200000D02*
X126120000Y-76650000D01*
X126120000Y-73700000D02*
X128620000Y-73700000D01*
D10*
X126120000Y-76650000D02*
X125620000Y-77150000D01*
D11*
X128620000Y-73700000D02*
X128620000Y-76200000D01*
X128620000Y-76200000D02*
X126120000Y-76200000D01*
D10*
X131620000Y-61450000D02*
X131620000Y-76450000D01*
X131620000Y-76450000D02*
X116620000Y-76450000D01*
X121620000Y-75150000D02*
G75*
G02*
X122120000Y-75650000I-1J-500001D01*
G01*
X123120000Y-72650000D02*
G75*
G02*
X121620000Y-71150000I1J1500001D01*
G01*
D11*
%TO.C,SW2*%
X76520000Y-52400000D02*
X79020000Y-52400000D01*
X76520000Y-54900000D02*
X76520000Y-52400000D01*
D10*
X78520000Y-42400000D02*
X93520000Y-42400000D01*
X78520000Y-57400000D02*
X78520000Y-42400000D01*
D11*
X79020000Y-51400000D02*
X79020000Y-56100000D01*
X79020000Y-54900000D02*
X76520000Y-54900000D01*
D10*
X79020000Y-56100000D02*
X83520000Y-56100000D01*
X83520000Y-51400000D02*
X79020000Y-51400000D01*
X83520000Y-52100000D02*
X83520000Y-51400000D01*
X84020000Y-56600000D02*
X84020000Y-57600000D01*
X84520000Y-58100000D02*
X84020000Y-57600000D01*
X87520000Y-53600000D02*
X85020000Y-53600000D01*
X87520000Y-58100000D02*
X84520000Y-58100000D01*
X88020000Y-54100000D02*
X87520000Y-53600000D01*
D11*
X88020000Y-54150000D02*
X88020000Y-57600000D01*
X88020000Y-54650000D02*
X90520000Y-54650000D01*
D10*
X88020000Y-57600000D02*
X87520000Y-58100000D01*
D11*
X90520000Y-54650000D02*
X90520000Y-57150000D01*
X90520000Y-57150000D02*
X88020000Y-57150000D01*
D10*
X93520000Y-42400000D02*
X93520000Y-57400000D01*
X93520000Y-57400000D02*
X78520000Y-57400000D01*
X83520000Y-56100000D02*
G75*
G02*
X84020000Y-56600000I-1J-500001D01*
G01*
X85020000Y-53600000D02*
G75*
G02*
X83520000Y-52100000I1J1500001D01*
G01*
D11*
%TO.C,SW19*%
X57470000Y-98120000D02*
X59970000Y-98120000D01*
X57470000Y-100620000D02*
X57470000Y-98120000D01*
D10*
X59470000Y-88120000D02*
X74470000Y-88120000D01*
X59470000Y-103120000D02*
X59470000Y-88120000D01*
D11*
X59970000Y-97120000D02*
X59970000Y-101820000D01*
X59970000Y-100620000D02*
X57470000Y-100620000D01*
D10*
X59970000Y-101820000D02*
X64470000Y-101820000D01*
X64470000Y-97120000D02*
X59970000Y-97120000D01*
X64470000Y-97820000D02*
X64470000Y-97120000D01*
X64970000Y-102320000D02*
X64970000Y-103320000D01*
X65470000Y-103820000D02*
X64970000Y-103320000D01*
X68470000Y-99320000D02*
X65970000Y-99320000D01*
X68470000Y-103820000D02*
X65470000Y-103820000D01*
X68970000Y-99820000D02*
X68470000Y-99320000D01*
D11*
X68970000Y-99870000D02*
X68970000Y-103320000D01*
X68970000Y-100370000D02*
X71470000Y-100370000D01*
D10*
X68970000Y-103320000D02*
X68470000Y-103820000D01*
D11*
X71470000Y-100370000D02*
X71470000Y-102870000D01*
X71470000Y-102870000D02*
X68970000Y-102870000D01*
D10*
X74470000Y-88120000D02*
X74470000Y-103120000D01*
X74470000Y-103120000D02*
X59470000Y-103120000D01*
X64470000Y-101820000D02*
G75*
G02*
X64970000Y-102320000I-1J-500001D01*
G01*
X65970000Y-99320000D02*
G75*
G02*
X64470000Y-97820000I1J1500001D01*
G01*
D11*
%TO.C,SW20*%
X38420000Y-102882500D02*
X40920000Y-102882500D01*
X38420000Y-105382500D02*
X38420000Y-102882500D01*
D10*
X40420000Y-92882500D02*
X55420000Y-92882500D01*
X40420000Y-107882500D02*
X40420000Y-92882500D01*
D11*
X40920000Y-101882500D02*
X40920000Y-106582500D01*
X40920000Y-105382500D02*
X38420000Y-105382500D01*
D10*
X40920000Y-106582500D02*
X45420000Y-106582500D01*
X45420000Y-101882500D02*
X40920000Y-101882500D01*
X45420000Y-102582500D02*
X45420000Y-101882500D01*
X45920000Y-107082500D02*
X45920000Y-108082500D01*
X46420000Y-108582500D02*
X45920000Y-108082500D01*
X49420000Y-104082500D02*
X46920000Y-104082500D01*
X49420000Y-108582500D02*
X46420000Y-108582500D01*
X49920000Y-104582500D02*
X49420000Y-104082500D01*
D11*
X49920000Y-104632500D02*
X49920000Y-108082500D01*
X49920000Y-105132500D02*
X52420000Y-105132500D01*
D10*
X49920000Y-108082500D02*
X49420000Y-108582500D01*
D11*
X52420000Y-105132500D02*
X52420000Y-107632500D01*
X52420000Y-107632500D02*
X49920000Y-107632500D01*
D10*
X55420000Y-92882500D02*
X55420000Y-107882500D01*
X55420000Y-107882500D02*
X40420000Y-107882500D01*
X45420000Y-106582500D02*
G75*
G02*
X45920000Y-107082500I-1J-500001D01*
G01*
X46920000Y-104082500D02*
G75*
G02*
X45420000Y-102582500I1J1500001D01*
G01*
D11*
%TO.C,SW18*%
X152720000Y-93357500D02*
X155220000Y-93357500D01*
X152720000Y-95857500D02*
X152720000Y-93357500D01*
D10*
X154720000Y-83357500D02*
X169720000Y-83357500D01*
X154720000Y-98357500D02*
X154720000Y-83357500D01*
D11*
X155220000Y-92357500D02*
X155220000Y-97057500D01*
X155220000Y-95857500D02*
X152720000Y-95857500D01*
D10*
X155220000Y-97057500D02*
X159720000Y-97057500D01*
X159720000Y-92357500D02*
X155220000Y-92357500D01*
X159720000Y-93057500D02*
X159720000Y-92357500D01*
X160220000Y-97557500D02*
X160220000Y-98557500D01*
X160720000Y-99057500D02*
X160220000Y-98557500D01*
X163720000Y-94557500D02*
X161220000Y-94557500D01*
X163720000Y-99057500D02*
X160720000Y-99057500D01*
X164220000Y-95057500D02*
X163720000Y-94557500D01*
D11*
X164220000Y-95107500D02*
X164220000Y-98557500D01*
X164220000Y-95607500D02*
X166720000Y-95607500D01*
D10*
X164220000Y-98557500D02*
X163720000Y-99057500D01*
D11*
X166720000Y-95607500D02*
X166720000Y-98107500D01*
X166720000Y-98107500D02*
X164220000Y-98107500D01*
D10*
X169720000Y-83357500D02*
X169720000Y-98357500D01*
X169720000Y-98357500D02*
X154720000Y-98357500D01*
X159720000Y-97057500D02*
G75*
G02*
X160220000Y-97557500I-1J-500001D01*
G01*
X161220000Y-94557500D02*
G75*
G02*
X159720000Y-93057500I1J1500001D01*
G01*
D11*
%TO.C,SW17*%
X133670000Y-93357500D02*
X136170000Y-93357500D01*
X133670000Y-95857500D02*
X133670000Y-93357500D01*
D10*
X135670000Y-83357500D02*
X150670000Y-83357500D01*
X135670000Y-98357500D02*
X135670000Y-83357500D01*
D11*
X136170000Y-92357500D02*
X136170000Y-97057500D01*
X136170000Y-95857500D02*
X133670000Y-95857500D01*
D10*
X136170000Y-97057500D02*
X140670000Y-97057500D01*
X140670000Y-92357500D02*
X136170000Y-92357500D01*
X140670000Y-93057500D02*
X140670000Y-92357500D01*
X141170000Y-97557500D02*
X141170000Y-98557500D01*
X141670000Y-99057500D02*
X141170000Y-98557500D01*
X144670000Y-94557500D02*
X142170000Y-94557500D01*
X144670000Y-99057500D02*
X141670000Y-99057500D01*
X145170000Y-95057500D02*
X144670000Y-94557500D01*
D11*
X145170000Y-95107500D02*
X145170000Y-98557500D01*
X145170000Y-95607500D02*
X147670000Y-95607500D01*
D10*
X145170000Y-98557500D02*
X144670000Y-99057500D01*
D11*
X147670000Y-95607500D02*
X147670000Y-98107500D01*
X147670000Y-98107500D02*
X145170000Y-98107500D01*
D10*
X150670000Y-83357500D02*
X150670000Y-98357500D01*
X150670000Y-98357500D02*
X135670000Y-98357500D01*
X140670000Y-97057500D02*
G75*
G02*
X141170000Y-97557500I-1J-500001D01*
G01*
X142170000Y-94557500D02*
G75*
G02*
X140670000Y-93057500I1J1500001D01*
G01*
D11*
%TO.C,SW3*%
X114620000Y-52400000D02*
X117120000Y-52400000D01*
X114620000Y-54900000D02*
X114620000Y-52400000D01*
D10*
X116620000Y-42400000D02*
X131620000Y-42400000D01*
X116620000Y-57400000D02*
X116620000Y-42400000D01*
D11*
X117120000Y-51400000D02*
X117120000Y-56100000D01*
X117120000Y-54900000D02*
X114620000Y-54900000D01*
D10*
X117120000Y-56100000D02*
X121620000Y-56100000D01*
X121620000Y-51400000D02*
X117120000Y-51400000D01*
X121620000Y-52100000D02*
X121620000Y-51400000D01*
X122120000Y-56600000D02*
X122120000Y-57600000D01*
X122620000Y-58100000D02*
X122120000Y-57600000D01*
X125620000Y-53600000D02*
X123120000Y-53600000D01*
X125620000Y-58100000D02*
X122620000Y-58100000D01*
X126120000Y-54100000D02*
X125620000Y-53600000D01*
D11*
X126120000Y-54150000D02*
X126120000Y-57600000D01*
X126120000Y-54650000D02*
X128620000Y-54650000D01*
D10*
X126120000Y-57600000D02*
X125620000Y-58100000D01*
D11*
X128620000Y-54650000D02*
X128620000Y-57150000D01*
X128620000Y-57150000D02*
X126120000Y-57150000D01*
D10*
X131620000Y-42400000D02*
X131620000Y-57400000D01*
X131620000Y-57400000D02*
X116620000Y-57400000D01*
X121620000Y-56100000D02*
G75*
G02*
X122120000Y-56600000I-1J-500001D01*
G01*
X123120000Y-53600000D02*
G75*
G02*
X121620000Y-52100000I1J1500001D01*
G01*
D11*
%TO.C,SW6*%
X38420000Y-64782500D02*
X40920000Y-64782500D01*
X38420000Y-67282500D02*
X38420000Y-64782500D01*
D10*
X40420000Y-54782500D02*
X55420000Y-54782500D01*
X40420000Y-69782500D02*
X40420000Y-54782500D01*
D11*
X40920000Y-63782500D02*
X40920000Y-68482500D01*
X40920000Y-67282500D02*
X38420000Y-67282500D01*
D10*
X40920000Y-68482500D02*
X45420000Y-68482500D01*
X45420000Y-63782500D02*
X40920000Y-63782500D01*
X45420000Y-64482500D02*
X45420000Y-63782500D01*
X45920000Y-68982500D02*
X45920000Y-69982500D01*
X46420000Y-70482500D02*
X45920000Y-69982500D01*
X49420000Y-65982500D02*
X46920000Y-65982500D01*
X49420000Y-70482500D02*
X46420000Y-70482500D01*
X49920000Y-66482500D02*
X49420000Y-65982500D01*
D11*
X49920000Y-66532500D02*
X49920000Y-69982500D01*
X49920000Y-67032500D02*
X52420000Y-67032500D01*
D10*
X49920000Y-69982500D02*
X49420000Y-70482500D01*
D11*
X52420000Y-67032500D02*
X52420000Y-69532500D01*
X52420000Y-69532500D02*
X49920000Y-69532500D01*
D10*
X55420000Y-54782500D02*
X55420000Y-69782500D01*
X55420000Y-69782500D02*
X40420000Y-69782500D01*
X45420000Y-68482500D02*
G75*
G02*
X45920000Y-68982500I-1J-500001D01*
G01*
X46920000Y-65982500D02*
G75*
G02*
X45420000Y-64482500I1J1500001D01*
G01*
D11*
%TO.C,SW8*%
X76520000Y-71450000D02*
X79020000Y-71450000D01*
X76520000Y-73950000D02*
X76520000Y-71450000D01*
D10*
X78520000Y-61450000D02*
X93520000Y-61450000D01*
X78520000Y-76450000D02*
X78520000Y-61450000D01*
D11*
X79020000Y-70450000D02*
X79020000Y-75150000D01*
X79020000Y-73950000D02*
X76520000Y-73950000D01*
D10*
X79020000Y-75150000D02*
X83520000Y-75150000D01*
X83520000Y-70450000D02*
X79020000Y-70450000D01*
X83520000Y-71150000D02*
X83520000Y-70450000D01*
X84020000Y-75650000D02*
X84020000Y-76650000D01*
X84520000Y-77150000D02*
X84020000Y-76650000D01*
X87520000Y-72650000D02*
X85020000Y-72650000D01*
X87520000Y-77150000D02*
X84520000Y-77150000D01*
X88020000Y-73150000D02*
X87520000Y-72650000D01*
D11*
X88020000Y-73200000D02*
X88020000Y-76650000D01*
X88020000Y-73700000D02*
X90520000Y-73700000D01*
D10*
X88020000Y-76650000D02*
X87520000Y-77150000D01*
D11*
X90520000Y-73700000D02*
X90520000Y-76200000D01*
X90520000Y-76200000D02*
X88020000Y-76200000D01*
D10*
X93520000Y-61450000D02*
X93520000Y-76450000D01*
X93520000Y-76450000D02*
X78520000Y-76450000D01*
X83520000Y-75150000D02*
G75*
G02*
X84020000Y-75650000I-1J-500001D01*
G01*
X85020000Y-72650000D02*
G75*
G02*
X83520000Y-71150000I1J1500001D01*
G01*
D11*
%TO.C,SW11*%
X152720000Y-74307500D02*
X155220000Y-74307500D01*
X152720000Y-76807500D02*
X152720000Y-74307500D01*
D10*
X154720000Y-64307500D02*
X169720000Y-64307500D01*
X154720000Y-79307500D02*
X154720000Y-64307500D01*
D11*
X155220000Y-73307500D02*
X155220000Y-78007500D01*
X155220000Y-76807500D02*
X152720000Y-76807500D01*
D10*
X155220000Y-78007500D02*
X159720000Y-78007500D01*
X159720000Y-73307500D02*
X155220000Y-73307500D01*
X159720000Y-74007500D02*
X159720000Y-73307500D01*
X160220000Y-78507500D02*
X160220000Y-79507500D01*
X160720000Y-80007500D02*
X160220000Y-79507500D01*
X163720000Y-75507500D02*
X161220000Y-75507500D01*
X163720000Y-80007500D02*
X160720000Y-80007500D01*
X164220000Y-76007500D02*
X163720000Y-75507500D01*
D11*
X164220000Y-76057500D02*
X164220000Y-79507500D01*
X164220000Y-76557500D02*
X166720000Y-76557500D01*
D10*
X164220000Y-79507500D02*
X163720000Y-80007500D01*
D11*
X166720000Y-76557500D02*
X166720000Y-79057500D01*
X166720000Y-79057500D02*
X164220000Y-79057500D01*
D10*
X169720000Y-64307500D02*
X169720000Y-79307500D01*
X169720000Y-79307500D02*
X154720000Y-79307500D01*
X159720000Y-78007500D02*
G75*
G02*
X160220000Y-78507500I-1J-500001D01*
G01*
X161220000Y-75507500D02*
G75*
G02*
X159720000Y-74007500I1J1500001D01*
G01*
D11*
%TO.C,SW15*%
X76520000Y-90500000D02*
X79020000Y-90500000D01*
X76520000Y-93000000D02*
X76520000Y-90500000D01*
D10*
X78520000Y-80500000D02*
X93520000Y-80500000D01*
X78520000Y-95500000D02*
X78520000Y-80500000D01*
D11*
X79020000Y-89500000D02*
X79020000Y-94200000D01*
X79020000Y-93000000D02*
X76520000Y-93000000D01*
D10*
X79020000Y-94200000D02*
X83520000Y-94200000D01*
X83520000Y-89500000D02*
X79020000Y-89500000D01*
X83520000Y-90200000D02*
X83520000Y-89500000D01*
X84020000Y-94700000D02*
X84020000Y-95700000D01*
X84520000Y-96200000D02*
X84020000Y-95700000D01*
X87520000Y-91700000D02*
X85020000Y-91700000D01*
X87520000Y-96200000D02*
X84520000Y-96200000D01*
X88020000Y-92200000D02*
X87520000Y-91700000D01*
D11*
X88020000Y-92250000D02*
X88020000Y-95700000D01*
X88020000Y-92750000D02*
X90520000Y-92750000D01*
D10*
X88020000Y-95700000D02*
X87520000Y-96200000D01*
D11*
X90520000Y-92750000D02*
X90520000Y-95250000D01*
X90520000Y-95250000D02*
X88020000Y-95250000D01*
D10*
X93520000Y-80500000D02*
X93520000Y-95500000D01*
X93520000Y-95500000D02*
X78520000Y-95500000D01*
X83520000Y-94200000D02*
G75*
G02*
X84020000Y-94700000I-1J-500001D01*
G01*
X85020000Y-91700000D02*
G75*
G02*
X83520000Y-90200000I1J1500001D01*
G01*
D11*
%TO.C,SW10*%
X133670000Y-74307500D02*
X136170000Y-74307500D01*
X133670000Y-76807500D02*
X133670000Y-74307500D01*
D10*
X135670000Y-64307500D02*
X150670000Y-64307500D01*
X135670000Y-79307500D02*
X135670000Y-64307500D01*
D11*
X136170000Y-73307500D02*
X136170000Y-78007500D01*
X136170000Y-76807500D02*
X133670000Y-76807500D01*
D10*
X136170000Y-78007500D02*
X140670000Y-78007500D01*
X140670000Y-73307500D02*
X136170000Y-73307500D01*
X140670000Y-74007500D02*
X140670000Y-73307500D01*
X141170000Y-78507500D02*
X141170000Y-79507500D01*
X141670000Y-80007500D02*
X141170000Y-79507500D01*
X144670000Y-75507500D02*
X142170000Y-75507500D01*
X144670000Y-80007500D02*
X141670000Y-80007500D01*
X145170000Y-76007500D02*
X144670000Y-75507500D01*
D11*
X145170000Y-76057500D02*
X145170000Y-79507500D01*
X145170000Y-76557500D02*
X147670000Y-76557500D01*
D10*
X145170000Y-79507500D02*
X144670000Y-80007500D01*
D11*
X147670000Y-76557500D02*
X147670000Y-79057500D01*
X147670000Y-79057500D02*
X145170000Y-79057500D01*
D10*
X150670000Y-64307500D02*
X150670000Y-79307500D01*
X150670000Y-79307500D02*
X135670000Y-79307500D01*
X140670000Y-78007500D02*
G75*
G02*
X141170000Y-78507500I-1J-500001D01*
G01*
X142170000Y-75507500D02*
G75*
G02*
X140670000Y-74007500I1J1500001D01*
G01*
D11*
%TO.C,SW12*%
X57470000Y-79070000D02*
X59970000Y-79070000D01*
X57470000Y-81570000D02*
X57470000Y-79070000D01*
D10*
X59470000Y-69070000D02*
X74470000Y-69070000D01*
X59470000Y-84070000D02*
X59470000Y-69070000D01*
D11*
X59970000Y-78070000D02*
X59970000Y-82770000D01*
X59970000Y-81570000D02*
X57470000Y-81570000D01*
D10*
X59970000Y-82770000D02*
X64470000Y-82770000D01*
X64470000Y-78070000D02*
X59970000Y-78070000D01*
X64470000Y-78770000D02*
X64470000Y-78070000D01*
X64970000Y-83270000D02*
X64970000Y-84270000D01*
X65470000Y-84770000D02*
X64970000Y-84270000D01*
X68470000Y-80270000D02*
X65970000Y-80270000D01*
X68470000Y-84770000D02*
X65470000Y-84770000D01*
X68970000Y-80770000D02*
X68470000Y-80270000D01*
D11*
X68970000Y-80820000D02*
X68970000Y-84270000D01*
X68970000Y-81320000D02*
X71470000Y-81320000D01*
D10*
X68970000Y-84270000D02*
X68470000Y-84770000D01*
D11*
X71470000Y-81320000D02*
X71470000Y-83820000D01*
X71470000Y-83820000D02*
X68970000Y-83820000D01*
D10*
X74470000Y-69070000D02*
X74470000Y-84070000D01*
X74470000Y-84070000D02*
X59470000Y-84070000D01*
X64470000Y-82770000D02*
G75*
G02*
X64970000Y-83270000I-1J-500001D01*
G01*
X65970000Y-80270000D02*
G75*
G02*
X64470000Y-78770000I1J1500001D01*
G01*
D11*
%TO.C,SW5*%
X57470000Y-60020000D02*
X59970000Y-60020000D01*
X57470000Y-62520000D02*
X57470000Y-60020000D01*
D10*
X59470000Y-50020000D02*
X74470000Y-50020000D01*
X59470000Y-65020000D02*
X59470000Y-50020000D01*
D11*
X59970000Y-59020000D02*
X59970000Y-63720000D01*
X59970000Y-62520000D02*
X57470000Y-62520000D01*
D10*
X59970000Y-63720000D02*
X64470000Y-63720000D01*
X64470000Y-59020000D02*
X59970000Y-59020000D01*
X64470000Y-59720000D02*
X64470000Y-59020000D01*
X64970000Y-64220000D02*
X64970000Y-65220000D01*
X65470000Y-65720000D02*
X64970000Y-65220000D01*
X68470000Y-61220000D02*
X65970000Y-61220000D01*
X68470000Y-65720000D02*
X65470000Y-65720000D01*
X68970000Y-61720000D02*
X68470000Y-61220000D01*
D11*
X68970000Y-61770000D02*
X68970000Y-65220000D01*
X68970000Y-62270000D02*
X71470000Y-62270000D01*
D10*
X68970000Y-65220000D02*
X68470000Y-65720000D01*
D11*
X71470000Y-62270000D02*
X71470000Y-64770000D01*
X71470000Y-64770000D02*
X68970000Y-64770000D01*
D10*
X74470000Y-50020000D02*
X74470000Y-65020000D01*
X74470000Y-65020000D02*
X59470000Y-65020000D01*
X64470000Y-63720000D02*
G75*
G02*
X64970000Y-64220000I-1J-500001D01*
G01*
X65970000Y-61220000D02*
G75*
G02*
X64470000Y-59720000I1J1500001D01*
G01*
D11*
%TO.C,SW7*%
X95570000Y-68592500D02*
X98070000Y-68592500D01*
X95570000Y-71092500D02*
X95570000Y-68592500D01*
D10*
X97570000Y-58592500D02*
X112570000Y-58592500D01*
X97570000Y-73592500D02*
X97570000Y-58592500D01*
D11*
X98070000Y-67592500D02*
X98070000Y-72292500D01*
X98070000Y-71092500D02*
X95570000Y-71092500D01*
D10*
X98070000Y-72292500D02*
X102570000Y-72292500D01*
X102570000Y-67592500D02*
X98070000Y-67592500D01*
X102570000Y-68292500D02*
X102570000Y-67592500D01*
X103070000Y-72792500D02*
X103070000Y-73792500D01*
X103570000Y-74292500D02*
X103070000Y-73792500D01*
X106570000Y-69792500D02*
X104070000Y-69792500D01*
X106570000Y-74292500D02*
X103570000Y-74292500D01*
X107070000Y-70292500D02*
X106570000Y-69792500D01*
D11*
X107070000Y-70342500D02*
X107070000Y-73792500D01*
X107070000Y-70842500D02*
X109570000Y-70842500D01*
D10*
X107070000Y-73792500D02*
X106570000Y-74292500D01*
D11*
X109570000Y-70842500D02*
X109570000Y-73342500D01*
X109570000Y-73342500D02*
X107070000Y-73342500D01*
D10*
X112570000Y-58592500D02*
X112570000Y-73592500D01*
X112570000Y-73592500D02*
X97570000Y-73592500D01*
X102570000Y-72292500D02*
G75*
G02*
X103070000Y-72792500I-1J-500001D01*
G01*
X104070000Y-69792500D02*
G75*
G02*
X102570000Y-68292500I1J1500001D01*
G01*
D12*
%TO.C,SW33*%
X82350000Y-24650000D02*
X82350000Y-30650000D01*
X82350000Y-30650000D02*
X88350000Y-30650000D01*
X85350000Y-24650000D02*
X82350000Y-24650000D01*
X88350000Y-24650000D02*
X85350000Y-24650000D01*
X88350000Y-30650000D02*
X88350000Y-24650000D01*
X87365564Y-27650000D02*
G75*
G02*
X83334436Y-27650000I-2015564J0D01*
G01*
X83334436Y-27650000D02*
G75*
G02*
X87365564Y-27650000I2015564J0D01*
G01*
D11*
%TO.C,SW27*%
X38420000Y-121932500D02*
X40920000Y-121932500D01*
X38420000Y-124432500D02*
X38420000Y-121932500D01*
D10*
X40420000Y-111932500D02*
X55420000Y-111932500D01*
X40420000Y-126932500D02*
X40420000Y-111932500D01*
D11*
X40920000Y-120932500D02*
X40920000Y-125632500D01*
X40920000Y-124432500D02*
X38420000Y-124432500D01*
D10*
X40920000Y-125632500D02*
X45420000Y-125632500D01*
X45420000Y-120932500D02*
X40920000Y-120932500D01*
X45420000Y-121632500D02*
X45420000Y-120932500D01*
X45920000Y-126132500D02*
X45920000Y-127132500D01*
X46420000Y-127632500D02*
X45920000Y-127132500D01*
X49420000Y-123132500D02*
X46920000Y-123132500D01*
X49420000Y-127632500D02*
X46420000Y-127632500D01*
X49920000Y-123632500D02*
X49420000Y-123132500D01*
D11*
X49920000Y-123682500D02*
X49920000Y-127132500D01*
X49920000Y-124182500D02*
X52420000Y-124182500D01*
D10*
X49920000Y-127132500D02*
X49420000Y-127632500D01*
D11*
X52420000Y-124182500D02*
X52420000Y-126682500D01*
X52420000Y-126682500D02*
X49920000Y-126682500D01*
D10*
X55420000Y-111932500D02*
X55420000Y-126932500D01*
X55420000Y-126932500D02*
X40420000Y-126932500D01*
X45420000Y-125632500D02*
G75*
G02*
X45920000Y-126132500I-1J-500001D01*
G01*
X46920000Y-123132500D02*
G75*
G02*
X45420000Y-121632500I1J1500001D01*
G01*
D11*
%TO.C,SW22*%
X76520000Y-109550000D02*
X79020000Y-109550000D01*
X76520000Y-112050000D02*
X76520000Y-109550000D01*
D10*
X78520000Y-99550000D02*
X93520000Y-99550000D01*
X78520000Y-114550000D02*
X78520000Y-99550000D01*
D11*
X79020000Y-108550000D02*
X79020000Y-113250000D01*
X79020000Y-112050000D02*
X76520000Y-112050000D01*
D10*
X79020000Y-113250000D02*
X83520000Y-113250000D01*
X83520000Y-108550000D02*
X79020000Y-108550000D01*
X83520000Y-109250000D02*
X83520000Y-108550000D01*
X84020000Y-113750000D02*
X84020000Y-114750000D01*
X84520000Y-115250000D02*
X84020000Y-114750000D01*
X87520000Y-110750000D02*
X85020000Y-110750000D01*
X87520000Y-115250000D02*
X84520000Y-115250000D01*
X88020000Y-111250000D02*
X87520000Y-110750000D01*
D11*
X88020000Y-111300000D02*
X88020000Y-114750000D01*
X88020000Y-111800000D02*
X90520000Y-111800000D01*
D10*
X88020000Y-114750000D02*
X87520000Y-115250000D01*
D11*
X90520000Y-111800000D02*
X90520000Y-114300000D01*
X90520000Y-114300000D02*
X88020000Y-114300000D01*
D10*
X93520000Y-99550000D02*
X93520000Y-114550000D01*
X93520000Y-114550000D02*
X78520000Y-114550000D01*
X83520000Y-113250000D02*
G75*
G02*
X84020000Y-113750000I-1J-500001D01*
G01*
X85020000Y-110750000D02*
G75*
G02*
X83520000Y-109250000I1J1500001D01*
G01*
D11*
%TO.C,SW23*%
X114620000Y-109550000D02*
X117120000Y-109550000D01*
X114620000Y-112050000D02*
X114620000Y-109550000D01*
D10*
X116620000Y-99550000D02*
X131620000Y-99550000D01*
X116620000Y-114550000D02*
X116620000Y-99550000D01*
D11*
X117120000Y-108550000D02*
X117120000Y-113250000D01*
X117120000Y-112050000D02*
X114620000Y-112050000D01*
D10*
X117120000Y-113250000D02*
X121620000Y-113250000D01*
X121620000Y-108550000D02*
X117120000Y-108550000D01*
X121620000Y-109250000D02*
X121620000Y-108550000D01*
X122120000Y-113750000D02*
X122120000Y-114750000D01*
X122620000Y-115250000D02*
X122120000Y-114750000D01*
X125620000Y-110750000D02*
X123120000Y-110750000D01*
X125620000Y-115250000D02*
X122620000Y-115250000D01*
X126120000Y-111250000D02*
X125620000Y-110750000D01*
D11*
X126120000Y-111300000D02*
X126120000Y-114750000D01*
X126120000Y-111800000D02*
X128620000Y-111800000D01*
D10*
X126120000Y-114750000D02*
X125620000Y-115250000D01*
D11*
X128620000Y-111800000D02*
X128620000Y-114300000D01*
X128620000Y-114300000D02*
X126120000Y-114300000D01*
D10*
X131620000Y-99550000D02*
X131620000Y-114550000D01*
X131620000Y-114550000D02*
X116620000Y-114550000D01*
X121620000Y-113250000D02*
G75*
G02*
X122120000Y-113750000I-1J-500001D01*
G01*
X123120000Y-110750000D02*
G75*
G02*
X121620000Y-109250000I1J1500001D01*
G01*
%TO.C,SWI1*%
D12*
X92600000Y-32290000D02*
X96600000Y-32290000D01*
X96600000Y-23590000D01*
X92600000Y-23590000D01*
X92600000Y-32290000D01*
D11*
%TO.C,SW1*%
X95570000Y-49542500D02*
X98070000Y-49542500D01*
X95570000Y-52042500D02*
X95570000Y-49542500D01*
D10*
X97570000Y-39542500D02*
X112570000Y-39542500D01*
X97570000Y-54542500D02*
X97570000Y-39542500D01*
D11*
X98070000Y-48542500D02*
X98070000Y-53242500D01*
X98070000Y-52042500D02*
X95570000Y-52042500D01*
D10*
X98070000Y-53242500D02*
X102570000Y-53242500D01*
X102570000Y-48542500D02*
X98070000Y-48542500D01*
X102570000Y-49242500D02*
X102570000Y-48542500D01*
X103070000Y-53742500D02*
X103070000Y-54742500D01*
X103570000Y-55242500D02*
X103070000Y-54742500D01*
X106570000Y-50742500D02*
X104070000Y-50742500D01*
X106570000Y-55242500D02*
X103570000Y-55242500D01*
X107070000Y-51242500D02*
X106570000Y-50742500D01*
D11*
X107070000Y-51292500D02*
X107070000Y-54742500D01*
X107070000Y-51792500D02*
X109570000Y-51792500D01*
D10*
X107070000Y-54742500D02*
X106570000Y-55242500D01*
D11*
X109570000Y-51792500D02*
X109570000Y-54292500D01*
X109570000Y-54292500D02*
X107070000Y-54292500D01*
D10*
X112570000Y-39542500D02*
X112570000Y-54542500D01*
X112570000Y-54542500D02*
X97570000Y-54542500D01*
X102570000Y-53242500D02*
G75*
G02*
X103070000Y-53742500I-1J-500001D01*
G01*
X104070000Y-50742500D02*
G75*
G02*
X102570000Y-49242500I1J1500001D01*
G01*
D11*
%TO.C,SW24*%
X133670000Y-112407500D02*
X136170000Y-112407500D01*
X133670000Y-114907500D02*
X133670000Y-112407500D01*
D10*
X135670000Y-102407500D02*
X150670000Y-102407500D01*
X135670000Y-117407500D02*
X135670000Y-102407500D01*
D11*
X136170000Y-111407500D02*
X136170000Y-116107500D01*
X136170000Y-114907500D02*
X133670000Y-114907500D01*
D10*
X136170000Y-116107500D02*
X140670000Y-116107500D01*
X140670000Y-111407500D02*
X136170000Y-111407500D01*
X140670000Y-112107500D02*
X140670000Y-111407500D01*
X141170000Y-116607500D02*
X141170000Y-117607500D01*
X141670000Y-118107500D02*
X141170000Y-117607500D01*
X144670000Y-113607500D02*
X142170000Y-113607500D01*
X144670000Y-118107500D02*
X141670000Y-118107500D01*
X145170000Y-114107500D02*
X144670000Y-113607500D01*
D11*
X145170000Y-114157500D02*
X145170000Y-117607500D01*
X145170000Y-114657500D02*
X147670000Y-114657500D01*
D10*
X145170000Y-117607500D02*
X144670000Y-118107500D01*
D11*
X147670000Y-114657500D02*
X147670000Y-117157500D01*
X147670000Y-117157500D02*
X145170000Y-117157500D01*
D10*
X150670000Y-102407500D02*
X150670000Y-117407500D01*
X150670000Y-117407500D02*
X135670000Y-117407500D01*
X140670000Y-116107500D02*
G75*
G02*
X141170000Y-116607500I-1J-500001D01*
G01*
X142170000Y-113607500D02*
G75*
G02*
X140670000Y-112107500I1J1500001D01*
G01*
%TD*%
M02*
