%TF.GenerationSoftware,KiCad,Pcbnew,9.0.2+dfsg-1*%
%TF.CreationDate,2025-11-17T22:50:06+01:00*%
%TF.ProjectId,LuMo,4c754d6f-2e6b-4696-9361-645f70636258,rev?*%
%TF.SameCoordinates,Original*%
%TF.FileFunction,AssemblyDrawing,Top*%
%FSLAX46Y46*%
G04 Gerber Fmt 4.6, Leading zero omitted, Abs format (unit mm)*
G04 Created by KiCad (PCBNEW 9.0.2+dfsg-1) date 2025-11-17 22:50:06*
%MOMM*%
%LPD*%
G01*
G04 APERTURE LIST*
%ADD10C,0.150000*%
%ADD11C,0.120000*%
%ADD12C,0.100000*%
G04 APERTURE END LIST*
D10*
X169238095Y-130834819D02*
X169238095Y-129834819D01*
X169238095Y-130311009D02*
X169809523Y-130311009D01*
X169809523Y-130834819D02*
X169809523Y-129834819D01*
X170190476Y-129834819D02*
X170809523Y-129834819D01*
X170809523Y-129834819D02*
X170476190Y-130215771D01*
X170476190Y-130215771D02*
X170619047Y-130215771D01*
X170619047Y-130215771D02*
X170714285Y-130263390D01*
X170714285Y-130263390D02*
X170761904Y-130311009D01*
X170761904Y-130311009D02*
X170809523Y-130406247D01*
X170809523Y-130406247D02*
X170809523Y-130644342D01*
X170809523Y-130644342D02*
X170761904Y-130739580D01*
X170761904Y-130739580D02*
X170714285Y-130787200D01*
X170714285Y-130787200D02*
X170619047Y-130834819D01*
X170619047Y-130834819D02*
X170333333Y-130834819D01*
X170333333Y-130834819D02*
X170238095Y-130787200D01*
X170238095Y-130787200D02*
X170190476Y-130739580D01*
X145383323Y-136517190D02*
X145508987Y-136600161D01*
X145508987Y-136600161D02*
X145738970Y-136661784D01*
X145738970Y-136661784D02*
X145843287Y-136640437D01*
X145843287Y-136640437D02*
X145901608Y-136606766D01*
X145901608Y-136606766D02*
X145972254Y-136527097D01*
X145972254Y-136527097D02*
X145996904Y-136435105D01*
X145996904Y-136435105D02*
X145975557Y-136330787D01*
X145975557Y-136330787D02*
X145941885Y-136272466D01*
X145941885Y-136272466D02*
X145862217Y-136201820D01*
X145862217Y-136201820D02*
X145690556Y-136106524D01*
X145690556Y-136106524D02*
X145610887Y-136035879D01*
X145610887Y-136035879D02*
X145577216Y-135977557D01*
X145577216Y-135977557D02*
X145555869Y-135873240D01*
X145555869Y-135873240D02*
X145580518Y-135781247D01*
X145580518Y-135781247D02*
X145651164Y-135701579D01*
X145651164Y-135701579D02*
X145709485Y-135667907D01*
X145709485Y-135667907D02*
X145813803Y-135646560D01*
X145813803Y-135646560D02*
X146043785Y-135708183D01*
X146043785Y-135708183D02*
X146169450Y-135791154D01*
X146503750Y-135831431D02*
X146474913Y-136858980D01*
X146474913Y-136858980D02*
X146843770Y-136218332D01*
X146843770Y-136218332D02*
X146842885Y-136957578D01*
X146842885Y-136957578D02*
X147331686Y-136053275D01*
X147607665Y-136127224D02*
X148205619Y-136287445D01*
X148205619Y-136287445D02*
X147785046Y-136569144D01*
X147785046Y-136569144D02*
X147923035Y-136606118D01*
X147923035Y-136606118D02*
X148002704Y-136676764D01*
X148002704Y-136676764D02*
X148036375Y-136735085D01*
X148036375Y-136735085D02*
X148057722Y-136839403D01*
X148057722Y-136839403D02*
X147996099Y-137069385D01*
X147996099Y-137069385D02*
X147925453Y-137149053D01*
X147925453Y-137149053D02*
X147867132Y-137182725D01*
X147867132Y-137182725D02*
X147762814Y-137204072D01*
X147762814Y-137204072D02*
X147486835Y-137130124D01*
X147486835Y-137130124D02*
X147407167Y-137059478D01*
X147407167Y-137059478D02*
X147373495Y-137001157D01*
X148866729Y-137499865D02*
X148314772Y-137351969D01*
X148590751Y-137425917D02*
X148849570Y-136459991D01*
X148849570Y-136459991D02*
X148720603Y-136573331D01*
X148720603Y-136573331D02*
X148603960Y-136640675D01*
X148603960Y-136640675D02*
X148499643Y-136662022D01*
X144836667Y-58164700D02*
X144979524Y-58212319D01*
X144979524Y-58212319D02*
X145217619Y-58212319D01*
X145217619Y-58212319D02*
X145312857Y-58164700D01*
X145312857Y-58164700D02*
X145360476Y-58117080D01*
X145360476Y-58117080D02*
X145408095Y-58021842D01*
X145408095Y-58021842D02*
X145408095Y-57926604D01*
X145408095Y-57926604D02*
X145360476Y-57831366D01*
X145360476Y-57831366D02*
X145312857Y-57783747D01*
X145312857Y-57783747D02*
X145217619Y-57736128D01*
X145217619Y-57736128D02*
X145027143Y-57688509D01*
X145027143Y-57688509D02*
X144931905Y-57640890D01*
X144931905Y-57640890D02*
X144884286Y-57593271D01*
X144884286Y-57593271D02*
X144836667Y-57498033D01*
X144836667Y-57498033D02*
X144836667Y-57402795D01*
X144836667Y-57402795D02*
X144884286Y-57307557D01*
X144884286Y-57307557D02*
X144931905Y-57259938D01*
X144931905Y-57259938D02*
X145027143Y-57212319D01*
X145027143Y-57212319D02*
X145265238Y-57212319D01*
X145265238Y-57212319D02*
X145408095Y-57259938D01*
X145741429Y-57212319D02*
X145979524Y-58212319D01*
X145979524Y-58212319D02*
X146170000Y-57498033D01*
X146170000Y-57498033D02*
X146360476Y-58212319D01*
X146360476Y-58212319D02*
X146598572Y-57212319D01*
X147408095Y-57545652D02*
X147408095Y-58212319D01*
X147170000Y-57164700D02*
X146931905Y-57878985D01*
X146931905Y-57878985D02*
X147550952Y-57878985D01*
X125310476Y-131507200D02*
X125453333Y-131554819D01*
X125453333Y-131554819D02*
X125691428Y-131554819D01*
X125691428Y-131554819D02*
X125786666Y-131507200D01*
X125786666Y-131507200D02*
X125834285Y-131459580D01*
X125834285Y-131459580D02*
X125881904Y-131364342D01*
X125881904Y-131364342D02*
X125881904Y-131269104D01*
X125881904Y-131269104D02*
X125834285Y-131173866D01*
X125834285Y-131173866D02*
X125786666Y-131126247D01*
X125786666Y-131126247D02*
X125691428Y-131078628D01*
X125691428Y-131078628D02*
X125500952Y-131031009D01*
X125500952Y-131031009D02*
X125405714Y-130983390D01*
X125405714Y-130983390D02*
X125358095Y-130935771D01*
X125358095Y-130935771D02*
X125310476Y-130840533D01*
X125310476Y-130840533D02*
X125310476Y-130745295D01*
X125310476Y-130745295D02*
X125358095Y-130650057D01*
X125358095Y-130650057D02*
X125405714Y-130602438D01*
X125405714Y-130602438D02*
X125500952Y-130554819D01*
X125500952Y-130554819D02*
X125739047Y-130554819D01*
X125739047Y-130554819D02*
X125881904Y-130602438D01*
X126215238Y-130554819D02*
X126453333Y-131554819D01*
X126453333Y-131554819D02*
X126643809Y-130840533D01*
X126643809Y-130840533D02*
X126834285Y-131554819D01*
X126834285Y-131554819D02*
X127072381Y-130554819D01*
X127405714Y-130650057D02*
X127453333Y-130602438D01*
X127453333Y-130602438D02*
X127548571Y-130554819D01*
X127548571Y-130554819D02*
X127786666Y-130554819D01*
X127786666Y-130554819D02*
X127881904Y-130602438D01*
X127881904Y-130602438D02*
X127929523Y-130650057D01*
X127929523Y-130650057D02*
X127977142Y-130745295D01*
X127977142Y-130745295D02*
X127977142Y-130840533D01*
X127977142Y-130840533D02*
X127929523Y-130983390D01*
X127929523Y-130983390D02*
X127358095Y-131554819D01*
X127358095Y-131554819D02*
X127977142Y-131554819D01*
X128453333Y-131554819D02*
X128643809Y-131554819D01*
X128643809Y-131554819D02*
X128739047Y-131507200D01*
X128739047Y-131507200D02*
X128786666Y-131459580D01*
X128786666Y-131459580D02*
X128881904Y-131316723D01*
X128881904Y-131316723D02*
X128929523Y-131126247D01*
X128929523Y-131126247D02*
X128929523Y-130745295D01*
X128929523Y-130745295D02*
X128881904Y-130650057D01*
X128881904Y-130650057D02*
X128834285Y-130602438D01*
X128834285Y-130602438D02*
X128739047Y-130554819D01*
X128739047Y-130554819D02*
X128548571Y-130554819D01*
X128548571Y-130554819D02*
X128453333Y-130602438D01*
X128453333Y-130602438D02*
X128405714Y-130650057D01*
X128405714Y-130650057D02*
X128358095Y-130745295D01*
X128358095Y-130745295D02*
X128358095Y-130983390D01*
X128358095Y-130983390D02*
X128405714Y-131078628D01*
X128405714Y-131078628D02*
X128453333Y-131126247D01*
X128453333Y-131126247D02*
X128548571Y-131173866D01*
X128548571Y-131173866D02*
X128739047Y-131173866D01*
X128739047Y-131173866D02*
X128834285Y-131126247D01*
X128834285Y-131126247D02*
X128881904Y-131078628D01*
X128881904Y-131078628D02*
X128929523Y-130983390D01*
X49110476Y-86739700D02*
X49253333Y-86787319D01*
X49253333Y-86787319D02*
X49491428Y-86787319D01*
X49491428Y-86787319D02*
X49586666Y-86739700D01*
X49586666Y-86739700D02*
X49634285Y-86692080D01*
X49634285Y-86692080D02*
X49681904Y-86596842D01*
X49681904Y-86596842D02*
X49681904Y-86501604D01*
X49681904Y-86501604D02*
X49634285Y-86406366D01*
X49634285Y-86406366D02*
X49586666Y-86358747D01*
X49586666Y-86358747D02*
X49491428Y-86311128D01*
X49491428Y-86311128D02*
X49300952Y-86263509D01*
X49300952Y-86263509D02*
X49205714Y-86215890D01*
X49205714Y-86215890D02*
X49158095Y-86168271D01*
X49158095Y-86168271D02*
X49110476Y-86073033D01*
X49110476Y-86073033D02*
X49110476Y-85977795D01*
X49110476Y-85977795D02*
X49158095Y-85882557D01*
X49158095Y-85882557D02*
X49205714Y-85834938D01*
X49205714Y-85834938D02*
X49300952Y-85787319D01*
X49300952Y-85787319D02*
X49539047Y-85787319D01*
X49539047Y-85787319D02*
X49681904Y-85834938D01*
X50015238Y-85787319D02*
X50253333Y-86787319D01*
X50253333Y-86787319D02*
X50443809Y-86073033D01*
X50443809Y-86073033D02*
X50634285Y-86787319D01*
X50634285Y-86787319D02*
X50872381Y-85787319D01*
X51777142Y-86787319D02*
X51205714Y-86787319D01*
X51491428Y-86787319D02*
X51491428Y-85787319D01*
X51491428Y-85787319D02*
X51396190Y-85930176D01*
X51396190Y-85930176D02*
X51300952Y-86025414D01*
X51300952Y-86025414D02*
X51205714Y-86073033D01*
X52110476Y-85787319D02*
X52729523Y-85787319D01*
X52729523Y-85787319D02*
X52396190Y-86168271D01*
X52396190Y-86168271D02*
X52539047Y-86168271D01*
X52539047Y-86168271D02*
X52634285Y-86215890D01*
X52634285Y-86215890D02*
X52681904Y-86263509D01*
X52681904Y-86263509D02*
X52729523Y-86358747D01*
X52729523Y-86358747D02*
X52729523Y-86596842D01*
X52729523Y-86596842D02*
X52681904Y-86692080D01*
X52681904Y-86692080D02*
X52634285Y-86739700D01*
X52634285Y-86739700D02*
X52539047Y-86787319D01*
X52539047Y-86787319D02*
X52253333Y-86787319D01*
X52253333Y-86787319D02*
X52158095Y-86739700D01*
X52158095Y-86739700D02*
X52110476Y-86692080D01*
X92438095Y-37834819D02*
X92438095Y-38549104D01*
X92438095Y-38549104D02*
X92390476Y-38691961D01*
X92390476Y-38691961D02*
X92295238Y-38787200D01*
X92295238Y-38787200D02*
X92152381Y-38834819D01*
X92152381Y-38834819D02*
X92057143Y-38834819D01*
X92866667Y-38787200D02*
X93009524Y-38834819D01*
X93009524Y-38834819D02*
X93247619Y-38834819D01*
X93247619Y-38834819D02*
X93342857Y-38787200D01*
X93342857Y-38787200D02*
X93390476Y-38739580D01*
X93390476Y-38739580D02*
X93438095Y-38644342D01*
X93438095Y-38644342D02*
X93438095Y-38549104D01*
X93438095Y-38549104D02*
X93390476Y-38453866D01*
X93390476Y-38453866D02*
X93342857Y-38406247D01*
X93342857Y-38406247D02*
X93247619Y-38358628D01*
X93247619Y-38358628D02*
X93057143Y-38311009D01*
X93057143Y-38311009D02*
X92961905Y-38263390D01*
X92961905Y-38263390D02*
X92914286Y-38215771D01*
X92914286Y-38215771D02*
X92866667Y-38120533D01*
X92866667Y-38120533D02*
X92866667Y-38025295D01*
X92866667Y-38025295D02*
X92914286Y-37930057D01*
X92914286Y-37930057D02*
X92961905Y-37882438D01*
X92961905Y-37882438D02*
X93057143Y-37834819D01*
X93057143Y-37834819D02*
X93295238Y-37834819D01*
X93295238Y-37834819D02*
X93438095Y-37882438D01*
X93723810Y-37834819D02*
X94295238Y-37834819D01*
X94009524Y-38834819D02*
X94009524Y-37834819D01*
X95914286Y-38834819D02*
X95342858Y-38834819D01*
X95628572Y-38834819D02*
X95628572Y-37834819D01*
X95628572Y-37834819D02*
X95533334Y-37977676D01*
X95533334Y-37977676D02*
X95438096Y-38072914D01*
X95438096Y-38072914D02*
X95342858Y-38120533D01*
X96342858Y-38739580D02*
X96390477Y-38787200D01*
X96390477Y-38787200D02*
X96342858Y-38834819D01*
X96342858Y-38834819D02*
X96295239Y-38787200D01*
X96295239Y-38787200D02*
X96342858Y-38739580D01*
X96342858Y-38739580D02*
X96342858Y-38834819D01*
X96771429Y-37930057D02*
X96819048Y-37882438D01*
X96819048Y-37882438D02*
X96914286Y-37834819D01*
X96914286Y-37834819D02*
X97152381Y-37834819D01*
X97152381Y-37834819D02*
X97247619Y-37882438D01*
X97247619Y-37882438D02*
X97295238Y-37930057D01*
X97295238Y-37930057D02*
X97342857Y-38025295D01*
X97342857Y-38025295D02*
X97342857Y-38120533D01*
X97342857Y-38120533D02*
X97295238Y-38263390D01*
X97295238Y-38263390D02*
X96723810Y-38834819D01*
X96723810Y-38834819D02*
X97342857Y-38834819D01*
X98247619Y-37834819D02*
X97771429Y-37834819D01*
X97771429Y-37834819D02*
X97723810Y-38311009D01*
X97723810Y-38311009D02*
X97771429Y-38263390D01*
X97771429Y-38263390D02*
X97866667Y-38215771D01*
X97866667Y-38215771D02*
X98104762Y-38215771D01*
X98104762Y-38215771D02*
X98200000Y-38263390D01*
X98200000Y-38263390D02*
X98247619Y-38311009D01*
X98247619Y-38311009D02*
X98295238Y-38406247D01*
X98295238Y-38406247D02*
X98295238Y-38644342D01*
X98295238Y-38644342D02*
X98247619Y-38739580D01*
X98247619Y-38739580D02*
X98200000Y-38787200D01*
X98200000Y-38787200D02*
X98104762Y-38834819D01*
X98104762Y-38834819D02*
X97866667Y-38834819D01*
X97866667Y-38834819D02*
X97771429Y-38787200D01*
X97771429Y-38787200D02*
X97723810Y-38739580D01*
X94654819Y-36333333D02*
X95369104Y-36333333D01*
X95369104Y-36333333D02*
X95511961Y-36380952D01*
X95511961Y-36380952D02*
X95607200Y-36476190D01*
X95607200Y-36476190D02*
X95654819Y-36619047D01*
X95654819Y-36619047D02*
X95654819Y-36714285D01*
X95654819Y-35333333D02*
X95654819Y-35904761D01*
X95654819Y-35619047D02*
X94654819Y-35619047D01*
X94654819Y-35619047D02*
X94797676Y-35714285D01*
X94797676Y-35714285D02*
X94892914Y-35809523D01*
X94892914Y-35809523D02*
X94940533Y-35904761D01*
X163410476Y-115314700D02*
X163553333Y-115362319D01*
X163553333Y-115362319D02*
X163791428Y-115362319D01*
X163791428Y-115362319D02*
X163886666Y-115314700D01*
X163886666Y-115314700D02*
X163934285Y-115267080D01*
X163934285Y-115267080D02*
X163981904Y-115171842D01*
X163981904Y-115171842D02*
X163981904Y-115076604D01*
X163981904Y-115076604D02*
X163934285Y-114981366D01*
X163934285Y-114981366D02*
X163886666Y-114933747D01*
X163886666Y-114933747D02*
X163791428Y-114886128D01*
X163791428Y-114886128D02*
X163600952Y-114838509D01*
X163600952Y-114838509D02*
X163505714Y-114790890D01*
X163505714Y-114790890D02*
X163458095Y-114743271D01*
X163458095Y-114743271D02*
X163410476Y-114648033D01*
X163410476Y-114648033D02*
X163410476Y-114552795D01*
X163410476Y-114552795D02*
X163458095Y-114457557D01*
X163458095Y-114457557D02*
X163505714Y-114409938D01*
X163505714Y-114409938D02*
X163600952Y-114362319D01*
X163600952Y-114362319D02*
X163839047Y-114362319D01*
X163839047Y-114362319D02*
X163981904Y-114409938D01*
X164315238Y-114362319D02*
X164553333Y-115362319D01*
X164553333Y-115362319D02*
X164743809Y-114648033D01*
X164743809Y-114648033D02*
X164934285Y-115362319D01*
X164934285Y-115362319D02*
X165172381Y-114362319D01*
X165505714Y-114457557D02*
X165553333Y-114409938D01*
X165553333Y-114409938D02*
X165648571Y-114362319D01*
X165648571Y-114362319D02*
X165886666Y-114362319D01*
X165886666Y-114362319D02*
X165981904Y-114409938D01*
X165981904Y-114409938D02*
X166029523Y-114457557D01*
X166029523Y-114457557D02*
X166077142Y-114552795D01*
X166077142Y-114552795D02*
X166077142Y-114648033D01*
X166077142Y-114648033D02*
X166029523Y-114790890D01*
X166029523Y-114790890D02*
X165458095Y-115362319D01*
X165458095Y-115362319D02*
X166077142Y-115362319D01*
X166981904Y-114362319D02*
X166505714Y-114362319D01*
X166505714Y-114362319D02*
X166458095Y-114838509D01*
X166458095Y-114838509D02*
X166505714Y-114790890D01*
X166505714Y-114790890D02*
X166600952Y-114743271D01*
X166600952Y-114743271D02*
X166839047Y-114743271D01*
X166839047Y-114743271D02*
X166934285Y-114790890D01*
X166934285Y-114790890D02*
X166981904Y-114838509D01*
X166981904Y-114838509D02*
X167029523Y-114933747D01*
X167029523Y-114933747D02*
X167029523Y-115171842D01*
X167029523Y-115171842D02*
X166981904Y-115267080D01*
X166981904Y-115267080D02*
X166934285Y-115314700D01*
X166934285Y-115314700D02*
X166839047Y-115362319D01*
X166839047Y-115362319D02*
X166600952Y-115362319D01*
X166600952Y-115362319D02*
X166505714Y-115314700D01*
X166505714Y-115314700D02*
X166458095Y-115267080D01*
X76429819Y-31203333D02*
X77144104Y-31203333D01*
X77144104Y-31203333D02*
X77286961Y-31250952D01*
X77286961Y-31250952D02*
X77382200Y-31346190D01*
X77382200Y-31346190D02*
X77429819Y-31489047D01*
X77429819Y-31489047D02*
X77429819Y-31584285D01*
X76525057Y-30774761D02*
X76477438Y-30727142D01*
X76477438Y-30727142D02*
X76429819Y-30631904D01*
X76429819Y-30631904D02*
X76429819Y-30393809D01*
X76429819Y-30393809D02*
X76477438Y-30298571D01*
X76477438Y-30298571D02*
X76525057Y-30250952D01*
X76525057Y-30250952D02*
X76620295Y-30203333D01*
X76620295Y-30203333D02*
X76715533Y-30203333D01*
X76715533Y-30203333D02*
X76858390Y-30250952D01*
X76858390Y-30250952D02*
X77429819Y-30822380D01*
X77429819Y-30822380D02*
X77429819Y-30203333D01*
X106260476Y-109599700D02*
X106403333Y-109647319D01*
X106403333Y-109647319D02*
X106641428Y-109647319D01*
X106641428Y-109647319D02*
X106736666Y-109599700D01*
X106736666Y-109599700D02*
X106784285Y-109552080D01*
X106784285Y-109552080D02*
X106831904Y-109456842D01*
X106831904Y-109456842D02*
X106831904Y-109361604D01*
X106831904Y-109361604D02*
X106784285Y-109266366D01*
X106784285Y-109266366D02*
X106736666Y-109218747D01*
X106736666Y-109218747D02*
X106641428Y-109171128D01*
X106641428Y-109171128D02*
X106450952Y-109123509D01*
X106450952Y-109123509D02*
X106355714Y-109075890D01*
X106355714Y-109075890D02*
X106308095Y-109028271D01*
X106308095Y-109028271D02*
X106260476Y-108933033D01*
X106260476Y-108933033D02*
X106260476Y-108837795D01*
X106260476Y-108837795D02*
X106308095Y-108742557D01*
X106308095Y-108742557D02*
X106355714Y-108694938D01*
X106355714Y-108694938D02*
X106450952Y-108647319D01*
X106450952Y-108647319D02*
X106689047Y-108647319D01*
X106689047Y-108647319D02*
X106831904Y-108694938D01*
X107165238Y-108647319D02*
X107403333Y-109647319D01*
X107403333Y-109647319D02*
X107593809Y-108933033D01*
X107593809Y-108933033D02*
X107784285Y-109647319D01*
X107784285Y-109647319D02*
X108022381Y-108647319D01*
X108355714Y-108742557D02*
X108403333Y-108694938D01*
X108403333Y-108694938D02*
X108498571Y-108647319D01*
X108498571Y-108647319D02*
X108736666Y-108647319D01*
X108736666Y-108647319D02*
X108831904Y-108694938D01*
X108831904Y-108694938D02*
X108879523Y-108742557D01*
X108879523Y-108742557D02*
X108927142Y-108837795D01*
X108927142Y-108837795D02*
X108927142Y-108933033D01*
X108927142Y-108933033D02*
X108879523Y-109075890D01*
X108879523Y-109075890D02*
X108308095Y-109647319D01*
X108308095Y-109647319D02*
X108927142Y-109647319D01*
X109879523Y-109647319D02*
X109308095Y-109647319D01*
X109593809Y-109647319D02*
X109593809Y-108647319D01*
X109593809Y-108647319D02*
X109498571Y-108790176D01*
X109498571Y-108790176D02*
X109403333Y-108885414D01*
X109403333Y-108885414D02*
X109308095Y-108933033D01*
X68160476Y-120077200D02*
X68303333Y-120124819D01*
X68303333Y-120124819D02*
X68541428Y-120124819D01*
X68541428Y-120124819D02*
X68636666Y-120077200D01*
X68636666Y-120077200D02*
X68684285Y-120029580D01*
X68684285Y-120029580D02*
X68731904Y-119934342D01*
X68731904Y-119934342D02*
X68731904Y-119839104D01*
X68731904Y-119839104D02*
X68684285Y-119743866D01*
X68684285Y-119743866D02*
X68636666Y-119696247D01*
X68636666Y-119696247D02*
X68541428Y-119648628D01*
X68541428Y-119648628D02*
X68350952Y-119601009D01*
X68350952Y-119601009D02*
X68255714Y-119553390D01*
X68255714Y-119553390D02*
X68208095Y-119505771D01*
X68208095Y-119505771D02*
X68160476Y-119410533D01*
X68160476Y-119410533D02*
X68160476Y-119315295D01*
X68160476Y-119315295D02*
X68208095Y-119220057D01*
X68208095Y-119220057D02*
X68255714Y-119172438D01*
X68255714Y-119172438D02*
X68350952Y-119124819D01*
X68350952Y-119124819D02*
X68589047Y-119124819D01*
X68589047Y-119124819D02*
X68731904Y-119172438D01*
X69065238Y-119124819D02*
X69303333Y-120124819D01*
X69303333Y-120124819D02*
X69493809Y-119410533D01*
X69493809Y-119410533D02*
X69684285Y-120124819D01*
X69684285Y-120124819D02*
X69922381Y-119124819D01*
X70255714Y-119220057D02*
X70303333Y-119172438D01*
X70303333Y-119172438D02*
X70398571Y-119124819D01*
X70398571Y-119124819D02*
X70636666Y-119124819D01*
X70636666Y-119124819D02*
X70731904Y-119172438D01*
X70731904Y-119172438D02*
X70779523Y-119220057D01*
X70779523Y-119220057D02*
X70827142Y-119315295D01*
X70827142Y-119315295D02*
X70827142Y-119410533D01*
X70827142Y-119410533D02*
X70779523Y-119553390D01*
X70779523Y-119553390D02*
X70208095Y-120124819D01*
X70208095Y-120124819D02*
X70827142Y-120124819D01*
X71684285Y-119124819D02*
X71493809Y-119124819D01*
X71493809Y-119124819D02*
X71398571Y-119172438D01*
X71398571Y-119172438D02*
X71350952Y-119220057D01*
X71350952Y-119220057D02*
X71255714Y-119362914D01*
X71255714Y-119362914D02*
X71208095Y-119553390D01*
X71208095Y-119553390D02*
X71208095Y-119934342D01*
X71208095Y-119934342D02*
X71255714Y-120029580D01*
X71255714Y-120029580D02*
X71303333Y-120077200D01*
X71303333Y-120077200D02*
X71398571Y-120124819D01*
X71398571Y-120124819D02*
X71589047Y-120124819D01*
X71589047Y-120124819D02*
X71684285Y-120077200D01*
X71684285Y-120077200D02*
X71731904Y-120029580D01*
X71731904Y-120029580D02*
X71779523Y-119934342D01*
X71779523Y-119934342D02*
X71779523Y-119696247D01*
X71779523Y-119696247D02*
X71731904Y-119601009D01*
X71731904Y-119601009D02*
X71684285Y-119553390D01*
X71684285Y-119553390D02*
X71589047Y-119505771D01*
X71589047Y-119505771D02*
X71398571Y-119505771D01*
X71398571Y-119505771D02*
X71303333Y-119553390D01*
X71303333Y-119553390D02*
X71255714Y-119601009D01*
X71255714Y-119601009D02*
X71208095Y-119696247D01*
X106260476Y-131507200D02*
X106403333Y-131554819D01*
X106403333Y-131554819D02*
X106641428Y-131554819D01*
X106641428Y-131554819D02*
X106736666Y-131507200D01*
X106736666Y-131507200D02*
X106784285Y-131459580D01*
X106784285Y-131459580D02*
X106831904Y-131364342D01*
X106831904Y-131364342D02*
X106831904Y-131269104D01*
X106831904Y-131269104D02*
X106784285Y-131173866D01*
X106784285Y-131173866D02*
X106736666Y-131126247D01*
X106736666Y-131126247D02*
X106641428Y-131078628D01*
X106641428Y-131078628D02*
X106450952Y-131031009D01*
X106450952Y-131031009D02*
X106355714Y-130983390D01*
X106355714Y-130983390D02*
X106308095Y-130935771D01*
X106308095Y-130935771D02*
X106260476Y-130840533D01*
X106260476Y-130840533D02*
X106260476Y-130745295D01*
X106260476Y-130745295D02*
X106308095Y-130650057D01*
X106308095Y-130650057D02*
X106355714Y-130602438D01*
X106355714Y-130602438D02*
X106450952Y-130554819D01*
X106450952Y-130554819D02*
X106689047Y-130554819D01*
X106689047Y-130554819D02*
X106831904Y-130602438D01*
X107165238Y-130554819D02*
X107403333Y-131554819D01*
X107403333Y-131554819D02*
X107593809Y-130840533D01*
X107593809Y-130840533D02*
X107784285Y-131554819D01*
X107784285Y-131554819D02*
X108022381Y-130554819D01*
X108355714Y-130650057D02*
X108403333Y-130602438D01*
X108403333Y-130602438D02*
X108498571Y-130554819D01*
X108498571Y-130554819D02*
X108736666Y-130554819D01*
X108736666Y-130554819D02*
X108831904Y-130602438D01*
X108831904Y-130602438D02*
X108879523Y-130650057D01*
X108879523Y-130650057D02*
X108927142Y-130745295D01*
X108927142Y-130745295D02*
X108927142Y-130840533D01*
X108927142Y-130840533D02*
X108879523Y-130983390D01*
X108879523Y-130983390D02*
X108308095Y-131554819D01*
X108308095Y-131554819D02*
X108927142Y-131554819D01*
X109498571Y-130983390D02*
X109403333Y-130935771D01*
X109403333Y-130935771D02*
X109355714Y-130888152D01*
X109355714Y-130888152D02*
X109308095Y-130792914D01*
X109308095Y-130792914D02*
X109308095Y-130745295D01*
X109308095Y-130745295D02*
X109355714Y-130650057D01*
X109355714Y-130650057D02*
X109403333Y-130602438D01*
X109403333Y-130602438D02*
X109498571Y-130554819D01*
X109498571Y-130554819D02*
X109689047Y-130554819D01*
X109689047Y-130554819D02*
X109784285Y-130602438D01*
X109784285Y-130602438D02*
X109831904Y-130650057D01*
X109831904Y-130650057D02*
X109879523Y-130745295D01*
X109879523Y-130745295D02*
X109879523Y-130792914D01*
X109879523Y-130792914D02*
X109831904Y-130888152D01*
X109831904Y-130888152D02*
X109784285Y-130935771D01*
X109784285Y-130935771D02*
X109689047Y-130983390D01*
X109689047Y-130983390D02*
X109498571Y-130983390D01*
X109498571Y-130983390D02*
X109403333Y-131031009D01*
X109403333Y-131031009D02*
X109355714Y-131078628D01*
X109355714Y-131078628D02*
X109308095Y-131173866D01*
X109308095Y-131173866D02*
X109308095Y-131364342D01*
X109308095Y-131364342D02*
X109355714Y-131459580D01*
X109355714Y-131459580D02*
X109403333Y-131507200D01*
X109403333Y-131507200D02*
X109498571Y-131554819D01*
X109498571Y-131554819D02*
X109689047Y-131554819D01*
X109689047Y-131554819D02*
X109784285Y-131507200D01*
X109784285Y-131507200D02*
X109831904Y-131459580D01*
X109831904Y-131459580D02*
X109879523Y-131364342D01*
X109879523Y-131364342D02*
X109879523Y-131173866D01*
X109879523Y-131173866D02*
X109831904Y-131078628D01*
X109831904Y-131078628D02*
X109784285Y-131031009D01*
X109784285Y-131031009D02*
X109689047Y-130983390D01*
X87210476Y-134364700D02*
X87353333Y-134412319D01*
X87353333Y-134412319D02*
X87591428Y-134412319D01*
X87591428Y-134412319D02*
X87686666Y-134364700D01*
X87686666Y-134364700D02*
X87734285Y-134317080D01*
X87734285Y-134317080D02*
X87781904Y-134221842D01*
X87781904Y-134221842D02*
X87781904Y-134126604D01*
X87781904Y-134126604D02*
X87734285Y-134031366D01*
X87734285Y-134031366D02*
X87686666Y-133983747D01*
X87686666Y-133983747D02*
X87591428Y-133936128D01*
X87591428Y-133936128D02*
X87400952Y-133888509D01*
X87400952Y-133888509D02*
X87305714Y-133840890D01*
X87305714Y-133840890D02*
X87258095Y-133793271D01*
X87258095Y-133793271D02*
X87210476Y-133698033D01*
X87210476Y-133698033D02*
X87210476Y-133602795D01*
X87210476Y-133602795D02*
X87258095Y-133507557D01*
X87258095Y-133507557D02*
X87305714Y-133459938D01*
X87305714Y-133459938D02*
X87400952Y-133412319D01*
X87400952Y-133412319D02*
X87639047Y-133412319D01*
X87639047Y-133412319D02*
X87781904Y-133459938D01*
X88115238Y-133412319D02*
X88353333Y-134412319D01*
X88353333Y-134412319D02*
X88543809Y-133698033D01*
X88543809Y-133698033D02*
X88734285Y-134412319D01*
X88734285Y-134412319D02*
X88972381Y-133412319D01*
X89258095Y-133412319D02*
X89877142Y-133412319D01*
X89877142Y-133412319D02*
X89543809Y-133793271D01*
X89543809Y-133793271D02*
X89686666Y-133793271D01*
X89686666Y-133793271D02*
X89781904Y-133840890D01*
X89781904Y-133840890D02*
X89829523Y-133888509D01*
X89829523Y-133888509D02*
X89877142Y-133983747D01*
X89877142Y-133983747D02*
X89877142Y-134221842D01*
X89877142Y-134221842D02*
X89829523Y-134317080D01*
X89829523Y-134317080D02*
X89781904Y-134364700D01*
X89781904Y-134364700D02*
X89686666Y-134412319D01*
X89686666Y-134412319D02*
X89400952Y-134412319D01*
X89400952Y-134412319D02*
X89305714Y-134364700D01*
X89305714Y-134364700D02*
X89258095Y-134317080D01*
X90496190Y-133412319D02*
X90591428Y-133412319D01*
X90591428Y-133412319D02*
X90686666Y-133459938D01*
X90686666Y-133459938D02*
X90734285Y-133507557D01*
X90734285Y-133507557D02*
X90781904Y-133602795D01*
X90781904Y-133602795D02*
X90829523Y-133793271D01*
X90829523Y-133793271D02*
X90829523Y-134031366D01*
X90829523Y-134031366D02*
X90781904Y-134221842D01*
X90781904Y-134221842D02*
X90734285Y-134317080D01*
X90734285Y-134317080D02*
X90686666Y-134364700D01*
X90686666Y-134364700D02*
X90591428Y-134412319D01*
X90591428Y-134412319D02*
X90496190Y-134412319D01*
X90496190Y-134412319D02*
X90400952Y-134364700D01*
X90400952Y-134364700D02*
X90353333Y-134317080D01*
X90353333Y-134317080D02*
X90305714Y-134221842D01*
X90305714Y-134221842D02*
X90258095Y-134031366D01*
X90258095Y-134031366D02*
X90258095Y-133793271D01*
X90258095Y-133793271D02*
X90305714Y-133602795D01*
X90305714Y-133602795D02*
X90353333Y-133507557D01*
X90353333Y-133507557D02*
X90400952Y-133459938D01*
X90400952Y-133459938D02*
X90496190Y-133412319D01*
X164238933Y-143692124D02*
X164338841Y-143804792D01*
X164338841Y-143804792D02*
X164545038Y-143923840D01*
X164545038Y-143923840D02*
X164651326Y-143930219D01*
X164651326Y-143930219D02*
X164716375Y-143912790D01*
X164716375Y-143912790D02*
X164805233Y-143854121D01*
X164805233Y-143854121D02*
X164852852Y-143771642D01*
X164852852Y-143771642D02*
X164859232Y-143665354D01*
X164859232Y-143665354D02*
X164841802Y-143600305D01*
X164841802Y-143600305D02*
X164783133Y-143511447D01*
X164783133Y-143511447D02*
X164641985Y-143374969D01*
X164641985Y-143374969D02*
X164583316Y-143286111D01*
X164583316Y-143286111D02*
X164565887Y-143221062D01*
X164565887Y-143221062D02*
X164572266Y-143114774D01*
X164572266Y-143114774D02*
X164619885Y-143032295D01*
X164619885Y-143032295D02*
X164708744Y-142973626D01*
X164708744Y-142973626D02*
X164773792Y-142956196D01*
X164773792Y-142956196D02*
X164880081Y-142962576D01*
X164880081Y-142962576D02*
X165086277Y-143081624D01*
X165086277Y-143081624D02*
X165186186Y-143194292D01*
X165498670Y-143319719D02*
X165204867Y-144304792D01*
X165204867Y-144304792D02*
X165726967Y-143781441D01*
X165726967Y-143781441D02*
X165534781Y-144495268D01*
X165534781Y-144495268D02*
X166240978Y-143748290D01*
X166488413Y-143891148D02*
X167024524Y-144200671D01*
X167024524Y-144200671D02*
X166545373Y-144363919D01*
X166545373Y-144363919D02*
X166669091Y-144435348D01*
X166669091Y-144435348D02*
X166727760Y-144524206D01*
X166727760Y-144524206D02*
X166745190Y-144589255D01*
X166745190Y-144589255D02*
X166738810Y-144695543D01*
X166738810Y-144695543D02*
X166619762Y-144901740D01*
X166619762Y-144901740D02*
X166530904Y-144960409D01*
X166530904Y-144960409D02*
X166465855Y-144977838D01*
X166465855Y-144977838D02*
X166359567Y-144971459D01*
X166359567Y-144971459D02*
X166112131Y-144828601D01*
X166112131Y-144828601D02*
X166053462Y-144739743D01*
X166053462Y-144739743D02*
X166036032Y-144674694D01*
X167306820Y-144473626D02*
X167371869Y-144456196D01*
X167371869Y-144456196D02*
X167478157Y-144462576D01*
X167478157Y-144462576D02*
X167684353Y-144581624D01*
X167684353Y-144581624D02*
X167743022Y-144670482D01*
X167743022Y-144670482D02*
X167760452Y-144735531D01*
X167760452Y-144735531D02*
X167754072Y-144841819D01*
X167754072Y-144841819D02*
X167706453Y-144924298D01*
X167706453Y-144924298D02*
X167593786Y-145024206D01*
X167593786Y-145024206D02*
X166813200Y-145233363D01*
X166813200Y-145233363D02*
X167349311Y-145542887D01*
X125310476Y-93407200D02*
X125453333Y-93454819D01*
X125453333Y-93454819D02*
X125691428Y-93454819D01*
X125691428Y-93454819D02*
X125786666Y-93407200D01*
X125786666Y-93407200D02*
X125834285Y-93359580D01*
X125834285Y-93359580D02*
X125881904Y-93264342D01*
X125881904Y-93264342D02*
X125881904Y-93169104D01*
X125881904Y-93169104D02*
X125834285Y-93073866D01*
X125834285Y-93073866D02*
X125786666Y-93026247D01*
X125786666Y-93026247D02*
X125691428Y-92978628D01*
X125691428Y-92978628D02*
X125500952Y-92931009D01*
X125500952Y-92931009D02*
X125405714Y-92883390D01*
X125405714Y-92883390D02*
X125358095Y-92835771D01*
X125358095Y-92835771D02*
X125310476Y-92740533D01*
X125310476Y-92740533D02*
X125310476Y-92645295D01*
X125310476Y-92645295D02*
X125358095Y-92550057D01*
X125358095Y-92550057D02*
X125405714Y-92502438D01*
X125405714Y-92502438D02*
X125500952Y-92454819D01*
X125500952Y-92454819D02*
X125739047Y-92454819D01*
X125739047Y-92454819D02*
X125881904Y-92502438D01*
X126215238Y-92454819D02*
X126453333Y-93454819D01*
X126453333Y-93454819D02*
X126643809Y-92740533D01*
X126643809Y-92740533D02*
X126834285Y-93454819D01*
X126834285Y-93454819D02*
X127072381Y-92454819D01*
X127977142Y-93454819D02*
X127405714Y-93454819D01*
X127691428Y-93454819D02*
X127691428Y-92454819D01*
X127691428Y-92454819D02*
X127596190Y-92597676D01*
X127596190Y-92597676D02*
X127500952Y-92692914D01*
X127500952Y-92692914D02*
X127405714Y-92740533D01*
X128834285Y-92454819D02*
X128643809Y-92454819D01*
X128643809Y-92454819D02*
X128548571Y-92502438D01*
X128548571Y-92502438D02*
X128500952Y-92550057D01*
X128500952Y-92550057D02*
X128405714Y-92692914D01*
X128405714Y-92692914D02*
X128358095Y-92883390D01*
X128358095Y-92883390D02*
X128358095Y-93264342D01*
X128358095Y-93264342D02*
X128405714Y-93359580D01*
X128405714Y-93359580D02*
X128453333Y-93407200D01*
X128453333Y-93407200D02*
X128548571Y-93454819D01*
X128548571Y-93454819D02*
X128739047Y-93454819D01*
X128739047Y-93454819D02*
X128834285Y-93407200D01*
X128834285Y-93407200D02*
X128881904Y-93359580D01*
X128881904Y-93359580D02*
X128929523Y-93264342D01*
X128929523Y-93264342D02*
X128929523Y-93026247D01*
X128929523Y-93026247D02*
X128881904Y-92931009D01*
X128881904Y-92931009D02*
X128834285Y-92883390D01*
X128834285Y-92883390D02*
X128739047Y-92835771D01*
X128739047Y-92835771D02*
X128548571Y-92835771D01*
X128548571Y-92835771D02*
X128453333Y-92883390D01*
X128453333Y-92883390D02*
X128405714Y-92931009D01*
X128405714Y-92931009D02*
X128358095Y-93026247D01*
X106260476Y-90549700D02*
X106403333Y-90597319D01*
X106403333Y-90597319D02*
X106641428Y-90597319D01*
X106641428Y-90597319D02*
X106736666Y-90549700D01*
X106736666Y-90549700D02*
X106784285Y-90502080D01*
X106784285Y-90502080D02*
X106831904Y-90406842D01*
X106831904Y-90406842D02*
X106831904Y-90311604D01*
X106831904Y-90311604D02*
X106784285Y-90216366D01*
X106784285Y-90216366D02*
X106736666Y-90168747D01*
X106736666Y-90168747D02*
X106641428Y-90121128D01*
X106641428Y-90121128D02*
X106450952Y-90073509D01*
X106450952Y-90073509D02*
X106355714Y-90025890D01*
X106355714Y-90025890D02*
X106308095Y-89978271D01*
X106308095Y-89978271D02*
X106260476Y-89883033D01*
X106260476Y-89883033D02*
X106260476Y-89787795D01*
X106260476Y-89787795D02*
X106308095Y-89692557D01*
X106308095Y-89692557D02*
X106355714Y-89644938D01*
X106355714Y-89644938D02*
X106450952Y-89597319D01*
X106450952Y-89597319D02*
X106689047Y-89597319D01*
X106689047Y-89597319D02*
X106831904Y-89644938D01*
X107165238Y-89597319D02*
X107403333Y-90597319D01*
X107403333Y-90597319D02*
X107593809Y-89883033D01*
X107593809Y-89883033D02*
X107784285Y-90597319D01*
X107784285Y-90597319D02*
X108022381Y-89597319D01*
X108927142Y-90597319D02*
X108355714Y-90597319D01*
X108641428Y-90597319D02*
X108641428Y-89597319D01*
X108641428Y-89597319D02*
X108546190Y-89740176D01*
X108546190Y-89740176D02*
X108450952Y-89835414D01*
X108450952Y-89835414D02*
X108355714Y-89883033D01*
X109784285Y-89930652D02*
X109784285Y-90597319D01*
X109546190Y-89549700D02*
X109308095Y-90263985D01*
X109308095Y-90263985D02*
X109927142Y-90263985D01*
X125786667Y-74357200D02*
X125929524Y-74404819D01*
X125929524Y-74404819D02*
X126167619Y-74404819D01*
X126167619Y-74404819D02*
X126262857Y-74357200D01*
X126262857Y-74357200D02*
X126310476Y-74309580D01*
X126310476Y-74309580D02*
X126358095Y-74214342D01*
X126358095Y-74214342D02*
X126358095Y-74119104D01*
X126358095Y-74119104D02*
X126310476Y-74023866D01*
X126310476Y-74023866D02*
X126262857Y-73976247D01*
X126262857Y-73976247D02*
X126167619Y-73928628D01*
X126167619Y-73928628D02*
X125977143Y-73881009D01*
X125977143Y-73881009D02*
X125881905Y-73833390D01*
X125881905Y-73833390D02*
X125834286Y-73785771D01*
X125834286Y-73785771D02*
X125786667Y-73690533D01*
X125786667Y-73690533D02*
X125786667Y-73595295D01*
X125786667Y-73595295D02*
X125834286Y-73500057D01*
X125834286Y-73500057D02*
X125881905Y-73452438D01*
X125881905Y-73452438D02*
X125977143Y-73404819D01*
X125977143Y-73404819D02*
X126215238Y-73404819D01*
X126215238Y-73404819D02*
X126358095Y-73452438D01*
X126691429Y-73404819D02*
X126929524Y-74404819D01*
X126929524Y-74404819D02*
X127120000Y-73690533D01*
X127120000Y-73690533D02*
X127310476Y-74404819D01*
X127310476Y-74404819D02*
X127548572Y-73404819D01*
X127977143Y-74404819D02*
X128167619Y-74404819D01*
X128167619Y-74404819D02*
X128262857Y-74357200D01*
X128262857Y-74357200D02*
X128310476Y-74309580D01*
X128310476Y-74309580D02*
X128405714Y-74166723D01*
X128405714Y-74166723D02*
X128453333Y-73976247D01*
X128453333Y-73976247D02*
X128453333Y-73595295D01*
X128453333Y-73595295D02*
X128405714Y-73500057D01*
X128405714Y-73500057D02*
X128358095Y-73452438D01*
X128358095Y-73452438D02*
X128262857Y-73404819D01*
X128262857Y-73404819D02*
X128072381Y-73404819D01*
X128072381Y-73404819D02*
X127977143Y-73452438D01*
X127977143Y-73452438D02*
X127929524Y-73500057D01*
X127929524Y-73500057D02*
X127881905Y-73595295D01*
X127881905Y-73595295D02*
X127881905Y-73833390D01*
X127881905Y-73833390D02*
X127929524Y-73928628D01*
X127929524Y-73928628D02*
X127977143Y-73976247D01*
X127977143Y-73976247D02*
X128072381Y-74023866D01*
X128072381Y-74023866D02*
X128262857Y-74023866D01*
X128262857Y-74023866D02*
X128358095Y-73976247D01*
X128358095Y-73976247D02*
X128405714Y-73928628D01*
X128405714Y-73928628D02*
X128453333Y-73833390D01*
X87686667Y-55307200D02*
X87829524Y-55354819D01*
X87829524Y-55354819D02*
X88067619Y-55354819D01*
X88067619Y-55354819D02*
X88162857Y-55307200D01*
X88162857Y-55307200D02*
X88210476Y-55259580D01*
X88210476Y-55259580D02*
X88258095Y-55164342D01*
X88258095Y-55164342D02*
X88258095Y-55069104D01*
X88258095Y-55069104D02*
X88210476Y-54973866D01*
X88210476Y-54973866D02*
X88162857Y-54926247D01*
X88162857Y-54926247D02*
X88067619Y-54878628D01*
X88067619Y-54878628D02*
X87877143Y-54831009D01*
X87877143Y-54831009D02*
X87781905Y-54783390D01*
X87781905Y-54783390D02*
X87734286Y-54735771D01*
X87734286Y-54735771D02*
X87686667Y-54640533D01*
X87686667Y-54640533D02*
X87686667Y-54545295D01*
X87686667Y-54545295D02*
X87734286Y-54450057D01*
X87734286Y-54450057D02*
X87781905Y-54402438D01*
X87781905Y-54402438D02*
X87877143Y-54354819D01*
X87877143Y-54354819D02*
X88115238Y-54354819D01*
X88115238Y-54354819D02*
X88258095Y-54402438D01*
X88591429Y-54354819D02*
X88829524Y-55354819D01*
X88829524Y-55354819D02*
X89020000Y-54640533D01*
X89020000Y-54640533D02*
X89210476Y-55354819D01*
X89210476Y-55354819D02*
X89448572Y-54354819D01*
X89781905Y-54450057D02*
X89829524Y-54402438D01*
X89829524Y-54402438D02*
X89924762Y-54354819D01*
X89924762Y-54354819D02*
X90162857Y-54354819D01*
X90162857Y-54354819D02*
X90258095Y-54402438D01*
X90258095Y-54402438D02*
X90305714Y-54450057D01*
X90305714Y-54450057D02*
X90353333Y-54545295D01*
X90353333Y-54545295D02*
X90353333Y-54640533D01*
X90353333Y-54640533D02*
X90305714Y-54783390D01*
X90305714Y-54783390D02*
X89734286Y-55354819D01*
X89734286Y-55354819D02*
X90353333Y-55354819D01*
X83538095Y-40054819D02*
X83538095Y-39054819D01*
X83538095Y-39531009D02*
X84109523Y-39531009D01*
X84109523Y-40054819D02*
X84109523Y-39054819D01*
X85014285Y-39054819D02*
X84823809Y-39054819D01*
X84823809Y-39054819D02*
X84728571Y-39102438D01*
X84728571Y-39102438D02*
X84680952Y-39150057D01*
X84680952Y-39150057D02*
X84585714Y-39292914D01*
X84585714Y-39292914D02*
X84538095Y-39483390D01*
X84538095Y-39483390D02*
X84538095Y-39864342D01*
X84538095Y-39864342D02*
X84585714Y-39959580D01*
X84585714Y-39959580D02*
X84633333Y-40007200D01*
X84633333Y-40007200D02*
X84728571Y-40054819D01*
X84728571Y-40054819D02*
X84919047Y-40054819D01*
X84919047Y-40054819D02*
X85014285Y-40007200D01*
X85014285Y-40007200D02*
X85061904Y-39959580D01*
X85061904Y-39959580D02*
X85109523Y-39864342D01*
X85109523Y-39864342D02*
X85109523Y-39626247D01*
X85109523Y-39626247D02*
X85061904Y-39531009D01*
X85061904Y-39531009D02*
X85014285Y-39483390D01*
X85014285Y-39483390D02*
X84919047Y-39435771D01*
X84919047Y-39435771D02*
X84728571Y-39435771D01*
X84728571Y-39435771D02*
X84633333Y-39483390D01*
X84633333Y-39483390D02*
X84585714Y-39531009D01*
X84585714Y-39531009D02*
X84538095Y-39626247D01*
X68160476Y-101027200D02*
X68303333Y-101074819D01*
X68303333Y-101074819D02*
X68541428Y-101074819D01*
X68541428Y-101074819D02*
X68636666Y-101027200D01*
X68636666Y-101027200D02*
X68684285Y-100979580D01*
X68684285Y-100979580D02*
X68731904Y-100884342D01*
X68731904Y-100884342D02*
X68731904Y-100789104D01*
X68731904Y-100789104D02*
X68684285Y-100693866D01*
X68684285Y-100693866D02*
X68636666Y-100646247D01*
X68636666Y-100646247D02*
X68541428Y-100598628D01*
X68541428Y-100598628D02*
X68350952Y-100551009D01*
X68350952Y-100551009D02*
X68255714Y-100503390D01*
X68255714Y-100503390D02*
X68208095Y-100455771D01*
X68208095Y-100455771D02*
X68160476Y-100360533D01*
X68160476Y-100360533D02*
X68160476Y-100265295D01*
X68160476Y-100265295D02*
X68208095Y-100170057D01*
X68208095Y-100170057D02*
X68255714Y-100122438D01*
X68255714Y-100122438D02*
X68350952Y-100074819D01*
X68350952Y-100074819D02*
X68589047Y-100074819D01*
X68589047Y-100074819D02*
X68731904Y-100122438D01*
X69065238Y-100074819D02*
X69303333Y-101074819D01*
X69303333Y-101074819D02*
X69493809Y-100360533D01*
X69493809Y-100360533D02*
X69684285Y-101074819D01*
X69684285Y-101074819D02*
X69922381Y-100074819D01*
X70827142Y-101074819D02*
X70255714Y-101074819D01*
X70541428Y-101074819D02*
X70541428Y-100074819D01*
X70541428Y-100074819D02*
X70446190Y-100217676D01*
X70446190Y-100217676D02*
X70350952Y-100312914D01*
X70350952Y-100312914D02*
X70255714Y-100360533D01*
X71303333Y-101074819D02*
X71493809Y-101074819D01*
X71493809Y-101074819D02*
X71589047Y-101027200D01*
X71589047Y-101027200D02*
X71636666Y-100979580D01*
X71636666Y-100979580D02*
X71731904Y-100836723D01*
X71731904Y-100836723D02*
X71779523Y-100646247D01*
X71779523Y-100646247D02*
X71779523Y-100265295D01*
X71779523Y-100265295D02*
X71731904Y-100170057D01*
X71731904Y-100170057D02*
X71684285Y-100122438D01*
X71684285Y-100122438D02*
X71589047Y-100074819D01*
X71589047Y-100074819D02*
X71398571Y-100074819D01*
X71398571Y-100074819D02*
X71303333Y-100122438D01*
X71303333Y-100122438D02*
X71255714Y-100170057D01*
X71255714Y-100170057D02*
X71208095Y-100265295D01*
X71208095Y-100265295D02*
X71208095Y-100503390D01*
X71208095Y-100503390D02*
X71255714Y-100598628D01*
X71255714Y-100598628D02*
X71303333Y-100646247D01*
X71303333Y-100646247D02*
X71398571Y-100693866D01*
X71398571Y-100693866D02*
X71589047Y-100693866D01*
X71589047Y-100693866D02*
X71684285Y-100646247D01*
X71684285Y-100646247D02*
X71731904Y-100598628D01*
X71731904Y-100598628D02*
X71779523Y-100503390D01*
X49110476Y-105789700D02*
X49253333Y-105837319D01*
X49253333Y-105837319D02*
X49491428Y-105837319D01*
X49491428Y-105837319D02*
X49586666Y-105789700D01*
X49586666Y-105789700D02*
X49634285Y-105742080D01*
X49634285Y-105742080D02*
X49681904Y-105646842D01*
X49681904Y-105646842D02*
X49681904Y-105551604D01*
X49681904Y-105551604D02*
X49634285Y-105456366D01*
X49634285Y-105456366D02*
X49586666Y-105408747D01*
X49586666Y-105408747D02*
X49491428Y-105361128D01*
X49491428Y-105361128D02*
X49300952Y-105313509D01*
X49300952Y-105313509D02*
X49205714Y-105265890D01*
X49205714Y-105265890D02*
X49158095Y-105218271D01*
X49158095Y-105218271D02*
X49110476Y-105123033D01*
X49110476Y-105123033D02*
X49110476Y-105027795D01*
X49110476Y-105027795D02*
X49158095Y-104932557D01*
X49158095Y-104932557D02*
X49205714Y-104884938D01*
X49205714Y-104884938D02*
X49300952Y-104837319D01*
X49300952Y-104837319D02*
X49539047Y-104837319D01*
X49539047Y-104837319D02*
X49681904Y-104884938D01*
X50015238Y-104837319D02*
X50253333Y-105837319D01*
X50253333Y-105837319D02*
X50443809Y-105123033D01*
X50443809Y-105123033D02*
X50634285Y-105837319D01*
X50634285Y-105837319D02*
X50872381Y-104837319D01*
X51205714Y-104932557D02*
X51253333Y-104884938D01*
X51253333Y-104884938D02*
X51348571Y-104837319D01*
X51348571Y-104837319D02*
X51586666Y-104837319D01*
X51586666Y-104837319D02*
X51681904Y-104884938D01*
X51681904Y-104884938D02*
X51729523Y-104932557D01*
X51729523Y-104932557D02*
X51777142Y-105027795D01*
X51777142Y-105027795D02*
X51777142Y-105123033D01*
X51777142Y-105123033D02*
X51729523Y-105265890D01*
X51729523Y-105265890D02*
X51158095Y-105837319D01*
X51158095Y-105837319D02*
X51777142Y-105837319D01*
X52396190Y-104837319D02*
X52491428Y-104837319D01*
X52491428Y-104837319D02*
X52586666Y-104884938D01*
X52586666Y-104884938D02*
X52634285Y-104932557D01*
X52634285Y-104932557D02*
X52681904Y-105027795D01*
X52681904Y-105027795D02*
X52729523Y-105218271D01*
X52729523Y-105218271D02*
X52729523Y-105456366D01*
X52729523Y-105456366D02*
X52681904Y-105646842D01*
X52681904Y-105646842D02*
X52634285Y-105742080D01*
X52634285Y-105742080D02*
X52586666Y-105789700D01*
X52586666Y-105789700D02*
X52491428Y-105837319D01*
X52491428Y-105837319D02*
X52396190Y-105837319D01*
X52396190Y-105837319D02*
X52300952Y-105789700D01*
X52300952Y-105789700D02*
X52253333Y-105742080D01*
X52253333Y-105742080D02*
X52205714Y-105646842D01*
X52205714Y-105646842D02*
X52158095Y-105456366D01*
X52158095Y-105456366D02*
X52158095Y-105218271D01*
X52158095Y-105218271D02*
X52205714Y-105027795D01*
X52205714Y-105027795D02*
X52253333Y-104932557D01*
X52253333Y-104932557D02*
X52300952Y-104884938D01*
X52300952Y-104884938D02*
X52396190Y-104837319D01*
X163410476Y-96264700D02*
X163553333Y-96312319D01*
X163553333Y-96312319D02*
X163791428Y-96312319D01*
X163791428Y-96312319D02*
X163886666Y-96264700D01*
X163886666Y-96264700D02*
X163934285Y-96217080D01*
X163934285Y-96217080D02*
X163981904Y-96121842D01*
X163981904Y-96121842D02*
X163981904Y-96026604D01*
X163981904Y-96026604D02*
X163934285Y-95931366D01*
X163934285Y-95931366D02*
X163886666Y-95883747D01*
X163886666Y-95883747D02*
X163791428Y-95836128D01*
X163791428Y-95836128D02*
X163600952Y-95788509D01*
X163600952Y-95788509D02*
X163505714Y-95740890D01*
X163505714Y-95740890D02*
X163458095Y-95693271D01*
X163458095Y-95693271D02*
X163410476Y-95598033D01*
X163410476Y-95598033D02*
X163410476Y-95502795D01*
X163410476Y-95502795D02*
X163458095Y-95407557D01*
X163458095Y-95407557D02*
X163505714Y-95359938D01*
X163505714Y-95359938D02*
X163600952Y-95312319D01*
X163600952Y-95312319D02*
X163839047Y-95312319D01*
X163839047Y-95312319D02*
X163981904Y-95359938D01*
X164315238Y-95312319D02*
X164553333Y-96312319D01*
X164553333Y-96312319D02*
X164743809Y-95598033D01*
X164743809Y-95598033D02*
X164934285Y-96312319D01*
X164934285Y-96312319D02*
X165172381Y-95312319D01*
X166077142Y-96312319D02*
X165505714Y-96312319D01*
X165791428Y-96312319D02*
X165791428Y-95312319D01*
X165791428Y-95312319D02*
X165696190Y-95455176D01*
X165696190Y-95455176D02*
X165600952Y-95550414D01*
X165600952Y-95550414D02*
X165505714Y-95598033D01*
X166648571Y-95740890D02*
X166553333Y-95693271D01*
X166553333Y-95693271D02*
X166505714Y-95645652D01*
X166505714Y-95645652D02*
X166458095Y-95550414D01*
X166458095Y-95550414D02*
X166458095Y-95502795D01*
X166458095Y-95502795D02*
X166505714Y-95407557D01*
X166505714Y-95407557D02*
X166553333Y-95359938D01*
X166553333Y-95359938D02*
X166648571Y-95312319D01*
X166648571Y-95312319D02*
X166839047Y-95312319D01*
X166839047Y-95312319D02*
X166934285Y-95359938D01*
X166934285Y-95359938D02*
X166981904Y-95407557D01*
X166981904Y-95407557D02*
X167029523Y-95502795D01*
X167029523Y-95502795D02*
X167029523Y-95550414D01*
X167029523Y-95550414D02*
X166981904Y-95645652D01*
X166981904Y-95645652D02*
X166934285Y-95693271D01*
X166934285Y-95693271D02*
X166839047Y-95740890D01*
X166839047Y-95740890D02*
X166648571Y-95740890D01*
X166648571Y-95740890D02*
X166553333Y-95788509D01*
X166553333Y-95788509D02*
X166505714Y-95836128D01*
X166505714Y-95836128D02*
X166458095Y-95931366D01*
X166458095Y-95931366D02*
X166458095Y-96121842D01*
X166458095Y-96121842D02*
X166505714Y-96217080D01*
X166505714Y-96217080D02*
X166553333Y-96264700D01*
X166553333Y-96264700D02*
X166648571Y-96312319D01*
X166648571Y-96312319D02*
X166839047Y-96312319D01*
X166839047Y-96312319D02*
X166934285Y-96264700D01*
X166934285Y-96264700D02*
X166981904Y-96217080D01*
X166981904Y-96217080D02*
X167029523Y-96121842D01*
X167029523Y-96121842D02*
X167029523Y-95931366D01*
X167029523Y-95931366D02*
X166981904Y-95836128D01*
X166981904Y-95836128D02*
X166934285Y-95788509D01*
X166934285Y-95788509D02*
X166839047Y-95740890D01*
X144360476Y-96264700D02*
X144503333Y-96312319D01*
X144503333Y-96312319D02*
X144741428Y-96312319D01*
X144741428Y-96312319D02*
X144836666Y-96264700D01*
X144836666Y-96264700D02*
X144884285Y-96217080D01*
X144884285Y-96217080D02*
X144931904Y-96121842D01*
X144931904Y-96121842D02*
X144931904Y-96026604D01*
X144931904Y-96026604D02*
X144884285Y-95931366D01*
X144884285Y-95931366D02*
X144836666Y-95883747D01*
X144836666Y-95883747D02*
X144741428Y-95836128D01*
X144741428Y-95836128D02*
X144550952Y-95788509D01*
X144550952Y-95788509D02*
X144455714Y-95740890D01*
X144455714Y-95740890D02*
X144408095Y-95693271D01*
X144408095Y-95693271D02*
X144360476Y-95598033D01*
X144360476Y-95598033D02*
X144360476Y-95502795D01*
X144360476Y-95502795D02*
X144408095Y-95407557D01*
X144408095Y-95407557D02*
X144455714Y-95359938D01*
X144455714Y-95359938D02*
X144550952Y-95312319D01*
X144550952Y-95312319D02*
X144789047Y-95312319D01*
X144789047Y-95312319D02*
X144931904Y-95359938D01*
X145265238Y-95312319D02*
X145503333Y-96312319D01*
X145503333Y-96312319D02*
X145693809Y-95598033D01*
X145693809Y-95598033D02*
X145884285Y-96312319D01*
X145884285Y-96312319D02*
X146122381Y-95312319D01*
X147027142Y-96312319D02*
X146455714Y-96312319D01*
X146741428Y-96312319D02*
X146741428Y-95312319D01*
X146741428Y-95312319D02*
X146646190Y-95455176D01*
X146646190Y-95455176D02*
X146550952Y-95550414D01*
X146550952Y-95550414D02*
X146455714Y-95598033D01*
X147360476Y-95312319D02*
X148027142Y-95312319D01*
X148027142Y-95312319D02*
X147598571Y-96312319D01*
X125786667Y-55307200D02*
X125929524Y-55354819D01*
X125929524Y-55354819D02*
X126167619Y-55354819D01*
X126167619Y-55354819D02*
X126262857Y-55307200D01*
X126262857Y-55307200D02*
X126310476Y-55259580D01*
X126310476Y-55259580D02*
X126358095Y-55164342D01*
X126358095Y-55164342D02*
X126358095Y-55069104D01*
X126358095Y-55069104D02*
X126310476Y-54973866D01*
X126310476Y-54973866D02*
X126262857Y-54926247D01*
X126262857Y-54926247D02*
X126167619Y-54878628D01*
X126167619Y-54878628D02*
X125977143Y-54831009D01*
X125977143Y-54831009D02*
X125881905Y-54783390D01*
X125881905Y-54783390D02*
X125834286Y-54735771D01*
X125834286Y-54735771D02*
X125786667Y-54640533D01*
X125786667Y-54640533D02*
X125786667Y-54545295D01*
X125786667Y-54545295D02*
X125834286Y-54450057D01*
X125834286Y-54450057D02*
X125881905Y-54402438D01*
X125881905Y-54402438D02*
X125977143Y-54354819D01*
X125977143Y-54354819D02*
X126215238Y-54354819D01*
X126215238Y-54354819D02*
X126358095Y-54402438D01*
X126691429Y-54354819D02*
X126929524Y-55354819D01*
X126929524Y-55354819D02*
X127120000Y-54640533D01*
X127120000Y-54640533D02*
X127310476Y-55354819D01*
X127310476Y-55354819D02*
X127548572Y-54354819D01*
X127834286Y-54354819D02*
X128453333Y-54354819D01*
X128453333Y-54354819D02*
X128120000Y-54735771D01*
X128120000Y-54735771D02*
X128262857Y-54735771D01*
X128262857Y-54735771D02*
X128358095Y-54783390D01*
X128358095Y-54783390D02*
X128405714Y-54831009D01*
X128405714Y-54831009D02*
X128453333Y-54926247D01*
X128453333Y-54926247D02*
X128453333Y-55164342D01*
X128453333Y-55164342D02*
X128405714Y-55259580D01*
X128405714Y-55259580D02*
X128358095Y-55307200D01*
X128358095Y-55307200D02*
X128262857Y-55354819D01*
X128262857Y-55354819D02*
X127977143Y-55354819D01*
X127977143Y-55354819D02*
X127881905Y-55307200D01*
X127881905Y-55307200D02*
X127834286Y-55259580D01*
X164465590Y-48873412D02*
X165424410Y-48589396D01*
X165424410Y-48589396D02*
X164834210Y-49111871D01*
X164834210Y-49111871D02*
X165613753Y-49228609D01*
X165613753Y-49228609D02*
X164654934Y-49512625D01*
X164911900Y-50380128D02*
X165414139Y-50231358D01*
X165414139Y-50231358D02*
X165491930Y-50158651D01*
X165491930Y-50158651D02*
X165510539Y-50053810D01*
X165510539Y-50053810D02*
X165456441Y-49871178D01*
X165456441Y-49871178D02*
X165383734Y-49793387D01*
X164957558Y-50366604D02*
X164884851Y-50288812D01*
X164884851Y-50288812D02*
X164817228Y-50060522D01*
X164817228Y-50060522D02*
X164835837Y-49955681D01*
X164835837Y-49955681D02*
X164913629Y-49882974D01*
X164913629Y-49882974D02*
X165004945Y-49855925D01*
X165004945Y-49855925D02*
X165109786Y-49874534D01*
X165109786Y-49874534D02*
X165182493Y-49952325D01*
X165182493Y-49952325D02*
X165250115Y-50180616D01*
X165250115Y-50180616D02*
X165322823Y-50258407D01*
X165808079Y-51058288D02*
X165031892Y-51288206D01*
X165031892Y-51288206D02*
X164927051Y-51269597D01*
X164927051Y-51269597D02*
X164867869Y-51237463D01*
X164867869Y-51237463D02*
X164795161Y-51159671D01*
X164795161Y-51159671D02*
X164754588Y-51022697D01*
X164754588Y-51022697D02*
X164773197Y-50917856D01*
X165214524Y-51234107D02*
X165141817Y-51156316D01*
X165141817Y-51156316D02*
X165087719Y-50973683D01*
X165087719Y-50973683D02*
X165106328Y-50868843D01*
X165106328Y-50868843D02*
X165138461Y-50809660D01*
X165138461Y-50809660D02*
X165216253Y-50736953D01*
X165216253Y-50736953D02*
X165490202Y-50655806D01*
X165490202Y-50655806D02*
X165595042Y-50674415D01*
X165595042Y-50674415D02*
X165654225Y-50706548D01*
X165654225Y-50706548D02*
X165726932Y-50784340D01*
X165726932Y-50784340D02*
X165781030Y-50966972D01*
X165781030Y-50966972D02*
X165762421Y-51071813D01*
X165943325Y-51514869D02*
X165304112Y-51704213D01*
X165852009Y-51541918D02*
X165911191Y-51574052D01*
X165911191Y-51574052D02*
X165983898Y-51651844D01*
X165983898Y-51651844D02*
X166024472Y-51788818D01*
X166024472Y-51788818D02*
X166005863Y-51893658D01*
X166005863Y-51893658D02*
X165928071Y-51966366D01*
X165928071Y-51966366D02*
X165425832Y-52115136D01*
X165714932Y-52923457D02*
X165642225Y-52845665D01*
X165642225Y-52845665D02*
X165588127Y-52663033D01*
X165588127Y-52663033D02*
X165606736Y-52558192D01*
X165606736Y-52558192D02*
X165684528Y-52485485D01*
X165684528Y-52485485D02*
X166049792Y-52377288D01*
X166049792Y-52377288D02*
X166154633Y-52395897D01*
X166154633Y-52395897D02*
X166227340Y-52473689D01*
X166227340Y-52473689D02*
X166281438Y-52656321D01*
X166281438Y-52656321D02*
X166262829Y-52761162D01*
X166262829Y-52761162D02*
X166185038Y-52833869D01*
X166185038Y-52833869D02*
X166093721Y-52860918D01*
X166093721Y-52860918D02*
X165867160Y-52431387D01*
X166403159Y-53067244D02*
X166511356Y-53432509D01*
X166763339Y-53109547D02*
X165941494Y-53352989D01*
X165941494Y-53352989D02*
X165863702Y-53425696D01*
X165863702Y-53425696D02*
X165845093Y-53530536D01*
X165845093Y-53530536D02*
X165872142Y-53621853D01*
X165966814Y-53941460D02*
X166606027Y-53752116D01*
X166925634Y-53657444D02*
X166866451Y-53625311D01*
X166866451Y-53625311D02*
X166834318Y-53684493D01*
X166834318Y-53684493D02*
X166893500Y-53716627D01*
X166893500Y-53716627D02*
X166925634Y-53657444D01*
X166925634Y-53657444D02*
X166834318Y-53684493D01*
X166269438Y-54795438D02*
X166196731Y-54717646D01*
X166196731Y-54717646D02*
X166142633Y-54535014D01*
X166142633Y-54535014D02*
X166161242Y-54430173D01*
X166161242Y-54430173D02*
X166193376Y-54370991D01*
X166193376Y-54370991D02*
X166271167Y-54298284D01*
X166271167Y-54298284D02*
X166545116Y-54217136D01*
X166545116Y-54217136D02*
X166649957Y-54235745D01*
X166649957Y-54235745D02*
X166709139Y-54267879D01*
X166709139Y-54267879D02*
X166781846Y-54345671D01*
X166781846Y-54345671D02*
X166835944Y-54528303D01*
X166835944Y-54528303D02*
X166817335Y-54633144D01*
X166561894Y-55950415D02*
X167520714Y-55666400D01*
X167520714Y-55666400D02*
X167628910Y-56031664D01*
X167628910Y-56031664D02*
X167610301Y-56136505D01*
X167610301Y-56136505D02*
X167578168Y-56195688D01*
X167578168Y-56195688D02*
X167500376Y-56268395D01*
X167500376Y-56268395D02*
X167363402Y-56308969D01*
X167363402Y-56308969D02*
X167258561Y-56290360D01*
X167258561Y-56290360D02*
X167199378Y-56258226D01*
X167199378Y-56258226D02*
X167126671Y-56180434D01*
X167126671Y-56180434D02*
X167018475Y-55815170D01*
X166886483Y-57046209D02*
X166905092Y-56941368D01*
X166905092Y-56941368D02*
X166937226Y-56882186D01*
X166937226Y-56882186D02*
X167015017Y-56809479D01*
X167015017Y-56809479D02*
X167288966Y-56728331D01*
X167288966Y-56728331D02*
X167393806Y-56746940D01*
X167393806Y-56746940D02*
X167452989Y-56779074D01*
X167452989Y-56779074D02*
X167525696Y-56856866D01*
X167525696Y-56856866D02*
X167566270Y-56993840D01*
X167566270Y-56993840D02*
X167547661Y-57098680D01*
X167547661Y-57098680D02*
X167515527Y-57157863D01*
X167515527Y-57157863D02*
X167437736Y-57230570D01*
X167437736Y-57230570D02*
X167163787Y-57311717D01*
X167163787Y-57311717D02*
X167058946Y-57293108D01*
X167058946Y-57293108D02*
X166999764Y-57260975D01*
X166999764Y-57260975D02*
X166927057Y-57183183D01*
X166927057Y-57183183D02*
X166886483Y-57046209D01*
X167102876Y-57776738D02*
X167742089Y-57587395D01*
X167559456Y-57641493D02*
X167664297Y-57660102D01*
X167664297Y-57660102D02*
X167723480Y-57692236D01*
X167723480Y-57692236D02*
X167796187Y-57770027D01*
X167796187Y-57770027D02*
X167823236Y-57861343D01*
X167877334Y-58043976D02*
X167985531Y-58409241D01*
X168237514Y-58086279D02*
X167415669Y-58329720D01*
X167415669Y-58329720D02*
X167337877Y-58402427D01*
X167337877Y-58402427D02*
X167319268Y-58507268D01*
X167319268Y-58507268D02*
X167346317Y-58598584D01*
X49586667Y-67689700D02*
X49729524Y-67737319D01*
X49729524Y-67737319D02*
X49967619Y-67737319D01*
X49967619Y-67737319D02*
X50062857Y-67689700D01*
X50062857Y-67689700D02*
X50110476Y-67642080D01*
X50110476Y-67642080D02*
X50158095Y-67546842D01*
X50158095Y-67546842D02*
X50158095Y-67451604D01*
X50158095Y-67451604D02*
X50110476Y-67356366D01*
X50110476Y-67356366D02*
X50062857Y-67308747D01*
X50062857Y-67308747D02*
X49967619Y-67261128D01*
X49967619Y-67261128D02*
X49777143Y-67213509D01*
X49777143Y-67213509D02*
X49681905Y-67165890D01*
X49681905Y-67165890D02*
X49634286Y-67118271D01*
X49634286Y-67118271D02*
X49586667Y-67023033D01*
X49586667Y-67023033D02*
X49586667Y-66927795D01*
X49586667Y-66927795D02*
X49634286Y-66832557D01*
X49634286Y-66832557D02*
X49681905Y-66784938D01*
X49681905Y-66784938D02*
X49777143Y-66737319D01*
X49777143Y-66737319D02*
X50015238Y-66737319D01*
X50015238Y-66737319D02*
X50158095Y-66784938D01*
X50491429Y-66737319D02*
X50729524Y-67737319D01*
X50729524Y-67737319D02*
X50920000Y-67023033D01*
X50920000Y-67023033D02*
X51110476Y-67737319D01*
X51110476Y-67737319D02*
X51348572Y-66737319D01*
X52158095Y-66737319D02*
X51967619Y-66737319D01*
X51967619Y-66737319D02*
X51872381Y-66784938D01*
X51872381Y-66784938D02*
X51824762Y-66832557D01*
X51824762Y-66832557D02*
X51729524Y-66975414D01*
X51729524Y-66975414D02*
X51681905Y-67165890D01*
X51681905Y-67165890D02*
X51681905Y-67546842D01*
X51681905Y-67546842D02*
X51729524Y-67642080D01*
X51729524Y-67642080D02*
X51777143Y-67689700D01*
X51777143Y-67689700D02*
X51872381Y-67737319D01*
X51872381Y-67737319D02*
X52062857Y-67737319D01*
X52062857Y-67737319D02*
X52158095Y-67689700D01*
X52158095Y-67689700D02*
X52205714Y-67642080D01*
X52205714Y-67642080D02*
X52253333Y-67546842D01*
X52253333Y-67546842D02*
X52253333Y-67308747D01*
X52253333Y-67308747D02*
X52205714Y-67213509D01*
X52205714Y-67213509D02*
X52158095Y-67165890D01*
X52158095Y-67165890D02*
X52062857Y-67118271D01*
X52062857Y-67118271D02*
X51872381Y-67118271D01*
X51872381Y-67118271D02*
X51777143Y-67165890D01*
X51777143Y-67165890D02*
X51729524Y-67213509D01*
X51729524Y-67213509D02*
X51681905Y-67308747D01*
X40738095Y-55534819D02*
X40738095Y-54534819D01*
X40738095Y-55011009D02*
X41309523Y-55011009D01*
X41309523Y-55534819D02*
X41309523Y-54534819D01*
X42309523Y-55534819D02*
X41738095Y-55534819D01*
X42023809Y-55534819D02*
X42023809Y-54534819D01*
X42023809Y-54534819D02*
X41928571Y-54677676D01*
X41928571Y-54677676D02*
X41833333Y-54772914D01*
X41833333Y-54772914D02*
X41738095Y-54820533D01*
X87686667Y-74357200D02*
X87829524Y-74404819D01*
X87829524Y-74404819D02*
X88067619Y-74404819D01*
X88067619Y-74404819D02*
X88162857Y-74357200D01*
X88162857Y-74357200D02*
X88210476Y-74309580D01*
X88210476Y-74309580D02*
X88258095Y-74214342D01*
X88258095Y-74214342D02*
X88258095Y-74119104D01*
X88258095Y-74119104D02*
X88210476Y-74023866D01*
X88210476Y-74023866D02*
X88162857Y-73976247D01*
X88162857Y-73976247D02*
X88067619Y-73928628D01*
X88067619Y-73928628D02*
X87877143Y-73881009D01*
X87877143Y-73881009D02*
X87781905Y-73833390D01*
X87781905Y-73833390D02*
X87734286Y-73785771D01*
X87734286Y-73785771D02*
X87686667Y-73690533D01*
X87686667Y-73690533D02*
X87686667Y-73595295D01*
X87686667Y-73595295D02*
X87734286Y-73500057D01*
X87734286Y-73500057D02*
X87781905Y-73452438D01*
X87781905Y-73452438D02*
X87877143Y-73404819D01*
X87877143Y-73404819D02*
X88115238Y-73404819D01*
X88115238Y-73404819D02*
X88258095Y-73452438D01*
X88591429Y-73404819D02*
X88829524Y-74404819D01*
X88829524Y-74404819D02*
X89020000Y-73690533D01*
X89020000Y-73690533D02*
X89210476Y-74404819D01*
X89210476Y-74404819D02*
X89448572Y-73404819D01*
X89972381Y-73833390D02*
X89877143Y-73785771D01*
X89877143Y-73785771D02*
X89829524Y-73738152D01*
X89829524Y-73738152D02*
X89781905Y-73642914D01*
X89781905Y-73642914D02*
X89781905Y-73595295D01*
X89781905Y-73595295D02*
X89829524Y-73500057D01*
X89829524Y-73500057D02*
X89877143Y-73452438D01*
X89877143Y-73452438D02*
X89972381Y-73404819D01*
X89972381Y-73404819D02*
X90162857Y-73404819D01*
X90162857Y-73404819D02*
X90258095Y-73452438D01*
X90258095Y-73452438D02*
X90305714Y-73500057D01*
X90305714Y-73500057D02*
X90353333Y-73595295D01*
X90353333Y-73595295D02*
X90353333Y-73642914D01*
X90353333Y-73642914D02*
X90305714Y-73738152D01*
X90305714Y-73738152D02*
X90258095Y-73785771D01*
X90258095Y-73785771D02*
X90162857Y-73833390D01*
X90162857Y-73833390D02*
X89972381Y-73833390D01*
X89972381Y-73833390D02*
X89877143Y-73881009D01*
X89877143Y-73881009D02*
X89829524Y-73928628D01*
X89829524Y-73928628D02*
X89781905Y-74023866D01*
X89781905Y-74023866D02*
X89781905Y-74214342D01*
X89781905Y-74214342D02*
X89829524Y-74309580D01*
X89829524Y-74309580D02*
X89877143Y-74357200D01*
X89877143Y-74357200D02*
X89972381Y-74404819D01*
X89972381Y-74404819D02*
X90162857Y-74404819D01*
X90162857Y-74404819D02*
X90258095Y-74357200D01*
X90258095Y-74357200D02*
X90305714Y-74309580D01*
X90305714Y-74309580D02*
X90353333Y-74214342D01*
X90353333Y-74214342D02*
X90353333Y-74023866D01*
X90353333Y-74023866D02*
X90305714Y-73928628D01*
X90305714Y-73928628D02*
X90258095Y-73881009D01*
X90258095Y-73881009D02*
X90162857Y-73833390D01*
X163410476Y-77214700D02*
X163553333Y-77262319D01*
X163553333Y-77262319D02*
X163791428Y-77262319D01*
X163791428Y-77262319D02*
X163886666Y-77214700D01*
X163886666Y-77214700D02*
X163934285Y-77167080D01*
X163934285Y-77167080D02*
X163981904Y-77071842D01*
X163981904Y-77071842D02*
X163981904Y-76976604D01*
X163981904Y-76976604D02*
X163934285Y-76881366D01*
X163934285Y-76881366D02*
X163886666Y-76833747D01*
X163886666Y-76833747D02*
X163791428Y-76786128D01*
X163791428Y-76786128D02*
X163600952Y-76738509D01*
X163600952Y-76738509D02*
X163505714Y-76690890D01*
X163505714Y-76690890D02*
X163458095Y-76643271D01*
X163458095Y-76643271D02*
X163410476Y-76548033D01*
X163410476Y-76548033D02*
X163410476Y-76452795D01*
X163410476Y-76452795D02*
X163458095Y-76357557D01*
X163458095Y-76357557D02*
X163505714Y-76309938D01*
X163505714Y-76309938D02*
X163600952Y-76262319D01*
X163600952Y-76262319D02*
X163839047Y-76262319D01*
X163839047Y-76262319D02*
X163981904Y-76309938D01*
X164315238Y-76262319D02*
X164553333Y-77262319D01*
X164553333Y-77262319D02*
X164743809Y-76548033D01*
X164743809Y-76548033D02*
X164934285Y-77262319D01*
X164934285Y-77262319D02*
X165172381Y-76262319D01*
X166077142Y-77262319D02*
X165505714Y-77262319D01*
X165791428Y-77262319D02*
X165791428Y-76262319D01*
X165791428Y-76262319D02*
X165696190Y-76405176D01*
X165696190Y-76405176D02*
X165600952Y-76500414D01*
X165600952Y-76500414D02*
X165505714Y-76548033D01*
X167029523Y-77262319D02*
X166458095Y-77262319D01*
X166743809Y-77262319D02*
X166743809Y-76262319D01*
X166743809Y-76262319D02*
X166648571Y-76405176D01*
X166648571Y-76405176D02*
X166553333Y-76500414D01*
X166553333Y-76500414D02*
X166458095Y-76548033D01*
X87210476Y-93407200D02*
X87353333Y-93454819D01*
X87353333Y-93454819D02*
X87591428Y-93454819D01*
X87591428Y-93454819D02*
X87686666Y-93407200D01*
X87686666Y-93407200D02*
X87734285Y-93359580D01*
X87734285Y-93359580D02*
X87781904Y-93264342D01*
X87781904Y-93264342D02*
X87781904Y-93169104D01*
X87781904Y-93169104D02*
X87734285Y-93073866D01*
X87734285Y-93073866D02*
X87686666Y-93026247D01*
X87686666Y-93026247D02*
X87591428Y-92978628D01*
X87591428Y-92978628D02*
X87400952Y-92931009D01*
X87400952Y-92931009D02*
X87305714Y-92883390D01*
X87305714Y-92883390D02*
X87258095Y-92835771D01*
X87258095Y-92835771D02*
X87210476Y-92740533D01*
X87210476Y-92740533D02*
X87210476Y-92645295D01*
X87210476Y-92645295D02*
X87258095Y-92550057D01*
X87258095Y-92550057D02*
X87305714Y-92502438D01*
X87305714Y-92502438D02*
X87400952Y-92454819D01*
X87400952Y-92454819D02*
X87639047Y-92454819D01*
X87639047Y-92454819D02*
X87781904Y-92502438D01*
X88115238Y-92454819D02*
X88353333Y-93454819D01*
X88353333Y-93454819D02*
X88543809Y-92740533D01*
X88543809Y-92740533D02*
X88734285Y-93454819D01*
X88734285Y-93454819D02*
X88972381Y-92454819D01*
X89877142Y-93454819D02*
X89305714Y-93454819D01*
X89591428Y-93454819D02*
X89591428Y-92454819D01*
X89591428Y-92454819D02*
X89496190Y-92597676D01*
X89496190Y-92597676D02*
X89400952Y-92692914D01*
X89400952Y-92692914D02*
X89305714Y-92740533D01*
X90781904Y-92454819D02*
X90305714Y-92454819D01*
X90305714Y-92454819D02*
X90258095Y-92931009D01*
X90258095Y-92931009D02*
X90305714Y-92883390D01*
X90305714Y-92883390D02*
X90400952Y-92835771D01*
X90400952Y-92835771D02*
X90639047Y-92835771D01*
X90639047Y-92835771D02*
X90734285Y-92883390D01*
X90734285Y-92883390D02*
X90781904Y-92931009D01*
X90781904Y-92931009D02*
X90829523Y-93026247D01*
X90829523Y-93026247D02*
X90829523Y-93264342D01*
X90829523Y-93264342D02*
X90781904Y-93359580D01*
X90781904Y-93359580D02*
X90734285Y-93407200D01*
X90734285Y-93407200D02*
X90639047Y-93454819D01*
X90639047Y-93454819D02*
X90400952Y-93454819D01*
X90400952Y-93454819D02*
X90305714Y-93407200D01*
X90305714Y-93407200D02*
X90258095Y-93359580D01*
X144360476Y-77214700D02*
X144503333Y-77262319D01*
X144503333Y-77262319D02*
X144741428Y-77262319D01*
X144741428Y-77262319D02*
X144836666Y-77214700D01*
X144836666Y-77214700D02*
X144884285Y-77167080D01*
X144884285Y-77167080D02*
X144931904Y-77071842D01*
X144931904Y-77071842D02*
X144931904Y-76976604D01*
X144931904Y-76976604D02*
X144884285Y-76881366D01*
X144884285Y-76881366D02*
X144836666Y-76833747D01*
X144836666Y-76833747D02*
X144741428Y-76786128D01*
X144741428Y-76786128D02*
X144550952Y-76738509D01*
X144550952Y-76738509D02*
X144455714Y-76690890D01*
X144455714Y-76690890D02*
X144408095Y-76643271D01*
X144408095Y-76643271D02*
X144360476Y-76548033D01*
X144360476Y-76548033D02*
X144360476Y-76452795D01*
X144360476Y-76452795D02*
X144408095Y-76357557D01*
X144408095Y-76357557D02*
X144455714Y-76309938D01*
X144455714Y-76309938D02*
X144550952Y-76262319D01*
X144550952Y-76262319D02*
X144789047Y-76262319D01*
X144789047Y-76262319D02*
X144931904Y-76309938D01*
X145265238Y-76262319D02*
X145503333Y-77262319D01*
X145503333Y-77262319D02*
X145693809Y-76548033D01*
X145693809Y-76548033D02*
X145884285Y-77262319D01*
X145884285Y-77262319D02*
X146122381Y-76262319D01*
X147027142Y-77262319D02*
X146455714Y-77262319D01*
X146741428Y-77262319D02*
X146741428Y-76262319D01*
X146741428Y-76262319D02*
X146646190Y-76405176D01*
X146646190Y-76405176D02*
X146550952Y-76500414D01*
X146550952Y-76500414D02*
X146455714Y-76548033D01*
X147646190Y-76262319D02*
X147741428Y-76262319D01*
X147741428Y-76262319D02*
X147836666Y-76309938D01*
X147836666Y-76309938D02*
X147884285Y-76357557D01*
X147884285Y-76357557D02*
X147931904Y-76452795D01*
X147931904Y-76452795D02*
X147979523Y-76643271D01*
X147979523Y-76643271D02*
X147979523Y-76881366D01*
X147979523Y-76881366D02*
X147931904Y-77071842D01*
X147931904Y-77071842D02*
X147884285Y-77167080D01*
X147884285Y-77167080D02*
X147836666Y-77214700D01*
X147836666Y-77214700D02*
X147741428Y-77262319D01*
X147741428Y-77262319D02*
X147646190Y-77262319D01*
X147646190Y-77262319D02*
X147550952Y-77214700D01*
X147550952Y-77214700D02*
X147503333Y-77167080D01*
X147503333Y-77167080D02*
X147455714Y-77071842D01*
X147455714Y-77071842D02*
X147408095Y-76881366D01*
X147408095Y-76881366D02*
X147408095Y-76643271D01*
X147408095Y-76643271D02*
X147455714Y-76452795D01*
X147455714Y-76452795D02*
X147503333Y-76357557D01*
X147503333Y-76357557D02*
X147550952Y-76309938D01*
X147550952Y-76309938D02*
X147646190Y-76262319D01*
X68160476Y-81977200D02*
X68303333Y-82024819D01*
X68303333Y-82024819D02*
X68541428Y-82024819D01*
X68541428Y-82024819D02*
X68636666Y-81977200D01*
X68636666Y-81977200D02*
X68684285Y-81929580D01*
X68684285Y-81929580D02*
X68731904Y-81834342D01*
X68731904Y-81834342D02*
X68731904Y-81739104D01*
X68731904Y-81739104D02*
X68684285Y-81643866D01*
X68684285Y-81643866D02*
X68636666Y-81596247D01*
X68636666Y-81596247D02*
X68541428Y-81548628D01*
X68541428Y-81548628D02*
X68350952Y-81501009D01*
X68350952Y-81501009D02*
X68255714Y-81453390D01*
X68255714Y-81453390D02*
X68208095Y-81405771D01*
X68208095Y-81405771D02*
X68160476Y-81310533D01*
X68160476Y-81310533D02*
X68160476Y-81215295D01*
X68160476Y-81215295D02*
X68208095Y-81120057D01*
X68208095Y-81120057D02*
X68255714Y-81072438D01*
X68255714Y-81072438D02*
X68350952Y-81024819D01*
X68350952Y-81024819D02*
X68589047Y-81024819D01*
X68589047Y-81024819D02*
X68731904Y-81072438D01*
X69065238Y-81024819D02*
X69303333Y-82024819D01*
X69303333Y-82024819D02*
X69493809Y-81310533D01*
X69493809Y-81310533D02*
X69684285Y-82024819D01*
X69684285Y-82024819D02*
X69922381Y-81024819D01*
X70827142Y-82024819D02*
X70255714Y-82024819D01*
X70541428Y-82024819D02*
X70541428Y-81024819D01*
X70541428Y-81024819D02*
X70446190Y-81167676D01*
X70446190Y-81167676D02*
X70350952Y-81262914D01*
X70350952Y-81262914D02*
X70255714Y-81310533D01*
X71208095Y-81120057D02*
X71255714Y-81072438D01*
X71255714Y-81072438D02*
X71350952Y-81024819D01*
X71350952Y-81024819D02*
X71589047Y-81024819D01*
X71589047Y-81024819D02*
X71684285Y-81072438D01*
X71684285Y-81072438D02*
X71731904Y-81120057D01*
X71731904Y-81120057D02*
X71779523Y-81215295D01*
X71779523Y-81215295D02*
X71779523Y-81310533D01*
X71779523Y-81310533D02*
X71731904Y-81453390D01*
X71731904Y-81453390D02*
X71160476Y-82024819D01*
X71160476Y-82024819D02*
X71779523Y-82024819D01*
X68636667Y-62927200D02*
X68779524Y-62974819D01*
X68779524Y-62974819D02*
X69017619Y-62974819D01*
X69017619Y-62974819D02*
X69112857Y-62927200D01*
X69112857Y-62927200D02*
X69160476Y-62879580D01*
X69160476Y-62879580D02*
X69208095Y-62784342D01*
X69208095Y-62784342D02*
X69208095Y-62689104D01*
X69208095Y-62689104D02*
X69160476Y-62593866D01*
X69160476Y-62593866D02*
X69112857Y-62546247D01*
X69112857Y-62546247D02*
X69017619Y-62498628D01*
X69017619Y-62498628D02*
X68827143Y-62451009D01*
X68827143Y-62451009D02*
X68731905Y-62403390D01*
X68731905Y-62403390D02*
X68684286Y-62355771D01*
X68684286Y-62355771D02*
X68636667Y-62260533D01*
X68636667Y-62260533D02*
X68636667Y-62165295D01*
X68636667Y-62165295D02*
X68684286Y-62070057D01*
X68684286Y-62070057D02*
X68731905Y-62022438D01*
X68731905Y-62022438D02*
X68827143Y-61974819D01*
X68827143Y-61974819D02*
X69065238Y-61974819D01*
X69065238Y-61974819D02*
X69208095Y-62022438D01*
X69541429Y-61974819D02*
X69779524Y-62974819D01*
X69779524Y-62974819D02*
X69970000Y-62260533D01*
X69970000Y-62260533D02*
X70160476Y-62974819D01*
X70160476Y-62974819D02*
X70398572Y-61974819D01*
X71255714Y-61974819D02*
X70779524Y-61974819D01*
X70779524Y-61974819D02*
X70731905Y-62451009D01*
X70731905Y-62451009D02*
X70779524Y-62403390D01*
X70779524Y-62403390D02*
X70874762Y-62355771D01*
X70874762Y-62355771D02*
X71112857Y-62355771D01*
X71112857Y-62355771D02*
X71208095Y-62403390D01*
X71208095Y-62403390D02*
X71255714Y-62451009D01*
X71255714Y-62451009D02*
X71303333Y-62546247D01*
X71303333Y-62546247D02*
X71303333Y-62784342D01*
X71303333Y-62784342D02*
X71255714Y-62879580D01*
X71255714Y-62879580D02*
X71208095Y-62927200D01*
X71208095Y-62927200D02*
X71112857Y-62974819D01*
X71112857Y-62974819D02*
X70874762Y-62974819D01*
X70874762Y-62974819D02*
X70779524Y-62927200D01*
X70779524Y-62927200D02*
X70731905Y-62879580D01*
X73547619Y-23794819D02*
X73547619Y-22794819D01*
X73547619Y-22794819D02*
X73785714Y-22794819D01*
X73785714Y-22794819D02*
X73928571Y-22842438D01*
X73928571Y-22842438D02*
X74023809Y-22937676D01*
X74023809Y-22937676D02*
X74071428Y-23032914D01*
X74071428Y-23032914D02*
X74119047Y-23223390D01*
X74119047Y-23223390D02*
X74119047Y-23366247D01*
X74119047Y-23366247D02*
X74071428Y-23556723D01*
X74071428Y-23556723D02*
X74023809Y-23651961D01*
X74023809Y-23651961D02*
X73928571Y-23747200D01*
X73928571Y-23747200D02*
X73785714Y-23794819D01*
X73785714Y-23794819D02*
X73547619Y-23794819D01*
X74547619Y-23794819D02*
X74547619Y-23128152D01*
X74547619Y-22794819D02*
X74500000Y-22842438D01*
X74500000Y-22842438D02*
X74547619Y-22890057D01*
X74547619Y-22890057D02*
X74595238Y-22842438D01*
X74595238Y-22842438D02*
X74547619Y-22794819D01*
X74547619Y-22794819D02*
X74547619Y-22890057D01*
X74976190Y-23747200D02*
X75071428Y-23794819D01*
X75071428Y-23794819D02*
X75261904Y-23794819D01*
X75261904Y-23794819D02*
X75357142Y-23747200D01*
X75357142Y-23747200D02*
X75404761Y-23651961D01*
X75404761Y-23651961D02*
X75404761Y-23604342D01*
X75404761Y-23604342D02*
X75357142Y-23509104D01*
X75357142Y-23509104D02*
X75261904Y-23461485D01*
X75261904Y-23461485D02*
X75119047Y-23461485D01*
X75119047Y-23461485D02*
X75023809Y-23413866D01*
X75023809Y-23413866D02*
X74976190Y-23318628D01*
X74976190Y-23318628D02*
X74976190Y-23271009D01*
X74976190Y-23271009D02*
X75023809Y-23175771D01*
X75023809Y-23175771D02*
X75119047Y-23128152D01*
X75119047Y-23128152D02*
X75261904Y-23128152D01*
X75261904Y-23128152D02*
X75357142Y-23175771D01*
X75833333Y-23128152D02*
X75833333Y-24128152D01*
X75833333Y-23175771D02*
X75928571Y-23128152D01*
X75928571Y-23128152D02*
X76119047Y-23128152D01*
X76119047Y-23128152D02*
X76214285Y-23175771D01*
X76214285Y-23175771D02*
X76261904Y-23223390D01*
X76261904Y-23223390D02*
X76309523Y-23318628D01*
X76309523Y-23318628D02*
X76309523Y-23604342D01*
X76309523Y-23604342D02*
X76261904Y-23699580D01*
X76261904Y-23699580D02*
X76214285Y-23747200D01*
X76214285Y-23747200D02*
X76119047Y-23794819D01*
X76119047Y-23794819D02*
X75928571Y-23794819D01*
X75928571Y-23794819D02*
X75833333Y-23747200D01*
X76880952Y-23794819D02*
X76785714Y-23747200D01*
X76785714Y-23747200D02*
X76738095Y-23651961D01*
X76738095Y-23651961D02*
X76738095Y-22794819D01*
X77690476Y-23794819D02*
X77690476Y-23271009D01*
X77690476Y-23271009D02*
X77642857Y-23175771D01*
X77642857Y-23175771D02*
X77547619Y-23128152D01*
X77547619Y-23128152D02*
X77357143Y-23128152D01*
X77357143Y-23128152D02*
X77261905Y-23175771D01*
X77690476Y-23747200D02*
X77595238Y-23794819D01*
X77595238Y-23794819D02*
X77357143Y-23794819D01*
X77357143Y-23794819D02*
X77261905Y-23747200D01*
X77261905Y-23747200D02*
X77214286Y-23651961D01*
X77214286Y-23651961D02*
X77214286Y-23556723D01*
X77214286Y-23556723D02*
X77261905Y-23461485D01*
X77261905Y-23461485D02*
X77357143Y-23413866D01*
X77357143Y-23413866D02*
X77595238Y-23413866D01*
X77595238Y-23413866D02*
X77690476Y-23366247D01*
X78071429Y-23128152D02*
X78309524Y-23794819D01*
X78547619Y-23128152D02*
X78309524Y-23794819D01*
X78309524Y-23794819D02*
X78214286Y-24032914D01*
X78214286Y-24032914D02*
X78166667Y-24080533D01*
X78166667Y-24080533D02*
X78071429Y-24128152D01*
X73654819Y-31213333D02*
X74369104Y-31213333D01*
X74369104Y-31213333D02*
X74511961Y-31260952D01*
X74511961Y-31260952D02*
X74607200Y-31356190D01*
X74607200Y-31356190D02*
X74654819Y-31499047D01*
X74654819Y-31499047D02*
X74654819Y-31594285D01*
X73654819Y-30832380D02*
X73654819Y-30213333D01*
X73654819Y-30213333D02*
X74035771Y-30546666D01*
X74035771Y-30546666D02*
X74035771Y-30403809D01*
X74035771Y-30403809D02*
X74083390Y-30308571D01*
X74083390Y-30308571D02*
X74131009Y-30260952D01*
X74131009Y-30260952D02*
X74226247Y-30213333D01*
X74226247Y-30213333D02*
X74464342Y-30213333D01*
X74464342Y-30213333D02*
X74559580Y-30260952D01*
X74559580Y-30260952D02*
X74607200Y-30308571D01*
X74607200Y-30308571D02*
X74654819Y-30403809D01*
X74654819Y-30403809D02*
X74654819Y-30689523D01*
X74654819Y-30689523D02*
X74607200Y-30784761D01*
X74607200Y-30784761D02*
X74559580Y-30832380D01*
X106736667Y-71499700D02*
X106879524Y-71547319D01*
X106879524Y-71547319D02*
X107117619Y-71547319D01*
X107117619Y-71547319D02*
X107212857Y-71499700D01*
X107212857Y-71499700D02*
X107260476Y-71452080D01*
X107260476Y-71452080D02*
X107308095Y-71356842D01*
X107308095Y-71356842D02*
X107308095Y-71261604D01*
X107308095Y-71261604D02*
X107260476Y-71166366D01*
X107260476Y-71166366D02*
X107212857Y-71118747D01*
X107212857Y-71118747D02*
X107117619Y-71071128D01*
X107117619Y-71071128D02*
X106927143Y-71023509D01*
X106927143Y-71023509D02*
X106831905Y-70975890D01*
X106831905Y-70975890D02*
X106784286Y-70928271D01*
X106784286Y-70928271D02*
X106736667Y-70833033D01*
X106736667Y-70833033D02*
X106736667Y-70737795D01*
X106736667Y-70737795D02*
X106784286Y-70642557D01*
X106784286Y-70642557D02*
X106831905Y-70594938D01*
X106831905Y-70594938D02*
X106927143Y-70547319D01*
X106927143Y-70547319D02*
X107165238Y-70547319D01*
X107165238Y-70547319D02*
X107308095Y-70594938D01*
X107641429Y-70547319D02*
X107879524Y-71547319D01*
X107879524Y-71547319D02*
X108070000Y-70833033D01*
X108070000Y-70833033D02*
X108260476Y-71547319D01*
X108260476Y-71547319D02*
X108498572Y-70547319D01*
X108784286Y-70547319D02*
X109450952Y-70547319D01*
X109450952Y-70547319D02*
X109022381Y-71547319D01*
X83540476Y-28057200D02*
X83683333Y-28104819D01*
X83683333Y-28104819D02*
X83921428Y-28104819D01*
X83921428Y-28104819D02*
X84016666Y-28057200D01*
X84016666Y-28057200D02*
X84064285Y-28009580D01*
X84064285Y-28009580D02*
X84111904Y-27914342D01*
X84111904Y-27914342D02*
X84111904Y-27819104D01*
X84111904Y-27819104D02*
X84064285Y-27723866D01*
X84064285Y-27723866D02*
X84016666Y-27676247D01*
X84016666Y-27676247D02*
X83921428Y-27628628D01*
X83921428Y-27628628D02*
X83730952Y-27581009D01*
X83730952Y-27581009D02*
X83635714Y-27533390D01*
X83635714Y-27533390D02*
X83588095Y-27485771D01*
X83588095Y-27485771D02*
X83540476Y-27390533D01*
X83540476Y-27390533D02*
X83540476Y-27295295D01*
X83540476Y-27295295D02*
X83588095Y-27200057D01*
X83588095Y-27200057D02*
X83635714Y-27152438D01*
X83635714Y-27152438D02*
X83730952Y-27104819D01*
X83730952Y-27104819D02*
X83969047Y-27104819D01*
X83969047Y-27104819D02*
X84111904Y-27152438D01*
X84445238Y-27104819D02*
X84683333Y-28104819D01*
X84683333Y-28104819D02*
X84873809Y-27390533D01*
X84873809Y-27390533D02*
X85064285Y-28104819D01*
X85064285Y-28104819D02*
X85302381Y-27104819D01*
X85588095Y-27104819D02*
X86207142Y-27104819D01*
X86207142Y-27104819D02*
X85873809Y-27485771D01*
X85873809Y-27485771D02*
X86016666Y-27485771D01*
X86016666Y-27485771D02*
X86111904Y-27533390D01*
X86111904Y-27533390D02*
X86159523Y-27581009D01*
X86159523Y-27581009D02*
X86207142Y-27676247D01*
X86207142Y-27676247D02*
X86207142Y-27914342D01*
X86207142Y-27914342D02*
X86159523Y-28009580D01*
X86159523Y-28009580D02*
X86111904Y-28057200D01*
X86111904Y-28057200D02*
X86016666Y-28104819D01*
X86016666Y-28104819D02*
X85730952Y-28104819D01*
X85730952Y-28104819D02*
X85635714Y-28057200D01*
X85635714Y-28057200D02*
X85588095Y-28009580D01*
X86540476Y-27104819D02*
X87159523Y-27104819D01*
X87159523Y-27104819D02*
X86826190Y-27485771D01*
X86826190Y-27485771D02*
X86969047Y-27485771D01*
X86969047Y-27485771D02*
X87064285Y-27533390D01*
X87064285Y-27533390D02*
X87111904Y-27581009D01*
X87111904Y-27581009D02*
X87159523Y-27676247D01*
X87159523Y-27676247D02*
X87159523Y-27914342D01*
X87159523Y-27914342D02*
X87111904Y-28009580D01*
X87111904Y-28009580D02*
X87064285Y-28057200D01*
X87064285Y-28057200D02*
X86969047Y-28104819D01*
X86969047Y-28104819D02*
X86683333Y-28104819D01*
X86683333Y-28104819D02*
X86588095Y-28057200D01*
X86588095Y-28057200D02*
X86540476Y-28009580D01*
X49110476Y-124839700D02*
X49253333Y-124887319D01*
X49253333Y-124887319D02*
X49491428Y-124887319D01*
X49491428Y-124887319D02*
X49586666Y-124839700D01*
X49586666Y-124839700D02*
X49634285Y-124792080D01*
X49634285Y-124792080D02*
X49681904Y-124696842D01*
X49681904Y-124696842D02*
X49681904Y-124601604D01*
X49681904Y-124601604D02*
X49634285Y-124506366D01*
X49634285Y-124506366D02*
X49586666Y-124458747D01*
X49586666Y-124458747D02*
X49491428Y-124411128D01*
X49491428Y-124411128D02*
X49300952Y-124363509D01*
X49300952Y-124363509D02*
X49205714Y-124315890D01*
X49205714Y-124315890D02*
X49158095Y-124268271D01*
X49158095Y-124268271D02*
X49110476Y-124173033D01*
X49110476Y-124173033D02*
X49110476Y-124077795D01*
X49110476Y-124077795D02*
X49158095Y-123982557D01*
X49158095Y-123982557D02*
X49205714Y-123934938D01*
X49205714Y-123934938D02*
X49300952Y-123887319D01*
X49300952Y-123887319D02*
X49539047Y-123887319D01*
X49539047Y-123887319D02*
X49681904Y-123934938D01*
X50015238Y-123887319D02*
X50253333Y-124887319D01*
X50253333Y-124887319D02*
X50443809Y-124173033D01*
X50443809Y-124173033D02*
X50634285Y-124887319D01*
X50634285Y-124887319D02*
X50872381Y-123887319D01*
X51205714Y-123982557D02*
X51253333Y-123934938D01*
X51253333Y-123934938D02*
X51348571Y-123887319D01*
X51348571Y-123887319D02*
X51586666Y-123887319D01*
X51586666Y-123887319D02*
X51681904Y-123934938D01*
X51681904Y-123934938D02*
X51729523Y-123982557D01*
X51729523Y-123982557D02*
X51777142Y-124077795D01*
X51777142Y-124077795D02*
X51777142Y-124173033D01*
X51777142Y-124173033D02*
X51729523Y-124315890D01*
X51729523Y-124315890D02*
X51158095Y-124887319D01*
X51158095Y-124887319D02*
X51777142Y-124887319D01*
X52110476Y-123887319D02*
X52777142Y-123887319D01*
X52777142Y-123887319D02*
X52348571Y-124887319D01*
X87210476Y-112457200D02*
X87353333Y-112504819D01*
X87353333Y-112504819D02*
X87591428Y-112504819D01*
X87591428Y-112504819D02*
X87686666Y-112457200D01*
X87686666Y-112457200D02*
X87734285Y-112409580D01*
X87734285Y-112409580D02*
X87781904Y-112314342D01*
X87781904Y-112314342D02*
X87781904Y-112219104D01*
X87781904Y-112219104D02*
X87734285Y-112123866D01*
X87734285Y-112123866D02*
X87686666Y-112076247D01*
X87686666Y-112076247D02*
X87591428Y-112028628D01*
X87591428Y-112028628D02*
X87400952Y-111981009D01*
X87400952Y-111981009D02*
X87305714Y-111933390D01*
X87305714Y-111933390D02*
X87258095Y-111885771D01*
X87258095Y-111885771D02*
X87210476Y-111790533D01*
X87210476Y-111790533D02*
X87210476Y-111695295D01*
X87210476Y-111695295D02*
X87258095Y-111600057D01*
X87258095Y-111600057D02*
X87305714Y-111552438D01*
X87305714Y-111552438D02*
X87400952Y-111504819D01*
X87400952Y-111504819D02*
X87639047Y-111504819D01*
X87639047Y-111504819D02*
X87781904Y-111552438D01*
X88115238Y-111504819D02*
X88353333Y-112504819D01*
X88353333Y-112504819D02*
X88543809Y-111790533D01*
X88543809Y-111790533D02*
X88734285Y-112504819D01*
X88734285Y-112504819D02*
X88972381Y-111504819D01*
X89305714Y-111600057D02*
X89353333Y-111552438D01*
X89353333Y-111552438D02*
X89448571Y-111504819D01*
X89448571Y-111504819D02*
X89686666Y-111504819D01*
X89686666Y-111504819D02*
X89781904Y-111552438D01*
X89781904Y-111552438D02*
X89829523Y-111600057D01*
X89829523Y-111600057D02*
X89877142Y-111695295D01*
X89877142Y-111695295D02*
X89877142Y-111790533D01*
X89877142Y-111790533D02*
X89829523Y-111933390D01*
X89829523Y-111933390D02*
X89258095Y-112504819D01*
X89258095Y-112504819D02*
X89877142Y-112504819D01*
X90258095Y-111600057D02*
X90305714Y-111552438D01*
X90305714Y-111552438D02*
X90400952Y-111504819D01*
X90400952Y-111504819D02*
X90639047Y-111504819D01*
X90639047Y-111504819D02*
X90734285Y-111552438D01*
X90734285Y-111552438D02*
X90781904Y-111600057D01*
X90781904Y-111600057D02*
X90829523Y-111695295D01*
X90829523Y-111695295D02*
X90829523Y-111790533D01*
X90829523Y-111790533D02*
X90781904Y-111933390D01*
X90781904Y-111933390D02*
X90210476Y-112504819D01*
X90210476Y-112504819D02*
X90829523Y-112504819D01*
X125310476Y-112457200D02*
X125453333Y-112504819D01*
X125453333Y-112504819D02*
X125691428Y-112504819D01*
X125691428Y-112504819D02*
X125786666Y-112457200D01*
X125786666Y-112457200D02*
X125834285Y-112409580D01*
X125834285Y-112409580D02*
X125881904Y-112314342D01*
X125881904Y-112314342D02*
X125881904Y-112219104D01*
X125881904Y-112219104D02*
X125834285Y-112123866D01*
X125834285Y-112123866D02*
X125786666Y-112076247D01*
X125786666Y-112076247D02*
X125691428Y-112028628D01*
X125691428Y-112028628D02*
X125500952Y-111981009D01*
X125500952Y-111981009D02*
X125405714Y-111933390D01*
X125405714Y-111933390D02*
X125358095Y-111885771D01*
X125358095Y-111885771D02*
X125310476Y-111790533D01*
X125310476Y-111790533D02*
X125310476Y-111695295D01*
X125310476Y-111695295D02*
X125358095Y-111600057D01*
X125358095Y-111600057D02*
X125405714Y-111552438D01*
X125405714Y-111552438D02*
X125500952Y-111504819D01*
X125500952Y-111504819D02*
X125739047Y-111504819D01*
X125739047Y-111504819D02*
X125881904Y-111552438D01*
X126215238Y-111504819D02*
X126453333Y-112504819D01*
X126453333Y-112504819D02*
X126643809Y-111790533D01*
X126643809Y-111790533D02*
X126834285Y-112504819D01*
X126834285Y-112504819D02*
X127072381Y-111504819D01*
X127405714Y-111600057D02*
X127453333Y-111552438D01*
X127453333Y-111552438D02*
X127548571Y-111504819D01*
X127548571Y-111504819D02*
X127786666Y-111504819D01*
X127786666Y-111504819D02*
X127881904Y-111552438D01*
X127881904Y-111552438D02*
X127929523Y-111600057D01*
X127929523Y-111600057D02*
X127977142Y-111695295D01*
X127977142Y-111695295D02*
X127977142Y-111790533D01*
X127977142Y-111790533D02*
X127929523Y-111933390D01*
X127929523Y-111933390D02*
X127358095Y-112504819D01*
X127358095Y-112504819D02*
X127977142Y-112504819D01*
X128310476Y-111504819D02*
X128929523Y-111504819D01*
X128929523Y-111504819D02*
X128596190Y-111885771D01*
X128596190Y-111885771D02*
X128739047Y-111885771D01*
X128739047Y-111885771D02*
X128834285Y-111933390D01*
X128834285Y-111933390D02*
X128881904Y-111981009D01*
X128881904Y-111981009D02*
X128929523Y-112076247D01*
X128929523Y-112076247D02*
X128929523Y-112314342D01*
X128929523Y-112314342D02*
X128881904Y-112409580D01*
X128881904Y-112409580D02*
X128834285Y-112457200D01*
X128834285Y-112457200D02*
X128739047Y-112504819D01*
X128739047Y-112504819D02*
X128453333Y-112504819D01*
X128453333Y-112504819D02*
X128358095Y-112457200D01*
X128358095Y-112457200D02*
X128310476Y-112409580D01*
X90207200Y-31035237D02*
X90254819Y-30892380D01*
X90254819Y-30892380D02*
X90254819Y-30654285D01*
X90254819Y-30654285D02*
X90207200Y-30559047D01*
X90207200Y-30559047D02*
X90159580Y-30511428D01*
X90159580Y-30511428D02*
X90064342Y-30463809D01*
X90064342Y-30463809D02*
X89969104Y-30463809D01*
X89969104Y-30463809D02*
X89873866Y-30511428D01*
X89873866Y-30511428D02*
X89826247Y-30559047D01*
X89826247Y-30559047D02*
X89778628Y-30654285D01*
X89778628Y-30654285D02*
X89731009Y-30844761D01*
X89731009Y-30844761D02*
X89683390Y-30939999D01*
X89683390Y-30939999D02*
X89635771Y-30987618D01*
X89635771Y-30987618D02*
X89540533Y-31035237D01*
X89540533Y-31035237D02*
X89445295Y-31035237D01*
X89445295Y-31035237D02*
X89350057Y-30987618D01*
X89350057Y-30987618D02*
X89302438Y-30939999D01*
X89302438Y-30939999D02*
X89254819Y-30844761D01*
X89254819Y-30844761D02*
X89254819Y-30606666D01*
X89254819Y-30606666D02*
X89302438Y-30463809D01*
X89254819Y-30130475D02*
X90254819Y-29892380D01*
X90254819Y-29892380D02*
X89540533Y-29701904D01*
X89540533Y-29701904D02*
X90254819Y-29511428D01*
X90254819Y-29511428D02*
X89254819Y-29273333D01*
X90350057Y-29130476D02*
X90350057Y-28368571D01*
X90207200Y-28178094D02*
X90254819Y-28035237D01*
X90254819Y-28035237D02*
X90254819Y-27797142D01*
X90254819Y-27797142D02*
X90207200Y-27701904D01*
X90207200Y-27701904D02*
X90159580Y-27654285D01*
X90159580Y-27654285D02*
X90064342Y-27606666D01*
X90064342Y-27606666D02*
X89969104Y-27606666D01*
X89969104Y-27606666D02*
X89873866Y-27654285D01*
X89873866Y-27654285D02*
X89826247Y-27701904D01*
X89826247Y-27701904D02*
X89778628Y-27797142D01*
X89778628Y-27797142D02*
X89731009Y-27987618D01*
X89731009Y-27987618D02*
X89683390Y-28082856D01*
X89683390Y-28082856D02*
X89635771Y-28130475D01*
X89635771Y-28130475D02*
X89540533Y-28178094D01*
X89540533Y-28178094D02*
X89445295Y-28178094D01*
X89445295Y-28178094D02*
X89350057Y-28130475D01*
X89350057Y-28130475D02*
X89302438Y-28082856D01*
X89302438Y-28082856D02*
X89254819Y-27987618D01*
X89254819Y-27987618D02*
X89254819Y-27749523D01*
X89254819Y-27749523D02*
X89302438Y-27606666D01*
X90254819Y-27178094D02*
X89254819Y-27178094D01*
X89254819Y-27178094D02*
X89254819Y-26797142D01*
X89254819Y-26797142D02*
X89302438Y-26701904D01*
X89302438Y-26701904D02*
X89350057Y-26654285D01*
X89350057Y-26654285D02*
X89445295Y-26606666D01*
X89445295Y-26606666D02*
X89588152Y-26606666D01*
X89588152Y-26606666D02*
X89683390Y-26654285D01*
X89683390Y-26654285D02*
X89731009Y-26701904D01*
X89731009Y-26701904D02*
X89778628Y-26797142D01*
X89778628Y-26797142D02*
X89778628Y-27178094D01*
X90254819Y-26178094D02*
X89254819Y-26178094D01*
X89254819Y-26178094D02*
X89254819Y-25939999D01*
X89254819Y-25939999D02*
X89302438Y-25797142D01*
X89302438Y-25797142D02*
X89397676Y-25701904D01*
X89397676Y-25701904D02*
X89492914Y-25654285D01*
X89492914Y-25654285D02*
X89683390Y-25606666D01*
X89683390Y-25606666D02*
X89826247Y-25606666D01*
X89826247Y-25606666D02*
X90016723Y-25654285D01*
X90016723Y-25654285D02*
X90111961Y-25701904D01*
X90111961Y-25701904D02*
X90207200Y-25797142D01*
X90207200Y-25797142D02*
X90254819Y-25939999D01*
X90254819Y-25939999D02*
X90254819Y-26178094D01*
X89254819Y-25320951D02*
X89254819Y-24749523D01*
X90254819Y-25035237D02*
X89254819Y-25035237D01*
X106736667Y-52449700D02*
X106879524Y-52497319D01*
X106879524Y-52497319D02*
X107117619Y-52497319D01*
X107117619Y-52497319D02*
X107212857Y-52449700D01*
X107212857Y-52449700D02*
X107260476Y-52402080D01*
X107260476Y-52402080D02*
X107308095Y-52306842D01*
X107308095Y-52306842D02*
X107308095Y-52211604D01*
X107308095Y-52211604D02*
X107260476Y-52116366D01*
X107260476Y-52116366D02*
X107212857Y-52068747D01*
X107212857Y-52068747D02*
X107117619Y-52021128D01*
X107117619Y-52021128D02*
X106927143Y-51973509D01*
X106927143Y-51973509D02*
X106831905Y-51925890D01*
X106831905Y-51925890D02*
X106784286Y-51878271D01*
X106784286Y-51878271D02*
X106736667Y-51783033D01*
X106736667Y-51783033D02*
X106736667Y-51687795D01*
X106736667Y-51687795D02*
X106784286Y-51592557D01*
X106784286Y-51592557D02*
X106831905Y-51544938D01*
X106831905Y-51544938D02*
X106927143Y-51497319D01*
X106927143Y-51497319D02*
X107165238Y-51497319D01*
X107165238Y-51497319D02*
X107308095Y-51544938D01*
X107641429Y-51497319D02*
X107879524Y-52497319D01*
X107879524Y-52497319D02*
X108070000Y-51783033D01*
X108070000Y-51783033D02*
X108260476Y-52497319D01*
X108260476Y-52497319D02*
X108498572Y-51497319D01*
X109403333Y-52497319D02*
X108831905Y-52497319D01*
X109117619Y-52497319D02*
X109117619Y-51497319D01*
X109117619Y-51497319D02*
X109022381Y-51640176D01*
X109022381Y-51640176D02*
X108927143Y-51735414D01*
X108927143Y-51735414D02*
X108831905Y-51783033D01*
X70738095Y-138534819D02*
X70738095Y-137534819D01*
X70738095Y-138011009D02*
X71309523Y-138011009D01*
X71309523Y-138534819D02*
X71309523Y-137534819D01*
X72214285Y-137868152D02*
X72214285Y-138534819D01*
X71976190Y-137487200D02*
X71738095Y-138201485D01*
X71738095Y-138201485D02*
X72357142Y-138201485D01*
X156538095Y-64634819D02*
X156538095Y-63634819D01*
X156538095Y-64111009D02*
X157109523Y-64111009D01*
X157109523Y-64634819D02*
X157109523Y-63634819D01*
X157538095Y-63730057D02*
X157585714Y-63682438D01*
X157585714Y-63682438D02*
X157680952Y-63634819D01*
X157680952Y-63634819D02*
X157919047Y-63634819D01*
X157919047Y-63634819D02*
X158014285Y-63682438D01*
X158014285Y-63682438D02*
X158061904Y-63730057D01*
X158061904Y-63730057D02*
X158109523Y-63825295D01*
X158109523Y-63825295D02*
X158109523Y-63920533D01*
X158109523Y-63920533D02*
X158061904Y-64063390D01*
X158061904Y-64063390D02*
X157490476Y-64634819D01*
X157490476Y-64634819D02*
X158109523Y-64634819D01*
X144360476Y-115314700D02*
X144503333Y-115362319D01*
X144503333Y-115362319D02*
X144741428Y-115362319D01*
X144741428Y-115362319D02*
X144836666Y-115314700D01*
X144836666Y-115314700D02*
X144884285Y-115267080D01*
X144884285Y-115267080D02*
X144931904Y-115171842D01*
X144931904Y-115171842D02*
X144931904Y-115076604D01*
X144931904Y-115076604D02*
X144884285Y-114981366D01*
X144884285Y-114981366D02*
X144836666Y-114933747D01*
X144836666Y-114933747D02*
X144741428Y-114886128D01*
X144741428Y-114886128D02*
X144550952Y-114838509D01*
X144550952Y-114838509D02*
X144455714Y-114790890D01*
X144455714Y-114790890D02*
X144408095Y-114743271D01*
X144408095Y-114743271D02*
X144360476Y-114648033D01*
X144360476Y-114648033D02*
X144360476Y-114552795D01*
X144360476Y-114552795D02*
X144408095Y-114457557D01*
X144408095Y-114457557D02*
X144455714Y-114409938D01*
X144455714Y-114409938D02*
X144550952Y-114362319D01*
X144550952Y-114362319D02*
X144789047Y-114362319D01*
X144789047Y-114362319D02*
X144931904Y-114409938D01*
X145265238Y-114362319D02*
X145503333Y-115362319D01*
X145503333Y-115362319D02*
X145693809Y-114648033D01*
X145693809Y-114648033D02*
X145884285Y-115362319D01*
X145884285Y-115362319D02*
X146122381Y-114362319D01*
X146455714Y-114457557D02*
X146503333Y-114409938D01*
X146503333Y-114409938D02*
X146598571Y-114362319D01*
X146598571Y-114362319D02*
X146836666Y-114362319D01*
X146836666Y-114362319D02*
X146931904Y-114409938D01*
X146931904Y-114409938D02*
X146979523Y-114457557D01*
X146979523Y-114457557D02*
X147027142Y-114552795D01*
X147027142Y-114552795D02*
X147027142Y-114648033D01*
X147027142Y-114648033D02*
X146979523Y-114790890D01*
X146979523Y-114790890D02*
X146408095Y-115362319D01*
X146408095Y-115362319D02*
X147027142Y-115362319D01*
X147884285Y-114695652D02*
X147884285Y-115362319D01*
X147646190Y-114314700D02*
X147408095Y-115028985D01*
X147408095Y-115028985D02*
X148027142Y-115028985D01*
%TO.C,SW31*%
X136447311Y-136289420D02*
X140329597Y-121800532D01*
D11*
X139409794Y-136824396D02*
X141824608Y-137471443D01*
X140056841Y-134409581D02*
X139409794Y-136824396D01*
D10*
X140329597Y-121800532D02*
X154818485Y-125682818D01*
X141708140Y-137906110D02*
X142061693Y-138518482D01*
X142061693Y-138518482D02*
X144959471Y-139294939D01*
D11*
X142471656Y-135056629D02*
X140056841Y-134409581D01*
X142601065Y-134573666D02*
X141708140Y-137906110D01*
D10*
X142614006Y-134525369D02*
X143226379Y-134171816D01*
X143226379Y-134171816D02*
X145641193Y-134818864D01*
X144959471Y-139294939D02*
X145571843Y-138941386D01*
X145830662Y-137975460D02*
X145571843Y-138941386D01*
X147478311Y-133758202D02*
X147659484Y-133082055D01*
X147659484Y-133082055D02*
X152006150Y-134246741D01*
X150789701Y-138786591D02*
X146443034Y-137621907D01*
X150936199Y-140171706D02*
X136447311Y-136289420D01*
D11*
X151100284Y-137627480D02*
X153515098Y-138274529D01*
X152006150Y-134246741D02*
X150789701Y-138786591D01*
X153515098Y-138274529D02*
X154162146Y-135859714D01*
X154162146Y-135859714D02*
X151747331Y-135212667D01*
D10*
X154818485Y-125682818D02*
X150936199Y-140171706D01*
X145830662Y-137975460D02*
G75*
G02*
X146443034Y-137621907I482963J-129410D01*
G01*
X147478311Y-133758202D02*
G75*
G02*
X145641193Y-134818864I-1448889J388227D01*
G01*
%TO.C,SW4*%
X135670000Y-45257500D02*
X150670000Y-45257500D01*
X135670000Y-60257500D02*
X135670000Y-45257500D01*
D11*
X138670000Y-57507500D02*
X138670000Y-60007500D01*
X138670000Y-60007500D02*
X141170000Y-60007500D01*
D10*
X141170000Y-56957500D02*
X141670000Y-56457500D01*
D11*
X141170000Y-57007500D02*
X141170000Y-60457500D01*
X141170000Y-57507500D02*
X138670000Y-57507500D01*
D10*
X141170000Y-60457500D02*
X141670000Y-60957500D01*
X141670000Y-56457500D02*
X144170000Y-56457500D01*
X141670000Y-60957500D02*
X144670000Y-60957500D01*
X144670000Y-60957500D02*
X145170000Y-60457500D01*
X145170000Y-59457500D02*
X145170000Y-60457500D01*
X145670000Y-54257500D02*
X150170000Y-54257500D01*
X145670000Y-54957500D02*
X145670000Y-54257500D01*
D11*
X150170000Y-54257500D02*
X150170000Y-58957500D01*
X150170000Y-57757500D02*
X152670000Y-57757500D01*
D10*
X150170000Y-58957500D02*
X145670000Y-58957500D01*
X150670000Y-45257500D02*
X150670000Y-60257500D01*
X150670000Y-60257500D02*
X135670000Y-60257500D01*
D11*
X152670000Y-55257500D02*
X150170000Y-55257500D01*
X152670000Y-57757500D02*
X152670000Y-55257500D01*
D10*
X145170000Y-59457500D02*
G75*
G02*
X145670000Y-58957500I500000J0D01*
G01*
X145670000Y-54957500D02*
G75*
G02*
X144170000Y-56457500I-1500000J0D01*
G01*
%TO.C,SW29*%
X116620000Y-118600000D02*
X131620000Y-118600000D01*
X116620000Y-133600000D02*
X116620000Y-118600000D01*
D11*
X119620000Y-130850000D02*
X119620000Y-133350000D01*
X119620000Y-133350000D02*
X122120000Y-133350000D01*
D10*
X122120000Y-130300000D02*
X122620000Y-129800000D01*
D11*
X122120000Y-130350000D02*
X122120000Y-133800000D01*
X122120000Y-130850000D02*
X119620000Y-130850000D01*
D10*
X122120000Y-133800000D02*
X122620000Y-134300000D01*
X122620000Y-129800000D02*
X125120000Y-129800000D01*
X122620000Y-134300000D02*
X125620000Y-134300000D01*
X125620000Y-134300000D02*
X126120000Y-133800000D01*
X126120000Y-132800000D02*
X126120000Y-133800000D01*
X126620000Y-127600000D02*
X131120000Y-127600000D01*
X126620000Y-128300000D02*
X126620000Y-127600000D01*
D11*
X131120000Y-127600000D02*
X131120000Y-132300000D01*
X131120000Y-131100000D02*
X133620000Y-131100000D01*
D10*
X131120000Y-132300000D02*
X126620000Y-132300000D01*
X131620000Y-118600000D02*
X131620000Y-133600000D01*
X131620000Y-133600000D02*
X116620000Y-133600000D01*
D11*
X133620000Y-128600000D02*
X131120000Y-128600000D01*
X133620000Y-131100000D02*
X133620000Y-128600000D01*
D10*
X126120000Y-132800000D02*
G75*
G02*
X126620000Y-132300000I500000J0D01*
G01*
X126620000Y-128300000D02*
G75*
G02*
X125120000Y-129800000I-1500000J0D01*
G01*
%TO.C,SW13*%
X40420000Y-73832500D02*
X55420000Y-73832500D01*
X40420000Y-88832500D02*
X40420000Y-73832500D01*
D11*
X43420000Y-86082500D02*
X43420000Y-88582500D01*
X43420000Y-88582500D02*
X45920000Y-88582500D01*
D10*
X45920000Y-85532500D02*
X46420000Y-85032500D01*
D11*
X45920000Y-85582500D02*
X45920000Y-89032500D01*
X45920000Y-86082500D02*
X43420000Y-86082500D01*
D10*
X45920000Y-89032500D02*
X46420000Y-89532500D01*
X46420000Y-85032500D02*
X48920000Y-85032500D01*
X46420000Y-89532500D02*
X49420000Y-89532500D01*
X49420000Y-89532500D02*
X49920000Y-89032500D01*
X49920000Y-88032500D02*
X49920000Y-89032500D01*
X50420000Y-82832500D02*
X54920000Y-82832500D01*
X50420000Y-83532500D02*
X50420000Y-82832500D01*
D11*
X54920000Y-82832500D02*
X54920000Y-87532500D01*
X54920000Y-86332500D02*
X57420000Y-86332500D01*
D10*
X54920000Y-87532500D02*
X50420000Y-87532500D01*
X55420000Y-73832500D02*
X55420000Y-88832500D01*
X55420000Y-88832500D02*
X40420000Y-88832500D01*
D11*
X57420000Y-83832500D02*
X54920000Y-83832500D01*
X57420000Y-86332500D02*
X57420000Y-83832500D01*
D10*
X49920000Y-88032500D02*
G75*
G02*
X50420000Y-87532500I500000J0D01*
G01*
X50420000Y-83532500D02*
G75*
G02*
X48920000Y-85032500I-1500000J0D01*
G01*
D12*
%TO.C,J1*%
X94150000Y-35255000D02*
X94675000Y-34730000D01*
X94150000Y-37270000D02*
X94150000Y-35255000D01*
X94675000Y-34730000D02*
X96250000Y-34730000D01*
X96250000Y-34730000D02*
X96250000Y-37270000D01*
X96250000Y-37270000D02*
X94150000Y-37270000D01*
D10*
%TO.C,SW25*%
X154720000Y-102407500D02*
X169720000Y-102407500D01*
X154720000Y-117407500D02*
X154720000Y-102407500D01*
D11*
X157720000Y-114657500D02*
X157720000Y-117157500D01*
X157720000Y-117157500D02*
X160220000Y-117157500D01*
D10*
X160220000Y-114107500D02*
X160720000Y-113607500D01*
D11*
X160220000Y-114157500D02*
X160220000Y-117607500D01*
X160220000Y-114657500D02*
X157720000Y-114657500D01*
D10*
X160220000Y-117607500D02*
X160720000Y-118107500D01*
X160720000Y-113607500D02*
X163220000Y-113607500D01*
X160720000Y-118107500D02*
X163720000Y-118107500D01*
X163720000Y-118107500D02*
X164220000Y-117607500D01*
X164220000Y-116607500D02*
X164220000Y-117607500D01*
X164720000Y-111407500D02*
X169220000Y-111407500D01*
X164720000Y-112107500D02*
X164720000Y-111407500D01*
D11*
X169220000Y-111407500D02*
X169220000Y-116107500D01*
X169220000Y-114907500D02*
X171720000Y-114907500D01*
D10*
X169220000Y-116107500D02*
X164720000Y-116107500D01*
X169720000Y-102407500D02*
X169720000Y-117407500D01*
X169720000Y-117407500D02*
X154720000Y-117407500D01*
D11*
X171720000Y-112407500D02*
X169220000Y-112407500D01*
X171720000Y-114907500D02*
X171720000Y-112407500D01*
D10*
X164220000Y-116607500D02*
G75*
G02*
X164720000Y-116107500I500000J0D01*
G01*
X164720000Y-112107500D02*
G75*
G02*
X163220000Y-113607500I-1500000J0D01*
G01*
D12*
%TO.C,J2*%
X75705000Y-24520000D02*
X78245000Y-24520000D01*
X75705000Y-36585000D02*
X75705000Y-24520000D01*
X76340000Y-37220000D02*
X75705000Y-36585000D01*
X78245000Y-24520000D02*
X78245000Y-37220000D01*
X78245000Y-37220000D02*
X76340000Y-37220000D01*
D10*
%TO.C,SW21*%
X97570000Y-96692500D02*
X112570000Y-96692500D01*
X97570000Y-111692500D02*
X97570000Y-96692500D01*
D11*
X100570000Y-108942500D02*
X100570000Y-111442500D01*
X100570000Y-111442500D02*
X103070000Y-111442500D01*
D10*
X103070000Y-108392500D02*
X103570000Y-107892500D01*
D11*
X103070000Y-108442500D02*
X103070000Y-111892500D01*
X103070000Y-108942500D02*
X100570000Y-108942500D01*
D10*
X103070000Y-111892500D02*
X103570000Y-112392500D01*
X103570000Y-107892500D02*
X106070000Y-107892500D01*
X103570000Y-112392500D02*
X106570000Y-112392500D01*
X106570000Y-112392500D02*
X107070000Y-111892500D01*
X107070000Y-110892500D02*
X107070000Y-111892500D01*
X107570000Y-105692500D02*
X112070000Y-105692500D01*
X107570000Y-106392500D02*
X107570000Y-105692500D01*
D11*
X112070000Y-105692500D02*
X112070000Y-110392500D01*
X112070000Y-109192500D02*
X114570000Y-109192500D01*
D10*
X112070000Y-110392500D02*
X107570000Y-110392500D01*
X112570000Y-96692500D02*
X112570000Y-111692500D01*
X112570000Y-111692500D02*
X97570000Y-111692500D01*
D11*
X114570000Y-106692500D02*
X112070000Y-106692500D01*
X114570000Y-109192500D02*
X114570000Y-106692500D01*
D10*
X107070000Y-110892500D02*
G75*
G02*
X107570000Y-110392500I500000J0D01*
G01*
X107570000Y-106392500D02*
G75*
G02*
X106070000Y-107892500I-1500000J0D01*
G01*
%TO.C,SW26*%
X59470000Y-107170000D02*
X74470000Y-107170000D01*
X59470000Y-122170000D02*
X59470000Y-107170000D01*
D11*
X62470000Y-119420000D02*
X62470000Y-121920000D01*
X62470000Y-121920000D02*
X64970000Y-121920000D01*
D10*
X64970000Y-118870000D02*
X65470000Y-118370000D01*
D11*
X64970000Y-118920000D02*
X64970000Y-122370000D01*
X64970000Y-119420000D02*
X62470000Y-119420000D01*
D10*
X64970000Y-122370000D02*
X65470000Y-122870000D01*
X65470000Y-118370000D02*
X67970000Y-118370000D01*
X65470000Y-122870000D02*
X68470000Y-122870000D01*
X68470000Y-122870000D02*
X68970000Y-122370000D01*
X68970000Y-121370000D02*
X68970000Y-122370000D01*
X69470000Y-116170000D02*
X73970000Y-116170000D01*
X69470000Y-116870000D02*
X69470000Y-116170000D01*
D11*
X73970000Y-116170000D02*
X73970000Y-120870000D01*
X73970000Y-119670000D02*
X76470000Y-119670000D01*
D10*
X73970000Y-120870000D02*
X69470000Y-120870000D01*
X74470000Y-107170000D02*
X74470000Y-122170000D01*
X74470000Y-122170000D02*
X59470000Y-122170000D01*
D11*
X76470000Y-117170000D02*
X73970000Y-117170000D01*
X76470000Y-119670000D02*
X76470000Y-117170000D01*
D10*
X68970000Y-121370000D02*
G75*
G02*
X69470000Y-120870000I500000J0D01*
G01*
X69470000Y-116870000D02*
G75*
G02*
X67970000Y-118370000I-1500000J0D01*
G01*
%TO.C,SW28*%
X97570000Y-118600000D02*
X112570000Y-118600000D01*
X97570000Y-133600000D02*
X97570000Y-118600000D01*
D11*
X100570000Y-130850000D02*
X100570000Y-133350000D01*
X100570000Y-133350000D02*
X103070000Y-133350000D01*
D10*
X103070000Y-130300000D02*
X103570000Y-129800000D01*
D11*
X103070000Y-130350000D02*
X103070000Y-133800000D01*
X103070000Y-130850000D02*
X100570000Y-130850000D01*
D10*
X103070000Y-133800000D02*
X103570000Y-134300000D01*
X103570000Y-129800000D02*
X106070000Y-129800000D01*
X103570000Y-134300000D02*
X106570000Y-134300000D01*
X106570000Y-134300000D02*
X107070000Y-133800000D01*
X107070000Y-132800000D02*
X107070000Y-133800000D01*
X107570000Y-127600000D02*
X112070000Y-127600000D01*
X107570000Y-128300000D02*
X107570000Y-127600000D01*
D11*
X112070000Y-127600000D02*
X112070000Y-132300000D01*
X112070000Y-131100000D02*
X114570000Y-131100000D01*
D10*
X112070000Y-132300000D02*
X107570000Y-132300000D01*
X112570000Y-118600000D02*
X112570000Y-133600000D01*
X112570000Y-133600000D02*
X97570000Y-133600000D01*
D11*
X114570000Y-128600000D02*
X112070000Y-128600000D01*
X114570000Y-131100000D02*
X114570000Y-128600000D01*
D10*
X107070000Y-132800000D02*
G75*
G02*
X107570000Y-132300000I500000J0D01*
G01*
X107570000Y-128300000D02*
G75*
G02*
X106070000Y-129800000I-1500000J0D01*
G01*
%TO.C,SW30*%
X78520000Y-121457500D02*
X93520000Y-121457500D01*
X78520000Y-136457500D02*
X78520000Y-121457500D01*
D11*
X81520000Y-133707500D02*
X81520000Y-136207500D01*
X81520000Y-136207500D02*
X84020000Y-136207500D01*
D10*
X84020000Y-133157500D02*
X84520000Y-132657500D01*
D11*
X84020000Y-133207500D02*
X84020000Y-136657500D01*
X84020000Y-133707500D02*
X81520000Y-133707500D01*
D10*
X84020000Y-136657500D02*
X84520000Y-137157500D01*
X84520000Y-132657500D02*
X87020000Y-132657500D01*
X84520000Y-137157500D02*
X87520000Y-137157500D01*
X87520000Y-137157500D02*
X88020000Y-136657500D01*
X88020000Y-135657500D02*
X88020000Y-136657500D01*
X88520000Y-130457500D02*
X93020000Y-130457500D01*
X88520000Y-131157500D02*
X88520000Y-130457500D01*
D11*
X93020000Y-130457500D02*
X93020000Y-135157500D01*
X93020000Y-133957500D02*
X95520000Y-133957500D01*
D10*
X93020000Y-135157500D02*
X88520000Y-135157500D01*
X93520000Y-121457500D02*
X93520000Y-136457500D01*
X93520000Y-136457500D02*
X78520000Y-136457500D01*
D11*
X95520000Y-131457500D02*
X93020000Y-131457500D01*
X95520000Y-133957500D02*
X95520000Y-131457500D01*
D10*
X88020000Y-135657500D02*
G75*
G02*
X88520000Y-135157500I500000J0D01*
G01*
X88520000Y-131157500D02*
G75*
G02*
X87020000Y-132657500I-1500000J0D01*
G01*
%TO.C,SW32*%
X155666360Y-141159305D02*
X163166360Y-128168923D01*
D11*
X158389437Y-142442798D02*
X160554500Y-143692798D01*
X159639437Y-140277735D02*
X158389437Y-142442798D01*
D10*
X160329500Y-144082510D02*
X160512513Y-144765522D01*
X160512513Y-144765522D02*
X163110589Y-146265522D01*
D11*
X161804500Y-141527735D02*
X159639437Y-140277735D01*
X162054500Y-141094722D02*
X160329500Y-144082510D01*
D10*
X162079500Y-141051421D02*
X162762513Y-140868408D01*
X162762513Y-140868408D02*
X164927576Y-142118408D01*
X163110589Y-146265522D02*
X163793602Y-146082510D01*
X163166360Y-128168923D02*
X176156742Y-135668923D01*
X164293602Y-145216484D02*
X163793602Y-146082510D01*
X166976615Y-141569370D02*
X167326615Y-140963152D01*
X167326615Y-140963152D02*
X171223729Y-143213152D01*
X168656742Y-148659305D02*
X155666360Y-141159305D01*
X168873729Y-147283472D02*
X164976615Y-145033472D01*
D11*
X169473729Y-146244241D02*
X171638792Y-147494241D01*
X171223729Y-143213152D02*
X168873729Y-147283472D01*
X171638792Y-147494241D02*
X172888792Y-145329178D01*
X172888792Y-145329178D02*
X170723729Y-144079178D01*
D10*
X176156742Y-135668923D02*
X168656742Y-148659305D01*
X164293602Y-145216484D02*
G75*
G02*
X164976615Y-145033471I433013J-250000D01*
G01*
X166976615Y-141569370D02*
G75*
G02*
X164927576Y-142118409I-1299039J750000D01*
G01*
%TO.C,SW16*%
X116620000Y-80500000D02*
X131620000Y-80500000D01*
X116620000Y-95500000D02*
X116620000Y-80500000D01*
D11*
X119620000Y-92750000D02*
X119620000Y-95250000D01*
X119620000Y-95250000D02*
X122120000Y-95250000D01*
D10*
X122120000Y-92200000D02*
X122620000Y-91700000D01*
D11*
X122120000Y-92250000D02*
X122120000Y-95700000D01*
X122120000Y-92750000D02*
X119620000Y-92750000D01*
D10*
X122120000Y-95700000D02*
X122620000Y-96200000D01*
X122620000Y-91700000D02*
X125120000Y-91700000D01*
X122620000Y-96200000D02*
X125620000Y-96200000D01*
X125620000Y-96200000D02*
X126120000Y-95700000D01*
X126120000Y-94700000D02*
X126120000Y-95700000D01*
X126620000Y-89500000D02*
X131120000Y-89500000D01*
X126620000Y-90200000D02*
X126620000Y-89500000D01*
D11*
X131120000Y-89500000D02*
X131120000Y-94200000D01*
X131120000Y-93000000D02*
X133620000Y-93000000D01*
D10*
X131120000Y-94200000D02*
X126620000Y-94200000D01*
X131620000Y-80500000D02*
X131620000Y-95500000D01*
X131620000Y-95500000D02*
X116620000Y-95500000D01*
D11*
X133620000Y-90500000D02*
X131120000Y-90500000D01*
X133620000Y-93000000D02*
X133620000Y-90500000D01*
D10*
X126120000Y-94700000D02*
G75*
G02*
X126620000Y-94200000I500000J0D01*
G01*
X126620000Y-90200000D02*
G75*
G02*
X125120000Y-91700000I-1500000J0D01*
G01*
%TO.C,SW14*%
X97570000Y-77642500D02*
X112570000Y-77642500D01*
X97570000Y-92642500D02*
X97570000Y-77642500D01*
D11*
X100570000Y-89892500D02*
X100570000Y-92392500D01*
X100570000Y-92392500D02*
X103070000Y-92392500D01*
D10*
X103070000Y-89342500D02*
X103570000Y-88842500D01*
D11*
X103070000Y-89392500D02*
X103070000Y-92842500D01*
X103070000Y-89892500D02*
X100570000Y-89892500D01*
D10*
X103070000Y-92842500D02*
X103570000Y-93342500D01*
X103570000Y-88842500D02*
X106070000Y-88842500D01*
X103570000Y-93342500D02*
X106570000Y-93342500D01*
X106570000Y-93342500D02*
X107070000Y-92842500D01*
X107070000Y-91842500D02*
X107070000Y-92842500D01*
X107570000Y-86642500D02*
X112070000Y-86642500D01*
X107570000Y-87342500D02*
X107570000Y-86642500D01*
D11*
X112070000Y-86642500D02*
X112070000Y-91342500D01*
X112070000Y-90142500D02*
X114570000Y-90142500D01*
D10*
X112070000Y-91342500D02*
X107570000Y-91342500D01*
X112570000Y-77642500D02*
X112570000Y-92642500D01*
X112570000Y-92642500D02*
X97570000Y-92642500D01*
D11*
X114570000Y-87642500D02*
X112070000Y-87642500D01*
X114570000Y-90142500D02*
X114570000Y-87642500D01*
D10*
X107070000Y-91842500D02*
G75*
G02*
X107570000Y-91342500I500000J0D01*
G01*
X107570000Y-87342500D02*
G75*
G02*
X106070000Y-88842500I-1500000J0D01*
G01*
%TO.C,SW9*%
X116620000Y-61450000D02*
X131620000Y-61450000D01*
X116620000Y-76450000D02*
X116620000Y-61450000D01*
D11*
X119620000Y-73700000D02*
X119620000Y-76200000D01*
X119620000Y-76200000D02*
X122120000Y-76200000D01*
D10*
X122120000Y-73150000D02*
X122620000Y-72650000D01*
D11*
X122120000Y-73200000D02*
X122120000Y-76650000D01*
X122120000Y-73700000D02*
X119620000Y-73700000D01*
D10*
X122120000Y-76650000D02*
X122620000Y-77150000D01*
X122620000Y-72650000D02*
X125120000Y-72650000D01*
X122620000Y-77150000D02*
X125620000Y-77150000D01*
X125620000Y-77150000D02*
X126120000Y-76650000D01*
X126120000Y-75650000D02*
X126120000Y-76650000D01*
X126620000Y-70450000D02*
X131120000Y-70450000D01*
X126620000Y-71150000D02*
X126620000Y-70450000D01*
D11*
X131120000Y-70450000D02*
X131120000Y-75150000D01*
X131120000Y-73950000D02*
X133620000Y-73950000D01*
D10*
X131120000Y-75150000D02*
X126620000Y-75150000D01*
X131620000Y-61450000D02*
X131620000Y-76450000D01*
X131620000Y-76450000D02*
X116620000Y-76450000D01*
D11*
X133620000Y-71450000D02*
X131120000Y-71450000D01*
X133620000Y-73950000D02*
X133620000Y-71450000D01*
D10*
X126120000Y-75650000D02*
G75*
G02*
X126620000Y-75150000I500000J0D01*
G01*
X126620000Y-71150000D02*
G75*
G02*
X125120000Y-72650000I-1500000J0D01*
G01*
%TO.C,SW2*%
X78520000Y-42400000D02*
X93520000Y-42400000D01*
X78520000Y-57400000D02*
X78520000Y-42400000D01*
D11*
X81520000Y-54650000D02*
X81520000Y-57150000D01*
X81520000Y-57150000D02*
X84020000Y-57150000D01*
D10*
X84020000Y-54100000D02*
X84520000Y-53600000D01*
D11*
X84020000Y-54150000D02*
X84020000Y-57600000D01*
X84020000Y-54650000D02*
X81520000Y-54650000D01*
D10*
X84020000Y-57600000D02*
X84520000Y-58100000D01*
X84520000Y-53600000D02*
X87020000Y-53600000D01*
X84520000Y-58100000D02*
X87520000Y-58100000D01*
X87520000Y-58100000D02*
X88020000Y-57600000D01*
X88020000Y-56600000D02*
X88020000Y-57600000D01*
X88520000Y-51400000D02*
X93020000Y-51400000D01*
X88520000Y-52100000D02*
X88520000Y-51400000D01*
D11*
X93020000Y-51400000D02*
X93020000Y-56100000D01*
X93020000Y-54900000D02*
X95520000Y-54900000D01*
D10*
X93020000Y-56100000D02*
X88520000Y-56100000D01*
X93520000Y-42400000D02*
X93520000Y-57400000D01*
X93520000Y-57400000D02*
X78520000Y-57400000D01*
D11*
X95520000Y-52400000D02*
X93020000Y-52400000D01*
X95520000Y-54900000D02*
X95520000Y-52400000D01*
D10*
X88020000Y-56600000D02*
G75*
G02*
X88520000Y-56100000I500000J0D01*
G01*
X88520000Y-52100000D02*
G75*
G02*
X87020000Y-53600000I-1500000J0D01*
G01*
%TO.C,SW19*%
X59470000Y-88120000D02*
X74470000Y-88120000D01*
X59470000Y-103120000D02*
X59470000Y-88120000D01*
D11*
X62470000Y-100370000D02*
X62470000Y-102870000D01*
X62470000Y-102870000D02*
X64970000Y-102870000D01*
D10*
X64970000Y-99820000D02*
X65470000Y-99320000D01*
D11*
X64970000Y-99870000D02*
X64970000Y-103320000D01*
X64970000Y-100370000D02*
X62470000Y-100370000D01*
D10*
X64970000Y-103320000D02*
X65470000Y-103820000D01*
X65470000Y-99320000D02*
X67970000Y-99320000D01*
X65470000Y-103820000D02*
X68470000Y-103820000D01*
X68470000Y-103820000D02*
X68970000Y-103320000D01*
X68970000Y-102320000D02*
X68970000Y-103320000D01*
X69470000Y-97120000D02*
X73970000Y-97120000D01*
X69470000Y-97820000D02*
X69470000Y-97120000D01*
D11*
X73970000Y-97120000D02*
X73970000Y-101820000D01*
X73970000Y-100620000D02*
X76470000Y-100620000D01*
D10*
X73970000Y-101820000D02*
X69470000Y-101820000D01*
X74470000Y-88120000D02*
X74470000Y-103120000D01*
X74470000Y-103120000D02*
X59470000Y-103120000D01*
D11*
X76470000Y-98120000D02*
X73970000Y-98120000D01*
X76470000Y-100620000D02*
X76470000Y-98120000D01*
D10*
X68970000Y-102320000D02*
G75*
G02*
X69470000Y-101820000I500000J0D01*
G01*
X69470000Y-97820000D02*
G75*
G02*
X67970000Y-99320000I-1500000J0D01*
G01*
%TO.C,SW20*%
X40420000Y-92882500D02*
X55420000Y-92882500D01*
X40420000Y-107882500D02*
X40420000Y-92882500D01*
D11*
X43420000Y-105132500D02*
X43420000Y-107632500D01*
X43420000Y-107632500D02*
X45920000Y-107632500D01*
D10*
X45920000Y-104582500D02*
X46420000Y-104082500D01*
D11*
X45920000Y-104632500D02*
X45920000Y-108082500D01*
X45920000Y-105132500D02*
X43420000Y-105132500D01*
D10*
X45920000Y-108082500D02*
X46420000Y-108582500D01*
X46420000Y-104082500D02*
X48920000Y-104082500D01*
X46420000Y-108582500D02*
X49420000Y-108582500D01*
X49420000Y-108582500D02*
X49920000Y-108082500D01*
X49920000Y-107082500D02*
X49920000Y-108082500D01*
X50420000Y-101882500D02*
X54920000Y-101882500D01*
X50420000Y-102582500D02*
X50420000Y-101882500D01*
D11*
X54920000Y-101882500D02*
X54920000Y-106582500D01*
X54920000Y-105382500D02*
X57420000Y-105382500D01*
D10*
X54920000Y-106582500D02*
X50420000Y-106582500D01*
X55420000Y-92882500D02*
X55420000Y-107882500D01*
X55420000Y-107882500D02*
X40420000Y-107882500D01*
D11*
X57420000Y-102882500D02*
X54920000Y-102882500D01*
X57420000Y-105382500D02*
X57420000Y-102882500D01*
D10*
X49920000Y-107082500D02*
G75*
G02*
X50420000Y-106582500I500000J0D01*
G01*
X50420000Y-102582500D02*
G75*
G02*
X48920000Y-104082500I-1500000J0D01*
G01*
%TO.C,SW18*%
X154720000Y-83357500D02*
X169720000Y-83357500D01*
X154720000Y-98357500D02*
X154720000Y-83357500D01*
D11*
X157720000Y-95607500D02*
X157720000Y-98107500D01*
X157720000Y-98107500D02*
X160220000Y-98107500D01*
D10*
X160220000Y-95057500D02*
X160720000Y-94557500D01*
D11*
X160220000Y-95107500D02*
X160220000Y-98557500D01*
X160220000Y-95607500D02*
X157720000Y-95607500D01*
D10*
X160220000Y-98557500D02*
X160720000Y-99057500D01*
X160720000Y-94557500D02*
X163220000Y-94557500D01*
X160720000Y-99057500D02*
X163720000Y-99057500D01*
X163720000Y-99057500D02*
X164220000Y-98557500D01*
X164220000Y-97557500D02*
X164220000Y-98557500D01*
X164720000Y-92357500D02*
X169220000Y-92357500D01*
X164720000Y-93057500D02*
X164720000Y-92357500D01*
D11*
X169220000Y-92357500D02*
X169220000Y-97057500D01*
X169220000Y-95857500D02*
X171720000Y-95857500D01*
D10*
X169220000Y-97057500D02*
X164720000Y-97057500D01*
X169720000Y-83357500D02*
X169720000Y-98357500D01*
X169720000Y-98357500D02*
X154720000Y-98357500D01*
D11*
X171720000Y-93357500D02*
X169220000Y-93357500D01*
X171720000Y-95857500D02*
X171720000Y-93357500D01*
D10*
X164220000Y-97557500D02*
G75*
G02*
X164720000Y-97057500I500000J0D01*
G01*
X164720000Y-93057500D02*
G75*
G02*
X163220000Y-94557500I-1500000J0D01*
G01*
%TO.C,SW17*%
X135670000Y-83357500D02*
X150670000Y-83357500D01*
X135670000Y-98357500D02*
X135670000Y-83357500D01*
D11*
X138670000Y-95607500D02*
X138670000Y-98107500D01*
X138670000Y-98107500D02*
X141170000Y-98107500D01*
D10*
X141170000Y-95057500D02*
X141670000Y-94557500D01*
D11*
X141170000Y-95107500D02*
X141170000Y-98557500D01*
X141170000Y-95607500D02*
X138670000Y-95607500D01*
D10*
X141170000Y-98557500D02*
X141670000Y-99057500D01*
X141670000Y-94557500D02*
X144170000Y-94557500D01*
X141670000Y-99057500D02*
X144670000Y-99057500D01*
X144670000Y-99057500D02*
X145170000Y-98557500D01*
X145170000Y-97557500D02*
X145170000Y-98557500D01*
X145670000Y-92357500D02*
X150170000Y-92357500D01*
X145670000Y-93057500D02*
X145670000Y-92357500D01*
D11*
X150170000Y-92357500D02*
X150170000Y-97057500D01*
X150170000Y-95857500D02*
X152670000Y-95857500D01*
D10*
X150170000Y-97057500D02*
X145670000Y-97057500D01*
X150670000Y-83357500D02*
X150670000Y-98357500D01*
X150670000Y-98357500D02*
X135670000Y-98357500D01*
D11*
X152670000Y-93357500D02*
X150170000Y-93357500D01*
X152670000Y-95857500D02*
X152670000Y-93357500D01*
D10*
X145170000Y-97557500D02*
G75*
G02*
X145670000Y-97057500I500000J0D01*
G01*
X145670000Y-93057500D02*
G75*
G02*
X144170000Y-94557500I-1500000J0D01*
G01*
%TO.C,SW3*%
X116620000Y-42400000D02*
X131620000Y-42400000D01*
X116620000Y-57400000D02*
X116620000Y-42400000D01*
D11*
X119620000Y-54650000D02*
X119620000Y-57150000D01*
X119620000Y-57150000D02*
X122120000Y-57150000D01*
D10*
X122120000Y-54100000D02*
X122620000Y-53600000D01*
D11*
X122120000Y-54150000D02*
X122120000Y-57600000D01*
X122120000Y-54650000D02*
X119620000Y-54650000D01*
D10*
X122120000Y-57600000D02*
X122620000Y-58100000D01*
X122620000Y-53600000D02*
X125120000Y-53600000D01*
X122620000Y-58100000D02*
X125620000Y-58100000D01*
X125620000Y-58100000D02*
X126120000Y-57600000D01*
X126120000Y-56600000D02*
X126120000Y-57600000D01*
X126620000Y-51400000D02*
X131120000Y-51400000D01*
X126620000Y-52100000D02*
X126620000Y-51400000D01*
D11*
X131120000Y-51400000D02*
X131120000Y-56100000D01*
X131120000Y-54900000D02*
X133620000Y-54900000D01*
D10*
X131120000Y-56100000D02*
X126620000Y-56100000D01*
X131620000Y-42400000D02*
X131620000Y-57400000D01*
X131620000Y-57400000D02*
X116620000Y-57400000D01*
D11*
X133620000Y-52400000D02*
X131120000Y-52400000D01*
X133620000Y-54900000D02*
X133620000Y-52400000D01*
D10*
X126120000Y-56600000D02*
G75*
G02*
X126620000Y-56100000I500000J0D01*
G01*
X126620000Y-52100000D02*
G75*
G02*
X125120000Y-53600000I-1500000J0D01*
G01*
%TO.C,SW6*%
X40420000Y-54782500D02*
X55420000Y-54782500D01*
X40420000Y-69782500D02*
X40420000Y-54782500D01*
D11*
X43420000Y-67032500D02*
X43420000Y-69532500D01*
X43420000Y-69532500D02*
X45920000Y-69532500D01*
D10*
X45920000Y-66482500D02*
X46420000Y-65982500D01*
D11*
X45920000Y-66532500D02*
X45920000Y-69982500D01*
X45920000Y-67032500D02*
X43420000Y-67032500D01*
D10*
X45920000Y-69982500D02*
X46420000Y-70482500D01*
X46420000Y-65982500D02*
X48920000Y-65982500D01*
X46420000Y-70482500D02*
X49420000Y-70482500D01*
X49420000Y-70482500D02*
X49920000Y-69982500D01*
X49920000Y-68982500D02*
X49920000Y-69982500D01*
X50420000Y-63782500D02*
X54920000Y-63782500D01*
X50420000Y-64482500D02*
X50420000Y-63782500D01*
D11*
X54920000Y-63782500D02*
X54920000Y-68482500D01*
X54920000Y-67282500D02*
X57420000Y-67282500D01*
D10*
X54920000Y-68482500D02*
X50420000Y-68482500D01*
X55420000Y-54782500D02*
X55420000Y-69782500D01*
X55420000Y-69782500D02*
X40420000Y-69782500D01*
D11*
X57420000Y-64782500D02*
X54920000Y-64782500D01*
X57420000Y-67282500D02*
X57420000Y-64782500D01*
D10*
X49920000Y-68982500D02*
G75*
G02*
X50420000Y-68482500I500000J0D01*
G01*
X50420000Y-64482500D02*
G75*
G02*
X48920000Y-65982500I-1500000J0D01*
G01*
%TO.C,SW8*%
X78520000Y-61450000D02*
X93520000Y-61450000D01*
X78520000Y-76450000D02*
X78520000Y-61450000D01*
D11*
X81520000Y-73700000D02*
X81520000Y-76200000D01*
X81520000Y-76200000D02*
X84020000Y-76200000D01*
D10*
X84020000Y-73150000D02*
X84520000Y-72650000D01*
D11*
X84020000Y-73200000D02*
X84020000Y-76650000D01*
X84020000Y-73700000D02*
X81520000Y-73700000D01*
D10*
X84020000Y-76650000D02*
X84520000Y-77150000D01*
X84520000Y-72650000D02*
X87020000Y-72650000D01*
X84520000Y-77150000D02*
X87520000Y-77150000D01*
X87520000Y-77150000D02*
X88020000Y-76650000D01*
X88020000Y-75650000D02*
X88020000Y-76650000D01*
X88520000Y-70450000D02*
X93020000Y-70450000D01*
X88520000Y-71150000D02*
X88520000Y-70450000D01*
D11*
X93020000Y-70450000D02*
X93020000Y-75150000D01*
X93020000Y-73950000D02*
X95520000Y-73950000D01*
D10*
X93020000Y-75150000D02*
X88520000Y-75150000D01*
X93520000Y-61450000D02*
X93520000Y-76450000D01*
X93520000Y-76450000D02*
X78520000Y-76450000D01*
D11*
X95520000Y-71450000D02*
X93020000Y-71450000D01*
X95520000Y-73950000D02*
X95520000Y-71450000D01*
D10*
X88020000Y-75650000D02*
G75*
G02*
X88520000Y-75150000I500000J0D01*
G01*
X88520000Y-71150000D02*
G75*
G02*
X87020000Y-72650000I-1500000J0D01*
G01*
%TO.C,SW11*%
X154720000Y-64307500D02*
X169720000Y-64307500D01*
X154720000Y-79307500D02*
X154720000Y-64307500D01*
D11*
X157720000Y-76557500D02*
X157720000Y-79057500D01*
X157720000Y-79057500D02*
X160220000Y-79057500D01*
D10*
X160220000Y-76007500D02*
X160720000Y-75507500D01*
D11*
X160220000Y-76057500D02*
X160220000Y-79507500D01*
X160220000Y-76557500D02*
X157720000Y-76557500D01*
D10*
X160220000Y-79507500D02*
X160720000Y-80007500D01*
X160720000Y-75507500D02*
X163220000Y-75507500D01*
X160720000Y-80007500D02*
X163720000Y-80007500D01*
X163720000Y-80007500D02*
X164220000Y-79507500D01*
X164220000Y-78507500D02*
X164220000Y-79507500D01*
X164720000Y-73307500D02*
X169220000Y-73307500D01*
X164720000Y-74007500D02*
X164720000Y-73307500D01*
D11*
X169220000Y-73307500D02*
X169220000Y-78007500D01*
X169220000Y-76807500D02*
X171720000Y-76807500D01*
D10*
X169220000Y-78007500D02*
X164720000Y-78007500D01*
X169720000Y-64307500D02*
X169720000Y-79307500D01*
X169720000Y-79307500D02*
X154720000Y-79307500D01*
D11*
X171720000Y-74307500D02*
X169220000Y-74307500D01*
X171720000Y-76807500D02*
X171720000Y-74307500D01*
D10*
X164220000Y-78507500D02*
G75*
G02*
X164720000Y-78007500I500000J0D01*
G01*
X164720000Y-74007500D02*
G75*
G02*
X163220000Y-75507500I-1500000J0D01*
G01*
%TO.C,SW15*%
X78520000Y-80500000D02*
X93520000Y-80500000D01*
X78520000Y-95500000D02*
X78520000Y-80500000D01*
D11*
X81520000Y-92750000D02*
X81520000Y-95250000D01*
X81520000Y-95250000D02*
X84020000Y-95250000D01*
D10*
X84020000Y-92200000D02*
X84520000Y-91700000D01*
D11*
X84020000Y-92250000D02*
X84020000Y-95700000D01*
X84020000Y-92750000D02*
X81520000Y-92750000D01*
D10*
X84020000Y-95700000D02*
X84520000Y-96200000D01*
X84520000Y-91700000D02*
X87020000Y-91700000D01*
X84520000Y-96200000D02*
X87520000Y-96200000D01*
X87520000Y-96200000D02*
X88020000Y-95700000D01*
X88020000Y-94700000D02*
X88020000Y-95700000D01*
X88520000Y-89500000D02*
X93020000Y-89500000D01*
X88520000Y-90200000D02*
X88520000Y-89500000D01*
D11*
X93020000Y-89500000D02*
X93020000Y-94200000D01*
X93020000Y-93000000D02*
X95520000Y-93000000D01*
D10*
X93020000Y-94200000D02*
X88520000Y-94200000D01*
X93520000Y-80500000D02*
X93520000Y-95500000D01*
X93520000Y-95500000D02*
X78520000Y-95500000D01*
D11*
X95520000Y-90500000D02*
X93020000Y-90500000D01*
X95520000Y-93000000D02*
X95520000Y-90500000D01*
D10*
X88020000Y-94700000D02*
G75*
G02*
X88520000Y-94200000I500000J0D01*
G01*
X88520000Y-90200000D02*
G75*
G02*
X87020000Y-91700000I-1500000J0D01*
G01*
%TO.C,SW10*%
X135670000Y-64307500D02*
X150670000Y-64307500D01*
X135670000Y-79307500D02*
X135670000Y-64307500D01*
D11*
X138670000Y-76557500D02*
X138670000Y-79057500D01*
X138670000Y-79057500D02*
X141170000Y-79057500D01*
D10*
X141170000Y-76007500D02*
X141670000Y-75507500D01*
D11*
X141170000Y-76057500D02*
X141170000Y-79507500D01*
X141170000Y-76557500D02*
X138670000Y-76557500D01*
D10*
X141170000Y-79507500D02*
X141670000Y-80007500D01*
X141670000Y-75507500D02*
X144170000Y-75507500D01*
X141670000Y-80007500D02*
X144670000Y-80007500D01*
X144670000Y-80007500D02*
X145170000Y-79507500D01*
X145170000Y-78507500D02*
X145170000Y-79507500D01*
X145670000Y-73307500D02*
X150170000Y-73307500D01*
X145670000Y-74007500D02*
X145670000Y-73307500D01*
D11*
X150170000Y-73307500D02*
X150170000Y-78007500D01*
X150170000Y-76807500D02*
X152670000Y-76807500D01*
D10*
X150170000Y-78007500D02*
X145670000Y-78007500D01*
X150670000Y-64307500D02*
X150670000Y-79307500D01*
X150670000Y-79307500D02*
X135670000Y-79307500D01*
D11*
X152670000Y-74307500D02*
X150170000Y-74307500D01*
X152670000Y-76807500D02*
X152670000Y-74307500D01*
D10*
X145170000Y-78507500D02*
G75*
G02*
X145670000Y-78007500I500000J0D01*
G01*
X145670000Y-74007500D02*
G75*
G02*
X144170000Y-75507500I-1500000J0D01*
G01*
%TO.C,SW12*%
X59470000Y-69070000D02*
X74470000Y-69070000D01*
X59470000Y-84070000D02*
X59470000Y-69070000D01*
D11*
X62470000Y-81320000D02*
X62470000Y-83820000D01*
X62470000Y-83820000D02*
X64970000Y-83820000D01*
D10*
X64970000Y-80770000D02*
X65470000Y-80270000D01*
D11*
X64970000Y-80820000D02*
X64970000Y-84270000D01*
X64970000Y-81320000D02*
X62470000Y-81320000D01*
D10*
X64970000Y-84270000D02*
X65470000Y-84770000D01*
X65470000Y-80270000D02*
X67970000Y-80270000D01*
X65470000Y-84770000D02*
X68470000Y-84770000D01*
X68470000Y-84770000D02*
X68970000Y-84270000D01*
X68970000Y-83270000D02*
X68970000Y-84270000D01*
X69470000Y-78070000D02*
X73970000Y-78070000D01*
X69470000Y-78770000D02*
X69470000Y-78070000D01*
D11*
X73970000Y-78070000D02*
X73970000Y-82770000D01*
X73970000Y-81570000D02*
X76470000Y-81570000D01*
D10*
X73970000Y-82770000D02*
X69470000Y-82770000D01*
X74470000Y-69070000D02*
X74470000Y-84070000D01*
X74470000Y-84070000D02*
X59470000Y-84070000D01*
D11*
X76470000Y-79070000D02*
X73970000Y-79070000D01*
X76470000Y-81570000D02*
X76470000Y-79070000D01*
D10*
X68970000Y-83270000D02*
G75*
G02*
X69470000Y-82770000I500000J0D01*
G01*
X69470000Y-78770000D02*
G75*
G02*
X67970000Y-80270000I-1500000J0D01*
G01*
%TO.C,SW5*%
X59470000Y-50020000D02*
X74470000Y-50020000D01*
X59470000Y-65020000D02*
X59470000Y-50020000D01*
D11*
X62470000Y-62270000D02*
X62470000Y-64770000D01*
X62470000Y-64770000D02*
X64970000Y-64770000D01*
D10*
X64970000Y-61720000D02*
X65470000Y-61220000D01*
D11*
X64970000Y-61770000D02*
X64970000Y-65220000D01*
X64970000Y-62270000D02*
X62470000Y-62270000D01*
D10*
X64970000Y-65220000D02*
X65470000Y-65720000D01*
X65470000Y-61220000D02*
X67970000Y-61220000D01*
X65470000Y-65720000D02*
X68470000Y-65720000D01*
X68470000Y-65720000D02*
X68970000Y-65220000D01*
X68970000Y-64220000D02*
X68970000Y-65220000D01*
X69470000Y-59020000D02*
X73970000Y-59020000D01*
X69470000Y-59720000D02*
X69470000Y-59020000D01*
D11*
X73970000Y-59020000D02*
X73970000Y-63720000D01*
X73970000Y-62520000D02*
X76470000Y-62520000D01*
D10*
X73970000Y-63720000D02*
X69470000Y-63720000D01*
X74470000Y-50020000D02*
X74470000Y-65020000D01*
X74470000Y-65020000D02*
X59470000Y-65020000D01*
D11*
X76470000Y-60020000D02*
X73970000Y-60020000D01*
X76470000Y-62520000D02*
X76470000Y-60020000D01*
D10*
X68970000Y-64220000D02*
G75*
G02*
X69470000Y-63720000I500000J0D01*
G01*
X69470000Y-59720000D02*
G75*
G02*
X67970000Y-61220000I-1500000J0D01*
G01*
D12*
%TO.C,J3*%
X72930000Y-24530000D02*
X74835000Y-24530000D01*
X72930000Y-37230000D02*
X72930000Y-24530000D01*
X74835000Y-24530000D02*
X75470000Y-25165000D01*
X75470000Y-25165000D02*
X75470000Y-37230000D01*
X75470000Y-37230000D02*
X72930000Y-37230000D01*
D10*
%TO.C,SW7*%
X97570000Y-58592500D02*
X112570000Y-58592500D01*
X97570000Y-73592500D02*
X97570000Y-58592500D01*
D11*
X100570000Y-70842500D02*
X100570000Y-73342500D01*
X100570000Y-73342500D02*
X103070000Y-73342500D01*
D10*
X103070000Y-70292500D02*
X103570000Y-69792500D01*
D11*
X103070000Y-70342500D02*
X103070000Y-73792500D01*
X103070000Y-70842500D02*
X100570000Y-70842500D01*
D10*
X103070000Y-73792500D02*
X103570000Y-74292500D01*
X103570000Y-69792500D02*
X106070000Y-69792500D01*
X103570000Y-74292500D02*
X106570000Y-74292500D01*
X106570000Y-74292500D02*
X107070000Y-73792500D01*
X107070000Y-72792500D02*
X107070000Y-73792500D01*
X107570000Y-67592500D02*
X112070000Y-67592500D01*
X107570000Y-68292500D02*
X107570000Y-67592500D01*
D11*
X112070000Y-67592500D02*
X112070000Y-72292500D01*
X112070000Y-71092500D02*
X114570000Y-71092500D01*
D10*
X112070000Y-72292500D02*
X107570000Y-72292500D01*
X112570000Y-58592500D02*
X112570000Y-73592500D01*
X112570000Y-73592500D02*
X97570000Y-73592500D01*
D11*
X114570000Y-68592500D02*
X112070000Y-68592500D01*
X114570000Y-71092500D02*
X114570000Y-68592500D01*
D10*
X107070000Y-72792500D02*
G75*
G02*
X107570000Y-72292500I500000J0D01*
G01*
X107570000Y-68292500D02*
G75*
G02*
X106070000Y-69792500I-1500000J0D01*
G01*
D12*
%TO.C,SW33*%
X82350000Y-24650000D02*
X85350000Y-24650000D01*
X82350000Y-30650000D02*
X82350000Y-24650000D01*
X85350000Y-24650000D02*
X88350000Y-24650000D01*
X88350000Y-24650000D02*
X88350000Y-30650000D01*
X88350000Y-30650000D02*
X82350000Y-30650000D01*
X87365564Y-27650000D02*
G75*
G02*
X83334436Y-27650000I-2015564J0D01*
G01*
X83334436Y-27650000D02*
G75*
G02*
X87365564Y-27650000I2015564J0D01*
G01*
D10*
%TO.C,SW27*%
X40420000Y-111932500D02*
X55420000Y-111932500D01*
X40420000Y-126932500D02*
X40420000Y-111932500D01*
D11*
X43420000Y-124182500D02*
X43420000Y-126682500D01*
X43420000Y-126682500D02*
X45920000Y-126682500D01*
D10*
X45920000Y-123632500D02*
X46420000Y-123132500D01*
D11*
X45920000Y-123682500D02*
X45920000Y-127132500D01*
X45920000Y-124182500D02*
X43420000Y-124182500D01*
D10*
X45920000Y-127132500D02*
X46420000Y-127632500D01*
X46420000Y-123132500D02*
X48920000Y-123132500D01*
X46420000Y-127632500D02*
X49420000Y-127632500D01*
X49420000Y-127632500D02*
X49920000Y-127132500D01*
X49920000Y-126132500D02*
X49920000Y-127132500D01*
X50420000Y-120932500D02*
X54920000Y-120932500D01*
X50420000Y-121632500D02*
X50420000Y-120932500D01*
D11*
X54920000Y-120932500D02*
X54920000Y-125632500D01*
X54920000Y-124432500D02*
X57420000Y-124432500D01*
D10*
X54920000Y-125632500D02*
X50420000Y-125632500D01*
X55420000Y-111932500D02*
X55420000Y-126932500D01*
X55420000Y-126932500D02*
X40420000Y-126932500D01*
D11*
X57420000Y-121932500D02*
X54920000Y-121932500D01*
X57420000Y-124432500D02*
X57420000Y-121932500D01*
D10*
X49920000Y-126132500D02*
G75*
G02*
X50420000Y-125632500I500000J0D01*
G01*
X50420000Y-121632500D02*
G75*
G02*
X48920000Y-123132500I-1500000J0D01*
G01*
%TO.C,SW22*%
X78520000Y-99550000D02*
X93520000Y-99550000D01*
X78520000Y-114550000D02*
X78520000Y-99550000D01*
D11*
X81520000Y-111800000D02*
X81520000Y-114300000D01*
X81520000Y-114300000D02*
X84020000Y-114300000D01*
D10*
X84020000Y-111250000D02*
X84520000Y-110750000D01*
D11*
X84020000Y-111300000D02*
X84020000Y-114750000D01*
X84020000Y-111800000D02*
X81520000Y-111800000D01*
D10*
X84020000Y-114750000D02*
X84520000Y-115250000D01*
X84520000Y-110750000D02*
X87020000Y-110750000D01*
X84520000Y-115250000D02*
X87520000Y-115250000D01*
X87520000Y-115250000D02*
X88020000Y-114750000D01*
X88020000Y-113750000D02*
X88020000Y-114750000D01*
X88520000Y-108550000D02*
X93020000Y-108550000D01*
X88520000Y-109250000D02*
X88520000Y-108550000D01*
D11*
X93020000Y-108550000D02*
X93020000Y-113250000D01*
X93020000Y-112050000D02*
X95520000Y-112050000D01*
D10*
X93020000Y-113250000D02*
X88520000Y-113250000D01*
X93520000Y-99550000D02*
X93520000Y-114550000D01*
X93520000Y-114550000D02*
X78520000Y-114550000D01*
D11*
X95520000Y-109550000D02*
X93020000Y-109550000D01*
X95520000Y-112050000D02*
X95520000Y-109550000D01*
D10*
X88020000Y-113750000D02*
G75*
G02*
X88520000Y-113250000I500000J0D01*
G01*
X88520000Y-109250000D02*
G75*
G02*
X87020000Y-110750000I-1500000J0D01*
G01*
%TO.C,SW23*%
X116620000Y-99550000D02*
X131620000Y-99550000D01*
X116620000Y-114550000D02*
X116620000Y-99550000D01*
D11*
X119620000Y-111800000D02*
X119620000Y-114300000D01*
X119620000Y-114300000D02*
X122120000Y-114300000D01*
D10*
X122120000Y-111250000D02*
X122620000Y-110750000D01*
D11*
X122120000Y-111300000D02*
X122120000Y-114750000D01*
X122120000Y-111800000D02*
X119620000Y-111800000D01*
D10*
X122120000Y-114750000D02*
X122620000Y-115250000D01*
X122620000Y-110750000D02*
X125120000Y-110750000D01*
X122620000Y-115250000D02*
X125620000Y-115250000D01*
X125620000Y-115250000D02*
X126120000Y-114750000D01*
X126120000Y-113750000D02*
X126120000Y-114750000D01*
X126620000Y-108550000D02*
X131120000Y-108550000D01*
X126620000Y-109250000D02*
X126620000Y-108550000D01*
D11*
X131120000Y-108550000D02*
X131120000Y-113250000D01*
X131120000Y-112050000D02*
X133620000Y-112050000D01*
D10*
X131120000Y-113250000D02*
X126620000Y-113250000D01*
X131620000Y-99550000D02*
X131620000Y-114550000D01*
X131620000Y-114550000D02*
X116620000Y-114550000D01*
D11*
X133620000Y-109550000D02*
X131120000Y-109550000D01*
X133620000Y-112050000D02*
X133620000Y-109550000D01*
D10*
X126120000Y-113750000D02*
G75*
G02*
X126620000Y-113250000I500000J0D01*
G01*
X126620000Y-109250000D02*
G75*
G02*
X125120000Y-110750000I-1500000J0D01*
G01*
%TO.C,SWI1*%
D12*
X92600000Y-32290000D02*
X96600000Y-32290000D01*
X96600000Y-23590000D01*
X92600000Y-23590000D01*
X92600000Y-32290000D01*
D10*
%TO.C,SW1*%
X97570000Y-39542500D02*
X112570000Y-39542500D01*
X97570000Y-54542500D02*
X97570000Y-39542500D01*
D11*
X100570000Y-51792500D02*
X100570000Y-54292500D01*
X100570000Y-54292500D02*
X103070000Y-54292500D01*
D10*
X103070000Y-51242500D02*
X103570000Y-50742500D01*
D11*
X103070000Y-51292500D02*
X103070000Y-54742500D01*
X103070000Y-51792500D02*
X100570000Y-51792500D01*
D10*
X103070000Y-54742500D02*
X103570000Y-55242500D01*
X103570000Y-50742500D02*
X106070000Y-50742500D01*
X103570000Y-55242500D02*
X106570000Y-55242500D01*
X106570000Y-55242500D02*
X107070000Y-54742500D01*
X107070000Y-53742500D02*
X107070000Y-54742500D01*
X107570000Y-48542500D02*
X112070000Y-48542500D01*
X107570000Y-49242500D02*
X107570000Y-48542500D01*
D11*
X112070000Y-48542500D02*
X112070000Y-53242500D01*
X112070000Y-52042500D02*
X114570000Y-52042500D01*
D10*
X112070000Y-53242500D02*
X107570000Y-53242500D01*
X112570000Y-39542500D02*
X112570000Y-54542500D01*
X112570000Y-54542500D02*
X97570000Y-54542500D01*
D11*
X114570000Y-49542500D02*
X112070000Y-49542500D01*
X114570000Y-52042500D02*
X114570000Y-49542500D01*
D10*
X107070000Y-53742500D02*
G75*
G02*
X107570000Y-53242500I500000J0D01*
G01*
X107570000Y-49242500D02*
G75*
G02*
X106070000Y-50742500I-1500000J0D01*
G01*
%TO.C,SW24*%
X135670000Y-102407500D02*
X150670000Y-102407500D01*
X135670000Y-117407500D02*
X135670000Y-102407500D01*
D11*
X138670000Y-114657500D02*
X138670000Y-117157500D01*
X138670000Y-117157500D02*
X141170000Y-117157500D01*
D10*
X141170000Y-114107500D02*
X141670000Y-113607500D01*
D11*
X141170000Y-114157500D02*
X141170000Y-117607500D01*
X141170000Y-114657500D02*
X138670000Y-114657500D01*
D10*
X141170000Y-117607500D02*
X141670000Y-118107500D01*
X141670000Y-113607500D02*
X144170000Y-113607500D01*
X141670000Y-118107500D02*
X144670000Y-118107500D01*
X144670000Y-118107500D02*
X145170000Y-117607500D01*
X145170000Y-116607500D02*
X145170000Y-117607500D01*
X145670000Y-111407500D02*
X150170000Y-111407500D01*
X145670000Y-112107500D02*
X145670000Y-111407500D01*
D11*
X150170000Y-111407500D02*
X150170000Y-116107500D01*
X150170000Y-114907500D02*
X152670000Y-114907500D01*
D10*
X150170000Y-116107500D02*
X145670000Y-116107500D01*
X150670000Y-102407500D02*
X150670000Y-117407500D01*
X150670000Y-117407500D02*
X135670000Y-117407500D01*
D11*
X152670000Y-112407500D02*
X150170000Y-112407500D01*
X152670000Y-114907500D02*
X152670000Y-112407500D01*
D10*
X145170000Y-116607500D02*
G75*
G02*
X145670000Y-116107500I500000J0D01*
G01*
X145670000Y-112107500D02*
G75*
G02*
X144170000Y-113607500I-1500000J0D01*
G01*
%TD*%
M02*
