%TF.GenerationSoftware,KiCad,Pcbnew,9.0.1*%
%TF.CreationDate,2025-08-18T00:19:21+02:00*%
%TF.ProjectId,LuMo,4c754d6f-2e6b-4696-9361-645f70636258,rev?*%
%TF.SameCoordinates,Original*%
%TF.FileFunction,Copper,L2,Bot*%
%TF.FilePolarity,Positive*%
%FSLAX46Y46*%
G04 Gerber Fmt 4.6, Leading zero omitted, Abs format (unit mm)*
G04 Created by KiCad (PCBNEW 9.0.1) date 2025-08-18 00:19:21*
%MOMM*%
%LPD*%
G01*
G04 APERTURE LIST*
G04 Aperture macros list*
%AMRoundRect*
0 Rectangle with rounded corners*
0 $1 Rounding radius*
0 $2 $3 $4 $5 $6 $7 $8 $9 X,Y pos of 4 corners*
0 Add a 4 corners polygon primitive as box body*
4,1,4,$2,$3,$4,$5,$6,$7,$8,$9,$2,$3,0*
0 Add four circle primitives for the rounded corners*
1,1,$1+$1,$2,$3*
1,1,$1+$1,$4,$5*
1,1,$1+$1,$6,$7*
1,1,$1+$1,$8,$9*
0 Add four rect primitives between the rounded corners*
20,1,$1+$1,$2,$3,$4,$5,0*
20,1,$1+$1,$4,$5,$6,$7,0*
20,1,$1+$1,$6,$7,$8,$9,0*
20,1,$1+$1,$8,$9,$2,$3,0*%
%AMRotRect*
0 Rectangle, with rotation*
0 The origin of the aperture is its center*
0 $1 length*
0 $2 width*
0 $3 Rotation angle, in degrees counterclockwise*
0 Add horizontal line*
21,1,$1,$2,0,0,$3*%
%AMOutline5P*
0 Free polygon, 5 corners , with rotation*
0 The origin of the aperture is its center*
0 number of corners: always 5*
0 $1 to $10 corner X, Y*
0 $11 Rotation angle, in degrees counterclockwise*
0 create outline with 5 corners*
4,1,5,$1,$2,$3,$4,$5,$6,$7,$8,$9,$10,$1,$2,$11*%
%AMOutline6P*
0 Free polygon, 6 corners , with rotation*
0 The origin of the aperture is its center*
0 number of corners: always 6*
0 $1 to $12 corner X, Y*
0 $13 Rotation angle, in degrees counterclockwise*
0 create outline with 6 corners*
4,1,6,$1,$2,$3,$4,$5,$6,$7,$8,$9,$10,$11,$12,$1,$2,$13*%
%AMOutline7P*
0 Free polygon, 7 corners , with rotation*
0 The origin of the aperture is its center*
0 number of corners: always 7*
0 $1 to $14 corner X, Y*
0 $15 Rotation angle, in degrees counterclockwise*
0 create outline with 7 corners*
4,1,7,$1,$2,$3,$4,$5,$6,$7,$8,$9,$10,$11,$12,$13,$14,$1,$2,$15*%
%AMOutline8P*
0 Free polygon, 8 corners , with rotation*
0 The origin of the aperture is its center*
0 number of corners: always 8*
0 $1 to $16 corner X, Y*
0 $17 Rotation angle, in degrees counterclockwise*
0 create outline with 8 corners*
4,1,8,$1,$2,$3,$4,$5,$6,$7,$8,$9,$10,$11,$12,$13,$14,$15,$16,$1,$2,$17*%
G04 Aperture macros list end*
%TA.AperFunction,ComponentPad*%
%ADD10C,1.752600*%
%TD*%
%TA.AperFunction,ComponentPad*%
%ADD11R,1.700000X1.700000*%
%TD*%
%TA.AperFunction,ComponentPad*%
%ADD12C,1.700000*%
%TD*%
%TA.AperFunction,ComponentPad*%
%ADD13C,2.000000*%
%TD*%
%TA.AperFunction,ComponentPad*%
%ADD14R,1.500000X1.500000*%
%TD*%
%TA.AperFunction,ComponentPad*%
%ADD15C,1.600000*%
%TD*%
%TA.AperFunction,ComponentPad*%
%ADD16RoundRect,0.250000X-0.745701X0.404883X-0.404883X-0.745701X0.745701X-0.404883X0.404883X0.745701X0*%
%TD*%
%TA.AperFunction,ComponentPad*%
%ADD17R,1.300000X0.950000*%
%TD*%
%TA.AperFunction,SMDPad,CuDef*%
%ADD18R,2.600000X2.600000*%
%TD*%
%TA.AperFunction,SMDPad,CuDef*%
%ADD19Outline5P,-1.300000X1.300000X0.130000X1.300000X1.300000X0.130000X1.300000X-1.300000X-1.300000X-1.300000X0.000000*%
%TD*%
%TA.AperFunction,ComponentPad*%
%ADD20RotRect,1.300000X0.950000X150.000000*%
%TD*%
%TA.AperFunction,ComponentPad*%
%ADD21RotRect,1.300000X0.950000X165.000000*%
%TD*%
%TA.AperFunction,ComponentPad*%
%ADD22C,6.000000*%
%TD*%
%TA.AperFunction,SMDPad,CuDef*%
%ADD23Outline5P,-1.300000X1.300000X0.130000X1.300000X1.300000X0.130000X1.300000X-1.300000X-1.300000X-1.300000X345.000000*%
%TD*%
%TA.AperFunction,SMDPad,CuDef*%
%ADD24RotRect,2.600000X2.600000X345.000000*%
%TD*%
%TA.AperFunction,SMDPad,CuDef*%
%ADD25Outline5P,-1.300000X1.300000X0.130000X1.300000X1.300000X0.130000X1.300000X-1.300000X-1.300000X-1.300000X330.000000*%
%TD*%
%TA.AperFunction,SMDPad,CuDef*%
%ADD26RotRect,2.600000X2.600000X330.000000*%
%TD*%
%TA.AperFunction,SMDPad,CuDef*%
%ADD27RoundRect,0.150000X0.275000X-0.150000X0.275000X0.150000X-0.275000X0.150000X-0.275000X-0.150000X0*%
%TD*%
%TA.AperFunction,SMDPad,CuDef*%
%ADD28RoundRect,0.175000X0.225000X-0.175000X0.225000X0.175000X-0.225000X0.175000X-0.225000X-0.175000X0*%
%TD*%
%TA.AperFunction,ViaPad*%
%ADD29C,0.600000*%
%TD*%
%TA.AperFunction,Conductor*%
%ADD30C,0.200000*%
%TD*%
G04 APERTURE END LIST*
D10*
%TO.P,U1,33,P1.07*%
%TO.N,unconnected-(U1-P1.07-Pad33)*%
X64390000Y-33500000D03*
%TO.P,U1,32,P1.02*%
%TO.N,unconnected-(U1-P1.02-Pad32)*%
X64390000Y-36040000D03*
%TO.P,U1,31,P1.01*%
%TO.N,unconnected-(U1-P1.01-Pad31)*%
X64390000Y-38580000D03*
%TO.P,U1,25,B+*%
%TO.N,VBAT*%
X38990000Y-25880000D03*
%TO.P,U1,24,BATIN/P0.04*%
%TO.N,unconnected-(U1-BATIN{slash}P0.04-Pad24)*%
X41530000Y-25880000D03*
%TO.P,U1,23,GND*%
%TO.N,unconnected-(U1-GND-Pad23)*%
X44070000Y-25880000D03*
%TO.P,U1,22,RST*%
%TO.N,RST*%
X46610000Y-25880000D03*
%TO.P,U1,21,VCC*%
%TO.N,VCC*%
X49150000Y-25880000D03*
%TO.P,U1,20,AIN7/P0.31*%
%TO.N,Row1*%
X51690000Y-25880000D03*
%TO.P,U1,19,AIN5/P0.29*%
%TO.N,Row2*%
X54230000Y-25880000D03*
%TO.P,U1,18,AIN0/P0.02*%
%TO.N,Row3*%
X56770000Y-25880000D03*
%TO.P,U1,17,P1.15*%
%TO.N,Row4*%
X59310000Y-25880000D03*
%TO.P,U1,16,P1.13*%
%TO.N,Row5*%
X61850000Y-25880000D03*
%TO.P,U1,15,P1.11*%
%TO.N,unconnected-(U1-P1.11-Pad15)*%
X64390000Y-25880000D03*
%TO.P,U1,14,NFC2/P0.10*%
%TO.N,unconnected-(U1-NFC2{slash}P0.10-Pad14)*%
X66930000Y-25880000D03*
%TO.P,U1,13,NFC1/P0.09*%
%TO.N,unconnected-(U1-NFC1{slash}P0.09-Pad13)*%
X69470000Y-25880000D03*
%TO.P,U1,12,P1.06*%
%TO.N,Col5*%
X69470000Y-41120000D03*
%TO.P,U1,11,P1.04*%
%TO.N,Col3*%
X66930000Y-41120000D03*
%TO.P,U1,10,P0.11*%
%TO.N,Col4*%
X64390000Y-41120000D03*
%TO.P,U1,9,P1.00*%
%TO.N,Col1*%
X61850000Y-41120000D03*
%TO.P,U1,8,P0.24*%
%TO.N,Col2*%
X59310000Y-41120000D03*
%TO.P,U1,7,P0.22*%
%TO.N,Col6*%
X56770000Y-41120000D03*
%TO.P,U1,6,P0.20*%
%TO.N,SCK*%
X54230000Y-41120000D03*
%TO.P,U1,5,P0.17*%
%TO.N,MOSI*%
X51690000Y-41120000D03*
%TO.P,U1,4,GND*%
%TO.N,GND*%
X49150000Y-41120000D03*
%TO.P,U1,3,GND*%
X46610000Y-41120000D03*
%TO.P,U1,2,RX1/P0.08*%
%TO.N,Col7*%
X44070000Y-41120000D03*
%TO.P,U1,1,TX0/P0.06*%
%TO.N,CS*%
X41530000Y-41120000D03*
%TO.P,U1,0,B-*%
%TO.N,unconnected-(U1-B--Pad0)*%
X38990000Y-41120000D03*
%TD*%
D11*
%TO.P,J2,1*%
%TO.N,MOSI*%
X73300000Y-26460000D03*
D12*
%TO.P,J2,2*%
%TO.N,SCK*%
X73300000Y-29000000D03*
%TO.P,J2,3*%
%TO.N,VCC*%
X73300000Y-31540000D03*
%TO.P,J2,4*%
%TO.N,GND*%
X73300000Y-34080000D03*
%TO.P,J2,5*%
%TO.N,CS*%
X73300000Y-36620000D03*
%TD*%
D11*
%TO.P,J5,1*%
%TO.N,MOSI*%
X76875000Y-36550000D03*
D12*
%TO.P,J5,2*%
%TO.N,SCK*%
X76875000Y-34010000D03*
%TO.P,J5,3*%
%TO.N,VCC*%
X76875000Y-31470000D03*
%TO.P,J5,4*%
%TO.N,GND*%
X76875000Y-28930000D03*
%TO.P,J5,5*%
%TO.N,CS*%
X76875000Y-26390000D03*
%TD*%
D13*
%TO.P,SW33,1*%
%TO.N,RST*%
X87000000Y-25500000D03*
X93500000Y-25500000D03*
%TO.P,SW33,2*%
%TO.N,GND*%
X87000000Y-30000000D03*
X93500000Y-30000000D03*
%TD*%
D14*
%TO.P,SWI1,1,A*%
%TO.N,Net-(SWI1-A)*%
X98600000Y-28100000D03*
D15*
%TO.P,SWI1,2,B*%
%TO.N,VBAT*%
X98600000Y-30640000D03*
%TO.P,SWI1,3,C*%
%TO.N,unconnected-(SWI1-C-Pad3)*%
X98600000Y-25560000D03*
%TD*%
D12*
%TO.P,J4,1*%
%TO.N,VBAT*%
X161663406Y-56368241D03*
D16*
%TO.P,J4,2*%
%TO.N,GND*%
X160811360Y-53491781D03*
%TD*%
D17*
%TO.P,D29,2,A*%
%TO.N,Net-(D29-A)*%
X126200000Y-136100000D03*
%TO.P,D29,1,K*%
%TO.N,Row5*%
X129750000Y-136100000D03*
%TD*%
%TO.P,D27,2,A*%
%TO.N,Net-(D27-A)*%
X50200000Y-129432500D03*
%TO.P,D27,1,K*%
%TO.N,Row4*%
X53750000Y-129432500D03*
%TD*%
%TO.P,D22,2,A*%
%TO.N,Net-(D22-A)*%
X88050000Y-117050000D03*
%TO.P,D22,1,K*%
%TO.N,Row4*%
X91600000Y-117050000D03*
%TD*%
D18*
%TO.P,SW21,2,2*%
%TO.N,Col1*%
X96795000Y-107942500D03*
D19*
%TO.P,SW21,1,1*%
%TO.N,Net-(D21-A)*%
X108345000Y-110142500D03*
%TD*%
D17*
%TO.P,D15,2,A*%
%TO.N,Net-(D15-A)*%
X88050000Y-98000000D03*
%TO.P,D15,1,K*%
%TO.N,Row3*%
X91600000Y-98000000D03*
%TD*%
D18*
%TO.P,SW3,2,2*%
%TO.N,Col3*%
X115845000Y-53650000D03*
D19*
%TO.P,SW3,1,1*%
%TO.N,Net-(D3-A)*%
X127395000Y-55850000D03*
%TD*%
D17*
%TO.P,D5,1,K*%
%TO.N,Row1*%
X72550000Y-67520000D03*
%TO.P,D5,2,A*%
%TO.N,Net-(D5-A)*%
X69000000Y-67520000D03*
%TD*%
%TO.P,D19,1,K*%
%TO.N,Row3*%
X72550000Y-105620000D03*
%TO.P,D19,2,A*%
%TO.N,Net-(D19-A)*%
X69000000Y-105620000D03*
%TD*%
%TO.P,D8,1,K*%
%TO.N,Row2*%
X91600000Y-78950000D03*
%TO.P,D8,2,A*%
%TO.N,Net-(D8-A)*%
X88050000Y-78950000D03*
%TD*%
%TO.P,D2,1,K*%
%TO.N,Row1*%
X91600000Y-59900000D03*
%TO.P,D2,2,A*%
%TO.N,Net-(D2-A)*%
X88050000Y-59900000D03*
%TD*%
%TO.P,D24,1,K*%
%TO.N,Row4*%
X148750000Y-119907500D03*
%TO.P,D24,2,A*%
%TO.N,Net-(D24-A)*%
X145200000Y-119907500D03*
%TD*%
%TO.P,D9,1,K*%
%TO.N,Row2*%
X129700000Y-78950000D03*
%TO.P,D9,2,A*%
%TO.N,Net-(D9-A)*%
X126150000Y-78950000D03*
%TD*%
%TO.P,D25,1,K*%
%TO.N,Row4*%
X167800000Y-119907500D03*
%TO.P,D25,2,A*%
%TO.N,Net-(D25-A)*%
X164250000Y-119907500D03*
%TD*%
%TO.P,D12,1,K*%
%TO.N,Row2*%
X72550000Y-86570000D03*
%TO.P,D12,2,A*%
%TO.N,Net-(D12-A)*%
X69000000Y-86570000D03*
%TD*%
%TO.P,D18,1,K*%
%TO.N,Row3*%
X167800000Y-100857500D03*
%TO.P,D18,2,A*%
%TO.N,Net-(D18-A)*%
X164250000Y-100857500D03*
%TD*%
%TO.P,D4,1,K*%
%TO.N,Row1*%
X148750000Y-62757500D03*
%TO.P,D4,2,A*%
%TO.N,Net-(D4-A)*%
X145200000Y-62757500D03*
%TD*%
%TO.P,D20,1,K*%
%TO.N,Row3*%
X53500000Y-110382500D03*
%TO.P,D20,2,A*%
%TO.N,Net-(D20-A)*%
X49950000Y-110382500D03*
%TD*%
%TO.P,D21,1,K*%
%TO.N,Row4*%
X110650000Y-114192500D03*
%TO.P,D21,2,A*%
%TO.N,Net-(D21-A)*%
X107100000Y-114192500D03*
%TD*%
%TO.P,D10,1,K*%
%TO.N,Row2*%
X148750000Y-81807500D03*
%TO.P,D10,2,A*%
%TO.N,Net-(D10-A)*%
X145200000Y-81807500D03*
%TD*%
%TO.P,D14,1,K*%
%TO.N,Row3*%
X110650000Y-95142500D03*
%TO.P,D14,2,A*%
%TO.N,Net-(D14-A)*%
X107100000Y-95142500D03*
%TD*%
%TO.P,D23,1,K*%
%TO.N,Row4*%
X129700000Y-117050000D03*
%TO.P,D23,2,A*%
%TO.N,Net-(D23-A)*%
X126150000Y-117050000D03*
%TD*%
%TO.P,D1,1,K*%
%TO.N,Row1*%
X110650000Y-57042500D03*
%TO.P,D1,2,A*%
%TO.N,Net-(D1-A)*%
X107100000Y-57042500D03*
%TD*%
%TO.P,D6,1,K*%
%TO.N,Row1*%
X53500000Y-72282500D03*
%TO.P,D6,2,A*%
%TO.N,Net-(D6-A)*%
X49950000Y-72282500D03*
%TD*%
%TO.P,D17,1,K*%
%TO.N,Row3*%
X148750000Y-100857500D03*
%TO.P,D17,2,A*%
%TO.N,Net-(D17-A)*%
X145200000Y-100857500D03*
%TD*%
%TO.P,D28,1,K*%
%TO.N,Row5*%
X110700000Y-136100000D03*
%TO.P,D28,2,A*%
%TO.N,Net-(D28-A)*%
X107150000Y-136100000D03*
%TD*%
%TO.P,D26,1,K*%
%TO.N,Row4*%
X72550000Y-124670000D03*
%TO.P,D26,2,A*%
%TO.N,Net-(D26-A)*%
X69000000Y-124670000D03*
%TD*%
%TO.P,D11,1,K*%
%TO.N,Row2*%
X167800000Y-81807500D03*
%TO.P,D11,2,A*%
%TO.N,Net-(D11-A)*%
X164250000Y-81807500D03*
%TD*%
D20*
%TO.P,D32,1,K*%
%TO.N,Row5*%
X163074390Y-148775000D03*
%TO.P,D32,2,A*%
%TO.N,Net-(D32-A)*%
X160000000Y-147000000D03*
%TD*%
D17*
%TO.P,D16,1,K*%
%TO.N,Row3*%
X129700000Y-98000000D03*
%TO.P,D16,2,A*%
%TO.N,Net-(D16-A)*%
X126150000Y-98000000D03*
%TD*%
%TO.P,D30,1,K*%
%TO.N,Row5*%
X91650000Y-138957500D03*
%TO.P,D30,2,A*%
%TO.N,Net-(D30-A)*%
X88100000Y-138957500D03*
%TD*%
%TO.P,D13,1,K*%
%TO.N,Row2*%
X53500000Y-91332500D03*
%TO.P,D13,2,A*%
%TO.N,Net-(D13-A)*%
X49950000Y-91332500D03*
%TD*%
D21*
%TO.P,D31,1,K*%
%TO.N,Row5*%
X148714518Y-141959404D03*
%TO.P,D31,2,A*%
%TO.N,Net-(D31-A)*%
X145285482Y-141040596D03*
%TD*%
D17*
%TO.P,D7,1,K*%
%TO.N,Row2*%
X110650000Y-76092500D03*
%TO.P,D7,2,A*%
%TO.N,Net-(D7-A)*%
X107100000Y-76092500D03*
%TD*%
%TO.P,D3,1,K*%
%TO.N,Row1*%
X129700000Y-59900000D03*
%TO.P,D3,2,A*%
%TO.N,Net-(D3-A)*%
X126150000Y-59900000D03*
%TD*%
D22*
%TO.P,H3,1*%
%TO.N,unconnected-(H3-Pad1)*%
X170000000Y-125300000D03*
%TD*%
D23*
%TO.P,SW31,1,1*%
%TO.N,Net-(D31-A)*%
X147256332Y-137581010D03*
D24*
%TO.P,SW31,2,2*%
%TO.N,Col4*%
X136669290Y-132466613D03*
%TD*%
D19*
%TO.P,SW4,1,1*%
%TO.N,Net-(D4-A)*%
X146445000Y-58707500D03*
D18*
%TO.P,SW4,2,2*%
%TO.N,Col4*%
X134895000Y-56507500D03*
%TD*%
D19*
%TO.P,SW29,1,1*%
%TO.N,Net-(D29-A)*%
X127395000Y-132050000D03*
D18*
%TO.P,SW29,2,2*%
%TO.N,Col3*%
X115845000Y-129850000D03*
%TD*%
D19*
%TO.P,SW13,1,1*%
%TO.N,Net-(D13-A)*%
X51195000Y-87282500D03*
D18*
%TO.P,SW13,2,2*%
%TO.N,Col7*%
X39645000Y-85082500D03*
%TD*%
D19*
%TO.P,SW25,1,1*%
%TO.N,Net-(D25-A)*%
X165495000Y-115857500D03*
D18*
%TO.P,SW25,2,2*%
%TO.N,Col5*%
X153945000Y-113657500D03*
%TD*%
D19*
%TO.P,SW26,1,1*%
%TO.N,Net-(D26-A)*%
X70245000Y-120620000D03*
D18*
%TO.P,SW26,2,2*%
%TO.N,Col6*%
X58695000Y-118420000D03*
%TD*%
D19*
%TO.P,SW28,1,1*%
%TO.N,Net-(D28-A)*%
X108345000Y-132050000D03*
D18*
%TO.P,SW28,2,2*%
%TO.N,Col1*%
X96795000Y-129850000D03*
%TD*%
D19*
%TO.P,SW30,1,1*%
%TO.N,Net-(D30-A)*%
X89295000Y-134907500D03*
D18*
%TO.P,SW30,2,2*%
%TO.N,Col2*%
X77745000Y-132707500D03*
%TD*%
D22*
%TO.P,H5,1*%
%TO.N,GND*%
X82100000Y-28300000D03*
%TD*%
D25*
%TO.P,SW32,1,1*%
%TO.N,Net-(D32-A)*%
X165772784Y-145204465D03*
D26*
%TO.P,SW32,2,2*%
%TO.N,Col5*%
X156870191Y-137524209D03*
%TD*%
D19*
%TO.P,SW16,1,1*%
%TO.N,Net-(D16-A)*%
X127395000Y-93950000D03*
D18*
%TO.P,SW16,2,2*%
%TO.N,Col3*%
X115845000Y-91750000D03*
%TD*%
D19*
%TO.P,SW14,1,1*%
%TO.N,Net-(D14-A)*%
X108345000Y-91092500D03*
D18*
%TO.P,SW14,2,2*%
%TO.N,Col1*%
X96795000Y-88892500D03*
%TD*%
D19*
%TO.P,SW9,1,1*%
%TO.N,Net-(D9-A)*%
X127395000Y-74900000D03*
D18*
%TO.P,SW9,2,2*%
%TO.N,Col3*%
X115845000Y-72700000D03*
%TD*%
D19*
%TO.P,SW2,1,1*%
%TO.N,Net-(D2-A)*%
X89295000Y-55850000D03*
D18*
%TO.P,SW2,2,2*%
%TO.N,Col2*%
X77745000Y-53650000D03*
%TD*%
D22*
%TO.P,H6,1*%
%TO.N,GND*%
X85200000Y-36400000D03*
%TD*%
D19*
%TO.P,SW19,1,1*%
%TO.N,Net-(D19-A)*%
X70245000Y-101570000D03*
D18*
%TO.P,SW19,2,2*%
%TO.N,Col6*%
X58695000Y-99370000D03*
%TD*%
D19*
%TO.P,SW20,1,1*%
%TO.N,Net-(D20-A)*%
X51195000Y-106332500D03*
D18*
%TO.P,SW20,2,2*%
%TO.N,Col7*%
X39645000Y-104132500D03*
%TD*%
D19*
%TO.P,SW18,1,1*%
%TO.N,Net-(D18-A)*%
X165495000Y-96807500D03*
D18*
%TO.P,SW18,2,2*%
%TO.N,Col5*%
X153945000Y-94607500D03*
%TD*%
D19*
%TO.P,SW17,1,1*%
%TO.N,Net-(D17-A)*%
X146445000Y-96807500D03*
D18*
%TO.P,SW17,2,2*%
%TO.N,Col4*%
X134895000Y-94607500D03*
%TD*%
D19*
%TO.P,SW6,1,1*%
%TO.N,Net-(D6-A)*%
X51195000Y-68232500D03*
D18*
%TO.P,SW6,2,2*%
%TO.N,Col7*%
X39645000Y-66032500D03*
%TD*%
D22*
%TO.P,H1,1*%
%TO.N,GND*%
X41500000Y-50000000D03*
%TD*%
D19*
%TO.P,SW8,1,1*%
%TO.N,Net-(D8-A)*%
X89295000Y-74900000D03*
D18*
%TO.P,SW8,2,2*%
%TO.N,Col2*%
X77745000Y-72700000D03*
%TD*%
D19*
%TO.P,SW11,1,1*%
%TO.N,Net-(D11-A)*%
X165495000Y-77757500D03*
D18*
%TO.P,SW11,2,2*%
%TO.N,Col5*%
X153945000Y-75557500D03*
%TD*%
D19*
%TO.P,SW15,1,1*%
%TO.N,Net-(D15-A)*%
X89295000Y-93950000D03*
D18*
%TO.P,SW15,2,2*%
%TO.N,Col2*%
X77745000Y-91750000D03*
%TD*%
D19*
%TO.P,SW10,1,1*%
%TO.N,Net-(D10-A)*%
X146445000Y-77757500D03*
D18*
%TO.P,SW10,2,2*%
%TO.N,Col4*%
X134895000Y-75557500D03*
%TD*%
D19*
%TO.P,SW12,1,1*%
%TO.N,Net-(D12-A)*%
X70245000Y-82520000D03*
D18*
%TO.P,SW12,2,2*%
%TO.N,Col6*%
X58695000Y-80320000D03*
%TD*%
D19*
%TO.P,SW7,1,1*%
%TO.N,Net-(D7-A)*%
X108345000Y-72042500D03*
D18*
%TO.P,SW7,2,2*%
%TO.N,Col1*%
X96795000Y-69842500D03*
%TD*%
D19*
%TO.P,SW27,1,1*%
%TO.N,Net-(D27-A)*%
X51195000Y-125382500D03*
D18*
%TO.P,SW27,2,2*%
%TO.N,Col7*%
X39645000Y-123182500D03*
%TD*%
D19*
%TO.P,SW22,1,1*%
%TO.N,Net-(D22-A)*%
X89295000Y-113000000D03*
D18*
%TO.P,SW22,2,2*%
%TO.N,Col2*%
X77745000Y-110800000D03*
%TD*%
D19*
%TO.P,SW23,1,1*%
%TO.N,Net-(D23-A)*%
X127395000Y-113000000D03*
D18*
%TO.P,SW23,2,2*%
%TO.N,Col3*%
X115845000Y-110800000D03*
%TD*%
D19*
%TO.P,SW1,1,1*%
%TO.N,Net-(D1-A)*%
X108345000Y-52992500D03*
D18*
%TO.P,SW1,2,2*%
%TO.N,Col1*%
X96795000Y-50792500D03*
%TD*%
D22*
%TO.P,H4,1*%
%TO.N,unconnected-(H4-Pad1)*%
X71500000Y-133000000D03*
%TD*%
%TO.P,H2,1*%
%TO.N,GND*%
X157300000Y-59100000D03*
%TD*%
D19*
%TO.P,SW24,1,1*%
%TO.N,Net-(D24-A)*%
X146445000Y-115857500D03*
D18*
%TO.P,SW24,2,2*%
%TO.N,Col4*%
X134895000Y-113657500D03*
%TD*%
D27*
%TO.P,J3,1*%
%TO.N,Net-(SWI1-A)*%
X100700000Y-36600000D03*
%TO.P,J3,2*%
%TO.N,GND*%
X100700000Y-35400000D03*
D28*
%TO.P,J3,MP*%
%TO.N,N/C*%
X96925000Y-37750000D03*
X96925000Y-34250000D03*
%TD*%
D19*
%TO.P,SW5,1,1*%
%TO.N,Net-(D5-A)*%
X70245000Y-63470000D03*
D18*
%TO.P,SW5,2,2*%
%TO.N,Col6*%
X58695000Y-61270000D03*
%TD*%
D29*
%TO.N,GND*%
X46610000Y-45900000D03*
%TO.N,Col4*%
X64390000Y-44300000D03*
%TO.N,Col3*%
X66930000Y-44300000D03*
%TO.N,Col5*%
X73400000Y-40500000D03*
X76600000Y-41400000D03*
%TO.N,Col1*%
X61850000Y-44300000D03*
%TO.N,Col2*%
X59300000Y-44300000D03*
%TO.N,Col7*%
X45400000Y-60000000D03*
%TO.N,GND*%
X74900000Y-40400000D03*
%TO.N,Row5*%
X69800000Y-34300000D03*
%TO.N,Row4*%
X68800000Y-34314814D03*
%TO.N,Row3*%
X67600000Y-34300000D03*
%TO.N,Row1*%
X51300000Y-30600000D03*
X39440380Y-43640380D03*
X56400000Y-46900000D03*
X57126250Y-69526250D03*
%TO.N,Row2*%
X39200000Y-44800000D03*
X55500000Y-49700000D03*
%TO.N,Net-(SWI1-A)*%
X101700000Y-35400000D03*
%TO.N,GND*%
X98600000Y-36600000D03*
%TO.N,VBAT*%
X102800000Y-39700000D03*
%TO.N,Col1*%
X96795000Y-101500000D03*
X96795000Y-123500000D03*
X96795000Y-82500000D03*
X96795000Y-63500000D03*
X96795000Y-48500000D03*
%TO.N,Col2*%
X77745000Y-104500000D03*
X77745000Y-126500000D03*
X77745000Y-66500000D03*
X77745000Y-47400000D03*
X77745000Y-85500000D03*
%TO.N,Col3*%
X115845000Y-66500000D03*
X115845000Y-123500000D03*
X115845000Y-85500000D03*
X115845000Y-51500000D03*
X115845000Y-104500000D03*
X115845000Y-46000000D03*
%TO.N,Col4*%
X134895000Y-107500000D03*
X134895000Y-50000000D03*
X134895000Y-88000000D03*
X134895000Y-69500000D03*
X136669290Y-126500000D03*
%TO.N,Col5*%
X153945000Y-88000000D03*
X153945000Y-69000000D03*
X156900000Y-128100000D03*
X152250000Y-48750000D03*
X153945000Y-107000000D03*
%TO.N,Col6*%
X58695000Y-112500000D03*
X58695000Y-74000000D03*
X58700000Y-55000000D03*
X58695000Y-93000000D03*
%TO.N,Col7*%
X39645000Y-97942500D03*
X39645000Y-78942500D03*
X39645000Y-117442500D03*
X39645000Y-60000000D03*
%TD*%
D30*
%TO.N,Row3*%
X67600000Y-37100000D02*
X67600000Y-34300000D01*
X75000000Y-103170000D02*
X75000000Y-44500000D01*
X75000000Y-44500000D02*
X67600000Y-37100000D01*
X72550000Y-105620000D02*
X75000000Y-103170000D01*
%TO.N,Row4*%
X68800000Y-37600000D02*
X68800000Y-34314814D01*
X75500000Y-44300000D02*
X68800000Y-37600000D01*
X72550000Y-124670000D02*
X75500000Y-121720000D01*
X75500000Y-121720000D02*
X75500000Y-44300000D01*
%TO.N,Col2*%
X59310000Y-44290000D02*
X59300000Y-44300000D01*
X59310000Y-41120000D02*
X59310000Y-44290000D01*
%TO.N,Col4*%
X64390000Y-41120000D02*
X64390000Y-44300000D01*
%TO.N,Col1*%
X61850000Y-41120000D02*
X61850000Y-44300000D01*
%TO.N,GND*%
X46610000Y-45900000D02*
X46610000Y-41120000D01*
%TO.N,Row2*%
X49910000Y-30200000D02*
X54230000Y-25880000D01*
X46800000Y-30200000D02*
X49910000Y-30200000D01*
X39200000Y-44800000D02*
X37300000Y-42900000D01*
X37300000Y-42900000D02*
X37300000Y-39700000D01*
%TO.N,Row1*%
X37700000Y-41900000D02*
X39440380Y-43640380D01*
X37700000Y-39867100D02*
X37700000Y-41900000D01*
X46967100Y-30600000D02*
X37700000Y-39867100D01*
%TO.N,Row2*%
X37300000Y-39700000D02*
X46800000Y-30200000D01*
%TO.N,Row1*%
X51300000Y-30600000D02*
X46967100Y-30600000D01*
%TO.N,Col7*%
X45400000Y-42450000D02*
X45400000Y-60000000D01*
X44070000Y-41120000D02*
X45400000Y-42450000D01*
%TO.N,Col3*%
X66930000Y-41120000D02*
X66930000Y-44300000D01*
%TO.N,GND*%
X81200000Y-40400000D02*
X74900000Y-40400000D01*
X85200000Y-36400000D02*
X81200000Y-40400000D01*
%TO.N,Row5*%
X69800000Y-37900000D02*
X69800000Y-34300000D01*
X95194000Y-46694000D02*
X91600000Y-43100000D01*
X75000000Y-43100000D02*
X69800000Y-37900000D01*
X95194000Y-135413500D02*
X95194000Y-46694000D01*
X91600000Y-43100000D02*
X75000000Y-43100000D01*
X91650000Y-138957500D02*
X95194000Y-135413500D01*
%TO.N,SCK*%
X75890000Y-34010000D02*
X76875000Y-34010000D01*
X75100000Y-34800000D02*
X75890000Y-34010000D01*
X75100000Y-38400000D02*
X75100000Y-34800000D01*
X74600000Y-38900000D02*
X75100000Y-38400000D01*
X72100000Y-38900000D02*
X74600000Y-38900000D01*
X70500000Y-37300000D02*
X72100000Y-38900000D01*
X70500000Y-36800000D02*
X70500000Y-37300000D01*
X63550000Y-31800000D02*
X70500000Y-31800000D01*
X54230000Y-41120000D02*
X63550000Y-31800000D01*
%TO.N,MOSI*%
X71900000Y-26500000D02*
X73260000Y-26500000D01*
X69367158Y-29032842D02*
X71900000Y-26500000D01*
X73260000Y-26500000D02*
X73300000Y-26460000D01*
X63777158Y-29032842D02*
X69367158Y-29032842D01*
X51690000Y-41120000D02*
X63777158Y-29032842D01*
%TO.N,SCK*%
X76563926Y-34321074D02*
X76875000Y-34010000D01*
X70501000Y-36800414D02*
X70501000Y-33149315D01*
X70500707Y-36800707D02*
X70501000Y-36800414D01*
X70500000Y-36800000D02*
X70500707Y-36800707D01*
X70500000Y-31800000D02*
X70500000Y-36800000D01*
%TO.N,Col5*%
X74300000Y-41400000D02*
X73400000Y-40500000D01*
X76600000Y-41400000D02*
X74300000Y-41400000D01*
%TO.N,Col2*%
X77745000Y-53650000D02*
X77745000Y-47400000D01*
%TO.N,Col6*%
X58700000Y-46200000D02*
X58700000Y-55000000D01*
X56770000Y-44270000D02*
X58700000Y-46200000D01*
X56770000Y-41120000D02*
X56770000Y-44270000D01*
X58695000Y-61270000D02*
X58695000Y-55005000D01*
X58695000Y-55005000D02*
X58700000Y-55000000D01*
%TO.N,Row1*%
X57126250Y-69526250D02*
X56400000Y-68800000D01*
X56400000Y-68800000D02*
X56400000Y-46900000D01*
%TO.N,Row2*%
X55500000Y-49700000D02*
X55500000Y-89332500D01*
%TO.N,SCK*%
X70500000Y-31800000D02*
X71810000Y-30490000D01*
X71810000Y-30490000D02*
X73300000Y-29000000D01*
%TO.N,GND*%
X81470000Y-28930000D02*
X82100000Y-28300000D01*
X76875000Y-28930000D02*
X81470000Y-28930000D01*
%TO.N,VCC*%
X76805000Y-31540000D02*
X76875000Y-31470000D01*
X73300000Y-31540000D02*
X76805000Y-31540000D01*
%TO.N,Col5*%
X153945000Y-125145000D02*
X156900000Y-128100000D01*
X153945000Y-113657500D02*
X153945000Y-125145000D01*
X156870191Y-137524209D02*
X156870191Y-128129809D01*
X156870191Y-128129809D02*
X156900000Y-128100000D01*
%TO.N,VBAT*%
X102800000Y-34300000D02*
X102800000Y-39700000D01*
X99140000Y-30640000D02*
X102800000Y-34300000D01*
X98600000Y-30640000D02*
X99140000Y-30640000D01*
%TO.N,Net-(SWI1-A)*%
X99400000Y-34100000D02*
X101200000Y-34100000D01*
X96600000Y-31300000D02*
X99400000Y-34100000D01*
X101200000Y-34100000D02*
X101700000Y-34600000D01*
X101700000Y-34600000D02*
X101700000Y-35400000D01*
X96600000Y-29200000D02*
X96600000Y-31300000D01*
X97700000Y-28100000D02*
X96600000Y-29200000D01*
X98600000Y-28100000D02*
X97700000Y-28100000D01*
X101700000Y-36300000D02*
X101700000Y-35400000D01*
X101400000Y-36600000D02*
X101700000Y-36300000D01*
X100700000Y-36600000D02*
X101400000Y-36600000D01*
%TO.N,GND*%
X99800000Y-35400000D02*
X100700000Y-35400000D01*
X98600000Y-36600000D02*
X99800000Y-35400000D01*
X156500000Y-57600000D02*
X160704102Y-53395898D01*
X160704102Y-53395898D02*
X160782958Y-53395898D01*
%TO.N,Net-(D19-A)*%
X70245000Y-104375000D02*
X69000000Y-105620000D01*
X70245000Y-101570000D02*
X70245000Y-104375000D01*
%TO.N,Net-(D15-A)*%
X89295000Y-96755000D02*
X88050000Y-98000000D01*
X89295000Y-93950000D02*
X89295000Y-96755000D01*
%TO.N,Net-(D14-A)*%
X107100000Y-92745000D02*
X107100000Y-95142500D01*
X108345000Y-91500000D02*
X107100000Y-92745000D01*
X108345000Y-91092500D02*
X108345000Y-91500000D01*
%TO.N,Net-(D16-A)*%
X127395000Y-96755000D02*
X126150000Y-98000000D01*
X127395000Y-93950000D02*
X127395000Y-96755000D01*
%TO.N,Net-(D17-A)*%
X146445000Y-99612500D02*
X145200000Y-100857500D01*
X146445000Y-96807500D02*
X146445000Y-99612500D01*
%TO.N,Net-(D18-A)*%
X165495000Y-96807500D02*
X165495000Y-99612500D01*
X165495000Y-99612500D02*
X164250000Y-100857500D01*
%TO.N,Net-(D23-A)*%
X127395000Y-115805000D02*
X126150000Y-117050000D01*
X127395000Y-113000000D02*
X127395000Y-115805000D01*
%TO.N,Net-(D24-A)*%
X146445000Y-118662500D02*
X145200000Y-119907500D01*
X146445000Y-115857500D02*
X146445000Y-118662500D01*
%TO.N,Net-(D25-A)*%
X165495000Y-118662500D02*
X164250000Y-119907500D01*
X165495000Y-115857500D02*
X165495000Y-118662500D01*
%TO.N,Net-(D32-A)*%
X164977249Y-146000000D02*
X165772784Y-145204465D01*
X160000000Y-147000000D02*
X161000000Y-146000000D01*
X161000000Y-146000000D02*
X164977249Y-146000000D01*
%TO.N,Net-(D31-A)*%
X145285482Y-139551860D02*
X145285482Y-141040596D01*
X147256332Y-137581010D02*
X145285482Y-139551860D01*
%TO.N,Net-(D29-A)*%
X127395000Y-132050000D02*
X127395000Y-134905000D01*
X127395000Y-134905000D02*
X126200000Y-136100000D01*
%TO.N,Net-(D30-A)*%
X89295000Y-137762500D02*
X88100000Y-138957500D01*
X89295000Y-134907500D02*
X89295000Y-137762500D01*
%TO.N,Net-(D28-A)*%
X107150000Y-133695000D02*
X107150000Y-136100000D01*
X108345000Y-132500000D02*
X107150000Y-133695000D01*
X108345000Y-132050000D02*
X108345000Y-132500000D01*
%TO.N,Net-(D21-A)*%
X108345000Y-112947500D02*
X107100000Y-114192500D01*
X108345000Y-110142500D02*
X108345000Y-112947500D01*
%TO.N,Net-(D22-A)*%
X89295000Y-115805000D02*
X88050000Y-117050000D01*
X89295000Y-113000000D02*
X89295000Y-115805000D01*
%TO.N,Net-(D26-A)*%
X70245000Y-123425000D02*
X69000000Y-124670000D01*
X70245000Y-120620000D02*
X70245000Y-123425000D01*
%TO.N,Net-(D27-A)*%
X51195000Y-128437500D02*
X50200000Y-129432500D01*
X51195000Y-125382500D02*
X51195000Y-128437500D01*
%TO.N,Net-(D20-A)*%
X51195000Y-109137500D02*
X49950000Y-110382500D01*
X51195000Y-106332500D02*
X51195000Y-109137500D01*
%TO.N,Net-(D12-A)*%
X70245000Y-85325000D02*
X69000000Y-86570000D01*
X70245000Y-82520000D02*
X70245000Y-85325000D01*
%TO.N,Net-(D8-A)*%
X89295000Y-77705000D02*
X88050000Y-78950000D01*
X89295000Y-74900000D02*
X89295000Y-77705000D01*
%TO.N,Net-(D7-A)*%
X107100000Y-73745000D02*
X107100000Y-76092500D01*
X108345000Y-72500000D02*
X107100000Y-73745000D01*
X108345000Y-72042500D02*
X108345000Y-72500000D01*
%TO.N,Net-(D9-A)*%
X127395000Y-77705000D02*
X126150000Y-78950000D01*
X127395000Y-74900000D02*
X127395000Y-77705000D01*
%TO.N,Net-(D10-A)*%
X146445000Y-80562500D02*
X145200000Y-81807500D01*
X146445000Y-77757500D02*
X146445000Y-80562500D01*
%TO.N,Net-(D11-A)*%
X165495000Y-80562500D02*
X164250000Y-81807500D01*
X165495000Y-77757500D02*
X165495000Y-80562500D01*
%TO.N,Row2*%
X55500000Y-89332500D02*
X53500000Y-91332500D01*
%TO.N,Net-(D13-A)*%
X51195000Y-90087500D02*
X49950000Y-91332500D01*
X51195000Y-87282500D02*
X51195000Y-90087500D01*
%TO.N,Net-(D4-A)*%
X146445000Y-61512500D02*
X145200000Y-62757500D01*
X146445000Y-58707500D02*
X146445000Y-61512500D01*
%TO.N,Net-(D3-A)*%
X127395000Y-58655000D02*
X126150000Y-59900000D01*
X127395000Y-55850000D02*
X127395000Y-58655000D01*
%TO.N,Net-(D1-A)*%
X107100000Y-54245000D02*
X107100000Y-57042500D01*
X108345000Y-53000000D02*
X107100000Y-54245000D01*
X108345000Y-52992500D02*
X108345000Y-53000000D01*
%TO.N,Net-(D2-A)*%
X89295000Y-55850000D02*
X89295000Y-58655000D01*
X89295000Y-58655000D02*
X88050000Y-59900000D01*
%TO.N,Row1*%
X53717500Y-72282500D02*
X55000000Y-71000000D01*
X53500000Y-72282500D02*
X53717500Y-72282500D01*
%TO.N,Net-(D6-A)*%
X51195000Y-71037500D02*
X49950000Y-72282500D01*
X51195000Y-68232500D02*
X51195000Y-71037500D01*
%TO.N,Net-(D5-A)*%
X70245000Y-65275000D02*
X69000000Y-66520000D01*
X70245000Y-63470000D02*
X70245000Y-65275000D01*
X69000000Y-66520000D02*
X69000000Y-67520000D01*
%TO.N,VBAT*%
X98700000Y-30400000D02*
X98620000Y-30480000D01*
X98700000Y-30400000D02*
X98700000Y-30700000D01*
%TO.N,Col1*%
X96795000Y-50792500D02*
X96795000Y-63500000D01*
X96795000Y-48500000D02*
X96795000Y-50792500D01*
X96795000Y-123500000D02*
X96795000Y-129850000D01*
X96795000Y-101500000D02*
X96795000Y-123500000D01*
X96795000Y-63500000D02*
X96795000Y-82500000D01*
X96795000Y-82500000D02*
X96795000Y-101500000D01*
%TO.N,Col2*%
X77745000Y-53650000D02*
X77745000Y-66500000D01*
X77745000Y-66500000D02*
X77745000Y-85500000D01*
X77745000Y-85500000D02*
X77745000Y-104500000D01*
X77745000Y-126500000D02*
X77745000Y-132707500D01*
X77745000Y-104500000D02*
X77745000Y-126500000D01*
%TO.N,Col3*%
X115845000Y-46000000D02*
X115845000Y-51500000D01*
X115845000Y-85500000D02*
X115845000Y-104500000D01*
X115845000Y-104500000D02*
X115845000Y-123500000D01*
X115845000Y-53650000D02*
X115845000Y-66500000D01*
X115845000Y-53650000D02*
X115845000Y-51500000D01*
X115845000Y-66500000D02*
X115845000Y-85500000D01*
X115845000Y-123500000D02*
X115845000Y-129850000D01*
%TO.N,Col4*%
X136669290Y-126500000D02*
X136669290Y-132466613D01*
X136669290Y-119791790D02*
X136669290Y-126500000D01*
X134895000Y-69500000D02*
X134895000Y-88000000D01*
X134895000Y-88000000D02*
X134895000Y-107500000D01*
X134895000Y-56507500D02*
X134895000Y-50000000D01*
X134895000Y-118017500D02*
X136669290Y-119791790D01*
X134895000Y-113657500D02*
X134895000Y-118017500D01*
X134895000Y-56507500D02*
X134895000Y-69500000D01*
X134895000Y-107500000D02*
X134895000Y-113657500D01*
%TO.N,Col5*%
X153945000Y-75557500D02*
X153945000Y-69000000D01*
X153945000Y-75557500D02*
X153945000Y-88000000D01*
X153945000Y-69000000D02*
X152250000Y-67305000D01*
X153945000Y-88000000D02*
X153945000Y-107000000D01*
X152250000Y-67305000D02*
X152250000Y-48750000D01*
X153945000Y-107000000D02*
X153945000Y-113657500D01*
%TO.N,Col6*%
X58695000Y-61270000D02*
X58695000Y-74000000D01*
X58695000Y-74000000D02*
X58695000Y-80320000D01*
X58695000Y-80320000D02*
X58695000Y-93000000D01*
X58695000Y-93000000D02*
X58695000Y-112500000D01*
X58695000Y-112500000D02*
X58695000Y-118420000D01*
%TO.N,Col7*%
X39645000Y-85082500D02*
X39645000Y-97942500D01*
X39645000Y-104132500D02*
X39645000Y-117442500D01*
X39645000Y-97942500D02*
X39645000Y-104132500D01*
X39645000Y-60000000D02*
X39645000Y-66032500D01*
X39645000Y-66032500D02*
X39645000Y-78942500D01*
X39645000Y-78942500D02*
X39645000Y-85082500D01*
X39645000Y-117442500D02*
X39645000Y-123182500D01*
%TO.N,unconnected-(U1-B--Pad0)*%
X39468514Y-41531486D02*
X39500000Y-41500000D01*
%TD*%
M02*
