%TF.GenerationSoftware,KiCad,Pcbnew,9.0.2+dfsg-1*%
%TF.CreationDate,2025-11-16T22:48:57+01:00*%
%TF.ProjectId,LuMo_top,4c754d6f-5f74-46f7-902e-6b696361645f,rev?*%
%TF.SameCoordinates,Original*%
%TF.FileFunction,Legend,Top*%
%TF.FilePolarity,Positive*%
%FSLAX46Y46*%
G04 Gerber Fmt 4.6, Leading zero omitted, Abs format (unit mm)*
G04 Created by KiCad (PCBNEW 9.0.2+dfsg-1) date 2025-11-16 22:48:57*
%MOMM*%
%LPD*%
G01*
G04 APERTURE LIST*
%ADD10C,0.300000*%
G04 APERTURE END LIST*
D10*
X58340225Y-134617257D02*
X56911653Y-134617257D01*
X56911653Y-134617257D02*
X56911653Y-131617257D01*
X60625939Y-132617257D02*
X60625939Y-134617257D01*
X59340224Y-132617257D02*
X59340224Y-134188685D01*
X59340224Y-134188685D02*
X59483081Y-134474400D01*
X59483081Y-134474400D02*
X59768796Y-134617257D01*
X59768796Y-134617257D02*
X60197367Y-134617257D01*
X60197367Y-134617257D02*
X60483081Y-134474400D01*
X60483081Y-134474400D02*
X60625939Y-134331542D01*
X62054510Y-134617257D02*
X62054510Y-131617257D01*
X62054510Y-131617257D02*
X63054510Y-133760114D01*
X63054510Y-133760114D02*
X64054510Y-131617257D01*
X64054510Y-131617257D02*
X64054510Y-134617257D01*
X65911653Y-134617257D02*
X65625938Y-134474400D01*
X65625938Y-134474400D02*
X65483081Y-134331542D01*
X65483081Y-134331542D02*
X65340224Y-134045828D01*
X65340224Y-134045828D02*
X65340224Y-133188685D01*
X65340224Y-133188685D02*
X65483081Y-132902971D01*
X65483081Y-132902971D02*
X65625938Y-132760114D01*
X65625938Y-132760114D02*
X65911653Y-132617257D01*
X65911653Y-132617257D02*
X66340224Y-132617257D01*
X66340224Y-132617257D02*
X66625938Y-132760114D01*
X66625938Y-132760114D02*
X66768796Y-132902971D01*
X66768796Y-132902971D02*
X66911653Y-133188685D01*
X66911653Y-133188685D02*
X66911653Y-134045828D01*
X66911653Y-134045828D02*
X66768796Y-134331542D01*
X66768796Y-134331542D02*
X66625938Y-134474400D01*
X66625938Y-134474400D02*
X66340224Y-134617257D01*
X66340224Y-134617257D02*
X65911653Y-134617257D01*
M02*
